<?xml version="1.0" encoding="utf-8"?>
<!-- Generator: Adobe Illustrator 13.0.1, SVG Export Plug-In  -->
<!DOCTYPE svg PUBLIC "-//W3C//DTD SVG 1.1//EN" "http://www.w3.org/Graphics/SVG/1.1/DTD/svg11.dtd" [
	<!ENTITY ns_flows "http://ns.adobe.com/Flows/1.0/">
]>
<svg version="1.1"
	 xmlns="http://www.w3.org/2000/svg" xmlns:xlink="http://www.w3.org/1999/xlink" xmlns:a="http://ns.adobe.com/AdobeSVGViewerExtensions/3.0/"
	 x="0px" y="0px" width="17px" height="17px" viewBox="-0.354 -0.908 17 17" enable-background="new -0.354 -0.908 17 17"
	 xml:space="preserve">
<defs>
</defs>
<linearGradient id="SVGID_1_" gradientUnits="userSpaceOnUse" x1="0.646" y1="7.9839" x2="18.6455" y2="7.9839">
	<stop  offset="0" style="stop-color:#243446"/>
	<stop  offset="1" style="stop-color:#506167"/>
</linearGradient>
<circle fill="url(#SVGID_1_)" stroke="#919B9E" cx="7.984" cy="7.983" r="7.484"/>
<path fill="#EDF1F2" d="M5.11,4.067v7.95H4.018V6.368h-1.83V5.574c0.506-0.011,1.795-0.046,2.083-1.507H5.11z"/>
<path fill="#EDF1F2" d="M10.596,12.098c-0.656,0-1.634-0.149-2.313-1.254c-0.506-0.84-0.586-1.921-0.586-2.784
	c0-0.518,0.023-1.013,0.115-1.495c0.356-1.956,1.588-2.681,2.864-2.681c0.449,0,0.897,0.092,1.289,0.287
	c1.173,0.633,1.553,2.036,1.553,3.739C13.518,8.67,13.518,12.098,10.596,12.098z M12.401,7.864c0-0.852-0.046-3.095-1.76-3.095
	c-0.311,0-0.621,0.092-0.863,0.253C9.019,5.54,8.812,6.69,8.812,8.025c0,0.84,0.047,3.164,1.807,3.164
	C12.24,11.189,12.401,9.245,12.401,7.864z"/>
</svg>
