<?xml version="1.0" encoding="utf-8"?>
<!-- Generator: Adobe Illustrator 13.0.1, SVG Export Plug-In  -->
<!DOCTYPE svg PUBLIC "-//W3C//DTD SVG 1.1//EN" "http://www.w3.org/Graphics/SVG/1.1/DTD/svg11.dtd" [
	<!ENTITY ns_flows "http://ns.adobe.com/Flows/1.0/">
]>
<svg version="1.1"
	 xmlns="http://www.w3.org/2000/svg" xmlns:xlink="http://www.w3.org/1999/xlink" xmlns:a="http://ns.adobe.com/AdobeSVGViewerExtensions/3.0/"
	 x="0px" y="0px" width="17px" height="16px" viewBox="-0.232 -0.008 17 16" enable-background="new -0.232 -0.008 17 16"
	 xml:space="preserve">
<defs>
</defs>
<linearGradient id="SVGID_1_" gradientUnits="userSpaceOnUse" x1="0.7681" y1="7.9839" x2="18.7676" y2="7.9839">
	<stop  offset="0" style="stop-color:#243446"/>
	<stop  offset="1" style="stop-color:#506167"/>
</linearGradient>
<circle fill="url(#SVGID_1_)" stroke="#919B9E" cx="7.985" cy="7.984" r="7.485"/>
<path fill="#EDF1F2" d="M7.38,7.621C7.818,7.633,8.462,7.656,8.854,7.46c0.241-0.126,0.621-0.426,0.621-1.047
	c0-0.828-0.645-1.22-1.404-1.22c-0.563,0-0.931,0.196-1.139,0.38C6.495,5.964,6.437,6.574,6.414,6.85L5.355,6.781
	c0.069-0.805,0.322-1.496,0.944-2.002c0.333-0.265,0.909-0.552,1.794-0.552c1.737,0,2.485,1.093,2.485,2.128
	c0,0.483-0.173,0.943-0.46,1.254C9.865,7.874,9.59,8.001,9.429,8.07c1.035,0.264,1.438,1.173,1.438,1.909s-0.356,1.438-0.909,1.853
	c-0.321,0.265-0.954,0.587-2.001,0.587c-0.438,0-1.243-0.046-1.921-0.563c-0.909-0.68-0.978-1.68-1.001-2.152l1.082-0.092
	c0,0.173,0.011,0.483,0.161,0.852c0.415,0.989,1.3,1.013,1.646,1.013c1.795,0,1.828-1.347,1.828-1.53c0-0.23-0.045-0.461-0.16-0.668
	C9.21,8.61,8.404,8.576,7.898,8.576c-0.069,0-0.219,0-0.518,0.012V7.621z"/>
</svg>
