<?xml version="1.0" encoding="utf-8"?>
<!-- Generator: Adobe Illustrator 13.0.1, SVG Export Plug-In  -->
<!DOCTYPE svg PUBLIC "-//W3C//DTD SVG 1.1//EN" "http://www.w3.org/Graphics/SVG/1.1/DTD/svg11.dtd" [
	<!ENTITY ns_flows "http://ns.adobe.com/Flows/1.0/">
]>
<svg version="1.1"
	 xmlns="http://www.w3.org/2000/svg" xmlns:xlink="http://www.w3.org/1999/xlink" xmlns:a="http://ns.adobe.com/AdobeSVGViewerExtensions/3.0/"
	 x="0px" y="0px" width="17px" height="17px" viewBox="-0.232 -0.107 17 17" enable-background="new -0.232 -0.107 17 17"
	 xml:space="preserve">
<defs>
</defs>
<linearGradient id="SVGID_1_" gradientUnits="userSpaceOnUse" x1="0.7681" y1="7.9844" x2="18.7676" y2="7.9844">
	<stop  offset="0" style="stop-color:#243446"/>
	<stop  offset="1" style="stop-color:#506167"/>
</linearGradient>
<circle fill="url(#SVGID_1_)" stroke="#919B9E" cx="7.985" cy="7.984" r="7.485"/>
<path fill="#EDF1F2" d="M9.82,6.437C9.809,6.275,9.797,6.091,9.67,5.838c-0.391-0.759-1.115-0.759-1.3-0.759
	c-0.472,0-1.093,0.115-1.53,0.943C6.437,6.77,6.403,7.553,6.368,8.174C6.483,7.99,6.61,7.76,6.966,7.506
	C7.507,7.115,8.07,7.035,8.474,7.035c1.461,0,2.543,1.059,2.543,2.68c0,1.52-1.036,2.658-2.704,2.658
	c-1.254,0-2.094-0.598-2.554-1.61C5.586,10.371,5.333,9.67,5.333,8.323c0-1.3,0.276-2.658,1.266-3.509
	C7.22,4.273,7.887,4.17,8.393,4.17c1.496,0,2.336,0.943,2.463,2.198L9.82,6.437z M8.336,7.99c-0.909,0-1.692,0.655-1.692,1.691
	c0,0.816,0.495,1.76,1.68,1.76c0.955,0,1.622-0.702,1.622-1.727C9.946,8.635,9.244,7.99,8.336,7.99z"/>
</svg>
