<?xml version="1.0" encoding="utf-8"?>
<!-- Generator: Adobe Illustrator 15.0.2, SVG Export Plug-In . SVG Version: 6.00 Build 0)  -->
<!DOCTYPE svg PUBLIC "-//W3C//DTD SVG 1.1//EN" "http://www.w3.org/Graphics/SVG/1.1/DTD/svg11.dtd">
<svg version="1.1" id="Layer_1" xmlns="http://www.w3.org/2000/svg" xmlns:xlink="http://www.w3.org/1999/xlink" x="0px" y="0px"
	 width="400px" height="400px" viewBox="0 0 400 400" enable-background="new 0 0 400 400" xml:space="preserve">
<g>
	
		<linearGradient id="SVGID_1_" gradientUnits="userSpaceOnUse" x1="235.0928" y1="-79.4072" x2="368.0312" y2="-79.4072" gradientTransform="matrix(1 0 0 -1 -96 195)">
		<stop  offset="0" style="stop-color:#F3D99F"/>
		<stop  offset="0.459" style="stop-color:#FAF8ED"/>
		<stop  offset="0.9836" style="stop-color:#E3A835"/>
	</linearGradient>
	<path fill="url(#SVGID_1_)" stroke="#AB710A" stroke-width="1.2013" stroke-linejoin="round" stroke-miterlimit="10" d="
		M272.025,221.045c-0.176-0.008-0.4-0.021-0.596-0.029c-0.037,0.732-0.174,1.461-0.386,2.166c-0.063,0.215-0.14,0.424-0.216,0.633
		c-0.064,0.183-0.139,0.36-0.217,0.537c0.022,0.047,0.002,0.002-0.096,0.209c-0.098,0.211-0.203,0.42-0.312,0.625
		c-0.251,0.463-0.529,0.914-0.832,1.342c-0.505,0.719-1.075,1.392-1.684,2.021c-0.772,0.805-1.608,1.553-2.494,2.233
		c-0.473,0.362-0.949,0.72-1.439,1.06c-0.352,0.244-0.709,0.482-1.068,0.715c-0.324,0.207-0.395,0.248-0.645,0.401
		c-0.387,0.235-0.777,0.464-1.172,0.688c-0.572,0.326-1.151,0.643-1.735,0.943c-1.3,0.674-2.634,1.286-3.981,1.857
		c-2.719,1.148-5.508,2.109-8.334,2.957c-4.573,1.371-9.242,2.381-13.946,3.193c-12.861,2.219-26.09,2.678-39.099,1.809
		c-12.298-0.819-24.897-2.781-36.396-7.383c-4.018-1.607-7.937-3.551-11.379-6.191c-1.338-1.027-2.588-2.188-3.646-3.503
		c-0.539-0.673-1.026-1.386-1.434-2.144c-0.216-0.402-0.41-0.816-0.578-1.242c-0.108-0.275-0.135-0.933-0.532-0.678
		c0.058-0.049,0.137-0.104,0.204-0.148c0.079-0.055-0.098-0.534-0.122-0.645c-0.106-0.479-0.177-0.97-0.203-1.459
		c-0.699,0.036-0.603-0.021-0.571,0.576c0.036,0.648,0.07,1.299,0.105,1.949c0.13,2.438,0.262,4.876,0.393,7.312
		c0.398,7.426,2.526,65.11,2.629,67.02c0.153,2.859,0.823,5.536,2.286,8.04c1.826,3.124,4.449,5.607,7.279,7.815
		c1.487,1.16,3.101,2.175,4.73,3.116c0.844,0.49,1.707,0.941,2.568,1.398c0.368,0.196,0.75,0.371,1.125,0.555
		c0.288,0.144,0.295,0.146,0.602,0.29c0.434,0.205,0.869,0.41,1.31,0.599c0.556,0.241,1.109,0.487,1.672,0.718
		c1.211,0.495,2.433,0.959,3.662,1.406c2.479,0.897,5.013,1.624,7.557,2.308c0.097,0.025,0.097,0.025,0.46,0.119
		c0.388,0.098,0.775,0.193,1.163,0.289c0.495,0.118,0.991,0.231,1.488,0.346c0.902,0.208,1.809,0.394,2.717,0.579
		c2.568,0.522,5.161,0.938,7.761,1.276c4.517,0.587,9.062,0.928,13.615,1.035c9.443,0.228,18.91-0.501,28.181-2.343
		c9.291-1.849,18.74-4.878,26.695-10.129c5.561-3.671,11.321-9.269,11.704-16.369c0.22-4.076,2.596-66.386,2.953-73.011
		c0.086-1.608,0.082-3.254,0.26-4.856c-0.1-0.006-0.197-0.012-0.297-0.017C271.826,221.041,271.953,221.044,272.025,221.045
		L272.025,221.045z"/>
	<g>
		
			<radialGradient id="SVGID_2_" cx="227.0781" cy="-1.4951" r="113.4384" gradientTransform="matrix(1 0 0 -1 -96 195)" gradientUnits="userSpaceOnUse">
			<stop  offset="0" style="stop-color:#FAF8ED"/>
			<stop  offset="0.9836" style="stop-color:#E3A835"/>
		</radialGradient>
		<path fill="url(#SVGID_2_)" stroke="#AB710A" stroke-width="1.2013" stroke-linejoin="round" stroke-miterlimit="10" d="
			M205.559,195.945c8.189,0,16.043,0.558,23.282,1.571c7.312,1.024,14.066,2.525,19.938,4.407
			c5.982,1.918,11.097,4.245,14.967,6.892c3.967,2.709,6.65,5.767,7.611,9.064c0.99,3.4,0.062,6.738-2.534,9.861
			c-2.667,3.207-7.079,6.172-12.935,8.723c-5.98,2.602-13.418,4.751-21.931,6.262c-8.615,1.522-18.237,2.375-28.399,2.375
			c-10.165,0-19.786-0.853-28.4-2.375c-8.511-1.511-15.948-3.66-21.928-6.262c-5.855-2.551-10.27-5.516-12.937-8.723
			c-2.595-3.123-3.522-6.461-2.533-9.861c0.96-3.299,3.645-6.355,7.611-9.064c3.869-2.646,8.984-4.974,14.966-6.892
			c5.874-1.882,12.627-3.382,19.939-4.407C189.517,196.503,197.369,195.945,205.559,195.945z"/>
	</g>
</g>
<linearGradient id="SVGID_3_" gradientUnits="userSpaceOnUse" x1="205.5615" y1="134.5928" x2="205.5615" y2="253.6306">
	<stop  offset="0" style="stop-color:#86BF40"/>
	<stop  offset="1" style="stop-color:#000000"/>
</linearGradient>
<polygon fill="url(#SVGID_3_)" points="223.498,169.696 223.498,113.482 187.625,113.482 187.625,169.696 159.627,169.696 
	205.562,215.631 251.496,169.696 "/>
<polygon fill="#94AEBD" points="243.365,87.928 168.416,87.928 139.927,139.646 271.197,139.646 "/>
<rect x="187.626" y="35.08" fill="#86BF40" width="35.872" height="78.404"/>
<path fill="#424242" d="M281.246,48.863c0,1.99-1.615,3.604-3.604,3.604H133.482c-1.991,0-3.604-1.614-3.604-3.604V9.22
	c0-1.991,1.613-3.604,3.604-3.604h144.161c1.987,0,3.604,1.614,3.604,3.604V48.863z"/>
<text transform="matrix(1 0 0 1 164.5 259)" font-family="'Frutiger-BoldCn'" font-size="11">CUSTOMER (</text>
<text transform="matrix(1 0 0 1 164.5 270)" font-family="'Frutiger-BoldCn'" font-size="11">ID BIGINT,</text>
<text transform="matrix(1 0 0 1 164.5 281)" font-family="'Frutiger-BoldCn'" font-size="11">NAME VARCHAR,</text>
<text transform="matrix(1 0 0 1 164.5 292)" font-family="'Frutiger-BoldCn'" font-size="11">...</text>
<text transform="matrix(1 0 0 1 164.5 303)" font-family="'Frutiger-BoldCn'" font-size="11">TENANT_ID VARCHAR</text>
<text transform="matrix(1 0 0 1 164.5 314)" font-family="'Frutiger-BoldCn'" font-size="11">)</text>
<text transform="matrix(1 0 0 1 147.9751 38.0801)" fill="#FFFFFF" font-family="'Frutiger-BoldCn'" font-size="24">Application</text>
<linearGradient id="SVGID_4_" gradientUnits="userSpaceOnUse" x1="205.5605" y1="99.2612" x2="205.5605" y2="185.5127">
	<stop  offset="0" style="stop-color:#86BF40"/>
	<stop  offset="1" style="stop-color:#000000"/>
</linearGradient>
<rect x="187.625" y="110.511" fill="url(#SVGID_4_)" width="35.871" height="29.135"/>
</svg>
