<?xml version="1.0" encoding="utf-8"?>
<!-- Generator: Adobe Illustrator 12.0.1, SVG Export Plug-In . SVG Version: 6.00 Build 51448)  -->
<!DOCTYPE svg PUBLIC "-//W3C//DTD SVG 1.1//EN" "http://www.w3.org/Graphics/SVG/1.1/DTD/svg11.dtd" [
	<!ENTITY ns_svg "http://www.w3.org/2000/svg">
	<!ENTITY ns_xlink "http://www.w3.org/1999/xlink">
]>
<svg  version="1.1" id="Layer_1" xmlns="&ns_svg;" xmlns:xlink="&ns_xlink;" width="48" height="48" viewBox="0 0 48 48"
	 overflow="visible" enable-background="new 0 0 48 48" xml:space="preserve">
<linearGradient id="XMLID_3_" gradientUnits="userSpaceOnUse" x1="35.7529" y1="33.8691" x2="13.3137" y2="11.4299">
	<stop  offset="0.0169" style="stop-color:#4A5D75"/>
	<stop  offset="0.0488" style="stop-color:#42546B"/>
	<stop  offset="0.124" style="stop-color:#35465A"/>
	<stop  offset="0.2176" style="stop-color:#2B3C4F"/>
	<stop  offset="0.3489" style="stop-color:#263648"/>
	<stop  offset="0.7135" style="stop-color:#243446"/>
	<stop  offset="0.7671" style="stop-color:#27384A"/>
	<stop  offset="0.8176" style="stop-color:#324355"/>
	<stop  offset="0.8669" style="stop-color:#435667"/>
	<stop  offset="0.9154" style="stop-color:#5C7181"/>
	<stop  offset="0.9628" style="stop-color:#7B93A3"/>
	<stop  offset="0.9944" style="stop-color:#94AEBD"/>
</linearGradient>
<path fill="url(#XMLID_3_)" d="M43.075,19.076c2.035,2.036,2.035,5.337,0,7.37L28.331,41.191c-2.035,2.035-5.336,2.037-7.372,0
	L6.217,26.449c-2.038-2.036-2.035-5.337,0-7.372L20.961,4.333c2.034-2.035,5.335-2.036,7.372,0L43.075,19.076z"/>
<linearGradient id="XMLID_4_" gradientUnits="userSpaceOnUse" x1="15.2588" y1="13.3765" x2="38.2721" y2="36.3898">
	<stop  offset="0.0112" style="stop-color:#F3D99F"/>
	<stop  offset="0.0843" style="stop-color:#E9BB61"/>
	<stop  offset="0.7135" style="stop-color:#E3A835"/>
	<stop  offset="0.9944" style="stop-color:#FAF8ED"/>
</linearGradient>
<path fill="url(#XMLID_4_)" d="M40.31,19.999c1.527,1.525,1.525,4.002,0,5.528l-12.9,12.899c-1.527,1.526-4.002,1.528-5.529,0
	L8.98,25.526c-1.527-1.525-1.527-4.002,0-5.527L21.88,7.098c1.526-1.526,4.002-1.527,5.529-0.001L40.31,19.999z"/>
<g>
	<path fill="#656565" d="M23.199,23.943l-5.117-0.973l1.37-4.179l4.789,2.379l-0.755-5.259h4.395l-0.723,5.185l4.687-2.305
		l1.33,4.213l-5.185,0.903l3.672,3.71l-3.637,2.629l-2.414-4.648l-2.595,4.613l-3.529-2.559L23.199,23.943z"/>
</g>
<g>
	<path fill="#FFFFFF" d="M22.037,22.709l-5.117-0.973l1.37-4.179l4.789,2.379l-0.755-5.259h4.395l-0.723,5.185l4.687-2.305
		l1.33,4.213l-5.185,0.903l3.672,3.71l-3.637,2.629l-2.414-4.648l-2.595,4.613l-3.529-2.559L22.037,22.709z"/>
</g>
</svg>
