<?xml version="1.0" encoding="utf-8"?>
<!-- Generator: Adobe Illustrator 12.0.1, SVG Export Plug-In . SVG Version: 6.00 Build 51448)  -->
<!DOCTYPE svg PUBLIC "-//W3C//DTD SVG 1.1//EN" "http://www.w3.org/Graphics/SVG/1.1/DTD/svg11.dtd" [
	<!ENTITY ns_svg "http://www.w3.org/2000/svg">
	<!ENTITY ns_xlink "http://www.w3.org/1999/xlink">
]>
<svg  version="1.1" id="Layer_1" xmlns="&ns_svg;" xmlns:xlink="&ns_xlink;" width="48" height="48" viewBox="0 0 48 48"
	 overflow="visible" enable-background="new 0 0 48 48" xml:space="preserve">
<linearGradient id="XMLID_5_" gradientUnits="userSpaceOnUse" x1="63.1689" y1="10.5625" x2="38.669" y2="-13.9374" gradientTransform="matrix(0.7071 -0.7071 0.7071 0.7071 -10.7369 61.7461)">
	<stop  offset="0.0169" style="stop-color:#4A5D75"/>
	<stop  offset="0.0488" style="stop-color:#42546B"/>
	<stop  offset="0.124" style="stop-color:#35465A"/>
	<stop  offset="0.2176" style="stop-color:#2B3C4F"/>
	<stop  offset="0.3489" style="stop-color:#263648"/>
	<stop  offset="0.7135" style="stop-color:#243446"/>
	<stop  offset="0.7671" style="stop-color:#27384A"/>
	<stop  offset="0.8176" style="stop-color:#324355"/>
	<stop  offset="0.8669" style="stop-color:#435667"/>
	<stop  offset="0.9154" style="stop-color:#5C7181"/>
	<stop  offset="0.9628" style="stop-color:#7B93A3"/>
	<stop  offset="0.9944" style="stop-color:#94AEBD"/>
</linearGradient>
<path fill="url(#XMLID_5_)" d="M35.623,7.474c3.145,0,5.691,2.549,5.691,5.691v22.766c0,3.143-2.547,5.691-5.691,5.691H12.859
	c-3.145,0-5.691-2.549-5.69-5.691L7.168,13.165c0-3.143,2.547-5.691,5.691-5.691H35.623z"/>
<linearGradient id="XMLID_6_" gradientUnits="userSpaceOnUse" x1="40.7939" y1="-11.8105" x2="65.919" y2="13.3145" gradientTransform="matrix(0.7071 -0.7071 0.7071 0.7071 -10.7369 61.7461)">
	<stop  offset="0.0112" style="stop-color:#F3D99F"/>
	<stop  offset="0.0843" style="stop-color:#E9BB61"/>
	<stop  offset="0.7135" style="stop-color:#E3A835"/>
	<stop  offset="0.9944" style="stop-color:#FAF8ED"/>
</linearGradient>
<path fill="url(#XMLID_6_)" d="M34.2,10.321c2.357-0.001,4.268,1.911,4.269,4.268v19.92c-0.001,2.356-1.91,4.268-4.268,4.268
	l-19.92-0.001c-2.357,0.001-4.269-1.91-4.268-4.268V14.589c-0.001-2.355,1.91-4.269,4.268-4.269L34.2,10.321z"/>
<linearGradient id="XMLID_7_" gradientUnits="userSpaceOnUse" x1="5.6143" y1="23.5635" x2="42.4814" y2="23.5635">
	<stop  offset="0.0337" style="stop-color:#FFFFFF"/>
	<stop  offset="0.1129" style="stop-color:#FFFFD8"/>
	<stop  offset="0.291" style="stop-color:#FFFF77"/>
	<stop  offset="0.4944" style="stop-color:#FFFF00"/>
	<stop  offset="0.5406" style="stop-color:#FFFF0E"/>
	<stop  offset="0.6275" style="stop-color:#FFFF32"/>
	<stop  offset="0.7459" style="stop-color:#FFFF6D"/>
	<stop  offset="0.8895" style="stop-color:#FFFFBD"/>
	<stop  offset="1" style="stop-color:#FFFFFF"/>
</linearGradient>
<polygon fill="url(#XMLID_7_)" stroke="#243446" stroke-width="1.9897" points="27.155,4.71 28.67,18.877 42.481,22.381 
	29.476,28.199 30.412,42.416 20.858,31.846 7.627,37.13 14.729,24.777 5.614,13.826 19.557,16.762 "/>
<linearGradient id="XMLID_8_" gradientUnits="userSpaceOnUse" x1="11.6602" y1="11.79" x2="31.5098" y2="38.189">
	<stop  offset="0" style="stop-color:#FFFFFF"/>
	<stop  offset="0.4831" style="stop-color:#FFFF66"/>
	<stop  offset="1" style="stop-color:#FFFFFF"/>
</linearGradient>
<polygon fill="url(#XMLID_8_)" enable-background="new    " points="26.897,5.888 28.321,19.204 41.304,22.497 29.079,27.967 
	29.96,41.33 20.979,31.395 8.542,36.361 15.217,24.75 6.649,14.457 19.755,17.217 "/>
</svg>
