<?xml version="1.0" encoding="utf-8"?>
<!-- Generator: Adobe Illustrator 12.0.1, SVG Export Plug-In . SVG Version: 6.00 Build 51448)  -->
<!DOCTYPE svg PUBLIC "-//W3C//DTD SVG 1.1//EN" "http://www.w3.org/Graphics/SVG/1.1/DTD/svg11.dtd" [
	<!ENTITY ns_svg "http://www.w3.org/2000/svg">
	<!ENTITY ns_xlink "http://www.w3.org/1999/xlink">
]>
<svg  version="1.1" id="Layer_1" xmlns="&ns_svg;" xmlns:xlink="&ns_xlink;" width="48" height="48" viewBox="0 0 48 48"
	 overflow="visible" enable-background="new 0 0 48 48" xml:space="preserve">
<linearGradient id="XMLID_4_" gradientUnits="userSpaceOnUse" x1="38.6953" y1="39.5127" x2="10.665" y2="4.0423">
	<stop  offset="0.0169" style="stop-color:#4A5D75"/>
	<stop  offset="0.0488" style="stop-color:#42546B"/>
	<stop  offset="0.124" style="stop-color:#35465A"/>
	<stop  offset="0.2176" style="stop-color:#2B3C4F"/>
	<stop  offset="0.3489" style="stop-color:#263648"/>
	<stop  offset="0.7135" style="stop-color:#243446"/>
	<stop  offset="0.7671" style="stop-color:#27384A"/>
	<stop  offset="0.8176" style="stop-color:#324355"/>
	<stop  offset="0.8669" style="stop-color:#435667"/>
	<stop  offset="0.9154" style="stop-color:#5C7181"/>
	<stop  offset="0.9628" style="stop-color:#7B93A3"/>
	<stop  offset="0.9944" style="stop-color:#94AEBD"/>
</linearGradient>
<path fill="url(#XMLID_4_)" d="M41.066,32.29c0,3.143-2.549,5.691-5.691,5.691h-9.146l-0.549,8.217l-10.058-8.217H12.61
	c-3.143,0-5.691-2.549-5.691-5.691V9.524c0-3.143,2.549-5.691,5.691-5.691h22.765c3.143,0,5.691,2.549,5.691,5.691V32.29z"/>
<linearGradient id="XMLID_5_" gradientUnits="userSpaceOnUse" x1="27.7246" y1="29.2754" x2="16.1471" y2="3.3128">
	<stop  offset="0" style="stop-color:#D7EBD8"/>
	<stop  offset="0.7135" style="stop-color:#C5E2C7"/>
	<stop  offset="0.9944" style="stop-color:#FAF8ED"/>
</linearGradient>
<path fill="url(#XMLID_5_)" d="M38.221,30.866c0,2.357-1.912,4.27-4.27,4.27h-9.735l-0.183,7.039l-7.551-7.032l-2.45-0.007
	c-2.357,0-4.269-1.912-4.269-4.27v-19.92c0-2.355,1.911-4.268,4.269-4.268h19.918c2.357,0,4.27,1.912,4.27,4.268V30.866z"/>
<g enable-background="new    ">
	<path fill="#E6E7E8" d="M18.542,28.369v-0.828c0.843-0.061,1.325-0.125,1.446-0.197c0.12-0.07,0.195-0.204,0.226-0.398
		c0.073-0.413,0.109-1.475,0.109-3.184c0-2.348-0.031-3.683-0.094-4.005c-0.03-0.15-0.079-0.247-0.147-0.293
		c-0.15-0.097-0.664-0.149-1.54-0.157v-0.859c1.135-0.118,1.991-0.243,2.57-0.376c0.578-0.133,1.21-0.335,1.893-0.608l0.271,0.146
		c-0.094,1.168-0.141,2.265-0.141,3.291v3.819c0,1.303,0.029,2.074,0.09,2.313c0.029,0.135,0.088,0.225,0.178,0.27
		c0.201,0.098,0.691,0.162,1.467,0.191v0.875c-1.065-0.031-2.223-0.047-3.475-0.047C20.318,28.322,19.366,28.338,18.542,28.369z
		 M21.644,12.104c0.478,0,0.882,0.169,1.213,0.506c0.333,0.338,0.499,0.742,0.499,1.215c0,0.48-0.166,0.889-0.499,1.227
		c-0.331,0.337-0.735,0.506-1.213,0.506c-0.47,0-0.872-0.169-1.208-0.506c-0.335-0.338-0.503-0.746-0.503-1.227
		c0-0.473,0.166-0.877,0.497-1.215C20.762,12.272,21.166,12.104,21.644,12.104z"/>
</g>
<g enable-background="new    ">
	<linearGradient id="XMLID_6_" gradientUnits="userSpaceOnUse" x1="30.665" y1="16.4727" x2="22.2632" y2="20.1011">
		<stop  offset="0" style="stop-color:#96A1AF"/>
		<stop  offset="1" style="stop-color:#182028"/>
	</linearGradient>
	<path fill="url(#XMLID_6_)" d="M20.07,27.224v-0.828c0.843-0.061,1.325-0.125,1.446-0.197c0.12-0.07,0.195-0.204,0.226-0.398
		c0.073-0.413,0.109-1.475,0.109-3.184c0-2.348-0.031-3.683-0.094-4.005c-0.03-0.15-0.079-0.247-0.147-0.293
		c-0.15-0.097-0.664-0.149-1.54-0.157v-0.859c1.135-0.118,1.991-0.243,2.57-0.376c0.578-0.133,1.21-0.335,1.893-0.608l0.271,0.146
		c-0.094,1.168-0.141,2.265-0.141,3.291v3.819c0,1.303,0.029,2.074,0.09,2.313c0.029,0.135,0.088,0.225,0.178,0.27
		c0.201,0.098,0.691,0.162,1.467,0.191v0.875c-1.064-0.031-2.222-0.047-3.474-0.047C21.846,27.177,20.894,27.192,20.07,27.224z
		 M23.171,10.958c0.478,0,0.882,0.169,1.213,0.506c0.333,0.338,0.499,0.742,0.499,1.215c0,0.48-0.166,0.889-0.499,1.227
		c-0.331,0.337-0.735,0.506-1.213,0.506c-0.47,0-0.872-0.169-1.208-0.506c-0.335-0.338-0.503-0.746-0.503-1.227
		c0-0.473,0.166-0.877,0.497-1.215C22.29,11.127,22.694,10.958,23.171,10.958z"/>
</g>
</svg>
