<?xml version="1.0" encoding="utf-8"?>
<!-- Generator: Adobe Illustrator 12.0.1, SVG Export Plug-In  -->
<!DOCTYPE svg PUBLIC "-//W3C//DTD SVG 1.1//EN" "http://www.w3.org/Graphics/SVG/1.1/DTD/svg11.dtd" [
	<!ENTITY ns_flows "http://ns.adobe.com/Flows/1.0/">
	<!ENTITY ns_svg "http://www.w3.org/2000/svg">
	<!ENTITY ns_xlink "http://www.w3.org/1999/xlink">
]>
<svg  version="1.1" xmlns="&ns_svg;" xmlns:xlink="&ns_xlink;" xmlns:a="http://ns.adobe.com/AdobeSVGViewerExtensions/3.0/"
	 width="17" height="17" viewBox="-0.75 -0.625 17 17" enable-background="new -0.75 -0.625 17 17" xml:space="preserve">
<defs>
</defs>
<g>
	<defs>
		<circle id="XMLID_6_" cx="7.859" cy="7.859" r="7.484"/>
	</defs>
	<clipPath id="XMLID_9_">
		<use xlink:href="#XMLID_6_" />
	</clipPath>
	<polygon clip-path="url(#XMLID_9_)" fill="#CBD2D8" points="0.375,11.68 5.102,15.344 0.375,15.344 	"/>
	<polygon clip-path="url(#XMLID_9_)" fill="#CBD2D8" points="0.375,11.547 5.273,15.344 5.105,15.344 0.375,11.68 	"/>
	<polygon clip-path="url(#XMLID_9_)" fill="#C9D0D5" points="0.375,11.414 5.445,15.344 5.273,15.344 0.375,11.547 	"/>
	<polygon clip-path="url(#XMLID_9_)" fill="#C6CDD3" points="0.375,11.281 5.617,15.344 5.445,15.344 0.375,11.414 	"/>
	<polygon clip-path="url(#XMLID_9_)" fill="#C5CCD2" points="0.375,11.148 5.789,15.344 5.617,15.344 0.375,11.281 	"/>
	<polygon clip-path="url(#XMLID_9_)" fill="#C3C9D0" points="0.375,11.016 5.961,15.344 5.789,15.344 0.375,11.148 	"/>
	<polygon clip-path="url(#XMLID_9_)" fill="#C1C8CE" points="0.375,10.883 6.129,15.344 5.961,15.344 0.375,11.016 	"/>
	<polygon clip-path="url(#XMLID_9_)" fill="#BFC5CC" points="0.375,10.75 6.301,15.344 6.129,15.344 0.375,10.883 	"/>
	<polygon clip-path="url(#XMLID_9_)" fill="#BEC4CB" points="0.375,10.617 6.473,15.344 6.301,15.344 0.375,10.75 	"/>
	<polygon clip-path="url(#XMLID_9_)" fill="#BBC2C9" points="0.375,10.484 6.645,15.344 6.473,15.344 0.375,10.617 	"/>
	<polygon clip-path="url(#XMLID_9_)" fill="#BAC0C8" points="0.375,10.352 6.812,15.344 6.645,15.344 0.375,10.484 	"/>
	<polygon clip-path="url(#XMLID_9_)" fill="#B7BEC6" points="0.375,10.219 6.984,15.344 6.812,15.344 0.375,10.352 	"/>
	<polygon clip-path="url(#XMLID_9_)" fill="#B6BDC5" points="0.375,10.086 7.156,15.344 6.984,15.344 0.375,10.219 	"/>
	<polygon clip-path="url(#XMLID_9_)" fill="#B5BBC3" points="0.375,9.957 7.328,15.344 7.156,15.344 0.375,10.086 	"/>
	<polygon clip-path="url(#XMLID_9_)" fill="#B3BAC2" points="0.375,9.824 7.5,15.344 7.328,15.344 0.375,9.957 	"/>
	<polygon clip-path="url(#XMLID_9_)" fill="#B1B7C0" points="0.375,9.691 7.672,15.344 7.5,15.344 0.375,9.824 	"/>
	<polygon clip-path="url(#XMLID_9_)" fill="#B0B6BF" points="0.375,9.559 7.84,15.344 7.672,15.344 0.375,9.691 	"/>
	<polygon clip-path="url(#XMLID_9_)" fill="#AEB5BE" points="0.375,9.426 8.012,15.344 7.84,15.344 0.375,9.559 	"/>
	<polygon clip-path="url(#XMLID_9_)" fill="#ADB3BC" points="0.375,9.293 8.184,15.344 8.012,15.344 0.375,9.426 	"/>
	<polygon clip-path="url(#XMLID_9_)" fill="#ABB2BC" points="0.375,9.16 8.352,15.344 8.184,15.344 0.375,9.293 	"/>
	<polygon clip-path="url(#XMLID_9_)" fill="#AAB0BA" points="0.375,9.027 8.523,15.344 8.352,15.344 0.375,9.16 	"/>
	<polygon clip-path="url(#XMLID_9_)" fill="#A8AEB8" points="0.375,8.895 8.695,15.344 8.523,15.344 0.375,9.027 	"/>
	<polygon clip-path="url(#XMLID_9_)" fill="#A6ADB7" points="0.375,8.762 8.867,15.344 8.695,15.344 0.375,8.895 	"/>
	<polygon clip-path="url(#XMLID_9_)" fill="#A6ACB6" points="0.375,8.629 9.039,15.344 8.867,15.344 0.375,8.762 	"/>
	<polygon clip-path="url(#XMLID_9_)" fill="#A3AAB4" points="0.375,8.496 9.211,15.344 9.039,15.344 0.375,8.629 	"/>
	<polygon clip-path="url(#XMLID_9_)" fill="#A2A8B3" points="0.375,8.363 9.383,15.344 9.211,15.344 0.375,8.496 	"/>
	<polygon clip-path="url(#XMLID_9_)" fill="#A0A7B1" points="0.375,8.23 9.551,15.344 9.383,15.344 0.375,8.363 	"/>
	<polygon clip-path="url(#XMLID_9_)" fill="#9FA6B0" points="0.375,8.102 9.723,15.344 9.551,15.344 0.375,8.23 	"/>
	<polygon clip-path="url(#XMLID_9_)" fill="#9EA4AF" points="0.375,7.969 9.895,15.344 9.723,15.344 0.375,8.102 	"/>
	<polygon clip-path="url(#XMLID_9_)" fill="#9CA3AE" points="0.375,7.836 10.062,15.344 9.895,15.344 0.375,7.969 	"/>
	<polygon clip-path="url(#XMLID_9_)" fill="#9BA1AD" points="0.375,7.703 10.234,15.344 10.062,15.344 0.375,7.836 	"/>
	<polygon clip-path="url(#XMLID_9_)" fill="#9AA0AB" points="0.375,7.57 10.406,15.344 10.234,15.344 0.375,7.703 	"/>
	<polygon clip-path="url(#XMLID_9_)" fill="#989FAA" points="0.375,7.438 10.578,15.344 10.406,15.344 0.375,7.57 	"/>
	<polygon clip-path="url(#XMLID_9_)" fill="#979EAA" points="0.375,7.305 10.75,15.344 10.578,15.344 0.375,7.438 	"/>
	<polygon clip-path="url(#XMLID_9_)" fill="#969CA8" points="0.375,7.172 10.918,15.344 10.75,15.344 0.375,7.305 	"/>
	<polygon clip-path="url(#XMLID_9_)" fill="#949BA7" points="0.375,7.039 11.09,15.344 10.918,15.344 0.375,7.172 	"/>
	<polygon clip-path="url(#XMLID_9_)" fill="#9399A5" points="0.375,6.906 11.262,15.344 11.09,15.344 0.375,7.039 	"/>
	<polygon clip-path="url(#XMLID_9_)" fill="#9298A4" points="0.375,6.773 11.434,15.344 11.262,15.344 0.375,6.906 	"/>
	<polygon clip-path="url(#XMLID_9_)" fill="#9097A3" points="0.375,6.641 11.602,15.344 11.434,15.344 0.375,6.773 	"/>
	<polygon clip-path="url(#XMLID_9_)" fill="#8F95A2" points="0.375,6.508 11.773,15.344 11.602,15.344 0.375,6.641 	"/>
	<polygon clip-path="url(#XMLID_9_)" fill="#8E95A1" points="0.375,6.375 11.945,15.344 11.773,15.344 0.375,6.508 	"/>
	<polygon clip-path="url(#XMLID_9_)" fill="#8D93A0" points="0.375,6.242 12.117,15.344 11.945,15.344 0.375,6.375 	"/>
	<polygon clip-path="url(#XMLID_9_)" fill="#8B929F" points="0.375,6.113 12.289,15.344 12.117,15.344 0.375,6.242 	"/>
	<polygon clip-path="url(#XMLID_9_)" fill="#8A919E" points="0.375,5.98 12.461,15.344 12.289,15.344 0.375,6.113 	"/>
	<polygon clip-path="url(#XMLID_9_)" fill="#898F9D" points="0.375,5.848 12.629,15.344 12.461,15.344 0.375,5.98 	"/>
	<polygon clip-path="url(#XMLID_9_)" fill="#878E9B" points="0.375,5.715 12.801,15.344 12.629,15.344 0.375,5.848 	"/>
	<polygon clip-path="url(#XMLID_9_)" fill="#878D9B" points="0.375,5.582 12.973,15.344 12.801,15.344 0.375,5.715 	"/>
	<polygon clip-path="url(#XMLID_9_)" fill="#858C9A" points="0.375,5.449 13.141,15.344 12.973,15.344 0.375,5.582 	"/>
	<polygon clip-path="url(#XMLID_9_)" fill="#848B98" points="0.375,5.316 13.312,15.344 13.141,15.344 0.375,5.449 	"/>
	<polygon clip-path="url(#XMLID_9_)" fill="#838A97" points="0.375,5.184 13.484,15.344 13.312,15.344 0.375,5.316 	"/>
	<polygon clip-path="url(#XMLID_9_)" fill="#828997" points="0.375,5.051 13.656,15.344 13.484,15.344 0.375,5.184 	"/>
	<polygon clip-path="url(#XMLID_9_)" fill="#818895" points="0.375,4.918 13.828,15.344 13.656,15.344 0.375,5.051 	"/>
	<polygon clip-path="url(#XMLID_9_)" fill="#808794" points="0.375,4.785 14,15.344 13.828,15.344 0.375,4.918 	"/>
	<polygon clip-path="url(#XMLID_9_)" fill="#7E8594" points="0.375,4.652 14.172,15.344 14,15.344 0.375,4.785 	"/>
	<polygon clip-path="url(#XMLID_9_)" fill="#7D8593" points="0.375,4.52 14.34,15.344 14.172,15.344 0.375,4.652 	"/>
	<polygon clip-path="url(#XMLID_9_)" fill="#7C8392" points="0.375,4.387 14.512,15.344 14.34,15.344 0.375,4.52 	"/>
	<polygon clip-path="url(#XMLID_9_)" fill="#7B8290" points="0.375,4.258 14.68,15.344 14.512,15.344 0.375,4.387 	"/>
	<polygon clip-path="url(#XMLID_9_)" fill="#7A8190" points="0.375,4.125 14.852,15.344 14.68,15.344 0.375,4.258 	"/>
	<polygon clip-path="url(#XMLID_9_)" fill="#79808F" points="0.375,3.992 15.023,15.344 14.852,15.344 0.375,4.125 	"/>
	<polygon clip-path="url(#XMLID_9_)" fill="#787F8D" points="0.375,3.859 15.195,15.344 15.023,15.344 0.375,3.992 	"/>
	<polygon clip-path="url(#XMLID_9_)" fill="#777E8D" points="0.375,3.727 15.312,15.301 15.277,15.344 15.195,15.344 0.375,3.859 	
		"/>
	<polygon clip-path="url(#XMLID_9_)" fill="#767D8C" points="0.375,3.594 15.344,15.195 15.344,15.258 15.312,15.301 0.375,3.727 	
		"/>
	<polygon clip-path="url(#XMLID_9_)" fill="#767C8B" points="0.375,3.461 15.344,15.062 15.344,15.195 0.375,3.594 	"/>
	<polygon clip-path="url(#XMLID_9_)" fill="#747B8A" points="0.375,3.328 15.344,14.93 15.344,15.062 0.375,3.461 	"/>
	<polygon clip-path="url(#XMLID_9_)" fill="#737A89" points="0.375,3.195 15.344,14.797 15.344,14.93 0.375,3.328 	"/>
	<polygon clip-path="url(#XMLID_9_)" fill="#727989" points="0.375,3.062 15.344,14.664 15.344,14.797 0.375,3.195 	"/>
	<polygon clip-path="url(#XMLID_9_)" fill="#717888" points="0.375,2.93 15.344,14.531 15.344,14.664 0.375,3.062 	"/>
	<polygon clip-path="url(#XMLID_9_)" fill="#707786" points="0.375,2.797 15.344,14.398 15.344,14.531 0.375,2.93 	"/>
	<polygon clip-path="url(#XMLID_9_)" fill="#6F7686" points="0.375,2.664 15.344,14.266 15.344,14.398 0.375,2.797 	"/>
	<polygon clip-path="url(#XMLID_9_)" fill="#6D7585" points="0.375,2.531 15.344,14.133 15.344,14.266 0.375,2.664 	"/>
	<polygon clip-path="url(#XMLID_9_)" fill="#6D7584" points="0.375,2.398 15.344,14 15.344,14.133 0.375,2.531 	"/>
	<polygon clip-path="url(#XMLID_9_)" fill="#6C7383" points="0.375,2.266 15.344,13.867 15.344,14 0.375,2.398 	"/>
	<polygon clip-path="url(#XMLID_9_)" fill="#6B7383" points="0.375,2.137 15.344,13.734 15.344,13.867 0.375,2.266 	"/>
	<polygon clip-path="url(#XMLID_9_)" fill="#6A7281" points="0.375,2 15.344,13.602 15.344,13.734 0.375,2.137 	"/>
	<polygon clip-path="url(#XMLID_9_)" fill="#697181" points="0.375,1.871 15.344,13.469 15.344,13.602 0.375,2 	"/>
	<polygon clip-path="url(#XMLID_9_)" fill="#697080" points="0.375,1.738 15.344,13.336 15.344,13.469 0.375,1.871 	"/>
	<polygon clip-path="url(#XMLID_9_)" fill="#686F7F" points="0.375,1.605 15.344,13.207 15.344,13.336 0.375,1.738 	"/>
	<polygon clip-path="url(#XMLID_9_)" fill="#676E7E" points="0.375,1.473 15.344,13.074 15.344,13.207 0.375,1.605 	"/>
	<polygon clip-path="url(#XMLID_9_)" fill="#656D7D" points="15.344,12.941 0.375,1.34 0.375,1.473 15.344,13.074 	"/>
	<polygon clip-path="url(#XMLID_9_)" fill="#646C7D" points="15.344,12.809 0.375,1.207 0.375,1.34 15.344,12.941 	"/>
	<polygon clip-path="url(#XMLID_9_)" fill="#646C7C" points="0.375,1.074 15.344,12.676 15.344,12.809 0.375,1.207 	"/>
	<polygon clip-path="url(#XMLID_9_)" fill="#636B7C" points="0.375,0.941 15.344,12.543 15.344,12.676 0.375,1.074 	"/>
	<polygon clip-path="url(#XMLID_9_)" fill="#626B7B" points="15.344,12.41 0.375,0.809 0.375,0.941 15.344,12.543 	"/>
	<polygon clip-path="url(#XMLID_9_)" fill="#616A7A" points="0.375,0.676 15.344,12.277 15.344,12.41 0.375,0.809 	"/>
	<polygon clip-path="url(#XMLID_9_)" fill="#606979" points="0.375,0.543 15.344,12.145 15.344,12.277 0.375,0.676 	"/>
	<polygon clip-path="url(#XMLID_9_)" fill="#5F6878" points="0.375,0.461 0.398,0.43 15.344,12.012 15.344,12.145 0.375,0.543 	"/>
	<polygon clip-path="url(#XMLID_9_)" fill="#5F6878" points="0.398,0.43 0.441,0.375 0.5,0.375 15.344,11.879 15.344,12.012 	"/>
	<polygon clip-path="url(#XMLID_9_)" fill="#5E6777" points="0.672,0.375 15.344,11.746 15.344,11.879 0.5,0.375 	"/>
	<polygon clip-path="url(#XMLID_9_)" fill="#5D6676" points="0.84,0.375 15.344,11.613 15.344,11.746 0.672,0.375 	"/>
	<polygon clip-path="url(#XMLID_9_)" fill="#5C6576" points="1.012,0.375 15.344,11.48 15.344,11.613 0.84,0.375 	"/>
	<polygon clip-path="url(#XMLID_9_)" fill="#5B6475" points="1.184,0.375 15.344,11.352 15.344,11.48 1.012,0.375 	"/>
	<polygon clip-path="url(#XMLID_9_)" fill="#5B6475" points="1.355,0.375 15.344,11.219 15.344,11.352 1.184,0.375 	"/>
	<polygon clip-path="url(#XMLID_9_)" fill="#5A6373" points="1.523,0.375 15.344,11.086 15.344,11.219 1.355,0.375 	"/>
	<polygon clip-path="url(#XMLID_9_)" fill="#596273" points="1.695,0.375 15.344,10.953 15.344,11.086 1.523,0.375 	"/>
	<polygon clip-path="url(#XMLID_9_)" fill="#586172" points="1.867,0.375 15.344,10.82 15.344,10.953 1.695,0.375 	"/>
	<polygon clip-path="url(#XMLID_9_)" fill="#576172" points="2.039,0.375 15.344,10.688 15.344,10.82 1.867,0.375 	"/>
	<polygon clip-path="url(#XMLID_9_)" fill="#566071" points="2.211,0.375 15.344,10.555 15.344,10.688 2.039,0.375 	"/>
	<polygon clip-path="url(#XMLID_9_)" fill="#566070" points="2.379,0.375 15.344,10.422 15.344,10.555 2.211,0.375 	"/>
	<polygon clip-path="url(#XMLID_9_)" fill="#555F70" points="2.551,0.375 15.344,10.289 15.344,10.422 2.379,0.375 	"/>
	<polygon clip-path="url(#XMLID_9_)" fill="#545E6F" points="2.723,0.375 15.344,10.156 15.344,10.289 2.551,0.375 	"/>
	<polygon clip-path="url(#XMLID_9_)" fill="#535E6F" points="2.891,0.375 15.344,10.023 15.344,10.156 2.723,0.375 	"/>
	<polygon clip-path="url(#XMLID_9_)" fill="#535D6E" points="3.062,0.375 15.344,9.891 15.344,10.023 2.891,0.375 	"/>
	<polygon clip-path="url(#XMLID_9_)" fill="#525C6D" points="15.344,9.758 3.234,0.375 3.062,0.375 15.344,9.891 	"/>
	<polygon clip-path="url(#XMLID_9_)" fill="#515C6D" points="3.406,0.375 15.344,9.625 15.344,9.758 3.234,0.375 	"/>
	<polygon clip-path="url(#XMLID_9_)" fill="#505B6C" points="3.578,0.375 15.344,9.492 15.344,9.625 3.406,0.375 	"/>
	<polygon clip-path="url(#XMLID_9_)" fill="#505B6C" points="3.75,0.375 15.344,9.359 15.344,9.492 3.578,0.375 	"/>
	<polygon clip-path="url(#XMLID_9_)" fill="#505A6B" points="3.918,0.375 15.344,9.227 15.344,9.359 3.75,0.375 	"/>
	<polygon clip-path="url(#XMLID_9_)" fill="#4F596A" points="4.09,0.375 15.344,9.098 15.344,9.227 3.918,0.375 	"/>
	<polygon clip-path="url(#XMLID_9_)" fill="#4E596A" points="4.262,0.375 15.344,8.965 15.344,9.098 4.09,0.375 	"/>
	<polygon clip-path="url(#XMLID_9_)" fill="#4D5869" points="4.434,0.375 15.344,8.832 15.344,8.965 4.262,0.375 	"/>
	<polygon clip-path="url(#XMLID_9_)" fill="#4C5869" points="4.602,0.375 15.344,8.699 15.344,8.832 4.434,0.375 	"/>
	<polygon clip-path="url(#XMLID_9_)" fill="#4C5768" points="4.773,0.375 15.344,8.566 15.344,8.699 4.602,0.375 	"/>
	<polygon clip-path="url(#XMLID_9_)" fill="#4B5768" points="4.945,0.375 15.344,8.434 15.344,8.566 4.773,0.375 	"/>
	<polygon clip-path="url(#XMLID_9_)" fill="#4B5667" points="5.117,0.375 15.344,8.301 15.344,8.434 4.945,0.375 	"/>
	<polygon clip-path="url(#XMLID_9_)" fill="#4A5567" points="5.289,0.375 15.344,8.168 15.344,8.301 5.117,0.375 	"/>
	<polygon clip-path="url(#XMLID_9_)" fill="#495566" points="5.461,0.375 15.344,8.035 15.344,8.168 5.289,0.375 	"/>
	<polygon clip-path="url(#XMLID_9_)" fill="#485566" points="15.344,7.902 5.629,0.375 5.461,0.375 15.344,8.035 	"/>
	<polygon clip-path="url(#XMLID_9_)" fill="#485466" points="15.344,7.77 5.801,0.375 5.629,0.375 15.344,7.902 	"/>
	<polygon clip-path="url(#XMLID_9_)" fill="#475365" points="5.973,0.375 15.344,7.637 15.344,7.77 5.801,0.375 	"/>
	<polygon clip-path="url(#XMLID_9_)" fill="#475365" points="6.145,0.375 15.344,7.508 15.344,7.637 5.973,0.375 	"/>
	<polygon clip-path="url(#XMLID_9_)" fill="#465264" points="6.312,0.375 15.344,7.375 15.344,7.508 6.145,0.375 	"/>
	<polygon clip-path="url(#XMLID_9_)" fill="#455264" points="15.344,7.242 6.484,0.375 6.312,0.375 15.344,7.375 	"/>
	<polygon clip-path="url(#XMLID_9_)" fill="#445263" points="6.656,0.375 15.344,7.109 15.344,7.242 6.484,0.375 	"/>
	<polygon clip-path="url(#XMLID_9_)" fill="#445163" points="6.828,0.375 15.344,6.977 15.344,7.109 6.656,0.375 	"/>
	<polygon clip-path="url(#XMLID_9_)" fill="#445062" points="7,0.375 15.344,6.844 15.344,6.977 6.828,0.375 	"/>
	<polygon clip-path="url(#XMLID_9_)" fill="#425062" points="7.168,0.375 15.344,6.711 15.344,6.844 7,0.375 	"/>
	<polygon clip-path="url(#XMLID_9_)" fill="#425062" points="7.34,0.375 15.344,6.578 15.344,6.711 7.168,0.375 	"/>
	<polygon clip-path="url(#XMLID_9_)" fill="#424F61" points="7.512,0.375 15.344,6.445 15.344,6.578 7.34,0.375 	"/>
	<polygon clip-path="url(#XMLID_9_)" fill="#414F61" points="7.68,0.375 15.344,6.312 15.344,6.445 7.512,0.375 	"/>
	<polygon clip-path="url(#XMLID_9_)" fill="#404E60" points="7.852,0.375 15.344,6.18 15.344,6.312 7.68,0.375 	"/>
	<polygon clip-path="url(#XMLID_9_)" fill="#3F4E60" points="8.023,0.375 15.344,6.047 15.344,6.18 7.852,0.375 	"/>
	<polygon clip-path="url(#XMLID_9_)" fill="#3F4D60" points="8.195,0.375 15.344,5.914 15.344,6.047 8.023,0.375 	"/>
	<polygon clip-path="url(#XMLID_9_)" fill="#3F4D5F" points="8.367,0.375 15.344,5.781 15.344,5.914 8.195,0.375 	"/>
	<polygon clip-path="url(#XMLID_9_)" fill="#3E4D5F" points="8.539,0.375 15.344,5.648 15.344,5.781 8.367,0.375 	"/>
	<polygon clip-path="url(#XMLID_9_)" fill="#3E4C5E" points="8.711,0.375 15.344,5.516 15.344,5.648 8.539,0.375 	"/>
	<polygon clip-path="url(#XMLID_9_)" fill="#3D4C5E" points="8.879,0.375 15.344,5.383 15.344,5.516 8.711,0.375 	"/>
	<polygon clip-path="url(#XMLID_9_)" fill="#3D4C5E" points="9.051,0.375 15.344,5.25 15.344,5.383 8.879,0.375 	"/>
	<polygon clip-path="url(#XMLID_9_)" fill="#3C4B5D" points="15.344,5.121 9.223,0.375 9.051,0.375 15.344,5.25 	"/>
	<polygon clip-path="url(#XMLID_9_)" fill="#3C4B5D" points="9.391,0.375 15.344,4.988 15.344,5.121 9.223,0.375 	"/>
	<polygon clip-path="url(#XMLID_9_)" fill="#3C4B5D" points="9.562,0.375 15.344,4.855 15.344,4.988 9.391,0.375 	"/>
	<polygon clip-path="url(#XMLID_9_)" fill="#3B4A5C" points="9.734,0.375 15.344,4.723 15.344,4.855 9.562,0.375 	"/>
	<polygon clip-path="url(#XMLID_9_)" fill="#3B4A5C" points="9.906,0.375 15.344,4.59 15.344,4.723 9.734,0.375 	"/>
	<polygon clip-path="url(#XMLID_9_)" fill="#3A495C" points="10.078,0.375 15.344,4.457 15.344,4.59 9.906,0.375 	"/>
	<polygon clip-path="url(#XMLID_9_)" fill="#3A495B" points="10.25,0.375 15.344,4.324 15.344,4.457 10.078,0.375 	"/>
	<polygon clip-path="url(#XMLID_9_)" fill="#39495B" points="10.418,0.375 15.344,4.191 15.344,4.324 10.25,0.375 	"/>
	<polygon clip-path="url(#XMLID_9_)" fill="#38495B" points="10.59,0.375 15.344,4.059 15.344,4.191 10.418,0.375 	"/>
	<polygon clip-path="url(#XMLID_9_)" fill="#38485B" points="10.762,0.375 15.344,3.926 15.344,4.059 10.59,0.375 	"/>
	<polygon clip-path="url(#XMLID_9_)" fill="#38485A" points="10.93,0.375 15.344,3.793 15.344,3.926 10.762,0.375 	"/>
	<polygon clip-path="url(#XMLID_9_)" fill="#37485A" points="11.102,0.375 15.344,3.66 15.344,3.793 10.93,0.375 	"/>
	<polygon clip-path="url(#XMLID_9_)" fill="#38475A" points="11.273,0.375 15.344,3.531 15.344,3.66 11.102,0.375 	"/>
	<polygon clip-path="url(#XMLID_9_)" fill="#37475A" points="11.445,0.375 15.344,3.398 15.344,3.531 11.273,0.375 	"/>
	<polygon clip-path="url(#XMLID_9_)" fill="#374659" points="11.617,0.375 15.344,3.266 15.344,3.398 11.445,0.375 	"/>
	<polygon clip-path="url(#XMLID_9_)" fill="#364659" points="11.789,0.375 15.344,3.133 15.344,3.266 11.617,0.375 	"/>
	<polygon clip-path="url(#XMLID_9_)" fill="#364659" points="11.957,0.375 15.344,3 15.344,3.133 11.789,0.375 	"/>
	<polygon clip-path="url(#XMLID_9_)" fill="#364659" points="12.129,0.375 15.344,2.867 15.344,3 11.957,0.375 	"/>
	<polygon clip-path="url(#XMLID_9_)" fill="#354659" points="12.301,0.375 15.344,2.734 15.344,2.867 12.129,0.375 	"/>
	<polygon clip-path="url(#XMLID_9_)" fill="#354659" points="12.469,0.375 15.344,2.602 15.344,2.734 12.301,0.375 	"/>
	<polygon clip-path="url(#XMLID_9_)" fill="#354658" points="12.641,0.375 15.344,2.469 15.344,2.602 12.469,0.375 	"/>
	<polygon clip-path="url(#XMLID_9_)" fill="#344558" points="12.812,0.375 15.344,2.336 15.344,2.469 12.641,0.375 	"/>
	<polygon clip-path="url(#XMLID_9_)" fill="#344558" points="12.984,0.375 15.344,2.203 15.344,2.336 12.812,0.375 	"/>
	<polygon clip-path="url(#XMLID_9_)" fill="#344558" points="13.156,0.375 15.344,2.07 15.344,2.203 12.984,0.375 	"/>
	<polygon clip-path="url(#XMLID_9_)" fill="#344558" points="13.328,0.375 15.344,1.938 15.344,2.07 13.156,0.375 	"/>
	<polygon clip-path="url(#XMLID_9_)" fill="#344558" points="15.344,1.938 13.328,0.375 15.344,0.375 	"/>
</g>
<path fill="#AEADAE" d="M14.969,7.859c0,3.92-3.189,7.109-7.109,7.109S0.75,11.779,0.75,7.859S3.939,0.75,7.859,0.75
	S14.969,3.939,14.969,7.859z M7.859,0C3.525,0,0,3.526,0,7.859c0,4.334,3.525,7.859,7.859,7.859s7.859-3.525,7.859-7.859
	C15.719,3.526,12.193,0,7.859,0z"/>
<path fill="#FFFFFF" d="M8.799,4.274v7.601H7.754V6.474H6.005V5.715c0.483-0.011,1.716-0.044,1.991-1.441H8.799z"/>
</svg>
