<?xml version="1.0" encoding="utf-8"?>
<!-- Generator: Adobe Illustrator 12.0.1, SVG Export Plug-In  -->
<!DOCTYPE svg PUBLIC "-//W3C//DTD SVG 1.1//EN" "http://www.w3.org/Graphics/SVG/1.1/DTD/svg11.dtd" [
	<!ENTITY ns_flows "http://ns.adobe.com/Flows/1.0/">
	<!ENTITY ns_svg "http://www.w3.org/2000/svg">
	<!ENTITY ns_xlink "http://www.w3.org/1999/xlink">
]>
<svg  version="1.1" xmlns="&ns_svg;" xmlns:xlink="&ns_xlink;" xmlns:a="http://ns.adobe.com/AdobeSVGViewerExtensions/3.0/"
	 width="17" height="16" viewBox="-0.75 -0.258 17 16" enable-background="new -0.75 -0.258 17 16" xml:space="preserve">
<defs>
</defs>
<g>
	<defs>
		<circle id="XMLID_6_" cx="7.859" cy="7.858" r="7.484"/>
	</defs>
	<clipPath id="XMLID_9_">
		<use xlink:href="#XMLID_6_" />
	</clipPath>
	<polygon clip-path="url(#XMLID_9_)" fill="#CBD2D8" points="0.375,13.379 2.148,15.344 0.375,15.344 	"/>
	<polygon clip-path="url(#XMLID_9_)" fill="#CBD2D8" points="0.375,13.207 2.301,15.344 2.148,15.344 0.375,13.379 	"/>
	<polygon clip-path="url(#XMLID_9_)" fill="#C9D0D5" points="2.457,15.344 0.375,13.039 0.375,13.207 2.301,15.344 	"/>
	<polygon clip-path="url(#XMLID_9_)" fill="#C6CDD3" points="0.375,12.867 2.609,15.344 2.457,15.344 0.375,13.039 	"/>
	<polygon clip-path="url(#XMLID_9_)" fill="#C5CCD2" points="0.375,12.695 2.766,15.344 2.609,15.344 0.375,12.867 	"/>
	<polygon clip-path="url(#XMLID_9_)" fill="#C3C9D0" points="0.375,12.523 2.918,15.344 2.766,15.344 0.375,12.695 	"/>
	<polygon clip-path="url(#XMLID_9_)" fill="#C1C8CE" points="0.375,12.352 3.07,15.344 2.918,15.344 0.375,12.523 	"/>
	<polygon clip-path="url(#XMLID_9_)" fill="#BFC5CC" points="0.375,12.184 3.227,15.344 3.07,15.344 0.375,12.352 	"/>
	<polygon clip-path="url(#XMLID_9_)" fill="#BEC4CB" points="0.375,12.012 3.379,15.344 3.227,15.344 0.375,12.184 	"/>
	<polygon clip-path="url(#XMLID_9_)" fill="#BBC2C9" points="0.375,11.844 3.531,15.344 3.379,15.344 0.375,12.012 	"/>
	<polygon clip-path="url(#XMLID_9_)" fill="#BAC0C8" points="0.375,11.672 3.688,15.344 3.531,15.344 0.375,11.844 	"/>
	<polygon clip-path="url(#XMLID_9_)" fill="#B7BEC6" points="0.375,11.5 3.844,15.344 3.688,15.344 0.375,11.672 	"/>
	<polygon clip-path="url(#XMLID_9_)" fill="#B6BDC5" points="0.375,11.328 3.996,15.344 3.844,15.344 0.375,11.5 	"/>
	<polygon clip-path="url(#XMLID_9_)" fill="#B5BBC3" points="0.375,11.16 4.148,15.344 3.996,15.344 0.375,11.328 	"/>
	<polygon clip-path="url(#XMLID_9_)" fill="#B3BAC2" points="0.375,10.988 4.305,15.344 4.148,15.344 0.375,11.16 	"/>
	<polygon clip-path="url(#XMLID_9_)" fill="#B1B7C0" points="0.375,10.816 4.457,15.344 4.305,15.344 0.375,10.988 	"/>
	<polygon clip-path="url(#XMLID_9_)" fill="#B0B6BF" points="4.613,15.344 0.375,10.648 0.375,10.816 4.457,15.344 	"/>
	<polygon clip-path="url(#XMLID_9_)" fill="#AEB5BE" points="0.375,10.477 4.766,15.344 4.613,15.344 0.375,10.648 	"/>
	<polygon clip-path="url(#XMLID_9_)" fill="#ADB3BC" points="0.375,10.305 4.922,15.344 4.766,15.344 0.375,10.477 	"/>
	<polygon clip-path="url(#XMLID_9_)" fill="#ABB2BC" points="0.375,10.133 5.074,15.344 4.922,15.344 0.375,10.305 	"/>
	<polygon clip-path="url(#XMLID_9_)" fill="#AAB0BA" points="0.375,9.965 5.227,15.344 5.074,15.344 0.375,10.133 	"/>
	<polygon clip-path="url(#XMLID_9_)" fill="#A8AEB8" points="0.375,9.797 5.383,15.344 5.227,15.344 0.375,9.965 	"/>
	<polygon clip-path="url(#XMLID_9_)" fill="#A6ADB7" points="0.375,9.625 5.535,15.344 5.383,15.344 0.375,9.797 	"/>
	<polygon clip-path="url(#XMLID_9_)" fill="#A6ACB6" points="0.375,9.453 5.691,15.344 5.535,15.344 0.375,9.625 	"/>
	<polygon clip-path="url(#XMLID_9_)" fill="#A3AAB4" points="5.844,15.344 0.375,9.281 0.375,9.453 5.691,15.344 	"/>
	<polygon clip-path="url(#XMLID_9_)" fill="#A2A8B3" points="0.375,9.109 6,15.344 5.844,15.344 0.375,9.281 	"/>
	<polygon clip-path="url(#XMLID_9_)" fill="#A0A7B1" points="0.375,8.941 6.152,15.344 6,15.344 0.375,9.109 	"/>
	<polygon clip-path="url(#XMLID_9_)" fill="#9FA6B0" points="6.305,15.344 0.375,8.77 0.375,8.941 6.152,15.344 	"/>
	<polygon clip-path="url(#XMLID_9_)" fill="#9EA4AF" points="6.461,15.344 0.375,8.602 0.375,8.77 6.305,15.344 	"/>
	<polygon clip-path="url(#XMLID_9_)" fill="#9CA3AE" points="0.375,8.43 6.613,15.344 6.461,15.344 0.375,8.602 	"/>
	<polygon clip-path="url(#XMLID_9_)" fill="#9BA1AD" points="0.375,8.258 6.77,15.344 6.613,15.344 0.375,8.43 	"/>
	<polygon clip-path="url(#XMLID_9_)" fill="#9AA0AB" points="0.375,8.086 6.922,15.344 6.77,15.344 0.375,8.258 	"/>
	<polygon clip-path="url(#XMLID_9_)" fill="#989FAA" points="0.375,7.914 7.078,15.344 6.922,15.344 0.375,8.086 	"/>
	<polygon clip-path="url(#XMLID_9_)" fill="#979EAA" points="0.375,7.746 7.23,15.344 7.078,15.344 0.375,7.914 	"/>
	<polygon clip-path="url(#XMLID_9_)" fill="#969CA8" points="0.375,7.574 7.383,15.344 7.23,15.344 0.375,7.746 	"/>
	<polygon clip-path="url(#XMLID_9_)" fill="#949BA7" points="0.375,7.406 7.539,15.344 7.383,15.344 0.375,7.574 	"/>
	<polygon clip-path="url(#XMLID_9_)" fill="#9399A5" points="0.375,7.234 7.691,15.344 7.539,15.344 0.375,7.406 	"/>
	<polygon clip-path="url(#XMLID_9_)" fill="#9298A4" points="0.375,7.062 7.848,15.344 7.691,15.344 0.375,7.234 	"/>
	<polygon clip-path="url(#XMLID_9_)" fill="#9097A3" points="0.375,6.891 8,15.344 7.848,15.344 0.375,7.062 	"/>
	<polygon clip-path="url(#XMLID_9_)" fill="#8F95A2" points="0.375,6.723 8.156,15.344 8,15.344 0.375,6.891 	"/>
	<polygon clip-path="url(#XMLID_9_)" fill="#8E95A1" points="8.309,15.344 0.375,6.551 0.375,6.723 8.156,15.344 	"/>
	<polygon clip-path="url(#XMLID_9_)" fill="#8D93A0" points="0.375,6.383 8.461,15.344 8.309,15.344 0.375,6.551 	"/>
	<polygon clip-path="url(#XMLID_9_)" fill="#8B929F" points="0.375,6.211 8.617,15.344 8.461,15.344 0.375,6.383 	"/>
	<polygon clip-path="url(#XMLID_9_)" fill="#8A919E" points="0.375,6.039 8.77,15.344 8.617,15.344 0.375,6.211 	"/>
	<polygon clip-path="url(#XMLID_9_)" fill="#898F9D" points="0.375,5.867 8.926,15.344 8.77,15.344 0.375,6.039 	"/>
	<polygon clip-path="url(#XMLID_9_)" fill="#878E9B" points="0.375,5.695 9.078,15.344 8.926,15.344 0.375,5.867 	"/>
	<polygon clip-path="url(#XMLID_9_)" fill="#878D9B" points="0.375,5.527 9.234,15.344 9.078,15.344 0.375,5.695 	"/>
	<polygon clip-path="url(#XMLID_9_)" fill="#858C9A" points="9.387,15.344 0.375,5.355 0.375,5.527 9.234,15.344 	"/>
	<polygon clip-path="url(#XMLID_9_)" fill="#848B98" points="0.375,5.188 9.539,15.344 9.387,15.344 0.375,5.355 	"/>
	<polygon clip-path="url(#XMLID_9_)" fill="#838A97" points="0.375,5.016 9.695,15.344 9.539,15.344 0.375,5.188 	"/>
	<polygon clip-path="url(#XMLID_9_)" fill="#828997" points="0.375,4.844 9.848,15.344 9.695,15.344 0.375,5.016 	"/>
	<polygon clip-path="url(#XMLID_9_)" fill="#818895" points="0.375,4.676 10,15.344 9.848,15.344 0.375,4.844 	"/>
	<polygon clip-path="url(#XMLID_9_)" fill="#808794" points="0.375,4.504 10.156,15.344 10,15.344 0.375,4.676 	"/>
	<polygon clip-path="url(#XMLID_9_)" fill="#7E8594" points="0.375,4.332 10.312,15.344 10.156,15.344 0.375,4.504 	"/>
	<polygon clip-path="url(#XMLID_9_)" fill="#7D8593" points="10.465,15.344 0.375,4.164 0.375,4.332 10.312,15.344 	"/>
	<polygon clip-path="url(#XMLID_9_)" fill="#7C8392" points="0.375,3.992 10.617,15.344 10.465,15.344 0.375,4.164 	"/>
	<polygon clip-path="url(#XMLID_9_)" fill="#7B8290" points="10.773,15.344 0.375,3.82 0.375,3.992 10.617,15.344 	"/>
	<polygon clip-path="url(#XMLID_9_)" fill="#7A8190" points="0.375,3.648 10.926,15.344 10.773,15.344 0.375,3.82 	"/>
	<polygon clip-path="url(#XMLID_9_)" fill="#79808F" points="0.375,3.477 11.082,15.344 10.926,15.344 0.375,3.648 	"/>
	<polygon clip-path="url(#XMLID_9_)" fill="#787F8D" points="0.375,3.309 11.234,15.344 11.082,15.344 0.375,3.477 	"/>
	<polygon clip-path="url(#XMLID_9_)" fill="#777E8D" points="0.375,3.137 11.391,15.344 11.234,15.344 0.375,3.309 	"/>
	<polygon clip-path="url(#XMLID_9_)" fill="#767D8C" points="0.375,2.969 11.543,15.344 11.391,15.344 0.375,3.137 	"/>
	<polygon clip-path="url(#XMLID_9_)" fill="#767C8B" points="0.375,2.797 11.695,15.344 11.543,15.344 0.375,2.969 	"/>
	<polygon clip-path="url(#XMLID_9_)" fill="#747B8A" points="11.852,15.344 0.375,2.625 0.375,2.797 11.695,15.344 	"/>
	<polygon clip-path="url(#XMLID_9_)" fill="#737A89" points="0.375,2.453 12.004,15.344 11.852,15.344 0.375,2.625 	"/>
	<polygon clip-path="url(#XMLID_9_)" fill="#727989" points="0.375,2.285 12.156,15.344 12.004,15.344 0.375,2.453 	"/>
	<polygon clip-path="url(#XMLID_9_)" fill="#717888" points="0.375,2.113 12.312,15.344 12.156,15.344 0.375,2.285 	"/>
	<polygon clip-path="url(#XMLID_9_)" fill="#707786" points="12.469,15.344 0.375,1.941 0.375,2.113 12.312,15.344 	"/>
	<polygon clip-path="url(#XMLID_9_)" fill="#6F7686" points="0.375,1.773 12.621,15.344 12.469,15.344 0.375,1.941 	"/>
	<polygon clip-path="url(#XMLID_9_)" fill="#6D7585" points="0.375,1.602 12.773,15.344 12.621,15.344 0.375,1.773 	"/>
	<polygon clip-path="url(#XMLID_9_)" fill="#6D7584" points="0.375,1.43 12.93,15.344 12.773,15.344 0.375,1.602 	"/>
	<polygon clip-path="url(#XMLID_9_)" fill="#6C7383" points="0.375,1.262 13.082,15.344 12.93,15.344 0.375,1.43 	"/>
	<polygon clip-path="url(#XMLID_9_)" fill="#6B7383" points="0.375,1.09 13.238,15.344 13.082,15.344 0.375,1.262 	"/>
	<polygon clip-path="url(#XMLID_9_)" fill="#6A7281" points="0.375,0.918 13.391,15.344 13.238,15.344 0.375,1.09 	"/>
	<polygon clip-path="url(#XMLID_9_)" fill="#697181" points="0.375,0.75 13.547,15.344 13.391,15.344 0.375,0.918 	"/>
	<polygon clip-path="url(#XMLID_9_)" fill="#697080" points="0.375,0.703 0.438,0.648 13.699,15.344 13.547,15.344 0.375,0.75 	"/>
	<polygon clip-path="url(#XMLID_9_)" fill="#686F7F" points="0.438,0.648 0.523,0.57 13.852,15.344 13.699,15.344 	"/>
	<polygon clip-path="url(#XMLID_9_)" fill="#676E7E" points="0.523,0.57 0.609,0.492 14.008,15.344 13.852,15.344 	"/>
	<polygon clip-path="url(#XMLID_9_)" fill="#656D7D" points="0.609,0.492 0.691,0.418 14.16,15.344 14.008,15.344 	"/>
	<polygon clip-path="url(#XMLID_9_)" fill="#646C7D" points="0.691,0.418 0.738,0.375 0.809,0.375 14.312,15.344 14.16,15.344 	"/>
	<polygon clip-path="url(#XMLID_9_)" fill="#646C7C" points="0.961,0.375 14.469,15.344 14.312,15.344 0.809,0.375 	"/>
	<polygon clip-path="url(#XMLID_9_)" fill="#636B7C" points="1.117,0.375 14.625,15.344 14.469,15.344 0.961,0.375 	"/>
	<polygon clip-path="url(#XMLID_9_)" fill="#626B7B" points="1.27,0.375 14.777,15.344 14.625,15.344 1.117,0.375 	"/>
	<polygon clip-path="url(#XMLID_9_)" fill="#616A7A" points="1.426,0.375 14.93,15.344 14.777,15.344 1.27,0.375 	"/>
	<polygon clip-path="url(#XMLID_9_)" fill="#606979" points="1.578,0.375 15.039,15.289 14.98,15.344 14.93,15.344 1.426,0.375 	"/>
	<polygon clip-path="url(#XMLID_9_)" fill="#5F6878" points="1.734,0.375 15.125,15.215 15.039,15.289 1.578,0.375 	"/>
	<polygon clip-path="url(#XMLID_9_)" fill="#5F6878" points="1.887,0.375 15.207,15.137 15.125,15.215 1.734,0.375 	"/>
	<polygon clip-path="url(#XMLID_9_)" fill="#5E6777" points="15.207,15.137 15.293,15.062 2.039,0.375 1.887,0.375 	"/>
	<polygon clip-path="url(#XMLID_9_)" fill="#5D6676" points="2.195,0.375 15.344,14.945 15.344,15.016 15.293,15.062 2.039,0.375 	
		"/>
	<polygon clip-path="url(#XMLID_9_)" fill="#5C6576" points="2.348,0.375 15.344,14.777 15.344,14.945 2.195,0.375 	"/>
	<polygon clip-path="url(#XMLID_9_)" fill="#5B6475" points="2.5,0.375 15.344,14.605 15.344,14.777 2.348,0.375 	"/>
	<polygon clip-path="url(#XMLID_9_)" fill="#5B6475" points="2.656,0.375 15.344,14.434 15.344,14.605 2.5,0.375 	"/>
	<polygon clip-path="url(#XMLID_9_)" fill="#5A6373" points="2.812,0.375 15.344,14.266 15.344,14.434 2.656,0.375 	"/>
	<polygon clip-path="url(#XMLID_9_)" fill="#596273" points="2.965,0.375 15.344,14.094 15.344,14.266 2.812,0.375 	"/>
	<polygon clip-path="url(#XMLID_9_)" fill="#586172" points="3.117,0.375 15.344,13.922 15.344,14.094 2.965,0.375 	"/>
	<polygon clip-path="url(#XMLID_9_)" fill="#576172" points="3.273,0.375 15.344,13.75 15.344,13.922 3.117,0.375 	"/>
	<polygon clip-path="url(#XMLID_9_)" fill="#566071" points="15.344,13.582 3.426,0.375 3.273,0.375 15.344,13.75 	"/>
	<polygon clip-path="url(#XMLID_9_)" fill="#566070" points="3.582,0.375 15.344,13.41 15.344,13.582 3.426,0.375 	"/>
	<polygon clip-path="url(#XMLID_9_)" fill="#555F70" points="3.734,0.375 15.344,13.238 15.344,13.41 3.582,0.375 	"/>
	<polygon clip-path="url(#XMLID_9_)" fill="#545E6F" points="15.344,13.07 3.891,0.375 3.734,0.375 15.344,13.238 	"/>
	<polygon clip-path="url(#XMLID_9_)" fill="#535E6F" points="4.043,0.375 15.344,12.898 15.344,13.07 3.891,0.375 	"/>
	<polygon clip-path="url(#XMLID_9_)" fill="#535D6E" points="15.344,12.727 4.195,0.375 4.043,0.375 15.344,12.898 	"/>
	<polygon clip-path="url(#XMLID_9_)" fill="#525C6D" points="4.352,0.375 15.344,12.559 15.344,12.727 4.195,0.375 	"/>
	<polygon clip-path="url(#XMLID_9_)" fill="#515C6D" points="4.504,0.375 15.344,12.387 15.344,12.559 4.352,0.375 	"/>
	<polygon clip-path="url(#XMLID_9_)" fill="#505B6C" points="4.656,0.375 15.344,12.219 15.344,12.387 4.504,0.375 	"/>
	<polygon clip-path="url(#XMLID_9_)" fill="#505B6C" points="4.812,0.375 15.344,12.047 15.344,12.219 4.656,0.375 	"/>
	<polygon clip-path="url(#XMLID_9_)" fill="#505A6B" points="4.969,0.375 15.344,11.875 15.344,12.047 4.812,0.375 	"/>
	<polygon clip-path="url(#XMLID_9_)" fill="#4F596A" points="5.121,0.375 15.344,11.703 15.344,11.875 4.969,0.375 	"/>
	<polygon clip-path="url(#XMLID_9_)" fill="#4E596A" points="5.273,0.375 15.344,11.531 15.344,11.703 5.121,0.375 	"/>
	<polygon clip-path="url(#XMLID_9_)" fill="#4D5869" points="5.43,0.375 15.344,11.363 15.344,11.531 5.273,0.375 	"/>
	<polygon clip-path="url(#XMLID_9_)" fill="#4C5869" points="5.582,0.375 15.344,11.191 15.344,11.363 5.43,0.375 	"/>
	<polygon clip-path="url(#XMLID_9_)" fill="#4C5768" points="5.738,0.375 15.344,11.023 15.344,11.191 5.582,0.375 	"/>
	<polygon clip-path="url(#XMLID_9_)" fill="#4B5768" points="5.891,0.375 15.344,10.852 15.344,11.023 5.738,0.375 	"/>
	<polygon clip-path="url(#XMLID_9_)" fill="#4B5667" points="6.047,0.375 15.344,10.68 15.344,10.852 5.891,0.375 	"/>
	<polygon clip-path="url(#XMLID_9_)" fill="#4A5567" points="6.199,0.375 15.344,10.508 15.344,10.68 6.047,0.375 	"/>
	<polygon clip-path="url(#XMLID_9_)" fill="#495566" points="6.352,0.375 15.344,10.34 15.344,10.508 6.199,0.375 	"/>
	<polygon clip-path="url(#XMLID_9_)" fill="#485566" points="6.508,0.375 15.344,10.168 15.344,10.34 6.352,0.375 	"/>
	<polygon clip-path="url(#XMLID_9_)" fill="#485466" points="6.66,0.375 15.344,10 15.344,10.168 6.508,0.375 	"/>
	<polygon clip-path="url(#XMLID_9_)" fill="#475365" points="6.812,0.375 15.344,9.828 15.344,10 6.66,0.375 	"/>
	<polygon clip-path="url(#XMLID_9_)" fill="#475365" points="6.969,0.375 15.344,9.656 15.344,9.828 6.812,0.375 	"/>
	<polygon clip-path="url(#XMLID_9_)" fill="#465264" points="7.125,0.375 15.344,9.484 15.344,9.656 6.969,0.375 	"/>
	<polygon clip-path="url(#XMLID_9_)" fill="#455264" points="7.277,0.375 15.344,9.312 15.344,9.484 7.125,0.375 	"/>
	<polygon clip-path="url(#XMLID_9_)" fill="#445263" points="7.43,0.375 15.344,9.145 15.344,9.312 7.277,0.375 	"/>
	<polygon clip-path="url(#XMLID_9_)" fill="#445163" points="7.586,0.375 15.344,8.973 15.344,9.145 7.43,0.375 	"/>
	<polygon clip-path="url(#XMLID_9_)" fill="#445062" points="15.344,8.805 7.738,0.375 7.586,0.375 15.344,8.973 	"/>
	<polygon clip-path="url(#XMLID_9_)" fill="#425062" points="7.895,0.375 15.344,8.633 15.344,8.805 7.738,0.375 	"/>
	<polygon clip-path="url(#XMLID_9_)" fill="#425062" points="8.047,0.375 15.344,8.461 15.344,8.633 7.895,0.375 	"/>
	<polygon clip-path="url(#XMLID_9_)" fill="#424F61" points="15.344,8.289 8.203,0.375 8.047,0.375 15.344,8.461 	"/>
	<polygon clip-path="url(#XMLID_9_)" fill="#414F61" points="8.355,0.375 15.344,8.121 15.344,8.289 8.203,0.375 	"/>
	<polygon clip-path="url(#XMLID_9_)" fill="#404E60" points="8.508,0.375 15.344,7.949 15.344,8.121 8.355,0.375 	"/>
	<polygon clip-path="url(#XMLID_9_)" fill="#3F4E60" points="8.664,0.375 15.344,7.781 15.344,7.949 8.508,0.375 	"/>
	<polygon clip-path="url(#XMLID_9_)" fill="#3F4D60" points="15.344,7.609 8.816,0.375 8.664,0.375 15.344,7.781 	"/>
	<polygon clip-path="url(#XMLID_9_)" fill="#3F4D5F" points="8.969,0.375 15.344,7.438 15.344,7.609 8.816,0.375 	"/>
	<polygon clip-path="url(#XMLID_9_)" fill="#3E4D5F" points="9.125,0.375 15.344,7.266 15.344,7.438 8.969,0.375 	"/>
	<polygon clip-path="url(#XMLID_9_)" fill="#3E4C5E" points="9.281,0.375 15.344,7.094 15.344,7.266 9.125,0.375 	"/>
	<polygon clip-path="url(#XMLID_9_)" fill="#3D4C5E" points="9.434,0.375 15.344,6.926 15.344,7.094 9.281,0.375 	"/>
	<polygon clip-path="url(#XMLID_9_)" fill="#3D4C5E" points="9.586,0.375 15.344,6.754 15.344,6.926 9.434,0.375 	"/>
	<polygon clip-path="url(#XMLID_9_)" fill="#3C4B5D" points="9.742,0.375 15.344,6.586 15.344,6.754 9.586,0.375 	"/>
	<polygon clip-path="url(#XMLID_9_)" fill="#3C4B5D" points="9.895,0.375 15.344,6.414 15.344,6.586 9.742,0.375 	"/>
	<polygon clip-path="url(#XMLID_9_)" fill="#3C4B5D" points="10.047,0.375 15.344,6.242 15.344,6.414 9.895,0.375 	"/>
	<polygon clip-path="url(#XMLID_9_)" fill="#3B4A5C" points="10.203,0.375 15.344,6.07 15.344,6.242 10.047,0.375 	"/>
	<polygon clip-path="url(#XMLID_9_)" fill="#3B4A5C" points="10.355,0.375 15.344,5.898 15.344,6.07 10.203,0.375 	"/>
	<polygon clip-path="url(#XMLID_9_)" fill="#3A495C" points="10.512,0.375 15.344,5.73 15.344,5.898 10.355,0.375 	"/>
	<polygon clip-path="url(#XMLID_9_)" fill="#3A495B" points="15.344,5.559 10.664,0.375 10.512,0.375 15.344,5.73 	"/>
	<polygon clip-path="url(#XMLID_9_)" fill="#39495B" points="10.82,0.375 15.344,5.391 15.344,5.559 10.664,0.375 	"/>
	<polygon clip-path="url(#XMLID_9_)" fill="#38495B" points="10.973,0.375 15.344,5.219 15.344,5.391 10.82,0.375 	"/>
	<polygon clip-path="url(#XMLID_9_)" fill="#38485B" points="11.125,0.375 15.344,5.047 15.344,5.219 10.973,0.375 	"/>
	<polygon clip-path="url(#XMLID_9_)" fill="#38485A" points="11.281,0.375 15.344,4.875 15.344,5.047 11.125,0.375 	"/>
	<polygon clip-path="url(#XMLID_9_)" fill="#37485A" points="11.434,0.375 15.344,4.707 15.344,4.875 11.281,0.375 	"/>
	<polygon clip-path="url(#XMLID_9_)" fill="#38475A" points="11.59,0.375 15.344,4.535 15.344,4.707 11.434,0.375 	"/>
	<polygon clip-path="url(#XMLID_9_)" fill="#37475A" points="15.344,4.363 11.742,0.375 11.59,0.375 15.344,4.535 	"/>
	<polygon clip-path="url(#XMLID_9_)" fill="#374659" points="11.898,0.375 15.344,4.195 15.344,4.363 11.742,0.375 	"/>
	<polygon clip-path="url(#XMLID_9_)" fill="#364659" points="12.051,0.375 15.344,4.023 15.344,4.195 11.898,0.375 	"/>
	<polygon clip-path="url(#XMLID_9_)" fill="#364659" points="12.203,0.375 15.344,3.852 15.344,4.023 12.051,0.375 	"/>
	<polygon clip-path="url(#XMLID_9_)" fill="#364659" points="12.359,0.375 15.344,3.68 15.344,3.852 12.203,0.375 	"/>
	<polygon clip-path="url(#XMLID_9_)" fill="#354659" points="12.512,0.375 15.344,3.512 15.344,3.68 12.359,0.375 	"/>
	<polygon clip-path="url(#XMLID_9_)" fill="#354659" points="12.668,0.375 15.344,3.344 15.344,3.512 12.512,0.375 	"/>
	<polygon clip-path="url(#XMLID_9_)" fill="#354658" points="12.82,0.375 15.344,3.172 15.344,3.344 12.668,0.375 	"/>
	<polygon clip-path="url(#XMLID_9_)" fill="#344558" points="12.977,0.375 15.344,3 15.344,3.172 12.82,0.375 	"/>
	<polygon clip-path="url(#XMLID_9_)" fill="#344558" points="13.129,0.375 15.344,2.828 15.344,3 12.977,0.375 	"/>
	<polygon clip-path="url(#XMLID_9_)" fill="#344558" points="13.281,0.375 15.344,2.656 15.344,2.828 13.129,0.375 	"/>
	<polygon clip-path="url(#XMLID_9_)" fill="#344558" points="13.438,0.375 15.344,2.488 15.344,2.656 13.281,0.375 	"/>
	<polygon clip-path="url(#XMLID_9_)" fill="#344558" points="15.344,2.488 13.438,0.375 15.344,0.375 	"/>
</g>
<path fill="#AEADAE" d="M14.969,7.858c0,3.92-3.189,7.109-7.109,7.109S0.75,11.778,0.75,7.858S3.939,0.75,7.859,0.75
	S14.969,3.938,14.969,7.858z M7.859,0C3.525,0,0,3.525,0,7.858c0,4.334,3.525,7.859,7.859,7.859s7.859-3.525,7.859-7.859
	C15.719,3.525,12.193,0,7.859,0z"/>
<path fill="#FFFFFF" d="M5.208,4.142v7.601H4.163V6.341H2.414V5.582c0.484-0.011,1.716-0.044,1.991-1.44H5.208z"/>
<path fill="#FFFFFF" d="M10.455,11.819c-0.627,0-1.562-0.144-2.211-1.199C7.76,9.817,7.683,8.783,7.683,7.958
	c0-0.495,0.022-0.968,0.11-1.43c0.341-1.87,1.518-2.563,2.739-2.563c0.429,0,0.857,0.089,1.231,0.275
	c1.122,0.605,1.485,1.947,1.485,3.575C13.249,8.541,13.249,11.819,10.455,11.819z M12.182,7.771c0-0.814-0.044-2.959-1.683-2.959
	c-0.297,0-0.594,0.088-0.825,0.242C8.948,5.549,8.75,6.649,8.75,7.925c0,0.804,0.044,3.025,1.727,3.025
	C12.028,10.95,12.182,9.091,12.182,7.771z"/>
</svg>
