<?xml version="1.0" encoding="utf-8"?>
<!-- Generator: Adobe Illustrator 12.0.1, SVG Export Plug-In  -->
<!DOCTYPE svg PUBLIC "-//W3C//DTD SVG 1.1//EN" "http://www.w3.org/Graphics/SVG/1.1/DTD/svg11.dtd" [
	<!ENTITY ns_flows "http://ns.adobe.com/Flows/1.0/">
	<!ENTITY ns_svg "http://www.w3.org/2000/svg">
	<!ENTITY ns_xlink "http://www.w3.org/1999/xlink">
]>
<svg  version="1.1" xmlns="&ns_svg;" xmlns:xlink="&ns_xlink;" xmlns:a="http://ns.adobe.com/AdobeSVGViewerExtensions/3.0/"
	 width="17" height="17" viewBox="-0.75 -0.657 17 17" enable-background="new -0.75 -0.657 17 17" xml:space="preserve">
<defs>
</defs>
<g>
	<defs>
		<circle id="XMLID_6_" cx="7.859" cy="7.859" r="7.484"/>
	</defs>
	<clipPath id="XMLID_9_">
		<use xlink:href="#XMLID_6_" />
	</clipPath>
	<polygon clip-path="url(#XMLID_9_)" fill="#CBD2D8" points="0.375,10.569 4.891,15.343 0.375,15.343 	"/>
	<polygon clip-path="url(#XMLID_9_)" fill="#CBD2D8" points="0.375,10.413 5.039,15.343 4.891,15.343 0.375,10.569 	"/>
	<polygon clip-path="url(#XMLID_9_)" fill="#C9D0D5" points="0.375,10.261 5.18,15.343 5.039,15.343 0.375,10.413 	"/>
	<polygon clip-path="url(#XMLID_9_)" fill="#C6CDD3" points="0.375,10.108 5.328,15.343 5.18,15.343 0.375,10.261 	"/>
	<polygon clip-path="url(#XMLID_9_)" fill="#C5CCD2" points="5.473,15.343 0.375,9.952 0.375,10.108 5.328,15.343 	"/>
	<polygon clip-path="url(#XMLID_9_)" fill="#C3C9D0" points="0.375,9.8 5.617,15.343 5.473,15.343 0.375,9.952 	"/>
	<polygon clip-path="url(#XMLID_9_)" fill="#C1C8CE" points="0.375,9.647 5.762,15.343 5.617,15.343 0.375,9.8 	"/>
	<polygon clip-path="url(#XMLID_9_)" fill="#BFC5CC" points="0.375,9.495 5.906,15.343 5.762,15.343 0.375,9.647 	"/>
	<polygon clip-path="url(#XMLID_9_)" fill="#BEC4CB" points="0.375,9.339 6.055,15.343 5.906,15.343 0.375,9.495 	"/>
	<polygon clip-path="url(#XMLID_9_)" fill="#BBC2C9" points="0.375,9.187 6.199,15.343 6.055,15.343 0.375,9.339 	"/>
	<polygon clip-path="url(#XMLID_9_)" fill="#BAC0C8" points="6.344,15.343 0.375,9.034 0.375,9.187 6.199,15.343 	"/>
	<polygon clip-path="url(#XMLID_9_)" fill="#B7BEC6" points="0.375,8.882 6.488,15.343 6.344,15.343 0.375,9.034 	"/>
	<polygon clip-path="url(#XMLID_9_)" fill="#B6BDC5" points="0.375,8.726 6.633,15.343 6.488,15.343 0.375,8.882 	"/>
	<polygon clip-path="url(#XMLID_9_)" fill="#B5BBC3" points="0.375,8.573 6.781,15.343 6.633,15.343 0.375,8.726 	"/>
	<polygon clip-path="url(#XMLID_9_)" fill="#B3BAC2" points="0.375,8.421 6.926,15.343 6.781,15.343 0.375,8.573 	"/>
	<polygon clip-path="url(#XMLID_9_)" fill="#B1B7C0" points="0.375,8.265 7.07,15.343 6.926,15.343 0.375,8.421 	"/>
	<polygon clip-path="url(#XMLID_9_)" fill="#B0B6BF" points="0.375,8.112 7.215,15.343 7.07,15.343 0.375,8.265 	"/>
	<polygon clip-path="url(#XMLID_9_)" fill="#AEB5BE" points="7.359,15.343 0.375,7.96 0.375,8.112 7.215,15.343 	"/>
	<polygon clip-path="url(#XMLID_9_)" fill="#ADB3BC" points="0.375,7.804 7.504,15.343 7.359,15.343 0.375,7.96 	"/>
	<polygon clip-path="url(#XMLID_9_)" fill="#ABB2BC" points="0.375,7.651 7.648,15.343 7.504,15.343 0.375,7.804 	"/>
	<polygon clip-path="url(#XMLID_9_)" fill="#AAB0BA" points="0.375,7.499 7.797,15.343 7.648,15.343 0.375,7.651 	"/>
	<polygon clip-path="url(#XMLID_9_)" fill="#A8AEB8" points="0.375,7.347 7.941,15.343 7.797,15.343 0.375,7.499 	"/>
	<polygon clip-path="url(#XMLID_9_)" fill="#A6ADB7" points="0.375,7.19 8.086,15.343 7.941,15.343 0.375,7.347 	"/>
	<polygon clip-path="url(#XMLID_9_)" fill="#A6ACB6" points="0.375,7.038 8.23,15.343 8.086,15.343 0.375,7.19 	"/>
	<polygon clip-path="url(#XMLID_9_)" fill="#A3AAB4" points="0.375,6.886 8.375,15.343 8.23,15.343 0.375,7.038 	"/>
	<polygon clip-path="url(#XMLID_9_)" fill="#A2A8B3" points="0.375,6.733 8.523,15.343 8.375,15.343 0.375,6.886 	"/>
	<polygon clip-path="url(#XMLID_9_)" fill="#A0A7B1" points="0.375,6.577 8.664,15.343 8.523,15.343 0.375,6.733 	"/>
	<polygon clip-path="url(#XMLID_9_)" fill="#9FA6B0" points="0.375,6.425 8.812,15.343 8.664,15.343 0.375,6.577 	"/>
	<polygon clip-path="url(#XMLID_9_)" fill="#9EA4AF" points="0.375,6.272 8.957,15.343 8.812,15.343 0.375,6.425 	"/>
	<polygon clip-path="url(#XMLID_9_)" fill="#9CA3AE" points="0.375,6.116 9.102,15.343 8.957,15.343 0.375,6.272 	"/>
	<polygon clip-path="url(#XMLID_9_)" fill="#9BA1AD" points="0.375,5.964 9.246,15.343 9.102,15.343 0.375,6.116 	"/>
	<polygon clip-path="url(#XMLID_9_)" fill="#9AA0AB" points="0.375,5.812 9.391,15.343 9.246,15.343 0.375,5.964 	"/>
	<polygon clip-path="url(#XMLID_9_)" fill="#989FAA" points="0.375,5.655 9.539,15.343 9.391,15.343 0.375,5.812 	"/>
	<polygon clip-path="url(#XMLID_9_)" fill="#979EAA" points="0.375,5.503 9.68,15.343 9.539,15.343 0.375,5.655 	"/>
	<polygon clip-path="url(#XMLID_9_)" fill="#969CA8" points="0.375,5.351 9.828,15.343 9.68,15.343 0.375,5.503 	"/>
	<polygon clip-path="url(#XMLID_9_)" fill="#949BA7" points="0.375,5.198 9.973,15.343 9.828,15.343 0.375,5.351 	"/>
	<polygon clip-path="url(#XMLID_9_)" fill="#9399A5" points="0.375,5.046 10.117,15.343 9.973,15.343 0.375,5.198 	"/>
	<polygon clip-path="url(#XMLID_9_)" fill="#9298A4" points="0.375,4.89 10.262,15.343 10.117,15.343 0.375,5.046 	"/>
	<polygon clip-path="url(#XMLID_9_)" fill="#9097A3" points="0.375,4.737 10.406,15.343 10.262,15.343 0.375,4.89 	"/>
	<polygon clip-path="url(#XMLID_9_)" fill="#8F95A2" points="0.375,4.585 10.555,15.343 10.406,15.343 0.375,4.737 	"/>
	<polygon clip-path="url(#XMLID_9_)" fill="#8E95A1" points="0.375,4.429 10.699,15.343 10.555,15.343 0.375,4.585 	"/>
	<polygon clip-path="url(#XMLID_9_)" fill="#8D93A0" points="0.375,4.276 10.844,15.343 10.699,15.343 0.375,4.429 	"/>
	<polygon clip-path="url(#XMLID_9_)" fill="#8B929F" points="0.375,4.124 10.988,15.343 10.844,15.343 0.375,4.276 	"/>
	<polygon clip-path="url(#XMLID_9_)" fill="#8A919E" points="0.375,3.968 11.133,15.343 10.988,15.343 0.375,4.124 	"/>
	<polygon clip-path="url(#XMLID_9_)" fill="#898F9D" points="0.375,3.815 11.281,15.343 11.133,15.343 0.375,3.968 	"/>
	<polygon clip-path="url(#XMLID_9_)" fill="#878E9B" points="0.375,3.663 11.422,15.343 11.281,15.343 0.375,3.815 	"/>
	<polygon clip-path="url(#XMLID_9_)" fill="#878D9B" points="0.375,3.511 11.57,15.343 11.422,15.343 0.375,3.663 	"/>
	<polygon clip-path="url(#XMLID_9_)" fill="#858C9A" points="0.375,3.354 11.715,15.343 11.57,15.343 0.375,3.511 	"/>
	<polygon clip-path="url(#XMLID_9_)" fill="#848B98" points="11.859,15.343 0.375,3.202 0.375,3.354 11.715,15.343 	"/>
	<polygon clip-path="url(#XMLID_9_)" fill="#838A97" points="0.375,3.05 12.004,15.343 11.859,15.343 0.375,3.202 	"/>
	<polygon clip-path="url(#XMLID_9_)" fill="#828997" points="0.375,2.897 12.148,15.343 12.004,15.343 0.375,3.05 	"/>
	<polygon clip-path="url(#XMLID_9_)" fill="#818895" points="0.375,2.741 12.297,15.343 12.148,15.343 0.375,2.897 	"/>
	<polygon clip-path="url(#XMLID_9_)" fill="#808794" points="0.375,2.589 12.441,15.343 12.297,15.343 0.375,2.741 	"/>
	<polygon clip-path="url(#XMLID_9_)" fill="#7E8594" points="12.586,15.343 0.375,2.437 0.375,2.589 12.441,15.343 	"/>
	<polygon clip-path="url(#XMLID_9_)" fill="#7D8593" points="0.375,2.28 12.73,15.343 12.586,15.343 0.375,2.437 	"/>
	<polygon clip-path="url(#XMLID_9_)" fill="#7C8392" points="0.375,2.128 12.875,15.343 12.73,15.343 0.375,2.28 	"/>
	<polygon clip-path="url(#XMLID_9_)" fill="#7B8290" points="13.02,15.343 0.375,1.976 0.375,2.128 12.875,15.343 	"/>
	<polygon clip-path="url(#XMLID_9_)" fill="#7A8190" points="13.164,15.343 0.375,1.819 0.375,1.976 13.02,15.343 	"/>
	<polygon clip-path="url(#XMLID_9_)" fill="#79808F" points="13.312,15.343 0.375,1.667 0.375,1.819 13.164,15.343 	"/>
	<polygon clip-path="url(#XMLID_9_)" fill="#787F8D" points="0.375,1.515 13.457,15.343 13.312,15.343 0.375,1.667 	"/>
	<polygon clip-path="url(#XMLID_9_)" fill="#777E8D" points="0.375,1.362 13.602,15.343 13.457,15.343 0.375,1.515 	"/>
	<polygon clip-path="url(#XMLID_9_)" fill="#767D8C" points="0.375,1.206 13.746,15.343 13.602,15.343 0.375,1.362 	"/>
	<polygon clip-path="url(#XMLID_9_)" fill="#767C8B" points="0.375,1.054 13.891,15.343 13.746,15.343 0.375,1.206 	"/>
	<polygon clip-path="url(#XMLID_9_)" fill="#747B8A" points="0.375,0.901 14.039,15.343 13.891,15.343 0.375,1.054 	"/>
	<polygon clip-path="url(#XMLID_9_)" fill="#737A89" points="0.375,0.792 0.398,0.772 14.184,15.343 14.039,15.343 0.375,0.901 	"/>
	<polygon clip-path="url(#XMLID_9_)" fill="#727989" points="0.398,0.772 0.477,0.698 14.328,15.343 14.184,15.343 	"/>
	<polygon clip-path="url(#XMLID_9_)" fill="#717888" points="0.477,0.698 0.551,0.624 14.473,15.343 14.328,15.343 	"/>
	<polygon clip-path="url(#XMLID_9_)" fill="#707786" points="14.617,15.343 0.629,0.554 0.551,0.624 14.473,15.343 	"/>
	<polygon clip-path="url(#XMLID_9_)" fill="#6F7686" points="14.766,15.343 0.703,0.483 0.629,0.554 14.617,15.343 	"/>
	<polygon clip-path="url(#XMLID_9_)" fill="#6D7585" points="14.906,15.343 14.906,15.343 0.781,0.409 0.703,0.483 14.766,15.343 	
		"/>
	<polygon clip-path="url(#XMLID_9_)" fill="#6D7584" points="0.781,0.409 0.816,0.374 0.895,0.374 14.984,15.269 14.906,15.343 	"/>
	<polygon clip-path="url(#XMLID_9_)" fill="#6C7383" points="14.984,15.269 15.059,15.194 1.039,0.374 0.895,0.374 	"/>
	<polygon clip-path="url(#XMLID_9_)" fill="#6B7383" points="15.059,15.194 15.137,15.124 1.184,0.374 1.039,0.374 	"/>
	<polygon clip-path="url(#XMLID_9_)" fill="#6A7281" points="1.328,0.374 15.211,15.05 15.137,15.124 1.184,0.374 	"/>
	<polygon clip-path="url(#XMLID_9_)" fill="#697181" points="1.477,0.374 15.289,14.979 15.211,15.05 1.328,0.374 	"/>
	<polygon clip-path="url(#XMLID_9_)" fill="#697080" points="1.617,0.374 15.344,14.882 15.344,14.929 15.289,14.979 1.477,0.374 	
		"/>
	<polygon clip-path="url(#XMLID_9_)" fill="#686F7F" points="1.766,0.374 15.344,14.729 15.344,14.882 1.617,0.374 	"/>
	<polygon clip-path="url(#XMLID_9_)" fill="#676E7E" points="1.91,0.374 15.344,14.577 15.344,14.729 1.766,0.374 	"/>
	<polygon clip-path="url(#XMLID_9_)" fill="#656D7D" points="2.055,0.374 15.344,14.421 15.344,14.577 1.91,0.374 	"/>
	<polygon clip-path="url(#XMLID_9_)" fill="#646C7D" points="2.199,0.374 15.344,14.269 15.344,14.421 2.055,0.374 	"/>
	<polygon clip-path="url(#XMLID_9_)" fill="#646C7C" points="2.344,0.374 15.344,14.116 15.344,14.269 2.199,0.374 	"/>
	<polygon clip-path="url(#XMLID_9_)" fill="#636B7C" points="15.344,13.964 2.492,0.374 2.344,0.374 15.344,14.116 	"/>
	<polygon clip-path="url(#XMLID_9_)" fill="#626B7B" points="2.637,0.374 15.344,13.808 15.344,13.964 2.492,0.374 	"/>
	<polygon clip-path="url(#XMLID_9_)" fill="#616A7A" points="2.781,0.374 15.344,13.655 15.344,13.808 2.637,0.374 	"/>
	<polygon clip-path="url(#XMLID_9_)" fill="#606979" points="15.344,13.499 2.926,0.374 2.781,0.374 15.344,13.655 	"/>
	<polygon clip-path="url(#XMLID_9_)" fill="#5F6878" points="15.344,13.351 3.07,0.374 2.926,0.374 15.344,13.499 	"/>
	<polygon clip-path="url(#XMLID_9_)" fill="#5F6878" points="15.344,13.194 3.219,0.374 3.07,0.374 15.344,13.351 	"/>
	<polygon clip-path="url(#XMLID_9_)" fill="#5E6777" points="3.359,0.374 15.344,13.042 15.344,13.194 3.219,0.374 	"/>
	<polygon clip-path="url(#XMLID_9_)" fill="#5D6676" points="3.508,0.374 15.344,12.89 15.344,13.042 3.359,0.374 	"/>
	<polygon clip-path="url(#XMLID_9_)" fill="#5C6576" points="3.652,0.374 15.344,12.733 15.344,12.89 3.508,0.374 	"/>
	<polygon clip-path="url(#XMLID_9_)" fill="#5B6475" points="3.797,0.374 15.344,12.581 15.344,12.733 3.652,0.374 	"/>
	<polygon clip-path="url(#XMLID_9_)" fill="#5B6475" points="3.941,0.374 15.344,12.429 15.344,12.581 3.797,0.374 	"/>
	<polygon clip-path="url(#XMLID_9_)" fill="#5A6373" points="4.086,0.374 15.344,12.272 15.344,12.429 3.941,0.374 	"/>
	<polygon clip-path="url(#XMLID_9_)" fill="#596273" points="4.234,0.374 15.344,12.12 15.344,12.272 4.086,0.374 	"/>
	<polygon clip-path="url(#XMLID_9_)" fill="#586172" points="4.375,0.374 15.344,11.968 15.344,12.12 4.234,0.374 	"/>
	<polygon clip-path="url(#XMLID_9_)" fill="#576172" points="4.523,0.374 15.344,11.815 15.344,11.968 4.375,0.374 	"/>
	<polygon clip-path="url(#XMLID_9_)" fill="#566071" points="4.668,0.374 15.344,11.663 15.344,11.815 4.523,0.374 	"/>
	<polygon clip-path="url(#XMLID_9_)" fill="#566070" points="4.812,0.374 15.344,11.507 15.344,11.663 4.668,0.374 	"/>
	<polygon clip-path="url(#XMLID_9_)" fill="#555F70" points="4.957,0.374 15.344,11.354 15.344,11.507 4.812,0.374 	"/>
	<polygon clip-path="url(#XMLID_9_)" fill="#545E6F" points="5.102,0.374 15.344,11.202 15.344,11.354 4.957,0.374 	"/>
	<polygon clip-path="url(#XMLID_9_)" fill="#535E6F" points="5.25,0.374 15.344,11.046 15.344,11.202 5.102,0.374 	"/>
	<polygon clip-path="url(#XMLID_9_)" fill="#535D6E" points="5.395,0.374 15.344,10.894 15.344,11.046 5.25,0.374 	"/>
	<polygon clip-path="url(#XMLID_9_)" fill="#525C6D" points="5.539,0.374 15.344,10.741 15.344,10.894 5.395,0.374 	"/>
	<polygon clip-path="url(#XMLID_9_)" fill="#515C6D" points="5.684,0.374 15.344,10.585 15.344,10.741 5.539,0.374 	"/>
	<polygon clip-path="url(#XMLID_9_)" fill="#505B6C" points="15.344,10.433 5.828,0.374 5.684,0.374 15.344,10.585 	"/>
	<polygon clip-path="url(#XMLID_9_)" fill="#505B6C" points="15.344,10.28 5.977,0.374 5.828,0.374 15.344,10.433 	"/>
	<polygon clip-path="url(#XMLID_9_)" fill="#505A6B" points="6.117,0.374 15.344,10.128 15.344,10.28 5.977,0.374 	"/>
	<polygon clip-path="url(#XMLID_9_)" fill="#4F596A" points="6.266,0.374 15.344,9.972 15.344,10.128 6.117,0.374 	"/>
	<polygon clip-path="url(#XMLID_9_)" fill="#4E596A" points="6.41,0.374 15.344,9.819 15.344,9.972 6.266,0.374 	"/>
	<polygon clip-path="url(#XMLID_9_)" fill="#4D5869" points="6.555,0.374 15.344,9.667 15.344,9.819 6.41,0.374 	"/>
	<polygon clip-path="url(#XMLID_9_)" fill="#4C5869" points="6.699,0.374 15.344,9.515 15.344,9.667 6.555,0.374 	"/>
	<polygon clip-path="url(#XMLID_9_)" fill="#4C5768" points="15.344,9.358 6.844,0.374 6.699,0.374 15.344,9.515 	"/>
	<polygon clip-path="url(#XMLID_9_)" fill="#4B5768" points="15.344,9.206 6.992,0.374 6.844,0.374 15.344,9.358 	"/>
	<polygon clip-path="url(#XMLID_9_)" fill="#4B5667" points="7.137,0.374 15.344,9.054 15.344,9.206 6.992,0.374 	"/>
	<polygon clip-path="url(#XMLID_9_)" fill="#4A5567" points="7.281,0.374 15.344,8.897 15.344,9.054 7.137,0.374 	"/>
	<polygon clip-path="url(#XMLID_9_)" fill="#495566" points="7.426,0.374 15.344,8.745 15.344,8.897 7.281,0.374 	"/>
	<polygon clip-path="url(#XMLID_9_)" fill="#485566" points="7.57,0.374 15.344,8.593 15.344,8.745 7.426,0.374 	"/>
	<polygon clip-path="url(#XMLID_9_)" fill="#485466" points="7.715,0.374 15.344,8.437 15.344,8.593 7.57,0.374 	"/>
	<polygon clip-path="url(#XMLID_9_)" fill="#475365" points="7.859,0.374 15.344,8.284 15.344,8.437 7.715,0.374 	"/>
	<polygon clip-path="url(#XMLID_9_)" fill="#475365" points="8.008,0.374 15.344,8.132 15.344,8.284 7.859,0.374 	"/>
	<polygon clip-path="url(#XMLID_9_)" fill="#465264" points="8.152,0.374 15.344,7.976 15.344,8.132 8.008,0.374 	"/>
	<polygon clip-path="url(#XMLID_9_)" fill="#455264" points="8.297,0.374 15.344,7.827 15.344,7.976 8.152,0.374 	"/>
	<polygon clip-path="url(#XMLID_9_)" fill="#445263" points="8.441,0.374 15.344,7.671 15.344,7.827 8.297,0.374 	"/>
	<polygon clip-path="url(#XMLID_9_)" fill="#445163" points="8.586,0.374 15.344,7.519 15.344,7.671 8.441,0.374 	"/>
	<polygon clip-path="url(#XMLID_9_)" fill="#445062" points="8.73,0.374 15.344,7.366 15.344,7.519 8.586,0.374 	"/>
	<polygon clip-path="url(#XMLID_9_)" fill="#425062" points="8.875,0.374 15.344,7.21 15.344,7.366 8.73,0.374 	"/>
	<polygon clip-path="url(#XMLID_9_)" fill="#425062" points="9.023,0.374 15.344,7.058 15.344,7.21 8.875,0.374 	"/>
	<polygon clip-path="url(#XMLID_9_)" fill="#424F61" points="9.168,0.374 15.344,6.905 15.344,7.058 9.023,0.374 	"/>
	<polygon clip-path="url(#XMLID_9_)" fill="#414F61" points="15.344,6.749 9.312,0.374 9.168,0.374 15.344,6.905 	"/>
	<polygon clip-path="url(#XMLID_9_)" fill="#404E60" points="9.457,0.374 15.344,6.597 15.344,6.749 9.312,0.374 	"/>
	<polygon clip-path="url(#XMLID_9_)" fill="#3F4E60" points="9.602,0.374 15.344,6.444 15.344,6.597 9.457,0.374 	"/>
	<polygon clip-path="url(#XMLID_9_)" fill="#3F4D60" points="9.75,0.374 15.344,6.288 15.344,6.444 9.602,0.374 	"/>
	<polygon clip-path="url(#XMLID_9_)" fill="#3F4D5F" points="9.895,0.374 15.344,6.136 15.344,6.288 9.75,0.374 	"/>
	<polygon clip-path="url(#XMLID_9_)" fill="#3E4D5F" points="15.344,5.983 10.039,0.374 9.895,0.374 15.344,6.136 	"/>
	<polygon clip-path="url(#XMLID_9_)" fill="#3E4C5E" points="15.344,5.831 10.184,0.374 10.039,0.374 15.344,5.983 	"/>
	<polygon clip-path="url(#XMLID_9_)" fill="#3D4C5E" points="15.344,5.679 10.328,0.374 10.184,0.374 15.344,5.831 	"/>
	<polygon clip-path="url(#XMLID_9_)" fill="#3D4C5E" points="10.477,0.374 15.344,5.522 15.344,5.679 10.328,0.374 	"/>
	<polygon clip-path="url(#XMLID_9_)" fill="#3C4B5D" points="10.617,0.374 15.344,5.37 15.344,5.522 10.477,0.374 	"/>
	<polygon clip-path="url(#XMLID_9_)" fill="#3C4B5D" points="10.766,0.374 15.344,5.218 15.344,5.37 10.617,0.374 	"/>
	<polygon clip-path="url(#XMLID_9_)" fill="#3C4B5D" points="10.91,0.374 15.344,5.062 15.344,5.218 10.766,0.374 	"/>
	<polygon clip-path="url(#XMLID_9_)" fill="#3B4A5C" points="11.055,0.374 15.344,4.909 15.344,5.062 10.91,0.374 	"/>
	<polygon clip-path="url(#XMLID_9_)" fill="#3B4A5C" points="15.344,4.757 11.199,0.374 11.055,0.374 15.344,4.909 	"/>
	<polygon clip-path="url(#XMLID_9_)" fill="#3A495C" points="15.344,4.601 11.344,0.374 11.199,0.374 15.344,4.757 	"/>
	<polygon clip-path="url(#XMLID_9_)" fill="#3A495B" points="15.344,4.448 11.492,0.374 11.344,0.374 15.344,4.601 	"/>
	<polygon clip-path="url(#XMLID_9_)" fill="#39495B" points="15.344,4.296 11.637,0.374 11.492,0.374 15.344,4.448 	"/>
	<polygon clip-path="url(#XMLID_9_)" fill="#38495B" points="15.344,4.14 11.781,0.374 11.637,0.374 15.344,4.296 	"/>
	<polygon clip-path="url(#XMLID_9_)" fill="#38485B" points="11.926,0.374 15.344,3.987 15.344,4.14 11.781,0.374 	"/>
	<polygon clip-path="url(#XMLID_9_)" fill="#38485A" points="12.07,0.374 15.344,3.835 15.344,3.987 11.926,0.374 	"/>
	<polygon clip-path="url(#XMLID_9_)" fill="#37485A" points="12.215,0.374 15.344,3.683 15.344,3.835 12.07,0.374 	"/>
	<polygon clip-path="url(#XMLID_9_)" fill="#38475A" points="12.359,0.374 15.344,3.53 15.344,3.683 12.215,0.374 	"/>
	<polygon clip-path="url(#XMLID_9_)" fill="#37475A" points="12.508,0.374 15.344,3.374 15.344,3.53 12.359,0.374 	"/>
	<polygon clip-path="url(#XMLID_9_)" fill="#374659" points="12.652,0.374 15.344,3.222 15.344,3.374 12.508,0.374 	"/>
	<polygon clip-path="url(#XMLID_9_)" fill="#364659" points="12.797,0.374 15.344,3.069 15.344,3.222 12.652,0.374 	"/>
	<polygon clip-path="url(#XMLID_9_)" fill="#364659" points="12.941,0.374 15.344,2.913 15.344,3.069 12.797,0.374 	"/>
	<polygon clip-path="url(#XMLID_9_)" fill="#364659" points="13.086,0.374 15.344,2.761 15.344,2.913 12.941,0.374 	"/>
	<polygon clip-path="url(#XMLID_9_)" fill="#354659" points="13.23,0.374 15.344,2.608 15.344,2.761 13.086,0.374 	"/>
	<polygon clip-path="url(#XMLID_9_)" fill="#354659" points="13.375,0.374 15.344,2.452 15.344,2.608 13.23,0.374 	"/>
	<polygon clip-path="url(#XMLID_9_)" fill="#354658" points="13.523,0.374 15.344,2.3 15.344,2.452 13.375,0.374 	"/>
	<polygon clip-path="url(#XMLID_9_)" fill="#344558" points="13.668,0.374 15.344,2.147 15.344,2.3 13.523,0.374 	"/>
	<polygon clip-path="url(#XMLID_9_)" fill="#344558" points="13.812,0.374 15.344,1.991 15.344,2.147 13.668,0.374 	"/>
	<polygon clip-path="url(#XMLID_9_)" fill="#344558" points="13.957,0.374 15.344,1.839 15.344,1.991 13.812,0.374 	"/>
	<polygon clip-path="url(#XMLID_9_)" fill="#344558" points="14.102,0.374 15.344,1.687 15.344,1.839 13.957,0.374 	"/>
	<polygon clip-path="url(#XMLID_9_)" fill="#344558" points="15.344,1.687 14.102,0.374 15.344,0.374 	"/>
</g>
<path fill="#AEADAE" d="M14.969,7.859c0,3.92-3.189,7.108-7.109,7.108S0.75,11.779,0.75,7.859S3.939,0.75,7.859,0.75
	S14.969,3.939,14.969,7.859z M7.859,0C3.525,0,0,3.525,0,7.859c0,4.333,3.525,7.858,7.859,7.858s7.859-3.525,7.859-7.858
	C15.719,3.525,12.193,0,7.859,0z"/>
<path fill="#FFFFFF" d="M5.208,4.143v7.601H4.163V6.342H2.414V5.583c0.484-0.011,1.716-0.044,1.991-1.44H5.208z"/>
<path fill="#FFFFFF" d="M13.161,10.786v0.957H7.936v-1.056l0.177-0.154c0.253-0.231,0.506-0.462,0.759-0.682
	c0.264-0.242,0.55-0.474,0.813-0.704c1.441-1.222,2.189-1.893,2.189-2.882c0-0.275-0.099-1.31-1.397-1.31
	c-1.121,0-1.363,0.803-1.44,1.133C8.959,6.431,8.97,6.672,8.981,6.925L7.914,6.87c0-0.275,0-0.704,0.154-1.188
	c0.352-1.078,1.242-1.64,2.452-1.64c1.717,0,2.421,1.078,2.421,2.179c0,1.144-0.639,2.013-2.156,3.256
	c-0.265,0.209-0.518,0.418-0.781,0.627c-0.11,0.099-0.671,0.571-0.803,0.682H13.161z"/>
</svg>
