<?xml version="1.0" encoding="utf-8"?>
<!-- Generator: Adobe Illustrator 12.0.1, SVG Export Plug-In  -->
<!DOCTYPE svg PUBLIC "-//W3C//DTD SVG 1.1//EN" "http://www.w3.org/Graphics/SVG/1.1/DTD/svg11.dtd" [
	<!ENTITY ns_flows "http://ns.adobe.com/Flows/1.0/">
	<!ENTITY ns_svg "http://www.w3.org/2000/svg">
	<!ENTITY ns_xlink "http://www.w3.org/1999/xlink">
]>
<svg  version="1.1" xmlns="&ns_svg;" xmlns:xlink="&ns_xlink;" xmlns:a="http://ns.adobe.com/AdobeSVGViewerExtensions/3.0/"
	 width="17" height="17" viewBox="-0.75 -0.758 17 17" enable-background="new -0.75 -0.758 17 17" xml:space="preserve">
<defs>
</defs>
<g>
	<defs>
		<circle id="XMLID_1_" cx="7.86" cy="7.858" r="7.485"/>
	</defs>
	<clipPath id="XMLID_5_">
		<use xlink:href="#XMLID_1_" />
	</clipPath>
	<polygon clip-path="url(#XMLID_5_)" fill="#CBD2D8" points="0.375,10.969 4.871,15.344 0.375,15.344 	"/>
	<polygon clip-path="url(#XMLID_5_)" fill="#CBD2D8" points="0.375,10.82 5.023,15.344 4.871,15.344 0.375,10.969 	"/>
	<polygon clip-path="url(#XMLID_5_)" fill="#C9D0D5" points="0.375,10.668 5.18,15.344 5.023,15.344 0.375,10.82 	"/>
	<polygon clip-path="url(#XMLID_5_)" fill="#C6CDD3" points="0.375,10.52 5.328,15.344 5.18,15.344 0.375,10.668 	"/>
	<polygon clip-path="url(#XMLID_5_)" fill="#C5CCD2" points="0.375,10.371 5.484,15.344 5.328,15.344 0.375,10.52 	"/>
	<polygon clip-path="url(#XMLID_5_)" fill="#C3C9D0" points="0.375,10.223 5.637,15.344 5.484,15.344 0.375,10.371 	"/>
	<polygon clip-path="url(#XMLID_5_)" fill="#C1C8CE" points="5.789,15.344 0.375,10.074 0.375,10.223 5.637,15.344 	"/>
	<polygon clip-path="url(#XMLID_5_)" fill="#BFC5CC" points="0.375,9.926 5.945,15.344 5.789,15.344 0.375,10.074 	"/>
	<polygon clip-path="url(#XMLID_5_)" fill="#BEC4CB" points="0.375,9.773 6.098,15.344 5.945,15.344 0.375,9.926 	"/>
	<polygon clip-path="url(#XMLID_5_)" fill="#BBC2C9" points="0.375,9.625 6.25,15.344 6.098,15.344 0.375,9.773 	"/>
	<polygon clip-path="url(#XMLID_5_)" fill="#BAC0C8" points="0.375,9.477 6.402,15.344 6.25,15.344 0.375,9.625 	"/>
	<polygon clip-path="url(#XMLID_5_)" fill="#B7BEC6" points="0.375,9.328 6.559,15.344 6.402,15.344 0.375,9.477 	"/>
	<polygon clip-path="url(#XMLID_5_)" fill="#B6BDC5" points="6.711,15.344 0.375,9.18 0.375,9.328 6.559,15.344 	"/>
	<polygon clip-path="url(#XMLID_5_)" fill="#B5BBC3" points="0.375,9.031 6.863,15.344 6.711,15.344 0.375,9.18 	"/>
	<polygon clip-path="url(#XMLID_5_)" fill="#B3BAC2" points="0.375,8.879 7.016,15.344 6.863,15.344 0.375,9.031 	"/>
	<polygon clip-path="url(#XMLID_5_)" fill="#B1B7C0" points="0.375,8.73 7.172,15.344 7.016,15.344 0.375,8.879 	"/>
	<polygon clip-path="url(#XMLID_5_)" fill="#B0B6BF" points="0.375,8.582 7.324,15.344 7.172,15.344 0.375,8.73 	"/>
	<polygon clip-path="url(#XMLID_5_)" fill="#AEB5BE" points="0.375,8.434 7.477,15.344 7.324,15.344 0.375,8.582 	"/>
	<polygon clip-path="url(#XMLID_5_)" fill="#ADB3BC" points="7.629,15.344 0.375,8.281 0.375,8.434 7.477,15.344 	"/>
	<polygon clip-path="url(#XMLID_5_)" fill="#ABB2BC" points="0.375,8.133 7.781,15.344 7.629,15.344 0.375,8.281 	"/>
	<polygon clip-path="url(#XMLID_5_)" fill="#AAB0BA" points="0.375,7.984 7.938,15.344 7.781,15.344 0.375,8.133 	"/>
	<polygon clip-path="url(#XMLID_5_)" fill="#A8AEB8" points="8.09,15.344 0.375,7.836 0.375,7.984 7.938,15.344 	"/>
	<polygon clip-path="url(#XMLID_5_)" fill="#A6ADB7" points="0.375,7.688 8.242,15.344 8.09,15.344 0.375,7.836 	"/>
	<polygon clip-path="url(#XMLID_5_)" fill="#A6ACB6" points="0.375,7.539 8.395,15.344 8.242,15.344 0.375,7.688 	"/>
	<polygon clip-path="url(#XMLID_5_)" fill="#A3AAB4" points="0.375,7.391 8.551,15.344 8.395,15.344 0.375,7.539 	"/>
	<polygon clip-path="url(#XMLID_5_)" fill="#A2A8B3" points="0.375,7.242 8.703,15.344 8.551,15.344 0.375,7.391 	"/>
	<polygon clip-path="url(#XMLID_5_)" fill="#A0A7B1" points="0.375,7.094 8.855,15.344 8.703,15.344 0.375,7.242 	"/>
	<polygon clip-path="url(#XMLID_5_)" fill="#9FA6B0" points="9.008,15.344 0.375,6.941 0.375,7.094 8.855,15.344 	"/>
	<polygon clip-path="url(#XMLID_5_)" fill="#9EA4AF" points="0.375,6.793 9.164,15.344 9.008,15.344 0.375,6.941 	"/>
	<polygon clip-path="url(#XMLID_5_)" fill="#9CA3AE" points="0.375,6.645 9.316,15.344 9.164,15.344 0.375,6.793 	"/>
	<polygon clip-path="url(#XMLID_5_)" fill="#9BA1AD" points="0.375,6.492 9.469,15.344 9.316,15.344 0.375,6.645 	"/>
	<polygon clip-path="url(#XMLID_5_)" fill="#9AA0AB" points="0.375,6.344 9.621,15.344 9.469,15.344 0.375,6.492 	"/>
	<polygon clip-path="url(#XMLID_5_)" fill="#989FAA" points="0.375,6.195 9.773,15.344 9.621,15.344 0.375,6.344 	"/>
	<polygon clip-path="url(#XMLID_5_)" fill="#979EAA" points="9.93,15.344 0.375,6.047 0.375,6.195 9.773,15.344 	"/>
	<polygon clip-path="url(#XMLID_5_)" fill="#969CA8" points="0.375,5.898 10.082,15.344 9.93,15.344 0.375,6.047 	"/>
	<polygon clip-path="url(#XMLID_5_)" fill="#949BA7" points="0.375,5.75 10.234,15.344 10.082,15.344 0.375,5.898 	"/>
	<polygon clip-path="url(#XMLID_5_)" fill="#9399A5" points="10.391,15.344 0.375,5.598 0.375,5.75 10.234,15.344 	"/>
	<polygon clip-path="url(#XMLID_5_)" fill="#9298A4" points="0.375,5.453 10.539,15.344 10.391,15.344 0.375,5.598 	"/>
	<polygon clip-path="url(#XMLID_5_)" fill="#9097A3" points="0.375,5.301 10.695,15.344 10.539,15.344 0.375,5.453 	"/>
	<polygon clip-path="url(#XMLID_5_)" fill="#8F95A2" points="0.375,5.152 10.848,15.344 10.695,15.344 0.375,5.301 	"/>
	<polygon clip-path="url(#XMLID_5_)" fill="#8E95A1" points="0.375,5.004 11,15.344 10.848,15.344 0.375,5.152 	"/>
	<polygon clip-path="url(#XMLID_5_)" fill="#8D93A0" points="11.156,15.344 0.375,4.855 0.375,5.004 11,15.344 	"/>
	<polygon clip-path="url(#XMLID_5_)" fill="#8B929F" points="0.375,4.703 11.309,15.344 11.156,15.344 0.375,4.855 	"/>
	<polygon clip-path="url(#XMLID_5_)" fill="#8A919E" points="0.375,4.555 11.461,15.344 11.309,15.344 0.375,4.703 	"/>
	<polygon clip-path="url(#XMLID_5_)" fill="#898F9D" points="11.617,15.344 0.375,4.406 0.375,4.555 11.461,15.344 	"/>
	<polygon clip-path="url(#XMLID_5_)" fill="#878E9B" points="0.375,4.258 11.77,15.344 11.617,15.344 0.375,4.406 	"/>
	<polygon clip-path="url(#XMLID_5_)" fill="#878D9B" points="0.375,4.109 11.922,15.344 11.77,15.344 0.375,4.258 	"/>
	<polygon clip-path="url(#XMLID_5_)" fill="#858C9A" points="0.375,3.961 12.074,15.344 11.922,15.344 0.375,4.109 	"/>
	<polygon clip-path="url(#XMLID_5_)" fill="#848B98" points="0.375,3.809 12.227,15.344 12.074,15.344 0.375,3.961 	"/>
	<polygon clip-path="url(#XMLID_5_)" fill="#838A97" points="12.383,15.344 0.375,3.66 0.375,3.809 12.227,15.344 	"/>
	<polygon clip-path="url(#XMLID_5_)" fill="#828997" points="0.375,3.512 12.535,15.344 12.383,15.344 0.375,3.66 	"/>
	<polygon clip-path="url(#XMLID_5_)" fill="#818895" points="0.375,3.363 12.688,15.344 12.535,15.344 0.375,3.512 	"/>
	<polygon clip-path="url(#XMLID_5_)" fill="#808794" points="12.84,15.344 0.375,3.211 0.375,3.363 12.688,15.344 	"/>
	<polygon clip-path="url(#XMLID_5_)" fill="#7E8594" points="0.375,3.062 12.992,15.344 12.84,15.344 0.375,3.211 	"/>
	<polygon clip-path="url(#XMLID_5_)" fill="#7D8593" points="0.375,2.914 13.148,15.344 12.992,15.344 0.375,3.062 	"/>
	<polygon clip-path="url(#XMLID_5_)" fill="#7C8392" points="0.375,2.766 13.301,15.344 13.148,15.344 0.375,2.914 	"/>
	<polygon clip-path="url(#XMLID_5_)" fill="#7B8290" points="0.375,2.617 13.453,15.344 13.301,15.344 0.375,2.766 	"/>
	<polygon clip-path="url(#XMLID_5_)" fill="#7A8190" points="13.605,15.344 0.375,2.469 0.375,2.617 13.453,15.344 	"/>
	<polygon clip-path="url(#XMLID_5_)" fill="#79808F" points="0.375,2.32 13.762,15.344 13.605,15.344 0.375,2.469 	"/>
	<polygon clip-path="url(#XMLID_5_)" fill="#787F8D" points="0.375,2.172 13.914,15.344 13.762,15.344 0.375,2.32 	"/>
	<polygon clip-path="url(#XMLID_5_)" fill="#777E8D" points="0.375,2.023 14.066,15.344 13.914,15.344 0.375,2.172 	"/>
	<polygon clip-path="url(#XMLID_5_)" fill="#767D8C" points="0.375,1.871 14.219,15.344 14.066,15.344 0.375,2.023 	"/>
	<polygon clip-path="url(#XMLID_5_)" fill="#767C8B" points="14.375,15.344 0.375,1.723 0.375,1.871 14.219,15.344 	"/>
	<polygon clip-path="url(#XMLID_5_)" fill="#747B8A" points="0.375,1.574 14.527,15.344 14.375,15.344 0.375,1.723 	"/>
	<polygon clip-path="url(#XMLID_5_)" fill="#737A89" points="14.68,15.344 0.375,1.422 0.375,1.574 14.527,15.344 	"/>
	<polygon clip-path="url(#XMLID_5_)" fill="#727989" points="0.375,1.273 14.832,15.344 14.68,15.344 0.375,1.422 	"/>
	<polygon clip-path="url(#XMLID_5_)" fill="#717888" points="0.375,1.125 14.93,15.289 14.875,15.344 14.832,15.344 0.375,1.273 	
		"/>
	<polygon clip-path="url(#XMLID_5_)" fill="#707786" points="0.375,0.977 15.004,15.211 14.93,15.289 0.375,1.125 	"/>
	<polygon clip-path="url(#XMLID_5_)" fill="#6F7686" points="0.375,0.855 0.391,0.844 15.078,15.133 15.004,15.211 0.375,0.977 	"/>
	
		<rect x="7.718" y="-2.297" transform="matrix(-0.6887 0.725 -0.725 -0.6887 18.8873 7.7899)" clip-path="url(#XMLID_5_)" fill="#6D7585" width="0.108" height="20.491"/>
	
		<rect x="7.792" y="-2.374" transform="matrix(-0.6887 0.725 -0.725 -0.6887 18.9574 7.6075)" clip-path="url(#XMLID_5_)" fill="#6D7584" width="0.108" height="20.494"/>
	
		<rect x="7.867" y="-2.45" transform="matrix(-0.7071 0.7071 -0.7071 -0.7071 19.0334 7.7099)" clip-path="url(#XMLID_5_)" fill="#6C7383" width="0.105" height="20.494"/>
	<polygon clip-path="url(#XMLID_5_)" fill="#6B7383" points="0.613,0.613 0.688,0.535 15.344,14.797 15.344,14.859 15.301,14.906 	
		"/>
	<polygon clip-path="url(#XMLID_5_)" fill="#6A7281" points="0.688,0.535 0.762,0.461 15.344,14.648 15.344,14.797 	"/>
	<polygon clip-path="url(#XMLID_5_)" fill="#697181" points="0.762,0.461 0.836,0.383 15.344,14.5 15.344,14.648 	"/>
	<polygon clip-path="url(#XMLID_5_)" fill="#697080" points="0.836,0.383 0.844,0.375 0.984,0.375 15.344,14.352 15.344,14.5 	"/>
	<polygon clip-path="url(#XMLID_5_)" fill="#686F7F" points="1.137,0.375 15.344,14.199 15.344,14.352 0.984,0.375 	"/>
	<polygon clip-path="url(#XMLID_5_)" fill="#676E7E" points="1.289,0.375 15.344,14.051 15.344,14.199 1.137,0.375 	"/>
	<polygon clip-path="url(#XMLID_5_)" fill="#656D7D" points="1.441,0.375 15.344,13.902 15.344,14.051 1.289,0.375 	"/>
	<polygon clip-path="url(#XMLID_5_)" fill="#646C7D" points="1.598,0.375 15.344,13.75 15.344,13.902 1.441,0.375 	"/>
	<polygon clip-path="url(#XMLID_5_)" fill="#646C7C" points="1.75,0.375 15.344,13.602 15.344,13.75 1.598,0.375 	"/>
	<polygon clip-path="url(#XMLID_5_)" fill="#636B7C" points="1.902,0.375 15.344,13.453 15.344,13.602 1.75,0.375 	"/>
	<polygon clip-path="url(#XMLID_5_)" fill="#626B7B" points="2.055,0.375 15.344,13.305 15.344,13.453 1.902,0.375 	"/>
	<polygon clip-path="url(#XMLID_5_)" fill="#616A7A" points="2.211,0.375 15.344,13.156 15.344,13.305 2.055,0.375 	"/>
	<polygon clip-path="url(#XMLID_5_)" fill="#606979" points="2.363,0.375 15.344,13.008 15.344,13.156 2.211,0.375 	"/>
	<polygon clip-path="url(#XMLID_5_)" fill="#5F6878" points="2.516,0.375 15.344,12.859 15.344,13.008 2.363,0.375 	"/>
	<polygon clip-path="url(#XMLID_5_)" fill="#5F6878" points="2.668,0.375 15.344,12.711 15.344,12.859 2.516,0.375 	"/>
	<polygon clip-path="url(#XMLID_5_)" fill="#5E6777" points="2.82,0.375 15.344,12.562 15.344,12.711 2.668,0.375 	"/>
	<polygon clip-path="url(#XMLID_5_)" fill="#5D6676" points="15.344,12.41 2.977,0.375 2.82,0.375 15.344,12.562 	"/>
	<polygon clip-path="url(#XMLID_5_)" fill="#5C6576" points="3.129,0.375 15.344,12.262 15.344,12.41 2.977,0.375 	"/>
	<polygon clip-path="url(#XMLID_5_)" fill="#5B6475" points="3.281,0.375 15.344,12.113 15.344,12.262 3.129,0.375 	"/>
	<polygon clip-path="url(#XMLID_5_)" fill="#5B6475" points="3.434,0.375 15.344,11.965 15.344,12.113 3.281,0.375 	"/>
	<polygon clip-path="url(#XMLID_5_)" fill="#5A6373" points="15.344,11.812 3.59,0.375 3.434,0.375 15.344,11.965 	"/>
	<polygon clip-path="url(#XMLID_5_)" fill="#596273" points="3.742,0.375 15.344,11.664 15.344,11.812 3.59,0.375 	"/>
	<polygon clip-path="url(#XMLID_5_)" fill="#586172" points="3.895,0.375 15.344,11.516 15.344,11.664 3.742,0.375 	"/>
	<polygon clip-path="url(#XMLID_5_)" fill="#576172" points="4.047,0.375 15.344,11.367 15.344,11.516 3.895,0.375 	"/>
	<polygon clip-path="url(#XMLID_5_)" fill="#566071" points="4.203,0.375 15.344,11.219 15.344,11.367 4.047,0.375 	"/>
	<polygon clip-path="url(#XMLID_5_)" fill="#566070" points="4.355,0.375 15.344,11.07 15.344,11.219 4.203,0.375 	"/>
	<polygon clip-path="url(#XMLID_5_)" fill="#555F70" points="4.508,0.375 15.344,10.918 15.344,11.07 4.355,0.375 	"/>
	<polygon clip-path="url(#XMLID_5_)" fill="#545E6F" points="15.344,10.77 4.66,0.375 4.508,0.375 15.344,10.918 	"/>
	<polygon clip-path="url(#XMLID_5_)" fill="#535E6F" points="4.812,0.375 15.344,10.621 15.344,10.77 4.66,0.375 	"/>
	<polygon clip-path="url(#XMLID_5_)" fill="#535D6E" points="15.344,10.473 4.969,0.375 4.812,0.375 15.344,10.621 	"/>
	<polygon clip-path="url(#XMLID_5_)" fill="#525C6D" points="15.344,10.324 5.121,0.375 4.969,0.375 15.344,10.473 	"/>
	<polygon clip-path="url(#XMLID_5_)" fill="#515C6D" points="5.273,0.375 15.344,10.172 15.344,10.324 5.121,0.375 	"/>
	<polygon clip-path="url(#XMLID_5_)" fill="#505B6C" points="5.43,0.375 15.344,10.023 15.344,10.172 5.273,0.375 	"/>
	<polygon clip-path="url(#XMLID_5_)" fill="#505B6C" points="5.578,0.375 15.344,9.875 15.344,10.023 5.43,0.375 	"/>
	<polygon clip-path="url(#XMLID_5_)" fill="#505A6B" points="5.734,0.375 15.344,9.727 15.344,9.875 5.578,0.375 	"/>
	<polygon clip-path="url(#XMLID_5_)" fill="#4F596A" points="5.887,0.375 15.344,9.578 15.344,9.727 5.734,0.375 	"/>
	<polygon clip-path="url(#XMLID_5_)" fill="#4E596A" points="6.039,0.375 15.344,9.43 15.344,9.578 5.887,0.375 	"/>
	<polygon clip-path="url(#XMLID_5_)" fill="#4D5869" points="6.195,0.375 15.344,9.281 15.344,9.43 6.039,0.375 	"/>
	<polygon clip-path="url(#XMLID_5_)" fill="#4C5869" points="6.348,0.375 15.344,9.129 15.344,9.281 6.195,0.375 	"/>
	<polygon clip-path="url(#XMLID_5_)" fill="#4C5768" points="6.5,0.375 15.344,8.98 15.344,9.129 6.348,0.375 	"/>
	<polygon clip-path="url(#XMLID_5_)" fill="#4B5768" points="6.652,0.375 15.344,8.832 15.344,8.98 6.5,0.375 	"/>
	<polygon clip-path="url(#XMLID_5_)" fill="#4B5667" points="6.805,0.375 15.344,8.684 15.344,8.832 6.652,0.375 	"/>
	<polygon clip-path="url(#XMLID_5_)" fill="#4A5567" points="15.344,8.531 6.961,0.375 6.805,0.375 15.344,8.684 	"/>
	<polygon clip-path="url(#XMLID_5_)" fill="#495566" points="7.113,0.375 15.344,8.383 15.344,8.531 6.961,0.375 	"/>
	<polygon clip-path="url(#XMLID_5_)" fill="#485566" points="7.266,0.375 15.344,8.234 15.344,8.383 7.113,0.375 	"/>
	<polygon clip-path="url(#XMLID_5_)" fill="#485466" points="15.344,8.086 7.422,0.375 7.266,0.375 15.344,8.234 	"/>
	<polygon clip-path="url(#XMLID_5_)" fill="#475365" points="7.574,0.375 15.344,7.938 15.344,8.086 7.422,0.375 	"/>
	<polygon clip-path="url(#XMLID_5_)" fill="#475365" points="15.344,7.789 7.727,0.375 7.574,0.375 15.344,7.938 	"/>
	<polygon clip-path="url(#XMLID_5_)" fill="#465264" points="15.344,7.641 7.879,0.375 7.727,0.375 15.344,7.789 	"/>
	<polygon clip-path="url(#XMLID_5_)" fill="#455264" points="8.031,0.375 15.344,7.492 15.344,7.641 7.879,0.375 	"/>
	<polygon clip-path="url(#XMLID_5_)" fill="#445263" points="15.344,7.34 8.188,0.375 8.031,0.375 15.344,7.492 	"/>
	<polygon clip-path="url(#XMLID_5_)" fill="#445163" points="8.34,0.375 15.344,7.191 15.344,7.34 8.188,0.375 	"/>
	<polygon clip-path="url(#XMLID_5_)" fill="#445062" points="8.492,0.375 15.344,7.043 15.344,7.191 8.34,0.375 	"/>
	<polygon clip-path="url(#XMLID_5_)" fill="#425062" points="8.645,0.375 15.344,6.895 15.344,7.043 8.492,0.375 	"/>
	<polygon clip-path="url(#XMLID_5_)" fill="#425062" points="8.801,0.375 15.344,6.742 15.344,6.895 8.645,0.375 	"/>
	<polygon clip-path="url(#XMLID_5_)" fill="#424F61" points="8.953,0.375 15.344,6.594 15.344,6.742 8.801,0.375 	"/>
	<polygon clip-path="url(#XMLID_5_)" fill="#414F61" points="9.105,0.375 15.344,6.445 15.344,6.594 8.953,0.375 	"/>
	<polygon clip-path="url(#XMLID_5_)" fill="#404E60" points="9.258,0.375 15.344,6.297 15.344,6.445 9.105,0.375 	"/>
	<polygon clip-path="url(#XMLID_5_)" fill="#3F4E60" points="9.414,0.375 15.344,6.148 15.344,6.297 9.258,0.375 	"/>
	<polygon clip-path="url(#XMLID_5_)" fill="#3F4D60" points="9.566,0.375 15.344,6 15.344,6.148 9.414,0.375 	"/>
	<polygon clip-path="url(#XMLID_5_)" fill="#3F4D5F" points="9.719,0.375 15.344,5.848 15.344,6 9.566,0.375 	"/>
	<polygon clip-path="url(#XMLID_5_)" fill="#3E4D5F" points="9.871,0.375 15.344,5.699 15.344,5.848 9.719,0.375 	"/>
	<polygon clip-path="url(#XMLID_5_)" fill="#3E4C5E" points="10.023,0.375 15.344,5.551 15.344,5.699 9.871,0.375 	"/>
	<polygon clip-path="url(#XMLID_5_)" fill="#3D4C5E" points="10.18,0.375 15.344,5.402 15.344,5.551 10.023,0.375 	"/>
	<polygon clip-path="url(#XMLID_5_)" fill="#3D4C5E" points="10.332,0.375 15.344,5.254 15.344,5.402 10.18,0.375 	"/>
	<polygon clip-path="url(#XMLID_5_)" fill="#3C4B5D" points="10.484,0.375 15.344,5.102 15.344,5.254 10.332,0.375 	"/>
	<polygon clip-path="url(#XMLID_5_)" fill="#3C4B5D" points="10.641,0.375 15.344,4.953 15.344,5.102 10.484,0.375 	"/>
	<polygon clip-path="url(#XMLID_5_)" fill="#3C4B5D" points="10.789,0.375 15.344,4.805 15.344,4.953 10.641,0.375 	"/>
	<polygon clip-path="url(#XMLID_5_)" fill="#3B4A5C" points="10.945,0.375 15.344,4.656 15.344,4.805 10.789,0.375 	"/>
	<polygon clip-path="url(#XMLID_5_)" fill="#3B4A5C" points="15.344,4.508 11.098,0.375 10.945,0.375 15.344,4.656 	"/>
	<polygon clip-path="url(#XMLID_5_)" fill="#3A495C" points="15.344,4.359 11.25,0.375 11.098,0.375 15.344,4.508 	"/>
	<polygon clip-path="url(#XMLID_5_)" fill="#3A495B" points="11.406,0.375 15.344,4.211 15.344,4.359 11.25,0.375 	"/>
	<polygon clip-path="url(#XMLID_5_)" fill="#39495B" points="11.559,0.375 15.344,4.059 15.344,4.211 11.406,0.375 	"/>
	<polygon clip-path="url(#XMLID_5_)" fill="#38495B" points="11.711,0.375 15.344,3.91 15.344,4.059 11.559,0.375 	"/>
	<polygon clip-path="url(#XMLID_5_)" fill="#38485B" points="11.863,0.375 15.344,3.762 15.344,3.91 11.711,0.375 	"/>
	<polygon clip-path="url(#XMLID_5_)" fill="#38485A" points="15.344,3.613 12.016,0.375 11.863,0.375 15.344,3.762 	"/>
	<polygon clip-path="url(#XMLID_5_)" fill="#37485A" points="12.172,0.375 15.344,3.461 15.344,3.613 12.016,0.375 	"/>
	<polygon clip-path="url(#XMLID_5_)" fill="#38475A" points="12.324,0.375 15.344,3.312 15.344,3.461 12.172,0.375 	"/>
	<polygon clip-path="url(#XMLID_5_)" fill="#37475A" points="12.477,0.375 15.344,3.164 15.344,3.312 12.324,0.375 	"/>
	<polygon clip-path="url(#XMLID_5_)" fill="#374659" points="12.633,0.375 15.344,3.016 15.344,3.164 12.477,0.375 	"/>
	<polygon clip-path="url(#XMLID_5_)" fill="#364659" points="12.785,0.375 15.344,2.867 15.344,3.016 12.633,0.375 	"/>
	<polygon clip-path="url(#XMLID_5_)" fill="#364659" points="15.344,2.719 12.938,0.375 12.785,0.375 15.344,2.867 	"/>
	<polygon clip-path="url(#XMLID_5_)" fill="#364659" points="13.09,0.375 15.344,2.57 15.344,2.719 12.938,0.375 	"/>
	<polygon clip-path="url(#XMLID_5_)" fill="#354659" points="13.242,0.375 15.344,2.422 15.344,2.57 13.09,0.375 	"/>
	<polygon clip-path="url(#XMLID_5_)" fill="#354659" points="13.398,0.375 15.344,2.27 15.344,2.422 13.242,0.375 	"/>
	<polygon clip-path="url(#XMLID_5_)" fill="#354658" points="13.551,0.375 15.344,2.121 15.344,2.27 13.398,0.375 	"/>
	<polygon clip-path="url(#XMLID_5_)" fill="#344558" points="13.703,0.375 15.344,1.973 15.344,2.121 13.551,0.375 	"/>
	<polygon clip-path="url(#XMLID_5_)" fill="#344558" points="13.855,0.375 15.344,1.824 15.344,1.973 13.703,0.375 	"/>
	<polygon clip-path="url(#XMLID_5_)" fill="#344558" points="15.344,1.672 14.012,0.375 13.855,0.375 15.344,1.824 	"/>
	<polygon clip-path="url(#XMLID_5_)" fill="#344558" points="14.164,0.375 15.344,1.523 15.344,1.672 14.012,0.375 	"/>
	<polygon clip-path="url(#XMLID_5_)" fill="#344558" points="15.344,1.523 14.164,0.375 15.344,0.375 	"/>
</g>
<path fill="#AEADAE" d="M14.97,7.858c0,3.92-3.189,7.109-7.109,7.109c-3.921,0-7.11-3.189-7.11-7.109S3.939,0.75,7.86,0.75
	C11.78,0.75,14.97,3.938,14.97,7.858z M7.86,0C3.526,0,0,3.525,0,7.858c0,4.334,3.526,7.859,7.86,7.859s7.859-3.525,7.859-7.859
	C15.72,3.525,12.194,0,7.86,0z"/>
<path fill="#FFFFFF" d="M5.208,4.142v7.601H4.163V6.341H2.414V5.582c0.484-0.011,1.716-0.044,1.991-1.44H5.208z"/>
<path fill="#FFFFFF" d="M12.896,4.152v0.946H9.465L9.146,7.122c0.474-0.341,0.936-0.483,1.529-0.483c1.606,0,2.53,1.21,2.53,2.573
	c0,1.606-1.166,2.662-2.75,2.662c-0.627,0-1.298-0.187-1.738-0.55c-0.715-0.572-0.803-1.43-0.836-1.793l1.045-0.066
	c0.011,0.165,0.033,0.43,0.154,0.683c0.23,0.517,0.748,0.813,1.408,0.813c1.177,0,1.661-0.924,1.661-1.737
	c0-0.913-0.595-1.694-1.684-1.694c-0.891,0-1.309,0.473-1.551,0.759L8.046,8.244l0.583-4.092H12.896z"/>
</svg>
