<?xml version="1.0" encoding="utf-8"?>
<!-- Generator: Adobe Illustrator 12.0.1, SVG Export Plug-In  -->
<!DOCTYPE svg PUBLIC "-//W3C//DTD SVG 1.1//EN" "http://www.w3.org/Graphics/SVG/1.1/DTD/svg11.dtd" [
	<!ENTITY ns_flows "http://ns.adobe.com/Flows/1.0/">
	<!ENTITY ns_svg "http://www.w3.org/2000/svg">
	<!ENTITY ns_xlink "http://www.w3.org/1999/xlink">
]>
<svg  version="1.1" xmlns="&ns_svg;" xmlns:xlink="&ns_xlink;" xmlns:a="http://ns.adobe.com/AdobeSVGViewerExtensions/3.0/"
	 width="17" height="17" viewBox="-0.75 -0.657 17 17" enable-background="new -0.75 -0.657 17 17" xml:space="preserve">
<defs>
</defs>
<g>
	<defs>
		<circle id="XMLID_6_" cx="7.86" cy="7.859" r="7.485"/>
	</defs>
	<clipPath id="XMLID_9_">
		<use xlink:href="#XMLID_6_" />
	</clipPath>
	<polygon clip-path="url(#XMLID_9_)" fill="#CBD2D8" points="0.375,9.866 4.789,15.343 0.375,15.343 	"/>
	<polygon clip-path="url(#XMLID_9_)" fill="#CBD2D8" points="0.375,9.714 4.91,15.343 4.789,15.343 0.375,9.866 	"/>
	<polygon clip-path="url(#XMLID_9_)" fill="#C9D0D5" points="0.375,9.562 5.031,15.343 4.91,15.343 0.375,9.714 	"/>
	<polygon clip-path="url(#XMLID_9_)" fill="#C6CDD3" points="0.375,9.409 5.156,15.343 5.031,15.343 0.375,9.562 	"/>
	<polygon clip-path="url(#XMLID_9_)" fill="#C5CCD2" points="0.375,9.257 5.281,15.343 5.156,15.343 0.375,9.409 	"/>
	<polygon clip-path="url(#XMLID_9_)" fill="#C3C9D0" points="0.375,9.101 5.402,15.343 5.281,15.343 0.375,9.257 	"/>
	<polygon clip-path="url(#XMLID_9_)" fill="#C1C8CE" points="0.375,8.952 5.523,15.343 5.402,15.343 0.375,9.101 	"/>
	<polygon clip-path="url(#XMLID_9_)" fill="#BFC5CC" points="0.375,8.796 5.648,15.343 5.523,15.343 0.375,8.952 	"/>
	<polygon clip-path="url(#XMLID_9_)" fill="#BEC4CB" points="0.375,8.644 5.77,15.343 5.648,15.343 0.375,8.796 	"/>
	<polygon clip-path="url(#XMLID_9_)" fill="#BBC2C9" points="0.375,8.491 5.895,15.343 5.77,15.343 0.375,8.644 	"/>
	<polygon clip-path="url(#XMLID_9_)" fill="#BAC0C8" points="0.375,8.339 6.016,15.343 5.895,15.343 0.375,8.491 	"/>
	<polygon clip-path="url(#XMLID_9_)" fill="#B7BEC6" points="0.375,8.187 6.141,15.343 6.016,15.343 0.375,8.339 	"/>
	<polygon clip-path="url(#XMLID_9_)" fill="#B6BDC5" points="0.375,8.034 6.262,15.343 6.141,15.343 0.375,8.187 	"/>
	<polygon clip-path="url(#XMLID_9_)" fill="#B5BBC3" points="0.375,7.882 6.387,15.343 6.262,15.343 0.375,8.034 	"/>
	<polygon clip-path="url(#XMLID_9_)" fill="#B3BAC2" points="0.375,7.729 6.508,15.343 6.387,15.343 0.375,7.882 	"/>
	<polygon clip-path="url(#XMLID_9_)" fill="#B1B7C0" points="0.375,7.577 6.633,15.343 6.508,15.343 0.375,7.729 	"/>
	<polygon clip-path="url(#XMLID_9_)" fill="#B0B6BF" points="0.375,7.425 6.754,15.343 6.633,15.343 0.375,7.577 	"/>
	<polygon clip-path="url(#XMLID_9_)" fill="#AEB5BE" points="0.375,7.272 6.875,15.343 6.754,15.343 0.375,7.425 	"/>
	<polygon clip-path="url(#XMLID_9_)" fill="#ADB3BC" points="0.375,7.12 7,15.343 6.875,15.343 0.375,7.272 	"/>
	<polygon clip-path="url(#XMLID_9_)" fill="#ABB2BC" points="0.375,6.968 7.125,15.343 7,15.343 0.375,7.12 	"/>
	<polygon clip-path="url(#XMLID_9_)" fill="#AAB0BA" points="0.375,6.815 7.246,15.343 7.125,15.343 0.375,6.968 	"/>
	<polygon clip-path="url(#XMLID_9_)" fill="#A8AEB8" points="0.375,6.663 7.367,15.343 7.246,15.343 0.375,6.815 	"/>
	<polygon clip-path="url(#XMLID_9_)" fill="#A6ADB7" points="0.375,6.511 7.492,15.343 7.367,15.343 0.375,6.663 	"/>
	<polygon clip-path="url(#XMLID_9_)" fill="#A6ACB6" points="0.375,6.358 7.613,15.343 7.492,15.343 0.375,6.511 	"/>
	<polygon clip-path="url(#XMLID_9_)" fill="#A3AAB4" points="0.375,6.202 7.738,15.343 7.613,15.343 0.375,6.358 	"/>
	<polygon clip-path="url(#XMLID_9_)" fill="#A2A8B3" points="0.375,6.054 7.859,15.343 7.738,15.343 0.375,6.202 	"/>
	<polygon clip-path="url(#XMLID_9_)" fill="#A0A7B1" points="0.375,5.897 7.984,15.343 7.859,15.343 0.375,6.054 	"/>
	<polygon clip-path="url(#XMLID_9_)" fill="#9FA6B0" points="0.375,5.745 8.105,15.343 7.984,15.343 0.375,5.897 	"/>
	<polygon clip-path="url(#XMLID_9_)" fill="#9EA4AF" points="0.375,5.593 8.227,15.343 8.105,15.343 0.375,5.745 	"/>
	<polygon clip-path="url(#XMLID_9_)" fill="#9CA3AE" points="0.375,5.44 8.352,15.343 8.227,15.343 0.375,5.593 	"/>
	<polygon clip-path="url(#XMLID_9_)" fill="#9BA1AD" points="0.375,5.288 8.477,15.343 8.352,15.343 0.375,5.44 	"/>
	<polygon clip-path="url(#XMLID_9_)" fill="#9AA0AB" points="0.375,5.136 8.598,15.343 8.477,15.343 0.375,5.288 	"/>
	<polygon clip-path="url(#XMLID_9_)" fill="#989FAA" points="0.375,4.983 8.719,15.343 8.598,15.343 0.375,5.136 	"/>
	<polygon clip-path="url(#XMLID_9_)" fill="#979EAA" points="0.375,4.831 8.844,15.343 8.719,15.343 0.375,4.983 	"/>
	<polygon clip-path="url(#XMLID_9_)" fill="#969CA8" points="0.375,4.679 8.965,15.343 8.844,15.343 0.375,4.831 	"/>
	<polygon clip-path="url(#XMLID_9_)" fill="#949BA7" points="0.375,4.526 9.09,15.343 8.965,15.343 0.375,4.679 	"/>
	<polygon clip-path="url(#XMLID_9_)" fill="#9399A5" points="0.375,4.374 9.211,15.343 9.09,15.343 0.375,4.526 	"/>
	<polygon clip-path="url(#XMLID_9_)" fill="#9298A4" points="0.375,4.222 9.336,15.343 9.211,15.343 0.375,4.374 	"/>
	<polygon clip-path="url(#XMLID_9_)" fill="#9097A3" points="0.375,4.069 9.457,15.343 9.336,15.343 0.375,4.222 	"/>
	<polygon clip-path="url(#XMLID_9_)" fill="#8F95A2" points="0.375,3.913 9.578,15.343 9.457,15.343 0.375,4.069 	"/>
	<polygon clip-path="url(#XMLID_9_)" fill="#8E95A1" points="0.375,3.765 9.703,15.343 9.578,15.343 0.375,3.913 	"/>
	<polygon clip-path="url(#XMLID_9_)" fill="#8D93A0" points="0.375,3.608 9.828,15.343 9.703,15.343 0.375,3.765 	"/>
	<polygon clip-path="url(#XMLID_9_)" fill="#8B929F" points="0.375,3.456 9.949,15.343 9.828,15.343 0.375,3.608 	"/>
	<polygon clip-path="url(#XMLID_9_)" fill="#8A919E" points="0.375,3.304 10.07,15.343 9.949,15.343 0.375,3.456 	"/>
	<polygon clip-path="url(#XMLID_9_)" fill="#898F9D" points="0.375,3.151 10.195,15.343 10.07,15.343 0.375,3.304 	"/>
	<polygon clip-path="url(#XMLID_9_)" fill="#878E9B" points="0.375,2.999 10.32,15.343 10.195,15.343 0.375,3.151 	"/>
	<polygon clip-path="url(#XMLID_9_)" fill="#878D9B" points="0.375,2.847 10.441,15.343 10.32,15.343 0.375,2.999 	"/>
	<polygon clip-path="url(#XMLID_9_)" fill="#858C9A" points="0.375,2.694 10.562,15.343 10.441,15.343 0.375,2.847 	"/>
	<polygon clip-path="url(#XMLID_9_)" fill="#848B98" points="0.375,2.542 10.688,15.343 10.562,15.343 0.375,2.694 	"/>
	<polygon clip-path="url(#XMLID_9_)" fill="#838A97" points="0.375,2.39 10.809,15.343 10.688,15.343 0.375,2.542 	"/>
	<polygon clip-path="url(#XMLID_9_)" fill="#828997" points="0.375,2.237 10.934,15.343 10.809,15.343 0.375,2.39 	"/>
	<polygon clip-path="url(#XMLID_9_)" fill="#818895" points="0.375,2.085 11.055,15.343 10.934,15.343 0.375,2.237 	"/>
	<polygon clip-path="url(#XMLID_9_)" fill="#808794" points="0.375,1.933 11.18,15.343 11.055,15.343 0.375,2.085 	"/>
	<polygon clip-path="url(#XMLID_9_)" fill="#7E8594" points="0.375,1.78 11.301,15.343 11.18,15.343 0.375,1.933 	"/>
	<polygon clip-path="url(#XMLID_9_)" fill="#7D8593" points="0.375,1.628 11.422,15.343 11.301,15.343 0.375,1.78 	"/>
	<polygon clip-path="url(#XMLID_9_)" fill="#7C8392" points="0.375,1.476 11.547,15.343 11.422,15.343 0.375,1.628 	"/>
	<polygon clip-path="url(#XMLID_9_)" fill="#7B8290" points="0.375,1.323 11.672,15.343 11.547,15.343 0.375,1.476 	"/>
	<polygon clip-path="url(#XMLID_9_)" fill="#7A8190" points="0.375,1.171 11.793,15.343 11.672,15.343 0.375,1.323 	"/>
	<polygon clip-path="url(#XMLID_9_)" fill="#79808F" points="0.375,1.015 11.914,15.343 11.793,15.343 0.375,1.171 	"/>
	<polygon clip-path="url(#XMLID_9_)" fill="#787F8D" points="0.375,0.866 12.039,15.343 11.914,15.343 0.375,1.015 	"/>
	<polygon clip-path="url(#XMLID_9_)" fill="#777E8D" points="0.375,0.714 12.164,15.343 12.039,15.343 0.375,0.866 	"/>
	<polygon clip-path="url(#XMLID_9_)" fill="#767D8C" points="0.375,0.558 12.285,15.343 12.164,15.343 0.375,0.714 	"/>
	<polygon clip-path="url(#XMLID_9_)" fill="#767C8B" points="0.375,0.507 0.422,0.468 12.406,15.343 12.285,15.343 0.375,0.558 	"/>
	<polygon clip-path="url(#XMLID_9_)" fill="#747B8A" points="0.422,0.468 0.5,0.405 12.531,15.343 12.406,15.343 	"/>
	<polygon clip-path="url(#XMLID_9_)" fill="#737A89" points="0.5,0.405 0.539,0.374 0.594,0.374 12.652,15.343 12.531,15.343 	"/>
	<polygon clip-path="url(#XMLID_9_)" fill="#727989" points="0.719,0.374 12.773,15.343 12.652,15.343 0.594,0.374 	"/>
	<polygon clip-path="url(#XMLID_9_)" fill="#717888" points="0.84,0.374 12.898,15.343 12.773,15.343 0.719,0.374 	"/>
	<polygon clip-path="url(#XMLID_9_)" fill="#707786" points="0.965,0.374 13.023,15.343 12.898,15.343 0.84,0.374 	"/>
	<polygon clip-path="url(#XMLID_9_)" fill="#6F7686" points="1.086,0.374 13.145,15.343 13.023,15.343 0.965,0.374 	"/>
	<polygon clip-path="url(#XMLID_9_)" fill="#6D7585" points="1.211,0.374 13.266,15.343 13.145,15.343 1.086,0.374 	"/>
	<polygon clip-path="url(#XMLID_9_)" fill="#6D7584" points="1.332,0.374 13.391,15.343 13.266,15.343 1.211,0.374 	"/>
	<polygon clip-path="url(#XMLID_9_)" fill="#6C7383" points="1.457,0.374 13.512,15.343 13.391,15.343 1.332,0.374 	"/>
	<polygon clip-path="url(#XMLID_9_)" fill="#6B7383" points="1.578,0.374 13.637,15.343 13.512,15.343 1.457,0.374 	"/>
	<polygon clip-path="url(#XMLID_9_)" fill="#6A7281" points="1.703,0.374 13.758,15.343 13.637,15.343 1.578,0.374 	"/>
	<polygon clip-path="url(#XMLID_9_)" fill="#697181" points="1.824,0.374 13.883,15.343 13.758,15.343 1.703,0.374 	"/>
	<polygon clip-path="url(#XMLID_9_)" fill="#697080" points="1.945,0.374 14.004,15.343 13.883,15.343 1.824,0.374 	"/>
	<polygon clip-path="url(#XMLID_9_)" fill="#686F7F" points="2.07,0.374 14.129,15.343 14.004,15.343 1.945,0.374 	"/>
	<polygon clip-path="url(#XMLID_9_)" fill="#676E7E" points="2.195,0.374 14.25,15.343 14.129,15.343 2.07,0.374 	"/>
	<polygon clip-path="url(#XMLID_9_)" fill="#656D7D" points="2.316,0.374 14.375,15.343 14.25,15.343 2.195,0.374 	"/>
	<polygon clip-path="url(#XMLID_9_)" fill="#646C7D" points="2.438,0.374 14.496,15.343 14.375,15.343 2.316,0.374 	"/>
	<polygon clip-path="url(#XMLID_9_)" fill="#646C7C" points="2.562,0.374 14.617,15.343 14.496,15.343 2.438,0.374 	"/>
	<polygon clip-path="url(#XMLID_9_)" fill="#636B7C" points="2.684,0.374 14.742,15.343 14.617,15.343 2.562,0.374 	"/>
	<polygon clip-path="url(#XMLID_9_)" fill="#626B7B" points="2.805,0.374 14.867,15.343 14.742,15.343 2.684,0.374 	"/>
	<polygon clip-path="url(#XMLID_9_)" fill="#616A7A" points="2.93,0.374 14.988,15.343 14.867,15.343 2.805,0.374 	"/>
	<polygon clip-path="url(#XMLID_9_)" fill="#606979" points="3.055,0.374 15.109,15.343 14.988,15.343 2.93,0.374 	"/>
	<polygon clip-path="url(#XMLID_9_)" fill="#5F6878" points="3.176,0.374 15.215,15.319 15.18,15.343 15.109,15.343 3.055,0.374 	
		"/>
	<polygon clip-path="url(#XMLID_9_)" fill="#5F6878" points="3.297,0.374 15.289,15.257 15.215,15.319 3.176,0.374 	"/>
	<polygon clip-path="url(#XMLID_9_)" fill="#5E6777" points="3.422,0.374 15.344,15.175 15.344,15.21 15.289,15.257 3.297,0.374 	
		"/>
	<polygon clip-path="url(#XMLID_9_)" fill="#5D6676" points="3.547,0.374 15.344,15.022 15.344,15.175 3.422,0.374 	"/>
	<polygon clip-path="url(#XMLID_9_)" fill="#5C6576" points="3.668,0.374 15.344,14.87 15.344,15.022 3.547,0.374 	"/>
	<polygon clip-path="url(#XMLID_9_)" fill="#5B6475" points="3.789,0.374 15.344,14.718 15.344,14.87 3.668,0.374 	"/>
	<polygon clip-path="url(#XMLID_9_)" fill="#5B6475" points="3.914,0.374 15.344,14.565 15.344,14.718 3.789,0.374 	"/>
	<polygon clip-path="url(#XMLID_9_)" fill="#5A6373" points="4.039,0.374 15.344,14.413 15.344,14.565 3.914,0.374 	"/>
	<polygon clip-path="url(#XMLID_9_)" fill="#596273" points="4.16,0.374 15.344,14.261 15.344,14.413 4.039,0.374 	"/>
	<polygon clip-path="url(#XMLID_9_)" fill="#586172" points="4.281,0.374 15.344,14.108 15.344,14.261 4.16,0.374 	"/>
	<polygon clip-path="url(#XMLID_9_)" fill="#576172" points="4.406,0.374 15.344,13.952 15.344,14.108 4.281,0.374 	"/>
	<polygon clip-path="url(#XMLID_9_)" fill="#566071" points="4.527,0.374 15.344,13.804 15.344,13.952 4.406,0.374 	"/>
	<polygon clip-path="url(#XMLID_9_)" fill="#566070" points="4.652,0.374 15.344,13.647 15.344,13.804 4.527,0.374 	"/>
	<polygon clip-path="url(#XMLID_9_)" fill="#555F70" points="4.773,0.374 15.344,13.495 15.344,13.647 4.652,0.374 	"/>
	<polygon clip-path="url(#XMLID_9_)" fill="#545E6F" points="4.898,0.374 15.344,13.343 15.344,13.495 4.773,0.374 	"/>
	<polygon clip-path="url(#XMLID_9_)" fill="#535E6F" points="5.02,0.374 15.344,13.19 15.344,13.343 4.898,0.374 	"/>
	<polygon clip-path="url(#XMLID_9_)" fill="#535D6E" points="5.145,0.374 15.344,13.038 15.344,13.19 5.02,0.374 	"/>
	<polygon clip-path="url(#XMLID_9_)" fill="#525C6D" points="5.266,0.374 15.344,12.886 15.344,13.038 5.145,0.374 	"/>
	<polygon clip-path="url(#XMLID_9_)" fill="#515C6D" points="5.391,0.374 15.344,12.733 15.344,12.886 5.266,0.374 	"/>
	<polygon clip-path="url(#XMLID_9_)" fill="#505B6C" points="5.512,0.374 15.344,12.581 15.344,12.733 5.391,0.374 	"/>
	<polygon clip-path="url(#XMLID_9_)" fill="#505B6C" points="5.633,0.374 15.344,12.429 15.344,12.581 5.512,0.374 	"/>
	<polygon clip-path="url(#XMLID_9_)" fill="#505A6B" points="5.758,0.374 15.344,12.276 15.344,12.429 5.633,0.374 	"/>
	<polygon clip-path="url(#XMLID_9_)" fill="#4F596A" points="5.883,0.374 15.344,12.124 15.344,12.276 5.758,0.374 	"/>
	<polygon clip-path="url(#XMLID_9_)" fill="#4E596A" points="6.004,0.374 15.344,11.972 15.344,12.124 5.883,0.374 	"/>
	<polygon clip-path="url(#XMLID_9_)" fill="#4D5869" points="6.125,0.374 15.344,11.819 15.344,11.972 6.004,0.374 	"/>
	<polygon clip-path="url(#XMLID_9_)" fill="#4C5869" points="6.25,0.374 15.344,11.667 15.344,11.819 6.125,0.374 	"/>
	<polygon clip-path="url(#XMLID_9_)" fill="#4C5768" points="6.371,0.374 15.344,11.515 15.344,11.667 6.25,0.374 	"/>
	<polygon clip-path="url(#XMLID_9_)" fill="#4B5768" points="6.496,0.374 15.344,11.358 15.344,11.515 6.371,0.374 	"/>
	<polygon clip-path="url(#XMLID_9_)" fill="#4B5667" points="6.617,0.374 15.344,11.21 15.344,11.358 6.496,0.374 	"/>
	<polygon clip-path="url(#XMLID_9_)" fill="#4A5567" points="6.742,0.374 15.344,11.054 15.344,11.21 6.617,0.374 	"/>
	<polygon clip-path="url(#XMLID_9_)" fill="#495566" points="6.863,0.374 15.344,10.901 15.344,11.054 6.742,0.374 	"/>
	<polygon clip-path="url(#XMLID_9_)" fill="#485566" points="6.984,0.374 15.344,10.749 15.344,10.901 6.863,0.374 	"/>
	<polygon clip-path="url(#XMLID_9_)" fill="#485466" points="7.109,0.374 15.344,10.597 15.344,10.749 6.984,0.374 	"/>
	<polygon clip-path="url(#XMLID_9_)" fill="#475365" points="7.23,0.374 15.344,10.444 15.344,10.597 7.109,0.374 	"/>
	<polygon clip-path="url(#XMLID_9_)" fill="#475365" points="7.355,0.374 15.344,10.292 15.344,10.444 7.23,0.374 	"/>
	<polygon clip-path="url(#XMLID_9_)" fill="#465264" points="7.477,0.374 15.344,10.14 15.344,10.292 7.355,0.374 	"/>
	<polygon clip-path="url(#XMLID_9_)" fill="#455264" points="7.602,0.374 15.344,9.987 15.344,10.14 7.477,0.374 	"/>
	<polygon clip-path="url(#XMLID_9_)" fill="#445263" points="7.723,0.374 15.344,9.835 15.344,9.987 7.602,0.374 	"/>
	<polygon clip-path="url(#XMLID_9_)" fill="#445163" points="7.848,0.374 15.344,9.683 15.344,9.835 7.723,0.374 	"/>
	<polygon clip-path="url(#XMLID_9_)" fill="#445062" points="7.969,0.374 15.344,9.53 15.344,9.683 7.848,0.374 	"/>
	<polygon clip-path="url(#XMLID_9_)" fill="#425062" points="8.094,0.374 15.344,9.378 15.344,9.53 7.969,0.374 	"/>
	<polygon clip-path="url(#XMLID_9_)" fill="#425062" points="15.344,9.226 8.215,0.374 8.094,0.374 15.344,9.378 	"/>
	<polygon clip-path="url(#XMLID_9_)" fill="#424F61" points="8.336,0.374 15.344,9.073 15.344,9.226 8.215,0.374 	"/>
	<polygon clip-path="url(#XMLID_9_)" fill="#414F61" points="8.461,0.374 15.344,8.921 15.344,9.073 8.336,0.374 	"/>
	<polygon clip-path="url(#XMLID_9_)" fill="#404E60" points="8.586,0.374 15.344,8.769 15.344,8.921 8.461,0.374 	"/>
	<polygon clip-path="url(#XMLID_9_)" fill="#3F4E60" points="8.707,0.374 15.344,8.616 15.344,8.769 8.586,0.374 	"/>
	<polygon clip-path="url(#XMLID_9_)" fill="#3F4D60" points="8.828,0.374 15.344,8.46 15.344,8.616 8.707,0.374 	"/>
	<polygon clip-path="url(#XMLID_9_)" fill="#3F4D5F" points="8.953,0.374 15.344,8.312 15.344,8.46 8.828,0.374 	"/>
	<polygon clip-path="url(#XMLID_9_)" fill="#3E4D5F" points="9.074,0.374 15.344,8.155 15.344,8.312 8.953,0.374 	"/>
	<polygon clip-path="url(#XMLID_9_)" fill="#3E4C5E" points="9.199,0.374 15.344,8.003 15.344,8.155 9.074,0.374 	"/>
	<polygon clip-path="url(#XMLID_9_)" fill="#3D4C5E" points="9.32,0.374 15.344,7.851 15.344,8.003 9.199,0.374 	"/>
	<polygon clip-path="url(#XMLID_9_)" fill="#3D4C5E" points="15.344,7.698 9.445,0.374 9.32,0.374 15.344,7.851 	"/>
	<polygon clip-path="url(#XMLID_9_)" fill="#3C4B5D" points="9.566,0.374 15.344,7.546 15.344,7.698 9.445,0.374 	"/>
	<polygon clip-path="url(#XMLID_9_)" fill="#3C4B5D" points="9.691,0.374 15.344,7.394 15.344,7.546 9.566,0.374 	"/>
	<polygon clip-path="url(#XMLID_9_)" fill="#3C4B5D" points="9.812,0.374 15.344,7.241 15.344,7.394 9.691,0.374 	"/>
	<polygon clip-path="url(#XMLID_9_)" fill="#3B4A5C" points="9.938,0.374 15.344,7.089 15.344,7.241 9.812,0.374 	"/>
	<polygon clip-path="url(#XMLID_9_)" fill="#3B4A5C" points="10.059,0.374 15.344,6.937 15.344,7.089 9.938,0.374 	"/>
	<polygon clip-path="url(#XMLID_9_)" fill="#3A495C" points="10.18,0.374 15.344,6.784 15.344,6.937 10.059,0.374 	"/>
	<polygon clip-path="url(#XMLID_9_)" fill="#3A495B" points="10.305,0.374 15.344,6.632 15.344,6.784 10.18,0.374 	"/>
	<polygon clip-path="url(#XMLID_9_)" fill="#39495B" points="10.43,0.374 15.344,6.479 15.344,6.632 10.305,0.374 	"/>
	<polygon clip-path="url(#XMLID_9_)" fill="#38495B" points="10.551,0.374 15.344,6.327 15.344,6.479 10.43,0.374 	"/>
	<polygon clip-path="url(#XMLID_9_)" fill="#38485B" points="15.344,6.175 10.672,0.374 10.551,0.374 15.344,6.327 	"/>
	<polygon clip-path="url(#XMLID_9_)" fill="#38485A" points="10.797,0.374 15.344,6.022 15.344,6.175 10.672,0.374 	"/>
	<polygon clip-path="url(#XMLID_9_)" fill="#37485A" points="10.918,0.374 15.344,5.87 15.344,6.022 10.797,0.374 	"/>
	<polygon clip-path="url(#XMLID_9_)" fill="#38475A" points="11.043,0.374 15.344,5.718 15.344,5.87 10.918,0.374 	"/>
	<polygon clip-path="url(#XMLID_9_)" fill="#37475A" points="11.164,0.374 15.344,5.562 15.344,5.718 11.043,0.374 	"/>
	<polygon clip-path="url(#XMLID_9_)" fill="#374659" points="11.289,0.374 15.344,5.409 15.344,5.562 11.164,0.374 	"/>
	<polygon clip-path="url(#XMLID_9_)" fill="#364659" points="11.41,0.374 15.344,5.257 15.344,5.409 11.289,0.374 	"/>
	<polygon clip-path="url(#XMLID_9_)" fill="#364659" points="11.531,0.374 15.344,5.104 15.344,5.257 11.41,0.374 	"/>
	<polygon clip-path="url(#XMLID_9_)" fill="#364659" points="11.656,0.374 15.344,4.952 15.344,5.104 11.531,0.374 	"/>
	<polygon clip-path="url(#XMLID_9_)" fill="#354659" points="11.781,0.374 15.344,4.8 15.344,4.952 11.656,0.374 	"/>
	<polygon clip-path="url(#XMLID_9_)" fill="#354659" points="11.902,0.374 15.344,4.647 15.344,4.8 11.781,0.374 	"/>
	<polygon clip-path="url(#XMLID_9_)" fill="#354658" points="12.023,0.374 15.344,4.495 15.344,4.647 11.902,0.374 	"/>
	<polygon clip-path="url(#XMLID_9_)" fill="#344558" points="12.148,0.374 15.344,4.343 15.344,4.495 12.023,0.374 	"/>
	<polygon clip-path="url(#XMLID_9_)" fill="#344558" points="12.273,0.374 15.344,4.19 15.344,4.343 12.148,0.374 	"/>
	<polygon clip-path="url(#XMLID_9_)" fill="#344558" points="12.395,0.374 15.344,4.038 15.344,4.19 12.273,0.374 	"/>
	<polygon clip-path="url(#XMLID_9_)" fill="#344558" points="12.516,0.374 15.344,3.886 15.344,4.038 12.395,0.374 	"/>
	<polygon clip-path="url(#XMLID_9_)" fill="#344558" points="15.344,3.886 12.516,0.374 15.344,0.374 	"/>
</g>
<path fill="#AEADAE" d="M14.97,7.859c0,3.919-3.189,7.108-7.109,7.108c-3.921,0-7.11-3.189-7.11-7.108
	c0-3.92,3.189-7.109,7.11-7.109C11.78,0.75,14.97,3.939,14.97,7.859z M7.86,0C3.526,0,0,3.526,0,7.859s3.526,7.858,7.86,7.858
	s7.859-3.525,7.859-7.858S12.194,0,7.86,0z"/>
<path fill="#FFFFFF" d="M10.57,10.586v0.957H5.345v-1.056l0.176-0.154c0.253-0.23,0.507-0.462,0.759-0.682
	C6.543,9.409,6.83,9.179,7.094,8.946c1.441-1.221,2.189-1.891,2.189-2.881c0-0.275-0.1-1.31-1.397-1.31
	c-1.122,0-1.364,0.804-1.44,1.134C6.367,6.229,6.379,6.472,6.39,6.726L5.322,6.67c0-0.274,0-0.704,0.154-1.188
	C5.828,4.403,6.72,3.843,7.93,3.843c1.716,0,2.42,1.078,2.42,2.178c0,1.145-0.639,2.014-2.156,3.256
	C7.93,9.485,7.677,9.694,7.412,9.903c-0.109,0.1-0.67,0.572-0.803,0.683H10.57z"/>
</svg>
