<?xml version="1.0" encoding="utf-8"?>
<!-- Generator: Adobe Illustrator 12.0.1, SVG Export Plug-In  -->
<!DOCTYPE svg PUBLIC "-//W3C//DTD SVG 1.1//EN" "http://www.w3.org/Graphics/SVG/1.1/DTD/svg11.dtd" [
	<!ENTITY ns_flows "http://ns.adobe.com/Flows/1.0/">
	<!ENTITY ns_svg "http://www.w3.org/2000/svg">
	<!ENTITY ns_xlink "http://www.w3.org/1999/xlink">
]>
<svg  version="1.1" xmlns="&ns_svg;" xmlns:xlink="&ns_xlink;" xmlns:a="http://ns.adobe.com/AdobeSVGViewerExtensions/3.0/"
	 width="17" height="16" viewBox="-0.75 -0.058 17 16" enable-background="new -0.75 -0.058 17 16" xml:space="preserve">
<defs>
</defs>
<g>
	<defs>
		<circle id="XMLID_6_" cx="7.86" cy="7.858" r="7.485"/>
	</defs>
	<clipPath id="XMLID_9_">
		<use xlink:href="#XMLID_6_" />
	</clipPath>
	<polygon clip-path="url(#XMLID_9_)" fill="#CBD2D8" points="0.375,11.774 4.328,15.341 0.375,15.341 	"/>
	<polygon clip-path="url(#XMLID_9_)" fill="#CBD2D8" points="0.375,11.622 4.5,15.341 4.328,15.341 0.375,11.774 	"/>
	<polygon clip-path="url(#XMLID_9_)" fill="#C9D0D5" points="0.375,11.466 4.668,15.341 4.5,15.341 0.375,11.622 	"/>
	<polygon clip-path="url(#XMLID_9_)" fill="#C6CDD3" points="0.375,11.313 4.84,15.341 4.668,15.341 0.375,11.466 	"/>
	<polygon clip-path="url(#XMLID_9_)" fill="#C5CCD2" points="0.375,11.161 5.012,15.341 4.84,15.341 0.375,11.313 	"/>
	<polygon clip-path="url(#XMLID_9_)" fill="#C3C9D0" points="0.375,11.005 5.18,15.341 5.012,15.341 0.375,11.161 	"/>
	<polygon clip-path="url(#XMLID_9_)" fill="#C1C8CE" points="5.352,15.341 0.375,10.853 0.375,11.005 5.18,15.341 	"/>
	<polygon clip-path="url(#XMLID_9_)" fill="#BFC5CC" points="0.375,10.696 5.523,15.341 5.352,15.341 0.375,10.853 	"/>
	<polygon clip-path="url(#XMLID_9_)" fill="#BEC4CB" points="0.375,10.544 5.695,15.341 5.523,15.341 0.375,10.696 	"/>
	<polygon clip-path="url(#XMLID_9_)" fill="#BBC2C9" points="0.375,10.388 5.863,15.341 5.695,15.341 0.375,10.544 	"/>
	<polygon clip-path="url(#XMLID_9_)" fill="#BAC0C8" points="0.375,10.235 6.035,15.341 5.863,15.341 0.375,10.388 	"/>
	<polygon clip-path="url(#XMLID_9_)" fill="#B7BEC6" points="0.375,10.083 6.203,15.341 6.035,15.341 0.375,10.235 	"/>
	<polygon clip-path="url(#XMLID_9_)" fill="#B6BDC5" points="0.375,9.927 6.375,15.341 6.203,15.341 0.375,10.083 	"/>
	<polygon clip-path="url(#XMLID_9_)" fill="#B5BBC3" points="0.375,9.774 6.547,15.341 6.375,15.341 0.375,9.927 	"/>
	<polygon clip-path="url(#XMLID_9_)" fill="#B3BAC2" points="0.375,9.618 6.719,15.341 6.547,15.341 0.375,9.774 	"/>
	<polygon clip-path="url(#XMLID_9_)" fill="#B1B7C0" points="0.375,9.466 6.891,15.341 6.719,15.341 0.375,9.618 	"/>
	<polygon clip-path="url(#XMLID_9_)" fill="#B0B6BF" points="0.375,9.31 7.059,15.341 6.891,15.341 0.375,9.466 	"/>
	<polygon clip-path="url(#XMLID_9_)" fill="#AEB5BE" points="0.375,9.157 7.23,15.341 7.059,15.341 0.375,9.31 	"/>
	<polygon clip-path="url(#XMLID_9_)" fill="#ADB3BC" points="0.375,9.005 7.398,15.341 7.23,15.341 0.375,9.157 	"/>
	<polygon clip-path="url(#XMLID_9_)" fill="#ABB2BC" points="0.375,8.849 7.57,15.341 7.398,15.341 0.375,9.005 	"/>
	<polygon clip-path="url(#XMLID_9_)" fill="#AAB0BA" points="0.375,8.696 7.742,15.341 7.57,15.341 0.375,8.849 	"/>
	<polygon clip-path="url(#XMLID_9_)" fill="#A8AEB8" points="0.375,8.54 7.91,15.341 7.742,15.341 0.375,8.696 	"/>
	<polygon clip-path="url(#XMLID_9_)" fill="#A6ADB7" points="0.375,8.388 8.082,15.341 7.91,15.341 0.375,8.54 	"/>
	<polygon clip-path="url(#XMLID_9_)" fill="#A6ACB6" points="0.375,8.231 8.254,15.341 8.082,15.341 0.375,8.388 	"/>
	<polygon clip-path="url(#XMLID_9_)" fill="#A3AAB4" points="0.375,8.079 8.426,15.341 8.254,15.341 0.375,8.231 	"/>
	<polygon clip-path="url(#XMLID_9_)" fill="#A2A8B3" points="0.375,7.927 8.594,15.341 8.426,15.341 0.375,8.079 	"/>
	<polygon clip-path="url(#XMLID_9_)" fill="#A0A7B1" points="8.766,15.341 0.375,7.771 0.375,7.927 8.594,15.341 	"/>
	<polygon clip-path="url(#XMLID_9_)" fill="#9FA6B0" points="0.375,7.618 8.938,15.341 8.766,15.341 0.375,7.771 	"/>
	<polygon clip-path="url(#XMLID_9_)" fill="#9EA4AF" points="9.109,15.341 0.375,7.462 0.375,7.618 8.938,15.341 	"/>
	<polygon clip-path="url(#XMLID_9_)" fill="#9CA3AE" points="0.375,7.31 9.277,15.341 9.109,15.341 0.375,7.462 	"/>
	<polygon clip-path="url(#XMLID_9_)" fill="#9BA1AD" points="0.375,7.153 9.445,15.341 9.277,15.341 0.375,7.31 	"/>
	<polygon clip-path="url(#XMLID_9_)" fill="#9AA0AB" points="0.375,7.001 9.617,15.341 9.445,15.341 0.375,7.153 	"/>
	<polygon clip-path="url(#XMLID_9_)" fill="#989FAA" points="0.375,6.849 9.789,15.341 9.617,15.341 0.375,7.001 	"/>
	<polygon clip-path="url(#XMLID_9_)" fill="#979EAA" points="0.375,6.692 9.961,15.341 9.789,15.341 0.375,6.849 	"/>
	<polygon clip-path="url(#XMLID_9_)" fill="#969CA8" points="10.133,15.341 0.375,6.54 0.375,6.692 9.961,15.341 	"/>
	<polygon clip-path="url(#XMLID_9_)" fill="#949BA7" points="0.375,6.384 10.301,15.341 10.133,15.341 0.375,6.54 	"/>
	<polygon clip-path="url(#XMLID_9_)" fill="#9399A5" points="0.375,6.231 10.473,15.341 10.301,15.341 0.375,6.384 	"/>
	<polygon clip-path="url(#XMLID_9_)" fill="#9298A4" points="0.375,6.075 10.645,15.341 10.473,15.341 0.375,6.231 	"/>
	<polygon clip-path="url(#XMLID_9_)" fill="#9097A3" points="0.375,5.923 10.812,15.341 10.645,15.341 0.375,6.075 	"/>
	<polygon clip-path="url(#XMLID_9_)" fill="#8F95A2" points="0.375,5.771 10.984,15.341 10.812,15.341 0.375,5.923 	"/>
	<polygon clip-path="url(#XMLID_9_)" fill="#8E95A1" points="0.375,5.614 11.156,15.341 10.984,15.341 0.375,5.771 	"/>
	<polygon clip-path="url(#XMLID_9_)" fill="#8D93A0" points="0.375,5.462 11.324,15.341 11.156,15.341 0.375,5.614 	"/>
	<polygon clip-path="url(#XMLID_9_)" fill="#8B929F" points="0.375,5.306 11.496,15.341 11.324,15.341 0.375,5.462 	"/>
	<polygon clip-path="url(#XMLID_9_)" fill="#8A919E" points="11.668,15.341 0.375,5.153 0.375,5.306 11.496,15.341 	"/>
	<polygon clip-path="url(#XMLID_9_)" fill="#898F9D" points="0.375,4.997 11.836,15.341 11.668,15.341 0.375,5.153 	"/>
	<polygon clip-path="url(#XMLID_9_)" fill="#878E9B" points="0.375,4.845 12.008,15.341 11.836,15.341 0.375,4.997 	"/>
	<polygon clip-path="url(#XMLID_9_)" fill="#878D9B" points="0.375,4.692 12.18,15.341 12.008,15.341 0.375,4.845 	"/>
	<polygon clip-path="url(#XMLID_9_)" fill="#858C9A" points="0.375,4.536 12.352,15.341 12.18,15.341 0.375,4.692 	"/>
	<polygon clip-path="url(#XMLID_9_)" fill="#848B98" points="0.375,4.384 12.52,15.341 12.352,15.341 0.375,4.536 	"/>
	<polygon clip-path="url(#XMLID_9_)" fill="#838A97" points="0.375,4.228 12.691,15.341 12.52,15.341 0.375,4.384 	"/>
	<polygon clip-path="url(#XMLID_9_)" fill="#828997" points="0.375,4.075 12.859,15.341 12.691,15.341 0.375,4.228 	"/>
	<polygon clip-path="url(#XMLID_9_)" fill="#818895" points="0.375,3.923 13.031,15.341 12.859,15.341 0.375,4.075 	"/>
	<polygon clip-path="url(#XMLID_9_)" fill="#808794" points="0.375,3.767 13.203,15.341 13.031,15.341 0.375,3.923 	"/>
	<polygon clip-path="url(#XMLID_9_)" fill="#7E8594" points="0.375,3.614 13.375,15.341 13.203,15.341 0.375,3.767 	"/>
	<polygon clip-path="url(#XMLID_9_)" fill="#7D8593" points="0.375,3.458 13.543,15.341 13.375,15.341 0.375,3.614 	"/>
	<polygon clip-path="url(#XMLID_9_)" fill="#7C8392" points="0.375,3.306 13.715,15.341 13.543,15.341 0.375,3.458 	"/>
	<polygon clip-path="url(#XMLID_9_)" fill="#7B8290" points="0.375,3.149 13.887,15.341 13.715,15.341 0.375,3.306 	"/>
	<polygon clip-path="url(#XMLID_9_)" fill="#7A8190" points="0.375,2.997 14.055,15.341 13.887,15.341 0.375,3.149 	"/>
	<polygon clip-path="url(#XMLID_9_)" fill="#79808F" points="0.375,2.841 14.227,15.341 14.055,15.341 0.375,2.997 	"/>
	<polygon clip-path="url(#XMLID_9_)" fill="#787F8D" points="0.375,2.688 14.398,15.341 14.227,15.341 0.375,2.841 	"/>
	<polygon clip-path="url(#XMLID_9_)" fill="#777E8D" points="0.375,2.536 14.57,15.341 14.398,15.341 0.375,2.688 	"/>
	<polygon clip-path="url(#XMLID_9_)" fill="#767D8C" points="0.375,2.38 14.738,15.341 14.57,15.341 0.375,2.536 	"/>
	<polygon clip-path="url(#XMLID_9_)" fill="#767C8B" points="0.375,2.228 14.91,15.341 14.738,15.341 0.375,2.38 	"/>
	<polygon clip-path="url(#XMLID_9_)" fill="#747B8A" points="0.375,2.071 15.043,15.31 15.016,15.341 14.91,15.341 0.375,2.228 	"/>
	<polygon clip-path="url(#XMLID_9_)" fill="#737A89" points="0.375,1.919 15.121,15.224 15.043,15.31 0.375,2.071 	"/>
	<polygon clip-path="url(#XMLID_9_)" fill="#727989" points="0.375,1.763 15.195,15.142 15.121,15.224 0.375,1.919 	"/>
	<polygon clip-path="url(#XMLID_9_)" fill="#717888" points="0.375,1.61 15.273,15.056 15.195,15.142 0.375,1.763 	"/>
	<polygon clip-path="url(#XMLID_9_)" fill="#707786" points="15.273,15.056 15.344,14.978 15.344,14.966 0.375,1.458 0.375,1.61 	
		"/>
	<polygon clip-path="url(#XMLID_9_)" fill="#6F7686" points="15.344,14.81 0.375,1.302 0.375,1.458 15.344,14.966 	"/>
	<polygon clip-path="url(#XMLID_9_)" fill="#6D7585" points="0.375,1.149 15.344,14.657 15.344,14.81 0.375,1.302 	"/>
	<polygon clip-path="url(#XMLID_9_)" fill="#6D7584" points="0.375,0.993 15.344,14.505 15.344,14.657 0.375,1.149 	"/>
	<polygon clip-path="url(#XMLID_9_)" fill="#6C7383" points="0.375,0.841 15.344,14.349 15.344,14.505 0.375,0.993 	"/>
	<polygon clip-path="url(#XMLID_9_)" fill="#6B7383" points="0.375,0.739 0.402,0.708 15.344,14.196 15.344,14.349 0.375,0.841 	"/>
	<polygon clip-path="url(#XMLID_9_)" fill="#6A7281" points="0.402,0.708 0.477,0.626 15.344,14.044 15.344,14.196 	"/>
	<polygon clip-path="url(#XMLID_9_)" fill="#697181" points="0.477,0.626 0.555,0.54 15.344,13.888 15.344,14.044 	"/>
	<polygon clip-path="url(#XMLID_9_)" fill="#697080" points="15.344,13.735 0.633,0.454 0.555,0.54 15.344,13.888 	"/>
	<polygon clip-path="url(#XMLID_9_)" fill="#686F7F" points="0.633,0.454 0.703,0.376 0.711,0.376 15.344,13.579 15.344,13.735 	"/>
	<polygon clip-path="url(#XMLID_9_)" fill="#676E7E" points="0.883,0.376 15.344,13.427 15.344,13.579 0.711,0.376 	"/>
	<polygon clip-path="url(#XMLID_9_)" fill="#656D7D" points="1.055,0.376 15.344,13.271 15.344,13.427 0.883,0.376 	"/>
	<polygon clip-path="url(#XMLID_9_)" fill="#646C7D" points="1.227,0.376 15.344,13.118 15.344,13.271 1.055,0.376 	"/>
	<polygon clip-path="url(#XMLID_9_)" fill="#646C7C" points="1.395,0.376 15.344,12.962 15.344,13.118 1.227,0.376 	"/>
	<polygon clip-path="url(#XMLID_9_)" fill="#636B7C" points="1.566,0.376 15.344,12.81 15.344,12.962 1.395,0.376 	"/>
	<polygon clip-path="url(#XMLID_9_)" fill="#626B7B" points="1.734,0.376 15.344,12.657 15.344,12.81 1.566,0.376 	"/>
	<polygon clip-path="url(#XMLID_9_)" fill="#616A7A" points="1.906,0.376 15.344,12.501 15.344,12.657 1.734,0.376 	"/>
	<polygon clip-path="url(#XMLID_9_)" fill="#606979" points="2.078,0.376 15.344,12.349 15.344,12.501 1.906,0.376 	"/>
	<polygon clip-path="url(#XMLID_9_)" fill="#5F6878" points="2.25,0.376 15.344,12.192 15.344,12.349 2.078,0.376 	"/>
	<polygon clip-path="url(#XMLID_9_)" fill="#5F6878" points="2.418,0.376 15.344,12.04 15.344,12.192 2.25,0.376 	"/>
	<polygon clip-path="url(#XMLID_9_)" fill="#5E6777" points="2.59,0.376 15.344,11.884 15.344,12.04 2.418,0.376 	"/>
	<polygon clip-path="url(#XMLID_9_)" fill="#5D6676" points="2.762,0.376 15.344,11.731 15.344,11.884 2.59,0.376 	"/>
	<polygon clip-path="url(#XMLID_9_)" fill="#5C6576" points="2.93,0.376 15.344,11.579 15.344,11.731 2.762,0.376 	"/>
	<polygon clip-path="url(#XMLID_9_)" fill="#5B6475" points="3.102,0.376 15.344,11.423 15.344,11.579 2.93,0.376 	"/>
	<polygon clip-path="url(#XMLID_9_)" fill="#5B6475" points="3.273,0.376 15.344,11.271 15.344,11.423 3.102,0.376 	"/>
	<polygon clip-path="url(#XMLID_9_)" fill="#5A6373" points="3.445,0.376 15.344,11.114 15.344,11.271 3.273,0.376 	"/>
	<polygon clip-path="url(#XMLID_9_)" fill="#596273" points="3.613,0.376 15.344,10.962 15.344,11.114 3.445,0.376 	"/>
	<polygon clip-path="url(#XMLID_9_)" fill="#586172" points="3.785,0.376 15.344,10.806 15.344,10.962 3.613,0.376 	"/>
	<polygon clip-path="url(#XMLID_9_)" fill="#576172" points="3.953,0.376 15.344,10.653 15.344,10.806 3.785,0.376 	"/>
	<polygon clip-path="url(#XMLID_9_)" fill="#566071" points="4.125,0.376 15.344,10.497 15.344,10.653 3.953,0.376 	"/>
	<polygon clip-path="url(#XMLID_9_)" fill="#566070" points="4.297,0.376 15.344,10.345 15.344,10.497 4.125,0.376 	"/>
	<polygon clip-path="url(#XMLID_9_)" fill="#555F70" points="4.469,0.376 15.344,10.192 15.344,10.345 4.297,0.376 	"/>
	<polygon clip-path="url(#XMLID_9_)" fill="#545E6F" points="4.641,0.376 15.344,10.036 15.344,10.192 4.469,0.376 	"/>
	<polygon clip-path="url(#XMLID_9_)" fill="#535E6F" points="4.809,0.376 15.344,9.884 15.344,10.036 4.641,0.376 	"/>
	<polygon clip-path="url(#XMLID_9_)" fill="#535D6E" points="4.98,0.376 15.344,9.728 15.344,9.884 4.809,0.376 	"/>
	<polygon clip-path="url(#XMLID_9_)" fill="#525C6D" points="5.148,0.376 15.344,9.575 15.344,9.728 4.98,0.376 	"/>
	<polygon clip-path="url(#XMLID_9_)" fill="#515C6D" points="5.32,0.376 15.344,9.419 15.344,9.575 5.148,0.376 	"/>
	<polygon clip-path="url(#XMLID_9_)" fill="#505B6C" points="5.492,0.376 15.344,9.267 15.344,9.419 5.32,0.376 	"/>
	<polygon clip-path="url(#XMLID_9_)" fill="#505B6C" points="5.664,0.376 15.344,9.114 15.344,9.267 5.492,0.376 	"/>
	<polygon clip-path="url(#XMLID_9_)" fill="#505A6B" points="5.832,0.376 15.344,8.958 15.344,9.114 5.664,0.376 	"/>
	<polygon clip-path="url(#XMLID_9_)" fill="#4F596A" points="6.004,0.376 15.344,8.806 15.344,8.958 5.832,0.376 	"/>
	<polygon clip-path="url(#XMLID_9_)" fill="#4E596A" points="6.172,0.376 15.344,8.649 15.344,8.806 6.004,0.376 	"/>
	<polygon clip-path="url(#XMLID_9_)" fill="#4D5869" points="6.344,0.376 15.344,8.497 15.344,8.649 6.172,0.376 	"/>
	<polygon clip-path="url(#XMLID_9_)" fill="#4C5869" points="15.344,8.341 6.516,0.376 6.344,0.376 15.344,8.497 	"/>
	<polygon clip-path="url(#XMLID_9_)" fill="#4C5768" points="6.688,0.376 15.344,8.188 15.344,8.341 6.516,0.376 	"/>
	<polygon clip-path="url(#XMLID_9_)" fill="#4B5768" points="6.855,0.376 15.344,8.036 15.344,8.188 6.688,0.376 	"/>
	<polygon clip-path="url(#XMLID_9_)" fill="#4B5667" points="7.027,0.376 15.344,7.88 15.344,8.036 6.855,0.376 	"/>
	<polygon clip-path="url(#XMLID_9_)" fill="#4A5567" points="7.195,0.376 15.344,7.728 15.344,7.88 7.027,0.376 	"/>
	<polygon clip-path="url(#XMLID_9_)" fill="#495566" points="7.367,0.376 15.344,7.571 15.344,7.728 7.195,0.376 	"/>
	<polygon clip-path="url(#XMLID_9_)" fill="#485566" points="7.539,0.376 15.344,7.419 15.344,7.571 7.367,0.376 	"/>
	<polygon clip-path="url(#XMLID_9_)" fill="#485466" points="7.711,0.376 15.344,7.263 15.344,7.419 7.539,0.376 	"/>
	<polygon clip-path="url(#XMLID_9_)" fill="#475365" points="7.883,0.376 15.344,7.11 15.344,7.263 7.711,0.376 	"/>
	<polygon clip-path="url(#XMLID_9_)" fill="#475365" points="8.051,0.376 15.344,6.958 15.344,7.11 7.883,0.376 	"/>
	<polygon clip-path="url(#XMLID_9_)" fill="#465264" points="15.344,6.802 8.223,0.376 8.051,0.376 15.344,6.958 	"/>
	<polygon clip-path="url(#XMLID_9_)" fill="#455264" points="8.391,0.376 15.344,6.649 15.344,6.802 8.223,0.376 	"/>
	<polygon clip-path="url(#XMLID_9_)" fill="#445263" points="8.562,0.376 15.344,6.497 15.344,6.649 8.391,0.376 	"/>
	<polygon clip-path="url(#XMLID_9_)" fill="#445163" points="8.734,0.376 15.344,6.341 15.344,6.497 8.562,0.376 	"/>
	<polygon clip-path="url(#XMLID_9_)" fill="#445062" points="8.906,0.376 15.344,6.185 15.344,6.341 8.734,0.376 	"/>
	<polygon clip-path="url(#XMLID_9_)" fill="#425062" points="9.074,0.376 15.344,6.032 15.344,6.185 8.906,0.376 	"/>
	<polygon clip-path="url(#XMLID_9_)" fill="#425062" points="9.246,0.376 15.344,5.88 15.344,6.032 9.074,0.376 	"/>
	<polygon clip-path="url(#XMLID_9_)" fill="#424F61" points="9.414,0.376 15.344,5.724 15.344,5.88 9.246,0.376 	"/>
	<polygon clip-path="url(#XMLID_9_)" fill="#414F61" points="9.586,0.376 15.344,5.571 15.344,5.724 9.414,0.376 	"/>
	<polygon clip-path="url(#XMLID_9_)" fill="#404E60" points="9.758,0.376 15.344,5.419 15.344,5.571 9.586,0.376 	"/>
	<polygon clip-path="url(#XMLID_9_)" fill="#3F4E60" points="9.93,0.376 15.344,5.263 15.344,5.419 9.758,0.376 	"/>
	<polygon clip-path="url(#XMLID_9_)" fill="#3F4D60" points="10.102,0.376 15.344,5.11 15.344,5.263 9.93,0.376 	"/>
	<polygon clip-path="url(#XMLID_9_)" fill="#3F4D5F" points="15.344,4.954 10.27,0.376 10.102,0.376 15.344,5.11 	"/>
	<polygon clip-path="url(#XMLID_9_)" fill="#3E4D5F" points="10.441,0.376 15.344,4.802 15.344,4.954 10.27,0.376 	"/>
	<polygon clip-path="url(#XMLID_9_)" fill="#3E4C5E" points="10.609,0.376 15.344,4.646 15.344,4.802 10.441,0.376 	"/>
	<polygon clip-path="url(#XMLID_9_)" fill="#3D4C5E" points="10.781,0.376 15.344,4.493 15.344,4.646 10.609,0.376 	"/>
	<polygon clip-path="url(#XMLID_9_)" fill="#3D4C5E" points="10.953,0.376 15.344,4.341 15.344,4.493 10.781,0.376 	"/>
	<polygon clip-path="url(#XMLID_9_)" fill="#3C4B5D" points="11.125,0.376 15.344,4.185 15.344,4.341 10.953,0.376 	"/>
	<polygon clip-path="url(#XMLID_9_)" fill="#3C4B5D" points="11.293,0.376 15.344,4.032 15.344,4.185 11.125,0.376 	"/>
	<polygon clip-path="url(#XMLID_9_)" fill="#3C4B5D" points="11.465,0.376 15.344,3.876 15.344,4.032 11.293,0.376 	"/>
	<polygon clip-path="url(#XMLID_9_)" fill="#3B4A5C" points="11.637,0.376 15.344,3.724 15.344,3.876 11.465,0.376 	"/>
	<polygon clip-path="url(#XMLID_9_)" fill="#3B4A5C" points="11.805,0.376 15.344,3.567 15.344,3.724 11.637,0.376 	"/>
	<polygon clip-path="url(#XMLID_9_)" fill="#3A495C" points="11.977,0.376 15.344,3.415 15.344,3.567 11.805,0.376 	"/>
	<polygon clip-path="url(#XMLID_9_)" fill="#3A495B" points="12.148,0.376 15.344,3.263 15.344,3.415 11.977,0.376 	"/>
	<polygon clip-path="url(#XMLID_9_)" fill="#39495B" points="12.32,0.376 15.344,3.106 15.344,3.263 12.148,0.376 	"/>
	<polygon clip-path="url(#XMLID_9_)" fill="#38495B" points="12.488,0.376 15.344,2.954 15.344,3.106 12.32,0.376 	"/>
	<polygon clip-path="url(#XMLID_9_)" fill="#38485B" points="12.66,0.376 15.344,2.798 15.344,2.954 12.488,0.376 	"/>
	<polygon clip-path="url(#XMLID_9_)" fill="#38485A" points="12.828,0.376 15.344,2.646 15.344,2.798 12.66,0.376 	"/>
	<polygon clip-path="url(#XMLID_9_)" fill="#37485A" points="13,0.376 15.344,2.489 15.344,2.646 12.828,0.376 	"/>
	<polygon clip-path="url(#XMLID_9_)" fill="#38475A" points="13.172,0.376 15.344,2.337 15.344,2.489 13,0.376 	"/>
	<polygon clip-path="url(#XMLID_9_)" fill="#37475A" points="13.344,0.376 15.344,2.185 15.344,2.337 13.172,0.376 	"/>
	<polygon clip-path="url(#XMLID_9_)" fill="#374659" points="13.512,0.376 15.344,2.028 15.344,2.185 13.344,0.376 	"/>
	<polygon clip-path="url(#XMLID_9_)" fill="#364659" points="13.684,0.376 15.344,1.876 15.344,2.028 13.512,0.376 	"/>
	<polygon clip-path="url(#XMLID_9_)" fill="#364659" points="13.852,0.376 15.344,1.72 15.344,1.876 13.684,0.376 	"/>
	<polygon clip-path="url(#XMLID_9_)" fill="#364659" points="14.023,0.376 15.344,1.567 15.344,1.72 13.852,0.376 	"/>
	<polygon clip-path="url(#XMLID_9_)" fill="#354659" points="14.195,0.376 15.344,1.411 15.344,1.567 14.023,0.376 	"/>
	<polygon clip-path="url(#XMLID_9_)" fill="#354659" points="14.367,0.376 15.344,1.259 15.344,1.411 14.195,0.376 	"/>
	<polygon clip-path="url(#XMLID_9_)" fill="#354658" points="14.535,0.376 15.344,1.106 15.344,1.259 14.367,0.376 	"/>
	<polygon clip-path="url(#XMLID_9_)" fill="#344558" points="14.707,0.376 15.344,0.95 15.344,1.106 14.535,0.376 	"/>
	<polygon clip-path="url(#XMLID_9_)" fill="#344558" points="14.879,0.376 15.344,0.798 15.344,0.95 14.707,0.376 	"/>
	<polygon clip-path="url(#XMLID_9_)" fill="#344558" points="15.047,0.376 15.344,0.642 15.344,0.798 14.879,0.376 	"/>
	<polygon clip-path="url(#XMLID_9_)" fill="#344558" points="15.219,0.376 15.344,0.489 15.344,0.642 15.047,0.376 	"/>
	<polygon clip-path="url(#XMLID_9_)" fill="#344558" points="15.344,0.489 15.219,0.376 15.344,0.376 	"/>
</g>
<path fill="#AEADAE" d="M14.97,7.858c0,3.92-3.189,7.109-7.109,7.109c-3.921,0-7.11-3.189-7.11-7.109S3.939,0.75,7.86,0.75
	C11.78,0.75,14.97,3.938,14.97,7.858z M7.86,0C3.526,0,0,3.525,0,7.858c0,4.334,3.526,7.859,7.86,7.859s7.859-3.525,7.859-7.859
	C15.72,3.525,12.194,0,7.86,0z"/>
<path fill="#FFFFFF" d="M9.371,8.902h1.144v0.892H9.371v1.748H8.348V9.794H5.025V8.737l3.531-4.807h0.814V8.902z M8.348,8.902
	l0.066-3.432L6.016,8.902H8.348z"/>
</svg>
