<?xml version="1.0" encoding="utf-8"?>
<!-- Generator: Adobe Illustrator 15.0.2, SVG Export Plug-In . SVG Version: 6.00 Build 0)  -->
<!DOCTYPE svg PUBLIC "-//W3C//DTD SVG 1.1//EN" "http://www.w3.org/Graphics/SVG/1.1/DTD/svg11.dtd">
<svg version="1.1" id="Layer_1" xmlns="http://www.w3.org/2000/svg" xmlns:xlink="http://www.w3.org/1999/xlink" x="0px" y="0px"
	 width="400px" height="400px" viewBox="0 0 400 400" enable-background="new 0 0 400 400" xml:space="preserve">
<g>
	
		<linearGradient id="SVGID_1_" gradientUnits="userSpaceOnUse" x1="326.6055" y1="-142.313" x2="459.5439" y2="-142.313" gradientTransform="matrix(1 0 0 -1 -96 195)">
		<stop  offset="0" style="stop-color:#F3D99F"/>
		<stop  offset="0.459" style="stop-color:#FAF8ED"/>
		<stop  offset="0.9836" style="stop-color:#E3A835"/>
	</linearGradient>
	<path fill="url(#SVGID_1_)" stroke="#AB710A" stroke-width="1.2013" stroke-linejoin="round" stroke-miterlimit="10" d="
		M363.54,283.952c-0.175-0.011-0.401-0.021-0.595-0.032c-0.039,0.734-0.176,1.463-0.389,2.166c-0.063,0.216-0.14,0.426-0.216,0.637
		c-0.063,0.18-0.14,0.357-0.216,0.534c0.021,0.048,0.002,0-0.096,0.21s-0.204,0.42-0.312,0.624
		c-0.251,0.463-0.529,0.913-0.832,1.345c-0.506,0.717-1.074,1.391-1.683,2.021c-0.772,0.804-1.611,1.552-2.494,2.231
		c-0.474,0.363-0.952,0.719-1.442,1.061c-0.351,0.245-0.709,0.482-1.068,0.713c-0.324,0.209-0.395,0.25-0.643,0.4
		c-0.387,0.238-0.777,0.468-1.172,0.69c-0.574,0.327-1.152,0.644-1.736,0.944c-1.299,0.673-2.633,1.285-3.979,1.857
		c-2.722,1.148-5.508,2.107-8.334,2.957c-4.576,1.369-9.243,2.381-13.949,3.192c-12.858,2.218-26.088,2.678-39.098,1.81
		c-12.298-0.82-24.896-2.781-36.397-7.385c-4.017-1.605-7.935-3.549-11.379-6.191c-1.337-1.025-2.586-2.188-3.645-3.502
		c-0.54-0.672-1.026-1.385-1.436-2.142c-0.217-0.403-0.41-0.817-0.578-1.243c-0.108-0.274-0.135-0.934-0.531-0.679
		c0.059-0.049,0.136-0.103,0.203-0.147c0.08-0.057-0.098-0.535-0.121-0.644c-0.107-0.481-0.176-0.972-0.203-1.462
		c-0.698,0.038-0.602-0.021-0.571,0.578c0.035,0.648,0.07,1.299,0.104,1.949c0.133,2.438,0.264,4.875,0.394,7.312
		c0.397,7.426,2.524,65.108,2.629,67.018c0.155,2.861,0.823,5.538,2.287,8.043c1.826,3.122,4.448,5.607,7.28,7.814
		c1.484,1.16,3.099,2.174,4.729,3.117c0.844,0.488,1.708,0.938,2.568,1.396c0.369,0.197,0.75,0.372,1.126,0.557
		c0.287,0.143,0.295,0.146,0.601,0.291c0.434,0.205,0.87,0.407,1.309,0.599c0.558,0.24,1.111,0.486,1.672,0.717
		c1.214,0.495,2.436,0.958,3.665,1.405c2.477,0.897,5.012,1.623,7.556,2.308c0.098,0.025,0.098,0.025,0.46,0.119
		c0.388,0.098,0.775,0.195,1.162,0.288c0.497,0.12,0.992,0.234,1.488,0.347c0.903,0.206,1.811,0.395,2.717,0.579
		c2.567,0.524,5.163,0.938,7.761,1.275c4.52,0.589,9.062,0.93,13.616,1.038c9.442,0.227,18.911-0.501,28.181-2.345
		c9.293-1.848,18.741-4.876,26.694-10.128c5.562-3.671,11.323-9.27,11.705-16.369c0.219-4.079,2.597-66.387,2.952-73.012
		c0.086-1.61,0.084-3.254,0.261-4.856c-0.101-0.006-0.196-0.011-0.297-0.017C363.338,283.948,363.466,283.95,363.54,283.952
		L363.54,283.952z"/>
	<g>
		
			<radialGradient id="SVGID_2_" cx="318.5908" cy="-64.4004" r="113.4382" gradientTransform="matrix(1 0 0 -1 -96 195)" gradientUnits="userSpaceOnUse">
			<stop  offset="0" style="stop-color:#FAF8ED"/>
			<stop  offset="0.9836" style="stop-color:#E3A835"/>
		</radialGradient>
		<path fill="url(#SVGID_2_)" stroke="#AB710A" stroke-width="1.2013" stroke-linejoin="round" stroke-miterlimit="10" d="
			M297.07,258.852c8.191,0,16.044,0.559,23.283,1.57c7.312,1.023,14.064,2.525,19.939,4.407c5.979,1.918,11.096,4.245,14.964,6.89
			c3.968,2.709,6.65,5.768,7.612,9.067c0.99,3.399,0.061,6.737-2.535,9.858c-2.666,3.207-7.078,6.174-12.934,8.725
			c-5.98,2.604-13.418,4.751-21.93,6.26c-8.615,1.523-18.236,2.377-28.4,2.377c-10.162,0-19.783-0.854-28.399-2.377
			c-8.513-1.509-15.95-3.656-21.93-6.26c-5.854-2.551-10.269-5.518-12.935-8.725c-2.597-3.121-3.523-6.459-2.535-9.858
			c0.961-3.302,3.646-6.358,7.611-9.067c3.87-2.645,8.984-4.972,14.965-6.89c5.875-1.882,12.629-3.384,19.94-4.407
			C281.027,259.409,288.882,258.852,297.07,258.852z"/>
	</g>
</g>
<rect x="180.977" y="94.169" fill="#86BF40" width="35.871" height="70.285"/>
<g>
	
		<linearGradient id="SVGID_3_" gradientUnits="userSpaceOnUse" x1="130.9292" y1="-142.313" x2="263.8682" y2="-142.313" gradientTransform="matrix(1 0 0 -1 -96 195)">
		<stop  offset="0" style="stop-color:#F3D99F"/>
		<stop  offset="0.459" style="stop-color:#FAF8ED"/>
		<stop  offset="0.9836" style="stop-color:#E3A835"/>
	</linearGradient>
	<path fill="url(#SVGID_3_)" stroke="#AB710A" stroke-width="1.2013" stroke-linejoin="round" stroke-miterlimit="10" d="
		M167.86,283.952c-0.174-0.011-0.401-0.021-0.594-0.032c-0.037,0.734-0.174,1.463-0.386,2.166c-0.063,0.216-0.138,0.426-0.216,0.637
		c-0.065,0.18-0.139,0.357-0.216,0.534c0.022,0.048,0,0-0.096,0.21c-0.099,0.21-0.204,0.42-0.314,0.624
		c-0.249,0.463-0.527,0.913-0.831,1.345c-0.503,0.717-1.075,1.391-1.682,2.021c-0.773,0.804-1.611,1.552-2.494,2.231
		c-0.474,0.363-0.95,0.719-1.44,1.061c-0.352,0.245-0.709,0.482-1.07,0.713c-0.324,0.209-0.394,0.25-0.643,0.4
		c-0.386,0.238-0.778,0.468-1.173,0.69c-0.571,0.327-1.149,0.644-1.734,0.944c-1.3,0.673-2.634,1.285-3.98,1.857
		c-2.72,1.148-5.509,2.107-8.336,2.957c-4.574,1.369-9.244,2.381-13.947,3.192c-12.862,2.218-26.089,2.678-39.097,1.81
		c-12.3-0.82-24.897-2.781-36.397-7.385c-4.019-1.605-7.936-3.549-11.38-6.191c-1.336-1.025-2.585-2.188-3.645-3.502
		c-0.539-0.672-1.026-1.385-1.433-2.142c-0.218-0.403-0.41-0.817-0.579-1.243c-0.108-0.274-0.136-0.934-0.532-0.679
		c0.059-0.049,0.136-0.103,0.203-0.147c0.08-0.057-0.097-0.535-0.121-0.644c-0.107-0.481-0.178-0.972-0.203-1.462
		c-0.7,0.038-0.604-0.021-0.571,0.578c0.035,0.648,0.07,1.299,0.105,1.949c0.13,2.438,0.261,4.875,0.392,7.312
		c0.399,7.426,2.527,65.108,2.63,67.018c0.153,2.861,0.822,5.538,2.285,8.043c1.828,3.122,4.45,5.607,7.281,7.814
		c1.486,1.16,3.101,2.174,4.729,3.117c0.845,0.488,1.707,0.938,2.569,1.396c0.37,0.197,0.749,0.372,1.126,0.557
		c0.286,0.143,0.293,0.146,0.601,0.291c0.434,0.205,0.869,0.407,1.307,0.599c0.557,0.24,1.113,0.486,1.673,0.717
		c1.21,0.495,2.432,0.958,3.663,1.405c2.478,0.897,5.012,1.623,7.556,2.308c0.098,0.025,0.098,0.025,0.46,0.119
		c0.387,0.098,0.774,0.195,1.164,0.288c0.495,0.12,0.99,0.234,1.487,0.347c0.903,0.206,1.809,0.395,2.717,0.579
		c2.568,0.524,5.162,0.938,7.761,1.275c4.515,0.589,9.063,0.93,13.615,1.038c9.444,0.227,18.911-0.501,28.18-2.345
		c9.292-1.848,18.741-4.876,26.696-10.128c5.559-3.671,11.323-9.27,11.705-16.369c0.219-4.079,2.595-66.387,2.953-73.012
		c0.086-1.61,0.083-3.254,0.26-4.856c-0.1-0.006-0.198-0.011-0.296-0.017C167.661,283.948,167.788,283.95,167.86,283.952
		L167.86,283.952z"/>
	<g>
		
			<radialGradient id="SVGID_4_" cx="122.9121" cy="-64.4004" r="113.4382" gradientTransform="matrix(1 0 0 -1 -96 195)" gradientUnits="userSpaceOnUse">
			<stop  offset="0" style="stop-color:#FAF8ED"/>
			<stop  offset="0.9836" style="stop-color:#E3A835"/>
		</radialGradient>
		<path fill="url(#SVGID_4_)" stroke="#AB710A" stroke-width="1.2013" stroke-linejoin="round" stroke-miterlimit="10" d="
			M101.394,258.852c8.19,0,16.042,0.559,23.281,1.57c7.312,1.023,14.065,2.525,19.938,4.407c5.983,1.918,11.097,4.245,14.968,6.89
			c3.966,2.709,6.65,5.768,7.611,9.067c0.989,3.399,0.062,6.737-2.534,9.858c-2.667,3.207-7.08,6.174-12.937,8.725
			c-5.98,2.604-13.417,4.751-21.928,6.26c-8.616,1.523-18.238,2.377-28.4,2.377c-10.164,0-19.787-0.854-28.401-2.377
			c-8.511-1.509-15.948-3.656-21.928-6.26c-5.855-2.551-10.269-5.518-12.935-8.725c-2.597-3.121-3.523-6.459-2.535-9.858
			c0.961-3.302,3.644-6.358,7.611-9.067c3.87-2.645,8.984-4.972,14.965-6.89c5.875-1.882,12.628-3.384,19.939-4.407
			C85.352,259.409,93.204,258.852,101.394,258.852z"/>
	</g>
</g>
<polygon fill="#94AEBD" points="236.716,71.166 161.766,71.166 133.278,122.885 264.547,122.885 "/>
<polygon fill="#86BF40" points="315.436,232.604 315.436,176.39 315.436,137.82 82.388,137.82 82.388,176.39 82.388,232.604 
	54.391,232.605 100.325,278.538 146.258,232.604 118.259,232.604 118.259,176.39 118.259,173.692 279.562,173.692 279.562,176.39 
	279.562,232.604 251.566,232.605 297.501,278.538 343.436,232.604 "/>
<rect x="180.977" y="38.9" fill="#86BF40" width="35.871" height="54.85"/>
<path fill="#424242" d="M274.598,49.364c0,1.989-1.615,3.603-3.604,3.603h-144.16c-1.99,0-3.605-1.614-3.605-3.603V9.72
	c0-1.991,1.615-3.604,3.605-3.604h144.16c1.989,0,3.604,1.614,3.604,3.604V49.364z"/>
<text transform="matrix(1 0 0 1 62.5 325.5)" font-family="'Frutiger-BoldCn'" font-size="12">CUSTOMER (</text>
<text transform="matrix(1 0 0 1 62.5 337.9004)" font-family="'Frutiger-BoldCn'" font-size="12">ID BIGINT,</text>
<text transform="matrix(1 0 0 1 62.5 350.2998)" font-family="'Frutiger-BoldCn'" font-size="12">NAME VARCHAR,</text>
<text transform="matrix(1 0 0 1 62.5 362.7002)" font-family="'Frutiger-BoldCn'" font-size="12">...</text>
<text transform="matrix(1 0 0 1 62.5 375.0996)" font-family="'Frutiger-BoldCn'" font-size="12">)</text>
<text transform="matrix(1 0 0 1 264.5 325.5)" font-family="'Frutiger-BoldCn'" font-size="12">CUSTOMER (</text>
<text transform="matrix(1 0 0 1 264.5 337.9004)" font-family="'Frutiger-BoldCn'" font-size="12">ID BIGINT,</text>
<text transform="matrix(1 0 0 1 264.5 350.2998)" font-family="'Frutiger-BoldCn'" font-size="12">NAME VARCHAR,</text>
<text transform="matrix(1 0 0 1 264.5 362.7002)" font-family="'Frutiger-BoldCn'" font-size="12">...</text>
<text transform="matrix(1 0 0 1 264.5 375.0996)" font-family="'Frutiger-BoldCn'" font-size="12">)</text>
<text transform="matrix(1 0 0 1 141.6475 38.5801)" fill="#FFFFFF" font-family="'Frutiger-BoldCn'" font-size="24">Application</text>
<linearGradient id="SVGID_5_" gradientUnits="userSpaceOnUse" x1="297.501" y1="197.5" x2="297.501" y2="316.5378">
	<stop  offset="0" style="stop-color:#86BF40"/>
	<stop  offset="1" style="stop-color:#000000"/>
</linearGradient>
<polygon fill="url(#SVGID_5_)" points="315.438,232.604 315.438,176.389 279.564,176.389 279.564,232.604 251.566,232.604 
	297.502,278.538 343.436,232.604 "/>
<linearGradient id="SVGID_6_" gradientUnits="userSpaceOnUse" x1="100.3247" y1="197.5" x2="100.3247" y2="316.5378">
	<stop  offset="0" style="stop-color:#86BF40"/>
	<stop  offset="1" style="stop-color:#000000"/>
</linearGradient>
<polygon fill="url(#SVGID_6_)" points="118.259,232.604 118.259,176.389 82.387,176.389 82.387,232.604 54.391,232.604 
	100.325,278.538 146.258,232.604 "/>
<linearGradient id="SVGID_7_" gradientUnits="userSpaceOnUse" x1="198.9121" y1="82.5" x2="198.9121" y2="168.7514">
	<stop  offset="0" style="stop-color:#86BF40"/>
	<stop  offset="1" style="stop-color:#000000"/>
</linearGradient>
<rect x="180.977" y="93.75" fill="url(#SVGID_7_)" width="35.871" height="29.135"/>
</svg>
