<?xml version="1.0" encoding="utf-8"?>
<!-- Generator: Adobe Illustrator 15.0.2, SVG Export Plug-In . SVG Version: 6.00 Build 0)  -->
<!DOCTYPE svg PUBLIC "-//W3C//DTD SVG 1.1//EN" "http://www.w3.org/Graphics/SVG/1.1/DTD/svg11.dtd">
<svg version="1.1" id="Layer_1" xmlns="http://www.w3.org/2000/svg" xmlns:xlink="http://www.w3.org/1999/xlink" x="0px" y="0px"
	 width="400px" height="400px" viewBox="0 0 400 400" enable-background="new 0 0 400 400" xml:space="preserve">
<g>
	
		<linearGradient id="SVGID_1_" gradientUnits="userSpaceOnUse" x1="451.2393" y1="550.3125" x2="584.1797" y2="550.3125" gradientTransform="matrix(1 0 0 1 -192 -211)">
		<stop  offset="0" style="stop-color:#F3D99F"/>
		<stop  offset="0.459" style="stop-color:#FAF8ED"/>
		<stop  offset="0.9836" style="stop-color:#E3A835"/>
	</linearGradient>
	<path fill="url(#SVGID_1_)" stroke="#AB710A" stroke-width="1.2013" stroke-linejoin="round" stroke-miterlimit="10" d="
		M392.177,285.951c-0.177-0.01-0.401-0.021-0.597-0.031c-0.039,0.734-0.175,1.463-0.387,2.165c-0.064,0.217-0.139,0.427-0.215,0.638
		c-0.065,0.18-0.142,0.356-0.217,0.534c0.021,0.048,0.002,0-0.098,0.21c-0.098,0.21-0.203,0.42-0.312,0.624
		c-0.25,0.462-0.528,0.912-0.834,1.345c-0.504,0.717-1.074,1.392-1.683,2.021c-0.771,0.804-1.608,1.552-2.494,2.23
		c-0.472,0.363-0.95,0.719-1.44,1.062c-0.353,0.245-0.709,0.481-1.067,0.713c-0.324,0.208-0.396,0.25-0.646,0.399
		c-0.385,0.238-0.776,0.468-1.17,0.69c-0.574,0.327-1.151,0.644-1.736,0.944c-1.301,0.673-2.635,1.286-3.98,1.857
		c-2.719,1.147-5.507,2.106-8.334,2.957c-4.572,1.368-9.24,2.381-13.945,3.191c-12.86,2.218-26.09,2.678-39.101,1.81
		c-12.298-0.819-24.896-2.78-36.396-7.385c-4.02-1.604-7.938-3.549-11.379-6.19c-1.338-1.026-2.588-2.188-3.646-3.502
		c-0.54-0.672-1.026-1.385-1.437-2.144c-0.217-0.401-0.408-0.815-0.578-1.244c-0.107-0.272-0.135-0.932-0.531-0.677
		c0.059-0.049,0.135-0.104,0.201-0.146c0.082-0.058-0.098-0.535-0.119-0.646c-0.105-0.479-0.18-0.971-0.204-1.46
		c-0.697,0.037-0.604-0.021-0.57,0.578c0.036,0.647,0.07,1.299,0.105,1.948c0.13,2.438,0.261,4.875,0.393,7.312
		c0.398,7.426,2.526,65.109,2.63,67.02c0.152,2.86,0.821,5.536,2.285,8.043c1.827,3.123,4.448,5.606,7.28,7.813
		c1.485,1.16,3.103,2.174,4.729,3.117c0.844,0.487,1.709,0.938,2.569,1.396c0.368,0.196,0.748,0.371,1.124,0.556
		c0.289,0.144,0.294,0.146,0.602,0.292c0.437,0.205,0.871,0.407,1.311,0.598c0.557,0.241,1.109,0.487,1.672,0.718
		c1.211,0.495,2.434,0.958,3.664,1.405c2.477,0.897,5.012,1.623,7.557,2.308c0.099,0.025,0.099,0.025,0.459,0.119
		c0.39,0.099,0.774,0.195,1.164,0.288c0.493,0.12,0.989,0.233,1.486,0.349c0.902,0.205,1.811,0.394,2.718,0.577
		c2.568,0.524,5.162,0.938,7.761,1.275c4.52,0.589,9.062,0.93,13.617,1.038c9.441,0.227,18.909-0.502,28.18-2.346
		c9.291-1.848,18.74-4.875,26.695-10.127c5.562-3.671,11.322-9.271,11.703-16.37c0.219-4.078,2.598-66.387,2.953-73.012
		c0.085-1.609,0.082-3.254,0.26-4.855c-0.1-0.006-0.195-0.012-0.296-0.018C391.975,285.947,392.102,285.95,392.177,285.951
		L392.177,285.951z"/>
	<g>
		
			<radialGradient id="SVGID_2_" cx="443.2275" cy="472.4014" r="113.4365" gradientTransform="matrix(1 0 0 1 -192 -211)" gradientUnits="userSpaceOnUse">
			<stop  offset="0" style="stop-color:#FAF8ED"/>
			<stop  offset="0.9836" style="stop-color:#E3A835"/>
		</radialGradient>
		<path fill="url(#SVGID_2_)" stroke="#AB710A" stroke-width="1.2013" stroke-linejoin="round" stroke-miterlimit="10" d="
			M325.708,260.852c8.188,0,16.041,0.559,23.281,1.57c7.312,1.023,14.065,2.525,19.94,4.407c5.979,1.918,11.096,4.245,14.965,6.89
			c3.967,2.709,6.648,5.768,7.608,9.067c0.99,3.399,0.062,6.737-2.532,9.858c-2.666,3.207-7.08,6.174-12.937,8.725
			c-5.979,2.604-13.416,4.751-21.929,6.26c-8.614,1.523-18.236,2.376-28.399,2.376s-19.785-0.853-28.401-2.376
			c-8.511-1.509-15.947-3.656-21.929-6.26c-5.854-2.551-10.269-5.518-12.937-8.725c-2.594-3.121-3.521-6.459-2.532-9.858
			c0.961-3.302,3.645-6.358,7.608-9.067c3.871-2.645,8.985-4.972,14.967-6.89c5.873-1.882,12.627-3.384,19.939-4.407
			C309.665,261.408,317.52,260.852,325.708,260.852z"/>
	</g>
</g>
<linearGradient id="SVGID_3_" gradientUnits="userSpaceOnUse" x1="421.2871" y1="-4.5" x2="421.2871" y2="-123.5384" gradientTransform="matrix(1 0 0 -1 -96 195)">
	<stop  offset="0" style="stop-color:#86BF40"/>
	<stop  offset="1" style="stop-color:#000000"/>
</linearGradient>
<polygon fill="url(#SVGID_3_)" points="343.225,234.604 343.225,178.389 307.352,178.389 307.352,234.604 279.354,234.604 
	325.289,280.538 371.223,234.604 "/>
<polygon fill="#94AEBD" points="363.512,152.833 288.564,152.833 260.075,204.552 391.346,204.552 "/>
<rect x="181.857" y="40.9" fill="#86BF40" width="35.872" height="78.404"/>
<g>
	
		<linearGradient id="SVGID_4_" gradientUnits="userSpaceOnUse" x1="200.749" y1="550.3125" x2="333.6875" y2="550.3125" gradientTransform="matrix(1 0 0 1 -192 -211)">
		<stop  offset="0" style="stop-color:#F3D99F"/>
		<stop  offset="0.459" style="stop-color:#FAF8ED"/>
		<stop  offset="0.9836" style="stop-color:#E3A835"/>
	</linearGradient>
	<path fill="url(#SVGID_4_)" stroke="#AB710A" stroke-width="1.2013" stroke-linejoin="round" stroke-miterlimit="10" d="
		M141.682,285.951c-0.175-0.01-0.401-0.021-0.596-0.031c-0.036,0.734-0.174,1.463-0.385,2.165c-0.065,0.217-0.14,0.427-0.216,0.638
		c-0.065,0.18-0.139,0.356-0.217,0.534c0.022,0.048,0,0-0.096,0.21c-0.098,0.21-0.203,0.42-0.314,0.624
		c-0.248,0.462-0.527,0.912-0.83,1.345c-0.505,0.717-1.075,1.392-1.684,2.021c-0.771,0.804-1.61,1.552-2.494,2.23
		c-0.474,0.363-0.949,0.719-1.439,1.062c-0.354,0.245-0.709,0.481-1.07,0.713c-0.324,0.208-0.394,0.25-0.645,0.399
		c-0.385,0.238-0.777,0.468-1.172,0.69c-0.571,0.327-1.149,0.644-1.733,0.944c-1.301,0.673-2.634,1.286-3.982,1.857
		c-2.718,1.147-5.507,2.106-8.335,2.957c-4.573,1.368-9.243,2.381-13.945,3.191c-12.862,2.218-26.09,2.678-39.099,1.81
		c-12.298-0.819-24.897-2.78-36.396-7.385c-4.02-1.604-7.937-3.549-11.38-6.19c-1.339-1.026-2.588-2.188-3.646-3.502
		c-0.537-0.672-1.025-1.385-1.432-2.144c-0.219-0.401-0.41-0.815-0.579-1.244c-0.108-0.272-0.136-0.932-0.531-0.677
		c0.057-0.049,0.136-0.104,0.201-0.146c0.081-0.058-0.097-0.535-0.121-0.646c-0.105-0.479-0.178-0.971-0.203-1.46
		c-0.699,0.037-0.604-0.021-0.57,0.578c0.035,0.647,0.069,1.299,0.105,1.948c0.13,2.438,0.261,4.875,0.392,7.312
		c0.398,7.426,2.527,65.109,2.631,67.02c0.151,2.86,0.821,5.536,2.284,8.043c1.828,3.123,4.448,5.606,7.28,7.813
		c1.486,1.16,3.101,2.174,4.73,3.117c0.844,0.487,1.706,0.938,2.567,1.396c0.369,0.196,0.75,0.371,1.125,0.556
		c0.289,0.144,0.295,0.146,0.603,0.292c0.434,0.205,0.868,0.407,1.308,0.598c0.557,0.241,1.11,0.487,1.673,0.718
		c1.21,0.495,2.433,0.958,3.663,1.405c2.478,0.897,5.012,1.623,7.556,2.308c0.099,0.025,0.099,0.025,0.462,0.119
		c0.386,0.099,0.773,0.195,1.161,0.288c0.496,0.12,0.992,0.233,1.489,0.349c0.903,0.205,1.809,0.394,2.717,0.577
		c2.567,0.524,5.16,0.938,7.761,1.275c4.516,0.589,9.062,0.93,13.615,1.038c9.442,0.227,18.91-0.502,28.178-2.346
		c9.292-1.848,18.743-4.875,26.698-10.127c5.559-3.671,11.322-9.271,11.703-16.37c0.219-4.078,2.597-66.387,2.953-73.012
		c0.086-1.609,0.082-3.254,0.261-4.855c-0.1-0.006-0.199-0.012-0.297-0.018C141.481,285.947,141.607,285.95,141.682,285.951
		L141.682,285.951z"/>
	<g>
		
			<radialGradient id="SVGID_5_" cx="192.7339" cy="472.4014" r="113.4383" gradientTransform="matrix(1 0 0 1 -192 -211)" gradientUnits="userSpaceOnUse">
			<stop  offset="0" style="stop-color:#FAF8ED"/>
			<stop  offset="0.9836" style="stop-color:#E3A835"/>
		</radialGradient>
		<path fill="url(#SVGID_5_)" stroke="#AB710A" stroke-width="1.2013" stroke-linejoin="round" stroke-miterlimit="10" d="
			M75.216,260.852c8.188,0,16.041,0.559,23.279,1.57c7.312,1.023,14.066,2.525,19.94,4.407c5.982,1.918,11.097,4.245,14.967,6.89
			c3.967,2.709,6.65,5.768,7.612,9.067c0.987,3.399,0.061,6.737-2.535,9.858c-2.667,3.207-7.081,6.174-12.937,8.725
			c-5.979,2.604-13.417,4.751-21.928,6.26c-8.616,1.523-18.237,2.376-28.399,2.376c-10.166,0-19.787-0.853-28.401-2.376
			c-8.512-1.509-15.948-3.656-21.929-6.26c-5.855-2.551-10.269-5.518-12.935-8.725c-2.596-3.121-3.524-6.459-2.534-9.858
			c0.962-3.302,3.644-6.358,7.609-9.067c3.871-2.645,8.985-4.972,14.968-6.89c5.874-1.882,12.627-3.384,19.938-4.407
			C59.173,261.408,67.025,260.852,75.216,260.852z"/>
	</g>
</g>
<linearGradient id="SVGID_6_" gradientUnits="userSpaceOnUse" x1="170.313" y1="-4.5" x2="170.313" y2="-123.5384" gradientTransform="matrix(1 0 0 -1 -96 195)">
	<stop  offset="0" style="stop-color:#86BF40"/>
	<stop  offset="1" style="stop-color:#000000"/>
</linearGradient>
<polygon fill="url(#SVGID_6_)" points="92.247,234.604 92.247,178.389 56.375,178.389 56.375,234.604 28.379,234.604 
	74.313,280.538 120.246,234.604 "/>
<polygon fill="#94AEBD" points="113.021,152.833 38.071,152.833 9.583,204.552 140.853,204.552 "/>
<polygon fill="#86BF40" points="56.361,99.985 56.361,178.389 92.234,178.389 92.234,135.858 307.352,135.858 307.352,178.389 
	343.227,178.389 343.227,99.985 "/>
<path fill="#424242" d="M275.075,51.364c0,1.99-1.614,3.604-3.603,3.604H127.312c-1.989,0-3.604-1.613-3.604-3.604V11.719
	c0-1.99,1.614-3.604,3.604-3.604h144.161c1.988,0,3.604,1.614,3.604,3.604L275.075,51.364L275.075,51.364z"/>
<text transform="matrix(1 0 0 1 39.5 327.5)" font-family="'Frutiger-BoldCn'" font-size="12">CUSTOMER (</text>
<text transform="matrix(1 0 0 1 39.5 339.9004)" font-family="'Frutiger-BoldCn'" font-size="12">ID BIGINT,</text>
<text transform="matrix(1 0 0 1 39.5 352.2998)" font-family="'Frutiger-BoldCn'" font-size="12">NAME VARCHAR,</text>
<text transform="matrix(1 0 0 1 39.5 364.7002)" font-family="'Frutiger-BoldCn'" font-size="12">...</text>
<text transform="matrix(1 0 0 1 39.5 377.0996)" font-family="'Frutiger-BoldCn'" font-size="12">)</text>
<text transform="matrix(1 0 0 1 292.5 327.5)" font-family="'Frutiger-BoldCn'" font-size="12">CUSTOMER (</text>
<text transform="matrix(1 0 0 1 292.5 339.9004)" font-family="'Frutiger-BoldCn'" font-size="12">ID BIGINT,</text>
<text transform="matrix(1 0 0 1 292.5 352.2998)" font-family="'Frutiger-BoldCn'" font-size="12">NAME VARCHAR,</text>
<text transform="matrix(1 0 0 1 292.5 364.7002)" font-family="'Frutiger-BoldCn'" font-size="12">...</text>
<text transform="matrix(1 0 0 1 292.5 377.0996)" font-family="'Frutiger-BoldCn'" font-size="12">)</text>
<text transform="matrix(1 0 0 1 142.875 40.5801)" fill="#FFFFFF" font-family="'Frutiger-BoldCn'" font-size="24">Application</text>
<linearGradient id="SVGID_7_" gradientUnits="userSpaceOnUse" x1="74.3188" y1="164.2451" x2="74.3188" y2="250.498">
	<stop  offset="0" style="stop-color:#86BF40"/>
	<stop  offset="1" style="stop-color:#000000"/>
</linearGradient>
<rect x="56.383" y="175.495" fill="url(#SVGID_7_)" width="35.871" height="29.135"/>
<linearGradient id="SVGID_8_" gradientUnits="userSpaceOnUse" x1="325.2891" y1="164.2451" x2="325.2891" y2="250.498">
	<stop  offset="0" style="stop-color:#86BF40"/>
	<stop  offset="1" style="stop-color:#000000"/>
</linearGradient>
<rect x="307.354" y="175.495" fill="url(#SVGID_8_)" width="35.87" height="29.135"/>
</svg>
