<?xml version="1.0" encoding="UTF-8" standalone="no"?>
<!-- Created with Inkscape (http://www.inkscape.org/) -->
<svg
   xmlns:svg="http://www.w3.org/2000/svg"
   xmlns="http://www.w3.org/2000/svg"
   version="1.0"
   width="32"
   height="32"
   id="svg2">
  <defs
     id="defs15" />
  <circle
     cx="16"
     cy="16"
     r="14"
     id="circle"
     style="fill:#aa0000" />
  <path
     d="M 12.252562,22 L 12.252562,10.1 L 9.4985624,10.1 C 9.1585628,11.204999 8.5465609,11.63 7.0165624,11.715 L 7.0165624,13.806 L 9.0225624,13.806 L 9.0225624,22 L 12.252562,22 M 24.983438,16.033 C 24.983438,12.072004 22.705435,9.913 19.611438,9.913 C 16.517441,9.913 14.205438,12.106004 14.205438,16.067 C 14.205438,20.027996 16.483441,22.187 19.577438,22.187 C 22.671435,22.187 24.983438,19.993996 24.983438,16.033 M 21.600438,16.067 C 21.600438,18.242998 20.886437,19.348 19.611438,19.348 C 18.336439,19.348 17.588438,18.208998 17.588438,16.033 C 17.588438,13.857002 18.302439,12.752 19.577438,12.752 C 20.852437,12.752 21.600438,13.891002 21.600438,16.067"
     id="text2219"
     style="fill:#ffffff" />
</svg>
