<?xml version="1.0" encoding="UTF-8" standalone="no"?>
<!-- Created with Inkscape (http://www.inkscape.org/) -->
<svg
   xmlns:svg="http://www.w3.org/2000/svg"
   xmlns="http://www.w3.org/2000/svg"
   version="1.0"
   width="32"
   height="32"
   id="svg2">
  <defs
     id="defs15" />
  <circle
     cx="16"
     cy="16"
     r="14"
     id="circle"
     style="fill:#aa0000" />
  <path
     d="M 12.677562,22 L 12.677562,10.1 L 9.9235624,10.1 C 9.5835628,11.204999 8.9715609,11.63 7.4415624,11.715 L 7.4415624,13.806 L 9.4475624,13.806 L 9.4475624,22 L 12.677562,22 M 24.558438,22 L 24.558438,19.314 L 18.353438,19.314 C 18.608438,18.600001 19.27144,17.936999 21.651438,16.832 C 23.929436,15.778001 24.473438,14.825998 24.473438,13.262 C 24.473438,11.103002 22.926435,9.913 19.968438,9.913 C 17.92844,9.913 16.381436,10.491001 14.868438,11.46 L 16.381438,13.891 C 17.571437,13.092001 18.727439,12.684 19.917438,12.684 C 20.869437,12.684 21.243438,12.973001 21.243438,13.5 C 21.243438,13.976 21.056437,14.163001 19.798438,14.724 C 16.823441,16.049999 14.936438,17.988004 14.834438,22 L 24.558438,22"
     id="text2219"
     style="fill:#ffffff" />
</svg>
