<?xml version="1.0" encoding="UTF-8" standalone="no"?>
<!-- Created with Inkscape (http://www.inkscape.org/) -->
<svg
   xmlns:svg="http://www.w3.org/2000/svg"
   xmlns="http://www.w3.org/2000/svg"
   version="1.0"
   width="32"
   height="32"
   id="svg2">
  <defs
     id="defs15" />
  <circle
     cx="16"
     cy="16"
     r="14"
     id="circle"
     style="fill:#aa0000" />
  <path
     d="M 12.550062,22 L 12.550062,10.1 L 9.7960624,10.1 C 9.4560628,11.204999 8.8440609,11.63 7.3140624,11.715 L 7.3140624,13.806 L 9.3200624,13.806 L 9.3200624,22 L 12.550062,22 M 24.685938,18.226 C 24.685938,16.713002 23.716937,15.914 22.611938,15.659 C 23.427937,15.268 24.192938,14.638999 24.192938,13.33 C 24.192938,10.814003 22.288935,9.913 19.432938,9.913 C 17.35894,9.913 15.930937,10.610001 14.825938,11.46 L 16.389938,13.602 C 17.307937,12.939001 18.191939,12.582 19.347938,12.582 C 20.520937,12.582 20.996938,12.922001 20.996938,13.551 C 20.996938,14.332999 20.656937,14.554 19.619938,14.554 L 18.089938,14.554 L 18.089938,17.121 L 19.806938,17.121 C 21.013937,17.121 21.489938,17.427001 21.489938,18.26 C 21.489938,19.075999 20.911937,19.467 19.534938,19.467 C 18.225939,19.467 17.120937,18.973999 16.151938,18.226 L 14.451938,20.368 C 15.726937,21.489999 17.44394,22.187 19.466938,22.187 C 22.696935,22.187 24.685938,20.979997 24.685938,18.226"
     id="text2219"
     style="fill:#ffffff" />
</svg>
