<?xml version="1.0" encoding="UTF-8" standalone="no"?>
<!-- Created with Inkscape (http://www.inkscape.org/) -->
<svg
   xmlns:svg="http://www.w3.org/2000/svg"
   xmlns="http://www.w3.org/2000/svg"
   version="1.0"
   width="32"
   height="32"
   id="svg2">
  <defs
     id="defs15" />
  <circle
     cx="16"
     cy="16"
     r="14"
     id="circle"
     style="fill:#aa0000" />
  <path
     d="M 12.040062,22 L 12.040062,10.1 L 9.2860624,10.1 C 8.9460628,11.204999 8.3340609,11.63 6.8040624,11.715 L 6.8040624,13.806 L 8.8100624,13.806 L 8.8100624,22 L 12.040062,22 M 25.195938,19.96 L 25.195938,17.172 L 23.665938,17.172 L 23.665938,10.1 L 20.401938,10.1 L 13.992938,17.461 L 13.992938,19.875 L 20.707938,19.875 L 20.707938,22 L 23.665938,22 L 23.665938,19.96 L 25.195938,19.96 M 20.758938,13.432 C 20.724938,13.992999 20.707938,15.302001 20.707938,15.999 L 20.707938,17.172 L 19.823938,17.172 C 19.007939,17.172 18.191937,17.189 17.596938,17.223 C 18.038938,16.798 18.531939,16.253999 19.160938,15.489 L 19.330938,15.285 C 20.112937,14.350001 20.435938,13.925 20.758938,13.432"
     id="text2219"
     style="fill:#ffffff" />
</svg>
