<?xml version="1.0" encoding="UTF-8" standalone="no"?>
<!-- Created with Inkscape (http://www.inkscape.org/) -->
<svg
   xmlns:svg="http://www.w3.org/2000/svg"
   xmlns="http://www.w3.org/2000/svg"
   version="1.0"
   width="32"
   height="32"
   id="svg2">
  <defs
     id="defs15" />
  <circle
     cx="16"
     cy="16"
     r="14"
     id="circle"
     style="fill:#aa0000" />
  <path
     d="M 12.388562,22 L 12.388562,10.1 L 9.6345624,10.1 C 9.2945628,11.204999 8.6825609,11.63 7.1525624,11.715 L 7.1525624,13.806 L 9.1585624,13.806 L 9.1585624,22 L 12.388562,22 M 24.847438,17.852 C 24.847438,15.200003 23.164435,13.908 20.597438,13.908 C 19.407439,13.908 18.693437,14.112 18.030438,14.435 L 18.132438,12.786 L 24.133438,12.786 L 24.133438,10.1 L 15.463438,10.1 L 15.055438,16.271 L 17.877438,17.223 C 18.472437,16.798 19.067439,16.543 20.070438,16.543 C 21.090437,16.543 21.668438,17.019001 21.668438,17.937 C 21.668438,18.888999 21.107436,19.45 19.577438,19.45 C 18.302439,19.45 16.891437,18.956999 15.752438,18.277 L 14.409438,20.742 C 15.871436,21.625999 17.43544,22.187 19.492438,22.187 C 22.875435,22.187 24.847438,20.622997 24.847438,17.852"
     id="text2219"
     style="fill:#ffffff" />
</svg>
