<?xml version="1.0" encoding="UTF-8" standalone="no"?>
<!-- Created with Inkscape (http://www.inkscape.org/) -->
<svg
   xmlns:svg="http://www.w3.org/2000/svg"
   xmlns="http://www.w3.org/2000/svg"
   version="1.0"
   width="32"
   height="32"
   id="svg2">
  <defs
     id="defs15" />
  <circle
     cx="16"
     cy="16"
     r="14"
     id="circle"
     style="fill:#aa0000" />
  <path
     d="M 12.405562,22 L 12.405562,10.1 L 9.6515624,10.1 C 9.3115628,11.204999 8.6995609,11.63 7.1695624,11.715 L 7.1695624,13.806 L 9.1755624,13.806 L 9.1755624,22 L 12.405562,22 M 24.830438,17.903 C 24.830438,15.387003 23.096435,14.214 20.631438,14.214 C 19.203439,14.214 18.336437,14.486 17.571438,14.911 C 18.472437,13.534001 20.104441,12.616 23.215438,12.616 L 23.215438,9.913 C 16.415445,9.913 14.341438,14.112003 14.341438,17.257 C 14.341438,20.537997 16.415441,22.187 19.407438,22.187 C 22.773435,22.187 24.830438,20.588997 24.830438,17.903 M 21.651438,18.124 C 21.651438,19.075999 20.818437,19.586 19.577438,19.586 C 18.132439,19.586 17.486438,18.990999 17.486438,18.141 C 17.486438,17.206001 18.183439,16.645 19.645438,16.645 C 20.903437,16.645 21.651438,17.206001 21.651438,18.124"
     id="text2219"
     style="fill:#ffffff" />
</svg>
