<?xml version="1.0" encoding="UTF-8" standalone="no"?>
<!-- Created with Inkscape (http://www.inkscape.org/) -->
<svg
   xmlns:svg="http://www.w3.org/2000/svg"
   xmlns="http://www.w3.org/2000/svg"
   version="1.0"
   width="32"
   height="32"
   id="svg2">
  <defs
     id="defs15" />
  <circle
     cx="16"
     cy="16"
     r="14"
     id="circle"
     style="fill:#aa0000" />
  <path
     d="M 12.176062,22 L 12.176062,10.1 L 9.4220624,10.1 C 9.0820628,11.204999 8.4700609,11.63 6.9400624,11.715 L 6.9400624,13.806 L 8.9460624,13.806 L 8.9460624,22 L 12.176062,22 M 25.059938,18.294 C 25.059938,16.764002 23.971937,15.948 23.206938,15.642 C 23.954937,15.166 24.549938,14.519999 24.549938,13.449 C 24.549938,11.171002 22.526935,9.913 19.653938,9.913 C 16.780941,9.913 14.723938,11.171002 14.723938,13.449 C 14.723938,14.519999 15.352939,15.251 16.066938,15.676 C 15.301939,15.982 14.213938,16.764002 14.213938,18.294 C 14.213938,20.707998 16.287941,22.187 19.619938,22.187 C 22.951935,22.187 25.059938,20.707998 25.059938,18.294 M 21.387938,13.5 C 21.387938,14.094999 20.945937,14.639 19.653938,14.639 C 18.361939,14.639 17.885938,14.094999 17.885938,13.5 C 17.885938,12.905001 18.327939,12.31 19.619938,12.31 C 20.911937,12.31 21.387938,12.905001 21.387938,13.5 M 21.897938,18.26 C 21.897938,19.075999 21.149936,19.688 19.653938,19.688 C 18.157939,19.688 17.375938,19.075999 17.375938,18.26 C 17.375938,17.444001 18.106939,16.849 19.619938,16.849 C 21.115936,16.849 21.897938,17.444001 21.897938,18.26"
     id="text2219"
     style="fill:#ffffff" />
</svg>
