<?xml version="1.0" encoding="UTF-8" standalone="no"?>
<!-- Created with Inkscape (http://www.inkscape.org/) -->
<svg
   xmlns:svg="http://www.w3.org/2000/svg"
   xmlns="http://www.w3.org/2000/svg"
   version="1.0"
   width="32"
   height="32"
   id="svg2">
  <defs
     id="defs15" />
  <circle
     cx="16"
     cy="16"
     r="14"
     id="circle"
     style="fill:#aa0000" />
  <path
     d="M 12.414062,22 L 12.414062,10.1 L 9.6600624,10.1 C 9.3200628,11.204999 8.7080609,11.63 7.1780624,11.715 L 7.1780624,13.806 L 9.1840624,13.806 L 9.1840624,22 L 12.414062,22 M 24.821938,14.843 C 24.821938,11.562003 22.747935,9.913 19.755938,9.913 C 16.389941,9.913 14.332938,11.511003 14.332938,14.197 C 14.332938,16.712997 16.06694,17.886 18.531938,17.886 C 19.959937,17.886 20.826939,17.614 21.591938,17.189 C 20.690939,18.565999 19.058935,19.484 15.947938,19.484 L 15.947938,22.187 C 22.747931,22.187 24.821938,17.987997 24.821938,14.843 M 21.676938,13.959 C 21.676938,14.893999 20.979936,15.455 19.517938,15.455 C 18.259939,15.455 17.511938,14.893999 17.511938,13.976 C 17.511938,13.024001 18.344939,12.514 19.585938,12.514 C 21.030936,12.514 21.676938,13.109001 21.676938,13.959"
     id="text2219"
     style="fill:#ffffff" />
</svg>
