<?xml version="1.0" encoding="UTF-8" standalone="no"?>
<!-- Created with Inkscape (http://www.inkscape.org/) -->
<svg
   xmlns:svg="http://www.w3.org/2000/svg"
   xmlns="http://www.w3.org/2000/svg"
   version="1.0"
   width="32"
   height="32"
   id="svg2">
  <defs
     id="defs15" />
  <circle
     cx="16"
     cy="16"
     r="14"
     id="circle"
     style="fill:#aa0000" />
  <path
     d="M 20.862,22.013004 L 20.862,19.327004 L 14.657,19.327004 C 14.912,18.613005 15.575003,17.950003 17.955,16.845004 C 20.232998,15.791005 20.777,14.839003 20.777,13.275004 C 20.777,11.116006 19.229997,9.9260043 16.272,9.9260043 C 14.232002,9.9260043 12.684999,10.504005 11.172,11.473004 L 12.685,13.904004 C 13.874999,13.105005 15.031001,12.697004 16.221,12.697004 C 17.172999,12.697004 17.547,12.986005 17.547,13.513004 C 17.547,13.989004 17.359999,14.176005 16.102,14.737004 C 13.127003,16.063003 11.24,18.001008 11.138,22.013004 L 20.862,22.013004"
     id="text2207"
     style="fill:#ffffff" />
</svg>
