<?xml version="1.0" encoding="UTF-8" standalone="no"?>
<!-- Created with Inkscape (http://www.inkscape.org/) -->
<svg
   xmlns:svg="http://www.w3.org/2000/svg"
   xmlns="http://www.w3.org/2000/svg"
   version="1.0"
   width="32"
   height="32"
   id="svg2">
  <defs
     id="defs15" />
  <circle
     cx="16"
     cy="16"
     r="14"
     id="circle"
     style="fill:#aa0000" />
  <path
     d="M 14.685,22 L 14.685,19.314 L 8.4799999,19.314 C 8.7349997,18.600001 9.3980023,17.936999 11.778,16.832 C 14.055998,15.778001 14.6,14.825998 14.6,13.262 C 14.6,11.103002 13.052997,9.913 10.095,9.913 C 8.055002,9.913 6.5079984,10.491001 4.9949999,11.46 L 6.5079999,13.891 C 7.6979988,13.092001 8.8540011,12.684 10.044,12.684 C 10.995999,12.684 11.37,12.973001 11.37,13.5 C 11.37,13.976 11.182999,14.163001 9.9249999,14.724 C 6.9500029,16.049999 5.0629998,17.988004 4.9609999,22 L 14.685,22 M 27.421719,16.033 C 27.421719,12.072004 25.143716,9.913 22.049719,9.913 C 18.955722,9.913 16.643719,12.106004 16.643719,16.067 C 16.643719,20.027996 18.921722,22.187 22.015719,22.187 C 25.109716,22.187 27.421719,19.993996 27.421719,16.033 M 24.038719,16.067 C 24.038719,18.242998 23.324717,19.348 22.049719,19.348 C 20.77472,19.348 20.026719,18.208998 20.026719,16.033 C 20.026719,13.857002 20.74072,12.752 22.015719,12.752 C 23.290717,12.752 24.038719,13.891002 24.038719,16.067"
     id="text2219"
     style="fill:#ffffff" />
</svg>
