<?xml version="1.0" encoding="UTF-8" standalone="no"?>
<!-- Created with Inkscape (http://www.inkscape.org/) -->
<svg
   xmlns:svg="http://www.w3.org/2000/svg"
   xmlns="http://www.w3.org/2000/svg"
   version="1.0"
   width="32"
   height="32"
   id="svg2">
  <defs
     id="defs15" />
  <circle
     cx="16"
     cy="16"
     r="14"
     id="circle"
     style="fill:#aa0000" />
  <path
     d="M 16.648141,22 L 16.648141,19.314 L 10.44314,19.314 C 10.69814,18.600001 11.361143,17.936999 13.741141,16.832 C 16.019139,15.778001 16.563141,14.825998 16.563141,13.262 C 16.563141,11.103002 15.016138,9.913 12.058141,9.913 C 10.018143,9.913 8.471139,10.491001 6.9581405,11.46 L 8.4711405,13.891 C 9.661139,13.092001 10.817142,12.684 12.007141,12.684 C 12.95914,12.684 13.333141,12.973001 13.333141,13.5 C 13.333141,13.976 13.14614,14.163001 11.88814,14.724 C 8.9131435,16.049999 7.0261404,17.988004 6.9241405,22 L 16.648141,22 M 23.82586,22 L 23.82586,10.1 L 21.07186,10.1 C 20.73186,11.204999 20.119858,11.63 18.58986,11.715 L 18.58986,13.806 L 20.59586,13.806 L 20.59586,22 L 23.82586,22"
     id="text2219"
     style="fill:#ffffff" />
</svg>
