<?xml version="1.0" encoding="UTF-8" standalone="no"?>
<!-- Created with Inkscape (http://www.inkscape.org/) -->
<svg
   xmlns:svg="http://www.w3.org/2000/svg"
   xmlns="http://www.w3.org/2000/svg"
   version="1.0"
   width="32"
   height="32"
   id="svg2">
  <defs
     id="defs15" />
  <circle
     cx="16"
     cy="16"
     r="14"
     id="circle"
     style="fill:#aa0000" />
  <path
     d="M 14.685,22 L 14.685,19.314 L 8.4799999,19.314 C 8.7349997,18.600001 9.3980023,17.936999 11.778,16.832 C 14.055998,15.778001 14.6,14.825998 14.6,13.262 C 14.6,11.103002 13.052997,9.913 10.095,9.913 C 8.055002,9.913 6.5079984,10.491001 4.9949999,11.46 L 6.5079999,13.891 C 7.6979988,13.092001 8.8540011,12.684 10.044,12.684 C 10.995999,12.684 11.37,12.973001 11.37,13.5 C 11.37,13.976 11.182999,14.163001 9.9249999,14.724 C 6.9500029,16.049999 5.0629998,17.988004 4.9609999,22 L 14.685,22 M 26.571719,22 L 26.571719,19.314 L 20.366719,19.314 C 20.621718,18.600001 21.284721,17.936999 23.664719,16.832 C 25.942716,15.778001 26.486719,14.825998 26.486719,13.262 C 26.486719,11.103002 24.939716,9.913 21.981719,9.913 C 19.941721,9.913 18.394717,10.491001 16.881719,11.46 L 18.394719,13.891 C 19.584718,13.092001 20.74072,12.684 21.930719,12.684 C 22.882718,12.684 23.256719,12.973001 23.256719,13.5 C 23.256719,13.976 23.069717,14.163001 21.811719,14.724 C 18.836722,16.049999 16.949719,17.988004 16.847719,22 L 26.571719,22"
     id="number"
     style="fill:#ffffff" />
</svg>
