<?xml version="1.0" encoding="UTF-8" standalone="no"?>
<!-- Created with Inkscape (http://www.inkscape.org/) -->
<svg
   xmlns:svg="http://www.w3.org/2000/svg"
   xmlns="http://www.w3.org/2000/svg"
   version="1.0"
   width="32"
   height="32"
   id="svg2">
  <defs
     id="defs15" />
  <circle
     cx="16"
     cy="16"
     r="14"
     id="circle"
     style="fill:#aa0000" />
  <path
     d="M 15.32239,22.013004 L 15.32239,19.327004 L 9.1173907,19.327004 C 9.3723904,18.613005 10.035393,17.950003 12.41539,16.845004 C 14.693388,15.791005 15.23739,14.839003 15.23739,13.275004 C 15.23739,11.116006 13.690387,9.9260043 10.73239,9.9260043 C 8.6923927,9.9260043 7.1453891,10.504005 5.6323906,11.473004 L 7.1453906,13.904004 C 8.3353896,13.105005 9.4913919,12.697004 10.68139,12.697004 C 11.633389,12.697004 12.00739,12.986005 12.00739,13.513004 C 12.00739,13.989004 11.820389,14.176005 10.56239,14.737004 C 7.5873937,16.063003 5.7003905,18.001008 5.5983906,22.013004 L 15.32239,22.013004 M 26.401609,18.239004 C 26.401609,16.726006 25.432608,15.927004 24.327609,15.672004 C 25.143608,15.281005 25.908609,14.652003 25.908609,13.343004 C 25.908609,10.827007 24.004606,9.9260043 21.148609,9.9260043 C 19.074611,9.9260043 17.646608,10.623005 16.541609,11.473004 L 18.105609,13.615004 C 19.023608,12.952005 19.90761,12.595004 21.063609,12.595004 C 22.236608,12.595004 22.712609,12.935005 22.712609,13.564004 C 22.712609,14.346004 22.372608,14.567004 21.335609,14.567004 L 19.805609,14.567004 L 19.805609,17.134004 L 21.522609,17.134004 C 22.729608,17.134004 23.205609,17.440005 23.205609,18.273004 C 23.205609,19.089003 22.627608,19.480004 21.250609,19.480004 C 19.94161,19.480004 18.836608,18.987004 17.867609,18.239004 L 16.167609,20.381004 C 17.442608,21.503003 19.159611,22.200004 21.182609,22.200004 C 24.412606,22.200004 26.401609,20.993002 26.401609,18.239004"
     id="text2207"
     style="fill:#ffffff" />
</svg>
