<?xml version="1.0" encoding="UTF-8" standalone="no"?>
<!-- Created with Inkscape (http://www.inkscape.org/) -->
<svg
   xmlns:svg="http://www.w3.org/2000/svg"
   xmlns="http://www.w3.org/2000/svg"
   version="1.0"
   width="32"
   height="32"
   id="svg2">
  <defs
     id="defs15" />
  <circle
     cx="16"
     cy="16"
     r="14"
     id="circle"
     style="fill:#aa0000" />
  <path
     d="M 21.117,18.239004 C 21.117,16.726006 20.147999,15.927004 19.043,15.672004 C 19.858999,15.281005 20.624,14.652003 20.624,13.343004 C 20.624,10.827007 18.719997,9.9260043 15.864,9.9260043 C 13.790002,9.9260043 12.361999,10.623005 11.257,11.473004 L 12.821,13.615004 C 13.738999,12.952005 14.623001,12.595004 15.779,12.595004 C 16.951999,12.595004 17.428,12.935005 17.428,13.564004 C 17.428,14.346004 17.087999,14.567004 16.051,14.567004 L 14.521,14.567004 L 14.521,17.134004 L 16.238,17.134004 C 17.444999,17.134004 17.921,17.440005 17.921,18.273004 C 17.921,19.089003 17.342999,19.480004 15.966,19.480004 C 14.657002,19.480004 13.551999,18.987004 12.583,18.239004 L 10.883,20.381004 C 12.157999,21.503003 13.875002,22.200004 15.898,22.200004 C 19.127997,22.200004 21.117,20.993002 21.117,18.239004"
     id="text2207"
     style="fill:#ffffff" />
</svg>
