<?xml version="1.0" encoding="UTF-8" standalone="no"?>
<!-- Created with Inkscape (http://www.inkscape.org/) -->
<svg
   xmlns:svg="http://www.w3.org/2000/svg"
   xmlns="http://www.w3.org/2000/svg"
   version="1.0"
   width="32"
   height="32"
   id="svg2">
  <defs
     id="defs15" />
  <circle
     cx="16"
     cy="16"
     r="14"
     id="circle"
     style="fill:#aa0000" />
  <path
     d="M 20.573772,19.96 L 20.573772,17.172 L 19.043772,17.172 L 19.043772,10.1 L 15.779772,10.1 L 9.3707718,17.461 L 9.3707718,19.875 L 16.085772,19.875 L 16.085772,22 L 19.043772,22 L 19.043772,19.96 L 20.573772,19.96 M 16.136772,13.432 C 16.102772,13.992999 16.085772,15.302001 16.085772,15.999 L 16.085772,17.172 L 15.201772,17.172 C 14.385773,17.172 13.569771,17.189 12.974772,17.223 C 13.416772,16.798 13.909773,16.253999 14.538772,15.489 L 14.708772,15.285 C 15.490771,14.350001 15.813772,13.925 16.136772,13.432"
     id="text2219"
     style="fill:#ffffff" />
</svg>
