<?xml version="1.0" encoding="UTF-8" standalone="no"?>
<!-- Created with Inkscape (http://www.inkscape.org/) -->
<svg
   xmlns:svg="http://www.w3.org/2000/svg"
   xmlns="http://www.w3.org/2000/svg"
   version="1.0"
   width="32"
   height="32"
   id="svg2">
  <defs
     id="defs15" />
  <circle
     cx="16"
     cy="16"
     r="14"
     id="circle"
     style="fill:#aa0000" />
  <path
     d="M 21.219,17.852 C 21.219,15.200003 19.535997,13.908 16.969,13.908 C 15.779001,13.908 15.064999,14.112 14.402,14.435 L 14.504,12.786 L 20.505,12.786 L 20.505,10.1 L 11.835,10.1 L 11.427,16.271 L 14.249,17.223 C 14.843999,16.798 15.439001,16.543 16.442,16.543 C 17.461999,16.543 18.04,17.019001 18.04,17.937 C 18.04,18.888999 17.478998,19.45 15.949,19.45 C 14.674001,19.45 13.262999,18.956999 12.124,18.277 L 10.781,20.742 C 12.242999,21.625999 13.807002,22.187 15.864,22.187 C 19.246997,22.187 21.219,20.622997 21.219,17.852"
     id="text2219"
     style="fill:#ffffff" />
</svg>
