<?xml version="1.0" encoding="UTF-8" standalone="no"?>
<!-- Created with Inkscape (http://www.inkscape.org/) -->
<svg
   xmlns:svg="http://www.w3.org/2000/svg"
   xmlns="http://www.w3.org/2000/svg"
   version="1.0"
   width="32"
   height="32"
   id="svg2">
  <defs
     id="defs15" />
  <circle
     cx="16"
     cy="16"
     r="14"
     id="circle"
     style="fill:#aa0000" />
  <path
     d="M 21.2445,17.903 C 21.2445,15.387003 19.510497,14.214 17.0455,14.214 C 15.617501,14.214 14.750499,14.486 13.9855,14.911 C 14.886499,13.534001 16.518503,12.616 19.6295,12.616 L 19.6295,9.913 C 12.829507,9.913 10.7555,14.112003 10.7555,17.257 C 10.7555,20.537997 12.829503,22.187 15.8215,22.187 C 19.187497,22.187 21.2445,20.588997 21.2445,17.903 M 18.0655,18.124 C 18.0655,19.075999 17.232499,19.586 15.9915,19.586 C 14.546501,19.586 13.9005,18.990999 13.9005,18.141 C 13.9005,17.206001 14.597501,16.645 16.0595,16.645 C 17.317499,16.645 18.0655,17.206001 18.0655,18.124"
     id="text2219"
     style="fill:#ffffff" />
</svg>
