<?xml version="1.0" encoding="UTF-8" standalone="no"?>
<!-- Created with Inkscape (http://www.inkscape.org/) -->
<svg
   xmlns:svg="http://www.w3.org/2000/svg"
   xmlns="http://www.w3.org/2000/svg"
   version="1.0"
   width="32"
   height="32"
   id="svg2">
  <defs
     id="defs15" />
  <circle
     cx="16"
     cy="16"
     r="14"
     id="circle"
     style="fill:#aa0000" />
  <path
     d="M 21.423,18.294 C 21.423,16.764002 20.334999,15.948 19.57,15.642 C 20.317999,15.166 20.913,14.519999 20.913,13.449 C 20.913,11.171002 18.889997,9.913 16.017,9.913 C 13.144003,9.913 11.087,11.171002 11.087,13.449 C 11.087,14.519999 11.716001,15.251 12.43,15.676 C 11.665001,15.982 10.577,16.764002 10.577,18.294 C 10.577,20.707998 12.651003,22.187 15.983,22.187 C 19.314997,22.187 21.423,20.707998 21.423,18.294 M 17.751,13.5 C 17.751,14.094999 17.308999,14.639 16.017,14.639 C 14.725001,14.639 14.249,14.094999 14.249,13.5 C 14.249,12.905001 14.691001,12.31 15.983,12.31 C 17.274999,12.31 17.751,12.905001 17.751,13.5 M 18.261,18.26 C 18.261,19.075999 17.512998,19.688 16.017,19.688 C 14.521001,19.688 13.739,19.075999 13.739,18.26 C 13.739,17.444001 14.470002,16.849 15.983,16.849 C 17.478998,16.849 18.261,17.444001 18.261,18.26"
     id="text2219"
     style="fill:#ffffff" />
</svg>
