<?xml version="1.0" encoding="UTF-8" standalone="no"?>
<!-- Created with Inkscape (http://www.inkscape.org/) -->
<svg
   xmlns:svg="http://www.w3.org/2000/svg"
   xmlns="http://www.w3.org/2000/svg"
   version="1.0"
   width="32"
   height="32"
   id="svg2">
  <defs
     id="defs15" />
  <circle
     cx="16"
     cy="16"
     r="14"
     id="circle"
     style="fill:#aa0000" />
  <path
     d="M 22.128383,14.843 C 22.128383,11.562003 20.05438,9.913 17.062383,9.913 C 13.696386,9.913 11.639383,11.511003 11.639383,14.197 C 11.639383,16.712997 13.373385,17.886 15.838383,17.886 C 17.266382,17.886 18.133384,17.614 18.898383,17.189 C 17.997384,18.565999 16.36538,19.484 13.254383,19.484 L 13.254383,22.187 C 20.054376,22.187 22.128383,17.987997 22.128383,14.843 M 18.983383,13.959 C 18.983383,14.893999 18.286381,15.455 16.824383,15.455 C 15.566384,15.455 14.818383,14.893999 14.818383,13.976 C 14.818383,13.024001 15.651384,12.514 16.892383,12.514 C 18.337381,12.514 18.983383,13.109001 18.983383,13.959"
     id="text2219"
     style="fill:#ffffff" />
</svg>
