<?xml version="1.0" encoding="UTF-8" standalone="no"?>
<!-- Created with Inkscape (http://www.inkscape.org/) -->
<svg
   xmlns:svg="http://www.w3.org/2000/svg"
   xmlns="http://www.w3.org/2000/svg"
   version="1.0"
   width="48"
   height="48"
   id="svg2">
  <defs
     id="defs5" />
  <rect
     width="30.434589"
     height="30.434589"
     rx="3.3407569"
     ry="3.0533955"
     x="-15.273262"
     y="18.944523"
     transform="matrix(0.7071068,-0.7071068,0.7071068,0.7071068,0,0)"
     style="fill:#fde087;fill-opacity:1;stroke:#2e3436;stroke-width:4.71506262;stroke-linecap:round;stroke-linejoin:round;stroke-miterlimit:4;stroke-dasharray:none;stroke-opacity:1"
     id="rect4348" />
  <rect
     width="30.434593"
     height="30.434593"
     rx="3.3407574"
     ry="3.053396"
     x="-15.273291"
     y="18.944523"
     transform="matrix(0.7071068,-0.7071068,0.7071068,0.7071068,0,0)"
     style="fill:#fde8a6;fill-opacity:1;stroke-width:5;stroke-linecap:round;stroke-linejoin:round;stroke-miterlimit:4;stroke-dasharray:none;stroke-opacity:1"
     id="rect4350" />
  <rect
     width="27.705311"
     height="27.705311"
     rx="3.3407574"
     ry="3.053396"
     x="-15.205288"
     y="21.605812"
     transform="matrix(0.7071068,-0.7071068,0.7071068,0.7071068,0,0)"
     style="fill:#fac521;fill-opacity:1;stroke-width:5;stroke-linecap:round;stroke-linejoin:round;stroke-miterlimit:4;stroke-dasharray:none;stroke-opacity:1"
     id="rect4352" />
  <path
     d="M 28.198344,33.563107 C 28.198344,34.995958 26.977162,36.070596 25.120964,36.070596 L 25.088402,36.070596 C 23.2485,36.070596 22.011031,34.995958 22.011031,33.563107 C 22.011031,32.065131 23.281062,31.039341 25.120964,31.039341 C 26.9446,31.039341 28.165773,32.065131 28.198344,33.563107 z M 27.872694,29.264563 L 28.947332,16.108396 L 21.245758,16.108396 L 22.320396,29.264563 L 27.872694,29.264563 z "
     style="fill:#fef2cb;fill-opacity:1;stroke:#fef2cb;stroke-width:0.9430126;stroke-linecap:round;stroke-linejoin:round;stroke-opacity:1"
     id="path4412" />
  <path
     d="M 26.817387,32.489034 C 26.817387,33.921885 25.596205,34.996524 23.740017,34.996524 L 23.707454,34.996524 C 21.867543,34.996524 20.630084,33.921885 20.630084,32.489034 C 20.630084,30.991059 21.900105,29.965269 23.740017,29.965269 C 25.563643,29.965269 26.784825,30.991059 26.817387,32.489034 z M 26.491737,28.190481 L 27.566375,15.034314 L 19.86481,15.034314 L 20.939448,28.190481 L 26.491737,28.190481 z "
     style="fill:#2e3436"
     id="path4414" />
</svg>
