<?xml version="1.0" encoding="UTF-8" standalone="no"?>
<!-- Created with Inkscape (http://www.inkscape.org/) -->
<svg
   xmlns:svg="http://www.w3.org/2000/svg"
   xmlns="http://www.w3.org/2000/svg"
   version="1.0"
   width="48"
   height="48"
   id="svg2">
  <defs
     id="defs5" />
  <path
     d="M 255.25,-411.29002 L 261.86798,-400.85887 L 273.83367,-397.7882 L 265.95811,-388.27072 L 266.73534,-375.94179 L 255.25,-380.49082 L 243.76466,-375.94179 L 244.54189,-388.27072 L 236.66633,-397.7882 L 248.63202,-400.85887 L 255.25,-411.29002 z "
     transform="matrix(1.1071323,0,0,1.1071323,-258.4137,459.98052)"
     style="fill:#2e3436;fill-opacity:1;stroke:#2e3436;stroke-width:4.25880718;stroke-linecap:round;stroke-linejoin:round;stroke-miterlimit:4;stroke-dasharray:none;stroke-opacity:1"
     id="path4450" />
  <path
     d="M 255.25,-411.29002 L 261.86798,-400.85887 L 273.83367,-397.7882 L 265.95811,-388.27072 L 266.73534,-375.94179 L 255.25,-380.49082 L 243.76466,-375.94179 L 244.54189,-388.27072 L 236.66633,-397.7882 L 248.63202,-400.85887 L 255.25,-411.29002 z "
     transform="matrix(1.1071323,0,0,1.1071323,-258.4137,459.98052)"
     style="fill:#fac521;fill-opacity:1;stroke-width:3.4070456;stroke-linecap:round;stroke-linejoin:round;stroke-miterlimit:4;stroke-dasharray:none;stroke-opacity:1"
     id="path4452" />
  <path
     d="M 24.175987,4.476098 L 16.980534,16.087712 L 3.9317841,19.443104 L 16.980534,20.076901 L 24.175987,10.383543 L 31.408721,20.076901 L 44.457471,19.443104 L 31.468862,16.027571 L 24.175987,4.476098 z "
     style="fill:#feeaab;fill-opacity:1;stroke-width:3.4070456;stroke-linecap:round;stroke-linejoin:round;stroke-miterlimit:4;stroke-dasharray:none;stroke-opacity:1"
     id="path4531" />
  <path
     d="M 12.456856,24.055852 C 11.65845,24.299685 14.436112,29.177769 14.436112,32.041127 C 14.436112,37.343117 13.010825,39.831516 15.971742,37.364645 C 18.711008,35.08244 21.184735,34.873512 24.195894,34.873512 C 27.207053,34.873512 29.646656,35.08244 32.38592,37.364645 C 35.346837,39.831516 33.921551,37.343117 33.92155,32.041127 C 33.92155,28.223316 38.868232,20.827013 33.682674,25.591482 C 31.458295,27.635233 27.413886,29.481744 24.195894,29.481744 C 20.977903,29.481744 16.933493,27.635233 14.709113,25.591482 C 13.412724,24.400365 12.722992,23.974574 12.456856,24.055852 z "
     style="fill:#fcd867;fill-opacity:1;stroke-width:3.4070456;stroke-linecap:round;stroke-linejoin:round;stroke-miterlimit:4;stroke-dasharray:none;stroke-opacity:1"
     id="path2185" />
</svg>
