<?xml version="1.0" encoding="UTF-8" standalone="no"?>
<!-- Created with Inkscape (http://www.inkscape.org/) -->
<svg xmlns:dc="http://purl.org/dc/elements/1.1/" xmlns:cc="http://creativecommons.org/ns#" xmlns:rdf="http://www.w3.org/1999/02/22-rdf-syntax-ns#" xmlns:svg="http://www.w3.org/2000/svg" xmlns="http://www.w3.org/2000/svg" xmlns:sodipodi="http://sodipodi.sourceforge.net/DTD/sodipodi-0.dtd" xmlns:inkscape="http://www.inkscape.org/namespaces/inkscape" version="1.0" width="191.6333" height="83.573601" id="svg2898" sodipodi:version="0.32" inkscape:version="0.45+devel" sodipodi:docname="jboss.svg" inkscape:output_extension="org.inkscape.output.svg.inkscape">
  <metadata id="metadata16">
    <rdf:RDF>
      <cc:Work rdf:about="">
        <dc:format></dc:format>
        <dc:type rdf:resource="" />
        <dc:title></dc:title>
        <dc:date></dc:date>
        <dc:creator>
          <cc:Agent>
            <dc:title></dc:title>
          </cc:Agent>
        </dc:creator>
        <dc:rights>
          <cc:Agent>
            <dc:title></dc:title>
          </cc:Agent>
        </dc:rights>
        <dc:publisher>
          <cc:Agent>
            <dc:title></dc:title>
          </cc:Agent>
        </dc:publisher>
        <dc:identifier></dc:identifier>
        <dc:source></dc:source>
        <dc:relation></dc:relation>
        <dc:language></dc:language>
        <dc:subject>
          <rdf:Bag />
        </dc:subject>
        <dc:coverage></dc:coverage>
        <dc:description></dc:description>
        <dc:contributor>
          <cc:Agent>
            <dc:title></dc:title>
          </cc:Agent>
        </dc:contributor>
        <cc:license rdf:resource="" />
      </cc:Work>
    </rdf:RDF>
  </metadata>
  <sodipodi:namedview inkscape:window-height="566" inkscape:window-width="640" inkscape:pageshadow="2" inkscape:pageopacity="0.0" guidetolerance="10.0" gridtolerance="10.0" objecttolerance="10.0" borderopacity="1.0" bordercolor="#666666" pagecolor="#ffffff" id="base" showgrid="false" inkscape:zoom="2.8544099" inkscape:cx="95.81665" inkscape:cy="41.7868" inkscape:window-x="4" inkscape:window-y="59" inkscape:current-layer="svg2898" />
  <defs id="defs21">
    <inkscape:perspective sodipodi:type="inkscape:persp3d" inkscape:vp_x="-50 : 600 : 1" inkscape:vp_y="0 : 1000 : 0" inkscape:vp_z="700 : 600 : 1" inkscape:persp3d-origin="300 : 400 : 1" id="perspective18" />
  </defs>
  <path d="M 61.49611,73.983626 C 61.49611,79.277856 57.200354,83.573612 51.910768,83.573612 C 46.616539,83.573612 42.320782,79.277856 42.320782,73.983626 C 42.320782,68.689397 46.616539,64.39364 51.910768,64.39364 C 57.200354,64.39364 61.49611,68.689397 61.49611,73.983626 z" id="path4330" style="fill:#cc0000;fill-opacity:1" />
  <path d="M 36.106196,71.091176 C 36.106196,75.731345 32.337243,79.500298 27.697074,79.500298 C 23.053117,79.500298 19.284163,75.731345 19.284163,71.091176 C 19.284163,66.447219 23.053117,62.682053 27.697074,62.682053 C 32.337243,62.682053 36.106196,66.447219 36.106196,71.091176 z" id="path4333" style="fill:#ff850c;fill-opacity:1" />
  <path d="M 17.087185,55.822179 C 17.087185,60.022953 13.68187,63.432056 9.4810962,63.432056 C 5.2841107,63.432056 1.875007,60.022953 1.875007,55.822179 C 1.875007,51.625194 5.2841107,48.21609 9.4810962,48.21609 C 13.68187,48.21609 17.087185,51.625194 17.087185,55.822179 z" id="path4335" style="fill:#fac521;fill-opacity:1" />
  <path d="M 13.606112,34.556948 C 13.606112,38.31075 10.560646,41.360004 6.8030558,41.360004 C 3.0492539,41.360004 4.2148359e-18,38.31075 4.2148359e-18,34.556948 C 4.2148359e-18,30.803146 3.0492539,27.753892 6.8030558,27.753892 C 10.560646,27.753892 13.606112,30.803146 13.606112,34.556948 z" id="path4337" style="fill:#b5bd14;fill-opacity:1" />
  <path d="M 23.087208,15.431876 C 23.087208,18.62507 20.496289,21.219777 17.303095,21.219777 C 14.109901,21.219777 11.518983,18.62507 11.518983,15.431876 C 11.518983,12.238682 14.109901,9.6477635 17.303095,9.6477635 C 20.496289,9.6477635 23.087208,12.238682 23.087208,15.431876 z" id="path4339" style="fill:#007f91;fill-opacity:1" />
  <path d="M 39.375148,7.0379052 C 39.375148,9.8750371 37.068321,12.181864 34.231189,12.181864 C 31.394057,12.181864 29.08723,9.8750371 29.08723,7.0379052 C 29.08723,4.2007734 31.394057,1.8939465 34.231189,1.8939465 C 37.068321,1.8939465 39.375148,4.2007734 39.375148,7.0379052 z" id="path4341" style="fill:#0099d7;fill-opacity:1" />
  <path d="M 56.568394,4.3371375 C 56.568394,6.7310859 54.625205,8.6780629 52.231257,8.6780629 C 49.83352,8.6780629 47.890331,6.7310859 47.890331,4.3371375 C 47.890331,1.9431892 49.83352,0 52.231257,0 C 54.625205,0 56.568394,1.9431892 56.568394,4.3371375 z" id="path4343" style="fill:#7a82ba;fill-opacity:1" />
  <path d="M 89.663215,46.8676 C 93.102622,46.8676 94.193535,43.46986 94.193535,40.591061 C 94.193535,37.712263 93.102622,34.272856 89.663215,34.272856 C 86.22002,34.272856 85.170774,37.712263 85.170774,40.591061 C 85.170774,43.46986 86.22002,46.8676 89.663215,46.8676 M 89.663215,28.60238 C 96.678393,28.60238 101.60644,33.791793 101.60644,40.591061 C 101.60644,47.390329 96.678393,52.534288 89.663215,52.534288 C 82.644249,52.534288 77.757868,47.390329 77.757868,40.591061 C 77.757868,33.791793 82.644249,28.60238 89.663215,28.60238 z M 107.59889,44.428197 C 107.59889,45.560777 108.07616,46.390326 108.8148,46.954722 C 109.51556,47.481239 110.51557,47.738816 111.56481,47.738816 C 113.00042,47.738816 115.04967,47.128965 115.04967,45.341079 C 115.04967,43.598648 112.73906,43.250162 111.43224,42.943343 C 106.76934,41.769096 100.92462,41.63652 100.92462,35.534224 C 100.92462,30.083446 106.80722,28.60238 111.25799,28.60238 C 116.22771,28.60238 121.41333,30.041779 121.6747,35.928165 L 114.83376,35.928165 C 114.83376,34.96604 114.48528,34.359977 113.87543,33.966037 C 113.26179,33.572096 112.43603,33.397853 111.51936,33.397853 C 110.29587,33.397853 108.33753,33.526641 108.33753,35.098617 C 108.33753,37.234988 113.30724,37.625141 116.70498,38.367568 C 121.28455,39.284238 122.46258,42.594857 122.46258,44.469864 C 122.46258,50.530493 116.70498,52.534288 111.60648,52.534288 C 106.24661,52.534288 100.75417,50.75019 100.53447,44.428197 L 107.59889,44.428197 L 107.59889,44.428197 z M 129.26185,44.428197 C 129.26185,45.560777 129.74291,46.390326 130.48534,46.954722 C 131.18231,47.481239 132.1861,47.738816 133.23156,47.738816 C 134.66717,47.738816 136.71642,47.128965 136.71642,45.341079 C 136.71642,43.598648 134.40581,43.250162 133.09898,42.943343 C 128.43609,41.769096 122.59516,41.63652 122.59516,35.534224 C 122.59516,30.083446 128.48154,28.60238 132.92474,28.60238 C 137.89446,28.60238 143.08387,30.041779 143.34523,35.928165 L 136.50051,35.928165 C 136.50051,34.96604 136.15203,34.359977 135.54218,33.966037 C 134.92854,33.572096 134.10278,33.397853 133.18611,33.397853 C 131.9664,33.397853 130.00806,33.526641 130.00806,35.098617 C 130.00806,37.234988 134.97399,37.625141 138.37552,38.367568 C 142.95129,39.284238 144.12933,42.594857 144.12933,44.469864 C 144.12933,50.530493 138.37552,52.534288 133.27702,52.534288 C 127.91336,52.534288 122.42091,50.75019 122.20122,44.428197 L 129.26185,44.428197 L 129.26185,44.428197 z M 82.091217,67.814648 C 81.981368,67.848739 81.863944,67.879043 81.738943,67.90177 C 81.613943,67.928285 81.481366,67.947225 81.341214,67.962376 C 81.20485,67.981316 81.064698,68.000255 80.928334,68.022983 C 80.799546,68.049498 80.670757,68.079801 80.541969,68.121468 C 80.416968,68.159347 80.307119,68.216165 80.21621,68.284347 C 80.121513,68.352529 80.045755,68.439651 79.988936,68.541924 C 79.932118,68.647985 79.905603,68.780561 79.905603,68.939653 C 79.905603,69.091168 79.932118,69.219957 79.988936,69.326018 C 80.045755,69.432079 80.121513,69.511624 80.219998,69.572231 C 80.318483,69.632837 80.43212,69.674504 80.560908,69.701019 C 80.693485,69.723746 80.826061,69.73511 80.962425,69.73511 C 81.307123,69.73511 81.568488,69.678292 81.757883,69.564655 C 81.943489,69.454806 82.079853,69.318442 82.170763,69.163138 C 82.261672,69.007835 82.314703,68.848743 82.33743,68.685864 C 82.35637,68.526772 82.367733,68.397984 82.367733,68.303287 L 82.367733,67.663133 C 82.291975,67.727527 82.201066,67.776769 82.091217,67.814648 M 78.689689,65.397973 C 78.86772,65.13282 79.094994,64.920698 79.367722,64.757819 C 79.64045,64.598727 79.951058,64.48509 80.291968,64.416908 C 80.636666,64.348726 80.981364,64.314635 81.326063,64.314635 C 81.640458,64.314635 81.958641,64.337363 82.280612,64.379029 C 82.602583,64.424484 82.898038,64.511606 83.163191,64.640394 C 83.428343,64.769182 83.648041,64.947213 83.814708,65.178275 C 83.985164,65.405548 84.072285,65.70858 84.072285,66.087369 L 84.072285,69.329806 C 84.072285,69.61011 84.087437,69.87905 84.11774,70.136627 C 84.151831,70.394204 84.208649,70.587386 84.288195,70.716174 L 82.557128,70.704811 C 82.526825,70.610113 82.496522,70.511628 82.477582,70.413143 C 82.458643,70.314658 82.443491,70.212385 82.435915,70.110112 C 82.163187,70.390416 81.841216,70.591174 81.470003,70.701023 C 81.098789,70.81466 80.72,70.871478 80.329847,70.871478 C 80.030603,70.871478 79.754087,70.837387 79.49651,70.765417 C 79.235146,70.689659 79.01166,70.57981 78.818478,70.424507 C 78.621507,70.272991 78.473779,70.079808 78.36393,69.844959 C 78.254081,69.613898 78.201051,69.333594 78.201051,69.011623 C 78.201051,68.659349 78.261657,68.367681 78.386658,68.136619 C 78.511658,67.909346 78.674538,67.723739 78.871508,67.587375 C 79.068478,67.451011 79.295752,67.348738 79.549541,67.280556 C 79.80333,67.212373 80.060906,67.159343 80.318483,67.117676 C 80.57606,67.076009 80.833637,67.041918 81.083638,67.019191 C 81.333638,66.996464 81.553336,66.958585 81.746519,66.91313 C 81.943489,66.863887 82.095005,66.791917 82.208642,66.701008 C 82.322279,66.606311 82.375309,66.473734 82.367733,66.295703 C 82.367733,66.110097 82.33743,65.962369 82.276824,65.856308 C 82.21243,65.746459 82.132884,65.663125 82.030611,65.602519 C 81.928338,65.541913 81.810913,65.500246 81.674549,65.481306 C 81.541973,65.462367 81.394245,65.451003 81.242729,65.451003 C 80.901819,65.451003 80.632878,65.522973 80.435908,65.670701 C 80.238937,65.814641 80.125301,66.057066 80.094997,66.397976 L 78.390446,66.397976 C 78.413173,65.99646 78.511658,65.663125 78.689689,65.397973 z M 92.598832,66.829796 C 92.54959,66.594947 92.466256,66.382825 92.348831,66.204794 C 92.231407,66.022975 92.083679,65.875247 91.898072,65.76161 C 91.712465,65.647974 91.481404,65.591155 91.197312,65.591155 C 90.917008,65.591155 90.678371,65.647974 90.485188,65.76161 C 90.292005,65.875247 90.136702,66.022975 90.019277,66.208582 C 89.901852,66.394189 89.818519,66.606311 89.765488,66.844948 C 89.712458,67.079797 89.685943,67.329798 89.685943,67.587375 C 89.685943,67.8298 89.716246,68.072225 89.773064,68.310862 C 89.829882,68.553288 89.917004,68.769197 90.045792,68.958592 C 90.167005,69.147987 90.326096,69.30329 90.515491,69.416927 C 90.704886,69.534352 90.932159,69.594958 91.197312,69.594958 C 91.481404,69.594958 91.716253,69.53814 91.905648,69.424503 C 92.091255,69.310866 92.24277,69.15935 92.356407,68.969956 C 92.470044,68.780561 92.54959,68.564651 92.598832,68.322226 C 92.644287,68.083589 92.670802,67.833588 92.670802,67.576011 C 92.670802,67.318434 92.644287,67.068433 92.598832,66.829796 M 92.670802,69.920717 C 92.470044,70.257839 92.204891,70.500265 91.879133,70.647992 C 91.557162,70.79572 91.189736,70.871478 90.776856,70.871478 C 90.310945,70.871478 89.901852,70.780569 89.549578,70.602538 C 89.197304,70.420719 88.905637,70.174506 88.674575,69.863899 C 88.447302,69.557079 88.273058,69.201017 88.159422,68.799501 C 88.041997,68.397984 87.981391,67.977528 87.981391,67.545708 C 87.981391,67.125252 88.041997,66.723735 88.159422,66.333582 C 88.273058,65.943429 88.447302,65.598731 88.674575,65.303275 C 88.901849,65.004032 89.189729,64.765395 89.534427,64.583576 C 89.879125,64.405545 90.280642,64.314635 90.735189,64.314635 C 91.106402,64.314635 91.454889,64.390393 91.788223,64.545697 C 92.121558,64.704788 92.382922,64.932062 92.576105,65.235093 L 92.598832,65.235093 L 92.598832,62.113869 L 94.326111,62.113869 L 94.326111,70.716174 L 92.69353,70.716174 L 92.69353,69.920717 L 92.670802,69.920717 z M 96.958697,64.477515 L 96.958697,70.704811 L 95.254145,70.704811 L 95.254145,64.477515 L 96.958697,64.477515 M 95.254145,63.507814 L 95.254145,62.087354 L 96.958697,62.087354 L 96.958697,63.507814 L 95.254145,63.507814 z M 99.606434,70.704811 L 97.473851,64.481303 L 99.269312,64.481303 L 100.57992,68.731319 L 100.60644,68.731319 L 101.91705,64.481303 L 103.61781,64.481303 L 101.51174,70.704811 L 99.606434,70.704811 L 99.606434,70.704811 z M 105.85267,64.477515 L 105.85267,70.704811 L 104.14812,70.704811 L 104.14812,64.477515 L 105.85267,64.477515 M 104.14812,63.507814 L 104.14812,62.087354 L 105.85267,62.087354 L 105.85267,63.507814 L 104.14812,63.507814 z M 108.40571,69.166926 C 108.48526,69.299502 108.58374,69.405563 108.70117,69.488897 C 108.82238,69.572231 108.96253,69.636625 109.12162,69.674504 C 109.27693,69.716171 109.4398,69.73511 109.61026,69.73511 C 109.72768,69.73511 109.85647,69.723746 109.98905,69.693443 C 110.12163,69.666928 110.24284,69.621473 110.35269,69.560867 C 110.45875,69.500261 110.54966,69.420715 110.62163,69.318442 C 110.69739,69.219957 110.73148,69.091168 110.73148,68.939653 C 110.73148,68.682076 110.56102,68.492681 110.21632,68.363893 C 109.87541,68.235105 109.39814,68.106316 108.7845,67.977528 C 108.5345,67.920709 108.28829,67.856315 108.05344,67.776769 C 107.8148,67.701012 107.60268,67.602526 107.41707,67.477526 C 107.23146,67.352525 107.08374,67.197222 106.9701,67.007827 C 106.85646,66.818433 106.80343,66.587371 106.80343,66.314643 C 106.80343,65.913126 106.87919,65.583579 107.03828,65.326003 C 107.19358,65.068426 107.40192,64.867668 107.65949,64.716152 C 107.91707,64.568424 108.20495,64.466151 108.52692,64.405545 C 108.84889,64.344938 109.17844,64.314635 109.51935,64.314635 C 109.85647,64.314635 110.18223,64.344938 110.50041,64.409333 C 110.8186,64.473727 111.10269,64.583576 111.35269,64.735091 C 111.60269,64.886607 111.80724,65.091153 111.9739,65.344942 C 112.13678,65.598731 112.23906,65.916914 112.26936,66.303279 L 110.63678,66.303279 C 110.61026,65.969945 110.48526,65.746459 110.26178,65.629034 C 110.0345,65.507822 109.76935,65.451003 109.46253,65.451003 C 109.36405,65.451003 109.26177,65.454791 109.14814,65.466155 C 109.0345,65.481306 108.93223,65.507822 108.83753,65.545701 C 108.74662,65.587367 108.66707,65.644186 108.60268,65.723731 C 108.53829,65.799489 108.50798,65.901762 108.50798,66.030551 C 108.50798,66.182067 108.56101,66.307067 108.67465,66.405552 C 108.78829,66.50025 108.93601,66.579795 109.11405,66.640402 C 109.29586,66.701008 109.5042,66.754038 109.73905,66.803281 C 109.9739,66.852524 110.21253,66.901766 110.45496,66.958585 C 110.70117,67.015403 110.94739,67.083585 111.18224,67.166919 C 111.42087,67.246464 111.63299,67.352525 111.8186,67.485102 C 112.00421,67.617678 112.15194,67.784345 112.26557,67.981316 C 112.37921,68.178286 112.43603,68.420711 112.43603,68.708591 C 112.43603,69.121472 112.35269,69.46617 112.18981,69.742686 C 112.02315,70.019202 111.80724,70.242688 111.54209,70.413143 C 111.27693,70.57981 110.9739,70.701023 110.63299,70.769205 C 110.29208,70.837387 109.94359,70.871478 109.58753,70.871478 C 109.22768,70.871478 108.87541,70.837387 108.52692,70.765417 C 108.18222,70.689659 107.8754,70.572235 107.60646,70.401779 C 107.33752,70.235112 107.11404,70.011626 106.94358,69.73511 C 106.76934,69.458594 106.67464,69.110108 106.65949,68.69344 L 108.29207,68.69344 C 108.29207,68.875258 108.32995,69.03435 108.40571,69.166926 L 108.40571,69.166926 z M 114.9474,64.477515 L 114.9474,70.704811 L 113.24285,70.704811 L 113.24285,64.477515 L 114.9474,64.477515 M 113.24285,63.507814 L 113.24285,62.087354 L 114.9474,62.087354 L 114.9474,63.507814 L 113.24285,63.507814 z M 117.60271,68.329802 C 117.65196,68.568439 117.73529,68.780561 117.85271,68.969956 C 117.97014,69.15935 118.12923,69.310866 118.32241,69.424503 C 118.5156,69.53814 118.75802,69.594958 119.05348,69.594958 C 119.34514,69.594958 119.59136,69.53814 119.78833,69.424503 C 119.9853,69.310866 120.14439,69.15935 120.26181,68.969956 C 120.37924,68.780561 120.46257,68.568439 120.51182,68.329802 C 120.56106,68.091165 120.58757,67.848739 120.58757,67.598739 C 120.58757,67.348738 120.56106,67.102525 120.51182,66.860099 C 120.46257,66.621462 120.37924,66.405552 120.26181,66.219945 C 120.14439,66.034339 119.9853,65.886611 119.78833,65.769186 C 119.59136,65.651762 119.34514,65.591155 119.05348,65.591155 C 118.75802,65.591155 118.5156,65.651762 118.32241,65.769186 C 118.12923,65.886611 117.97014,66.034339 117.85271,66.219945 C 117.73529,66.405552 117.65196,66.621462 117.60271,66.860099 C 117.55726,67.102525 117.53074,67.348738 117.53074,67.598739 C 117.53074,67.848739 117.55726,68.091165 117.60271,68.329802 M 116.05725,66.250249 C 116.20877,65.844944 116.42847,65.496458 116.70877,65.212366 C 116.98908,64.924486 117.32999,64.704788 117.72393,64.549485 C 118.11787,64.390393 118.56105,64.314635 119.05348,64.314635 C 119.5459,64.314635 119.98909,64.390393 120.38682,64.549485 C 120.78454,64.704788 121.12545,64.924486 121.40955,65.212366 C 121.68985,65.496458 121.90576,65.844944 122.06106,66.250249 C 122.21258,66.655553 122.29213,67.106312 122.29213,67.606314 C 122.29213,68.102528 122.21258,68.553288 122.06106,68.954804 C 121.90576,69.356321 121.68985,69.701019 121.40955,69.985111 C 121.12545,70.269203 120.78454,70.488901 120.38682,70.640417 C 119.98909,70.79572 119.5459,70.871478 119.05348,70.871478 C 118.56105,70.871478 118.11787,70.79572 117.72393,70.640417 C 117.32999,70.488901 116.98908,70.269203 116.70877,69.985111 C 116.42847,69.701019 116.20877,69.356321 116.05725,68.954804 C 115.90195,68.553288 115.82619,68.102528 115.82619,67.606314 C 115.82619,67.106312 115.90195,66.655553 116.05725,66.250249 z M 124.79592,64.481303 L 124.79592,65.34873 L 124.83001,65.34873 C 125.04592,64.98888 125.33002,64.723728 125.67471,64.560848 C 126.01941,64.397969 126.37169,64.314635 126.73532,64.314635 C 127.18987,64.314635 127.56487,64.375242 127.86033,64.500242 C 128.152,64.625243 128.38306,64.799486 128.54972,65.019183 C 128.72018,65.238881 128.8376,65.507822 128.90579,65.826005 C 128.97397,66.1404 129.00806,66.492674 129.00806,66.879039 L 129.00806,70.704811 L 127.30351,70.704811 L 127.30351,67.193434 C 127.30351,66.678281 127.22396,66.295703 127.06487,66.041914 C 126.90199,65.791914 126.6179,65.663125 126.21259,65.663125 C 125.74668,65.663125 125.40956,65.803277 125.20123,66.079793 C 124.99289,66.35631 124.89062,66.810857 124.89062,67.443435 L 124.89062,70.704811 L 123.16334,70.704811 L 123.16334,64.481303 L 124.79592,64.481303 L 124.79592,64.481303 z M 134.76187,68.329802 C 134.81111,68.568439 134.89445,68.780561 135.01187,68.969956 C 135.12929,69.15935 135.2846,69.310866 135.48157,69.424503 C 135.67475,69.53814 135.91718,69.594958 136.21263,69.594958 C 136.5043,69.594958 136.74673,69.53814 136.94748,69.424503 C 137.14445,69.310866 137.30355,69.15935 137.42097,68.969956 C 137.53839,68.780561 137.62173,68.568439 137.67097,68.329802 C 137.72021,68.091165 137.74294,67.848739 137.74294,67.598739 C 137.74294,67.348738 137.72021,67.102525 137.67097,66.860099 C 137.62173,66.621462 137.53839,66.405552 137.42097,66.219945 C 137.30355,66.034339 137.14445,65.886611 136.94748,65.769186 C 136.74673,65.651762 136.5043,65.591155 136.21263,65.591155 C 135.91718,65.591155 135.67475,65.651762 135.48157,65.769186 C 135.2846,65.886611 135.12929,66.034339 135.01187,66.219945 C 134.89445,66.405552 134.81111,66.621462 134.76187,66.860099 C 134.71263,67.102525 134.6899,67.348738 134.6899,67.598739 C 134.6899,67.848739 134.71263,68.091165 134.76187,68.329802 M 133.21262,66.250249 C 133.36792,65.844944 133.58383,65.496458 133.86793,65.212366 C 134.14823,64.924486 134.48535,64.704788 134.87929,64.549485 C 135.27702,64.390393 135.72021,64.314635 136.21263,64.314635 C 136.70127,64.314635 137.14445,64.390393 137.54597,64.549485 C 137.9437,64.704788 138.28461,64.924486 138.56491,65.212366 C 138.84901,65.496458 139.06492,65.844944 139.21643,66.250249 C 139.37174,66.655553 139.44749,67.106312 139.44749,67.606314 C 139.44749,68.102528 139.37174,68.553288 139.21643,68.954804 C 139.06492,69.356321 138.84901,69.701019 138.56491,69.985111 C 138.28461,70.269203 137.9437,70.488901 137.54597,70.640417 C 137.14445,70.79572 136.70127,70.871478 136.21263,70.871478 C 135.72021,70.871478 135.27702,70.79572 134.87929,70.640417 C 134.48535,70.488901 134.14823,70.269203 133.86793,69.985111 C 133.58383,69.701019 133.36792,69.356321 133.21262,68.954804 C 133.06111,68.553288 132.98535,68.102528 132.98535,67.606314 C 132.98535,67.106312 133.06111,66.655553 133.21262,66.250249 z M 139.64825,65.61767 L 139.64825,64.481303 L 140.67477,64.481303 L 140.67477,64.00024 C 140.67477,63.447208 140.84523,62.992661 141.18992,62.640387 C 141.53462,62.288113 142.05356,62.113869 142.75432,62.113869 C 142.90584,62.113869 143.05735,62.117657 143.20887,62.129021 C 143.36039,62.140385 143.5119,62.151748 143.65584,62.159324 L 143.65584,63.439632 C 143.45508,63.405541 143.24675,63.390389 143.03084,63.390389 C 142.79599,63.390389 142.62932,63.44342 142.52705,63.553269 C 142.42856,63.663118 142.37932,63.844937 142.37932,64.106301 L 142.37932,64.481303 L 143.55736,64.481303 L 143.55736,65.61767 L 142.37932,65.61767 L 142.37932,70.704811 L 140.67477,70.704811 L 140.67477,65.61767 L 139.64825,65.61767 L 139.64825,65.61767 z" id="path2337" style="fill:#9ea3a6;fill-rule:nonzero;stroke:none" />
  <path d="M 51.015343,42.030461 C 51.015343,49.00776 47.439572,52.534288 40.117575,52.534288 C 31.878907,52.534288 29.216019,47.78427 29.216019,40.852426 L 29.216019,39.500148 L 36.848623,39.500148 L 36.848623,42.378947 C 36.848623,44.428197 37.981203,45.560777 39.984999,45.560777 C 41.860006,45.560777 42.905464,44.515319 42.905464,41.507732 L 42.905464,20.757654 L 51.015343,20.757654 L 51.015343,42.030461 L 51.015343,42.030461 z M 59.045676,45.386534 L 65.538125,45.386534 C 68.110104,45.386534 69.89799,44.469864 69.89799,41.897885 C 69.89799,39.15545 67.981316,38.234992 65.538125,38.234992 L 59.045676,38.234992 L 59.045676,45.386534 M 59.045676,33.0077 L 65.322215,33.0077 C 66.716159,33.0077 68.636621,32.265273 68.636621,30.041779 C 68.636621,27.776619 67.019191,27.034192 65.322215,27.034192 L 59.045676,27.034192 L 59.045676,33.0077 M 50.935797,20.757654 L 65.496458,20.757654 C 70.856326,20.666744 76.742712,22.064477 76.742712,28.560713 C 76.742712,31.348603 75.083615,33.61755 72.644212,34.837252 C 75.95483,35.795589 78.004081,38.6706 78.004081,42.204704 C 78.004081,49.613823 72.55709,51.88277 65.886611,51.88277 L 50.935797,51.88277 L 50.935797,20.757654 z M 151.33769,65.99646 C 151.7733,65.99646 152.09906,65.897975 152.31875,65.704792 C 152.53466,65.515397 152.64451,65.201002 152.64451,64.769182 C 152.64451,64.352514 152.53466,64.049483 152.31875,63.863876 C 152.09906,63.674481 151.7733,63.579784 151.33769,63.579784 L 149.25814,63.579784 L 149.25814,65.99646 L 151.33769,65.99646 M 152.01193,62.113869 C 152.3983,62.113869 152.75057,62.174476 153.05739,62.299476 C 153.368,62.424477 153.63315,62.591144 153.85664,62.810842 C 154.07634,63.026752 154.24679,63.276753 154.36043,63.560845 C 154.47785,63.844937 154.53846,64.151756 154.53846,64.481303 C 154.53846,64.985092 154.4324,65.424488 154.21649,65.791914 C 154.00437,66.159339 153.65588,66.439643 153.17482,66.632826 L 153.17482,66.659341 C 153.40588,66.719947 153.59906,66.818433 153.75058,66.954797 C 153.90588,67.083585 154.03088,67.242677 154.12558,67.420708 C 154.22406,67.602526 154.29225,67.803285 154.3377,68.019195 C 154.37937,68.235105 154.41346,68.451014 154.42861,68.670712 C 154.43619,68.807076 154.44376,68.966168 154.45134,69.151775 C 154.45891,69.337381 154.47406,69.526776 154.493,69.716171 C 154.51573,69.913141 154.54603,70.09496 154.59149,70.265415 C 154.63694,70.439658 154.70134,70.587386 154.78846,70.704811 L 152.8983,70.704811 C 152.79224,70.432082 152.72785,70.106324 152.70512,69.731322 C 152.68239,69.352533 152.64451,68.992683 152.59527,68.647985 C 152.53088,68.197226 152.39451,67.867679 152.18618,67.659345 C 151.97406,67.451011 151.63314,67.34495 151.15587,67.34495 L 149.25814,67.34495 L 149.25814,70.704811 L 147.36419,70.704811 L 147.36419,62.113869 L 152.01193,62.113869 z M 159.20514,65.928278 C 159.0006,65.704792 158.6862,65.591155 158.26953,65.591155 C 157.9968,65.591155 157.76953,65.63661 157.5915,65.731307 C 157.40968,65.822217 157.26574,65.939641 157.15589,66.076006 C 157.04604,66.21237 156.97029,66.35631 156.92862,66.507825 C 156.88316,66.659341 156.85665,66.799493 156.84907,66.916918 L 159.63317,66.916918 C 159.55363,66.485098 159.40969,66.155551 159.20514,65.928278 M 157.26953,69.219957 C 157.52711,69.469958 157.89832,69.594958 158.37938,69.594958 C 158.72408,69.594958 159.01954,69.507837 159.26954,69.337381 C 159.51954,69.163138 159.67105,68.981319 159.72787,68.788137 L 161.23545,68.788137 C 160.99303,69.534352 160.6256,70.068445 160.1256,70.390416 C 159.62939,70.712387 159.02711,70.871478 158.31878,70.871478 C 157.83014,70.871478 157.38695,70.791932 156.99301,70.636629 C 156.59907,70.481325 156.26953,70.257839 155.9968,69.966172 C 155.72407,69.678292 155.51574,69.333594 155.36801,68.932077 C 155.21649,68.53056 155.14452,68.087377 155.14452,67.606314 C 155.14452,67.136616 155.22028,66.704796 155.3718,66.303279 C 155.52331,65.901762 155.73922,65.553276 156.01952,65.261609 C 156.29983,64.966153 156.63695,64.735091 157.02332,64.568424 C 157.41347,64.397969 157.84529,64.314635 158.31878,64.314635 C 158.84908,64.314635 159.3112,64.416908 159.70514,64.621455 C 160.09909,64.826001 160.42106,65.098729 160.67485,65.443427 C 160.92863,65.788126 161.11045,66.182067 161.22409,66.62525 C 161.33394,67.064646 161.37561,67.526769 161.3453,68.007831 L 156.84907,68.007831 C 156.8718,68.564651 157.01195,68.969956 157.26953,69.219957 z M 166.83017,66.829796 C 166.78472,66.594947 166.70138,66.382825 166.58396,66.204794 C 166.46653,66.022975 166.31502,65.875247 166.12941,65.76161 C 165.94759,65.647974 165.71274,65.591155 165.43244,65.591155 C 165.14835,65.591155 164.9135,65.647974 164.71653,65.76161 C 164.52713,65.875247 164.36804,66.022975 164.2544,66.208582 C 164.13698,66.394189 164.05365,66.606311 164.00062,66.844948 C 163.94758,67.079797 163.92107,67.329798 163.92107,67.587375 C 163.92107,67.8298 163.95137,68.072225 164.0044,68.310862 C 164.06122,68.553288 164.15213,68.769197 164.27713,68.958592 C 164.40213,69.147987 164.55744,69.30329 164.74683,69.416927 C 164.93622,69.534352 165.1635,69.594958 165.43244,69.594958 C 165.71274,69.594958 165.94759,69.53814 166.13699,69.424503 C 166.32638,69.310866 166.4779,69.15935 166.58775,68.969956 C 166.70138,68.780561 166.78472,68.564651 166.83017,68.322226 C 166.87941,68.083589 166.90593,67.833588 166.90593,67.576011 C 166.90593,67.318434 166.87941,67.068433 166.83017,66.829796 M 166.90593,69.920717 C 166.70517,70.257839 166.44002,70.500265 166.11426,70.647992 C 165.7885,70.79572 165.42108,70.871478 165.01198,70.871478 C 164.54607,70.871478 164.13698,70.780569 163.78092,70.602538 C 163.42864,70.420719 163.13698,70.174506 162.9097,69.863899 C 162.67864,69.557079 162.50819,69.201017 162.39076,68.799501 C 162.27334,68.397984 162.21652,67.977528 162.21652,67.545708 C 162.21652,67.125252 162.27334,66.723735 162.39076,66.333582 C 162.50819,65.943429 162.67864,65.598731 162.9097,65.303275 C 163.13698,65.004032 163.42107,64.765395 163.76955,64.583576 C 164.11425,64.405545 164.51198,64.314635 164.97032,64.314635 C 165.33774,64.314635 165.69002,64.390393 166.01956,64.545697 C 166.3529,64.704788 166.61805,64.932062 166.81123,65.235093 L 166.83396,65.235093 L 166.83396,62.113869 L 168.56124,62.113869 L 168.56124,70.716174 L 166.92866,70.716174 L 166.92866,69.920717 L 166.90593,69.920717 z M 174.78853,62.113869 L 174.78853,65.401761 L 178.26961,65.401761 L 178.26961,62.113869 L 180.16355,62.113869 L 180.16355,70.704811 L 178.26961,70.704811 L 178.26961,66.988888 L 174.78853,66.988888 L 174.78853,70.704811 L 172.89459,70.704811 L 172.89459,62.113869 L 174.78853,62.113869 L 174.78853,62.113869 z M 185.02721,67.814648 C 184.91736,67.848739 184.79994,67.879043 184.67115,67.90177 C 184.54615,67.928285 184.41357,67.947225 184.27721,67.962376 C 184.13705,67.981316 184.00069,68.000255 183.86054,68.022983 C 183.73175,68.049498 183.60296,68.079801 183.47796,68.121468 C 183.35296,68.159347 183.24311,68.216165 183.14841,68.284347 C 183.05372,68.352529 182.97796,68.439651 182.92493,68.541924 C 182.86432,68.647985 182.83781,68.780561 182.83781,68.939653 C 182.83781,69.091168 182.86432,69.219957 182.92493,69.326018 C 182.97796,69.432079 183.05751,69.511624 183.15599,69.572231 C 183.25069,69.632837 183.36432,69.674504 183.4969,69.701019 C 183.62569,69.723746 183.76205,69.73511 183.89842,69.73511 C 184.23933,69.73511 184.50448,69.678292 184.69009,69.564655 C 184.87948,69.454806 185.01585,69.318442 185.10297,69.163138 C 185.19388,69.007835 185.2507,68.848743 185.26963,68.685864 C 185.28857,68.526772 185.29994,68.397984 185.29994,68.303287 L 185.29994,67.663133 C 185.22797,67.727527 185.13706,67.776769 185.02721,67.814648 M 181.62568,65.397973 C 181.80371,65.13282 182.0272,64.920698 182.29993,64.757819 C 182.57644,64.598727 182.88326,64.48509 183.22796,64.416908 C 183.56887,64.348726 183.91357,64.314635 184.26205,64.314635 C 184.57266,64.314635 184.89463,64.337363 185.2166,64.379029 C 185.53857,64.424484 185.83403,64.511606 186.0954,64.640394 C 186.36434,64.769182 186.58025,64.947213 186.7507,65.178275 C 186.92116,65.405548 187.00449,65.70858 187.00449,66.087369 L 187.00449,69.329806 C 187.00449,69.61011 187.01964,69.87905 187.05373,70.136627 C 187.08404,70.394204 187.14085,70.587386 187.2204,70.716174 L 185.49312,70.704811 C 185.45903,70.610113 185.43251,70.511628 185.41357,70.413143 C 185.39085,70.314658 185.37948,70.212385 185.37191,70.110112 C 185.09539,70.390416 184.77342,70.591174 184.40221,70.701023 C 184.03099,70.81466 183.6522,70.871478 183.26584,70.871478 C 182.9666,70.871478 182.68629,70.837387 182.42871,70.765417 C 182.17114,70.689659 181.94386,70.57981 181.75068,70.424507 C 181.5575,70.272991 181.40598,70.079808 181.29613,69.844959 C 181.18629,69.613898 181.13326,69.333594 181.13326,69.011623 C 181.13326,68.659349 181.19765,68.367681 181.31886,68.136619 C 181.44765,67.909346 181.60674,67.723739 181.8075,67.587375 C 182.00447,67.451011 182.22796,67.348738 182.48553,67.280556 C 182.73932,67.212373 182.99311,67.159343 183.25448,67.117676 C 183.51205,67.076009 183.76584,67.041918 184.01584,67.019191 C 184.26584,66.996464 184.48933,66.958585 184.68251,66.91313 C 184.87569,66.863887 185.02721,66.791917 185.14085,66.701008 C 185.25448,66.606311 185.30751,66.473734 185.29994,66.295703 C 185.29994,66.110097 185.26963,65.962369 185.20903,65.856308 C 185.14842,65.746459 185.06509,65.663125 184.96282,65.602519 C 184.86054,65.541913 184.74312,65.500246 184.61054,65.481306 C 184.47418,65.462367 184.33024,65.451003 184.17493,65.451003 C 183.83402,65.451003 183.56508,65.522973 183.3719,65.670701 C 183.17493,65.814641 183.06129,66.057066 183.0272,66.397976 L 181.32265,66.397976 C 181.34917,65.99646 181.44765,65.663125 181.62568,65.397973 z M 191.63329,64.481303 L 191.63329,65.61767 L 190.3795,65.61767 L 190.3795,68.704803 C 190.3795,68.992683 190.42874,69.185866 190.52344,69.280563 C 190.62193,69.379048 190.81132,69.428291 191.10299,69.428291 C 191.19769,69.428291 191.29238,69.424503 191.37951,69.416927 C 191.46663,69.409351 191.55375,69.397988 191.63329,69.379048 L 191.63329,70.704811 C 191.48935,70.735114 191.32648,70.754053 191.14844,70.765417 C 190.9742,70.772993 190.79996,70.776781 190.63329,70.776781 C 190.36814,70.776781 190.11814,70.757841 189.88329,70.72375 C 189.64465,70.685871 189.43632,70.613901 189.25829,70.511628 C 189.07647,70.405567 188.93631,70.257839 188.83025,70.064657 C 188.72798,69.871474 188.67495,69.617685 188.67495,69.30329 L 188.67495,65.61767 L 187.64086,65.61767 L 187.64086,64.481303 L 188.67495,64.481303 L 188.67495,62.610083 L 190.3795,62.610083 L 190.3795,64.481303 L 191.63329,64.481303 L 191.63329,64.481303 z" id="logotype" style="fill:#cc0000;fill-rule:nonzero;stroke:none" />
  <path d="M 146.94373,22.223568 L 146.94373,23.344785 L 147.44374,23.344785 C 147.74298,23.344785 147.94752,23.303118 148.06495,23.219784 C 148.18237,23.132663 148.24298,22.988723 148.24298,22.787964 C 148.24298,22.583418 148.18237,22.43569 148.06495,22.356145 C 147.94374,22.265235 147.95131,22.223568 147.65586,22.223568 M 147.47025,21.8069 C 147.94752,21.8069 148.30737,21.886446 148.53844,22.049325 C 148.77329,22.208417 148.8945,22.450842 148.8945,22.776601 C 148.8945,23.01145 148.82253,23.204633 148.67859,23.356148 C 148.53465,23.507664 148.33768,23.606149 148.07631,23.651604 C 148.14071,23.674331 148.21647,23.738725 148.30737,23.844786 C 148.40207,23.94706 148.50813,24.098575 148.63313,24.295546 L 149.18995,25.200852 L 148.49298,25.200852 L 147.96646,24.352364 C 147.80737,24.091 147.67858,23.92812 147.57631,23.859938 C 147.47783,23.791756 147.35661,23.753877 147.21267,23.753877 L 146.94373,23.753877 L 146.94373,25.200852 L 146.31494,25.200852 L 146.31494,21.8069 M 147.64071,20.700835 C 146.08388,20.700835 144.81873,21.969779 144.81873,23.522816 C 144.81873,25.07964 146.08388,26.344796 147.64071,26.344796 C 149.19374,26.344796 150.46269,25.07964 150.46269,23.522816 C 150.46269,21.969779 149.19374,20.700835 147.64071,20.700835 z M 147.64071,21.223565 C 148.91344,21.223565 149.94753,22.250084 149.94753,23.522816 C 149.94753,24.795548 148.91344,25.83343 147.64071,25.83343 C 146.36797,25.83343 145.33767,24.795548 145.33767,23.522816 C 145.33767,22.250084 146.36797,21.223565 147.64071,21.223565 z" id="registration" style="font-size:31.38881302px;fill:#9ea3a6;fill-opacity:1;font-family:DejaVu Sans" />
</svg>
