<?xml version="1.0" encoding="UTF-8" standalone="no"?>
<!-- Created with Inkscape (http://www.inkscape.org/) -->
<svg
   xmlns:svg="http://www.w3.org/2000/svg"
   xmlns="http://www.w3.org/2000/svg"
   version="1.0"
   width="48"
   height="48"
   id="svg2">
  <defs
     id="defs5" />
  <path
     d="M 30.27396,4.1232594 L 18.765811,4.1232594 C 11.476786,4.1232594 5.5574109,10.546411 5.5574109,19.960741 C 5.5574109,24.746615 7.0844878,29.075948 9.5403943,32.177328 C 9.4616811,32.681104 9.414455,33.200619 9.414455,33.720144 C 9.414455,39.308917 13.554865,43.591015 18.891751,44.267966 C 17.506371,42.693663 16.656245,40.914707 16.656245,38.616218 C 16.656245,38.01799 16.719219,37.419752 16.82942,36.837262 C 17.459135,36.963202 18.104599,37.026176 18.750063,37.026176 L 30.258211,37.026176 C 37.547237,37.026176 43.466612,29.39081 43.466612,19.960741 C 43.466612,10.530672 37.578724,4.1232594 30.27396,4.1232594 z "
     style="fill:#2e3436;fill-opacity:1;stroke:#2e3436;stroke-width:4.7150631;stroke-miterlimit:4;stroke-dasharray:none"
     id="path4317" />
  <path
     d="M 30.27396,4.1232594 L 18.765811,4.1232594 C 11.476786,4.1232594 5.5574109,10.546411 5.5574109,19.960741 C 5.5574109,24.746615 7.0844878,29.075948 9.5403943,32.177328 C 9.4616811,32.681104 9.414455,33.200619 9.414455,33.720144 C 9.414455,39.308917 13.554865,43.591015 18.891751,44.267966 C 17.506371,42.693663 16.656245,40.914707 16.656245,38.616218 C 16.656245,38.01799 16.719219,37.419752 16.82942,36.837262 C 17.459135,36.963202 18.104599,37.026176 18.750063,37.026176 L 30.258211,37.026176 C 37.547237,37.026176 43.466612,29.39081 43.466612,19.960741 C 43.466612,10.530672 37.578724,4.1232594 30.27396,4.1232594 z "
     style="fill:#bfdce8;fill-opacity:1"
     id="path142" />
  <path
     d="M 19.200879,5.5648899 C 12.490241,5.5648899 7.0622987,11.295775 7.0622987,19.690323 C 7.0622987,22.890926 7.8418023,25.879852 9.1910836,28.332288 C 8.6113289,26.599889 8.2852163,24.667826 8.2852163,22.673336 C 8.2852163,14.629768 13.495502,9.1620492 19.925575,9.1620492 L 30.071259,9.1620492 C 36.515213,9.1620492 41.711609,14.616311 41.711609,22.673336 C 41.864688,21.709218 41.983366,20.710908 41.983366,19.690323 C 41.983366,11.281743 36.524624,5.5648899 29.799492,5.5648899 L 19.200879,5.5648899 z "
     style="fill:#ffffff"
     id="path2358" />
  <path
     d="M 28.241965,33.725087 L 20.792252,33.725087 C 16.073756,33.725087 12.241894,32.944782 12.241894,26.850486 C 12.241894,25.10387 12.368512,23.572125 15.515722,23.567487 L 33.508301,23.540969 C 36.182481,23.537028 36.782127,24.950794 36.782127,26.850486 C 36.782127,32.95497 32.970649,33.725087 28.241965,33.725087 z "
     style="fill:#d0ecf9;fill-opacity:1"
     id="path2173" />
</svg>
