<?xml version="1.0" encoding="UTF-8" standalone="no"?>
<!-- Created with Inkscape (http://www.inkscape.org/) -->
<svg
   xmlns:svg="http://www.w3.org/2000/svg"
   xmlns="http://www.w3.org/2000/svg"
   version="1.0"
   width="48"
   height="48"
   id="svg2">
  <defs
     id="defs5" />
  <g
     transform="translate(5.5456349e-2,0)"
     id="g7095">
    <path
       d="M 23.670314,3.3007737 C 20.778716,3.2510204 17.924551,4.0645574 15.448419,5.5404288 C 4.0316317,12.422271 6.216579,28.109447 16.686125,34.626477 C 17.04893,34.779857 17.429528,34.912086 17.805953,35.039044 C 18.172719,39.046857 18.870256,44.203948 23.640844,44.203948 C 28.725314,44.203948 28.941696,38.875473 29.505194,35.039044 C 29.898186,34.904759 30.285928,34.78924 30.65449,34.626477 C 41.124037,28.109447 43.308996,12.422271 31.892197,5.5404288 C 29.416078,4.0479792 26.5619,3.2510204 23.670314,3.3007737 z "
       style="fill:#2e3436;fill-opacity:1;stroke:#2e3436;stroke-width:4.71506357;stroke-miterlimit:4;stroke-dasharray:none"
       id="path7097" />
    <path
       d="M 23.670314,3.3007737 C 20.778716,3.2510204 17.924551,4.0645574 15.448419,5.5404288 C 4.0316317,12.422271 6.216579,28.109447 16.686125,34.626477 C 17.04893,34.779857 17.429528,34.912086 17.805953,35.039044 C 18.172719,39.046857 18.870256,44.203948 23.640844,44.203948 C 28.781145,44.203948 28.941696,38.875473 29.505194,35.039044 C 29.898186,34.904759 30.285928,34.78924 30.65449,34.626477 C 41.124037,28.109447 43.308996,12.422271 31.892197,5.5404288 C 29.416078,4.0479792 26.5619,3.2510204 23.670314,3.3007737 z "
       style="fill:#888a85;fill-opacity:1;stroke-width:2.87090564"
       id="path7099" />
    <path
       d="M 31.893138,5.5449552 C 29.416994,4.0525057 26.558655,3.2565276 23.66707,3.3062809 C 20.775472,3.2565276 17.917121,4.0690838 15.440989,5.5449552 C 4.02419,12.426797 6.2178171,28.097509 16.687365,34.614528 C 21.110527,36.484569 26.656241,36.376829 30.646763,34.614528 C 41.11631,28.097509 43.309925,12.426797 31.893138,5.5449552 z "
       style="fill:#2e3436;fill-opacity:1;stroke:#2e3436;stroke-width:2.8290379;stroke-miterlimit:4;stroke-dasharray:none"
       id="path7101" />
    <path
       d="M 31.893138,5.5449552 C 29.416994,4.0525057 26.558655,3.2565276 23.66707,3.3062809 C 20.775472,3.2565276 17.917121,4.0690838 15.440989,5.5449552 C 4.02419,12.426797 6.2178171,28.097509 16.687365,34.614528 C 21.110527,36.484569 26.656241,36.376829 30.646763,34.614528 C 41.11631,28.097509 43.309925,12.426797 31.893138,5.5449552 z "
       style="fill:#fcd867;fill-opacity:1;stroke-width:1.06932139"
       id="path7103" />
    <path
       d="M 30.980154,5.3639068 C 28.778827,4.0858778 26.237726,3.4042582 23.667069,3.4468633 C 21.0964,3.4042582 18.555289,4.1000741 16.353973,5.3639068 C 6.2042866,11.257033 8.1544504,24.676331 17.462019,30.257048 C 21.394267,31.85842 26.324483,31.766159 29.872108,30.257048 C 39.179675,24.676331 41.129829,11.257033 30.980154,5.3639068 z "
       style="fill:#fac521;fill-opacity:1;stroke-width:1.06932139"
       id="path7105" />
    <path
       d="M 24.239272,6.0793699 C 21.035292,4.2295564 12.944935,8.3176203 12.944935,12.291154 C 12.944935,13.77459 25.645578,6.8913038 24.239272,6.0793699 z "
       style="fill:#ffffff;fill-opacity:1"
       id="path7107" />
    <path
       d="M 20.750819,36.014789 L 16.21011,21.426798 M 26.627873,36.014789 L 31.168569,21.426798 M 31.086524,21.538695 L 27.955513,23.845436 L 27.941632,20.31458 L 25.084073,23.823861 L 23.648323,19.223072 L 22.212598,23.802237 L 19.355014,20.250012 L 19.341121,23.780642 L 16.21011,21.426798"
       style="fill:none;fill-rule:evenodd;stroke:#2e3436;stroke-width:1.5088203;stroke-linecap:round;stroke-linejoin:round;stroke-miterlimit:4;stroke-dasharray:none;stroke-opacity:1"
       id="path7111" />
  </g>
</svg>
