<?xml version="1.0" encoding="UTF-8" standalone="no"?>
<svg xmlns:svg="http://www.w3.org/2000/svg" xmlns="http://www.w3.org/2000/svg" version="1.0" width="300" height="140" viewBox="0 0 507 221" id="JBoss-Logo">
<g>
<g id="color-swoosh">
		<path d="M 159.52,200.07 C 159.52,211.47 150.27,220.72 138.88,220.72 C 127.48,220.72 118.23,211.47 118.23,200.07 C 118.23,188.67 127.48,179.42 138.88,179.42 C 150.27,179.42 159.52,188.67 159.52,200.07 z " transform="matrix(1.2260274,0,0,1.2260274,-33.086787,-49.605282)" style="fill:#cc0000;fill-opacity:1" id="path4330" />
		<path d="M 95.46,188.05 C 95.46,200.3 85.51,210.25 73.26,210.25 C 61,210.25 51.05,200.3 51.05,188.05 C 51.05,175.79 61,165.85 73.26,165.85 C 85.51,165.85 95.46,175.79 95.46,188.05 z " style="fill:#ff850c;fill-opacity:1" id="path4333" />
		<path d="M 45.25,147.74 C 45.25,158.83 36.26,167.83 25.17,167.83 C 14.09,167.83 5.09,158.83 5.09,147.74 C 5.09,136.66 14.09,127.66 25.17,127.66 C 36.26,127.66 45.25,136.66 45.25,147.74 z " style="fill:#fac521;fill-opacity:1" id="path4335" />
		<path d="M 36.06,91.6 C 36.06,101.51 28.02,109.56 18.1,109.56 C 8.19,109.56 0.14,101.51 0.14,91.6 C 0.14,81.69 8.19,73.64 18.1,73.64 C 28.02,73.64 36.06,81.69 36.06,91.6 z " style="fill:#b5bd14;fill-opacity:1" id="path4337" />
		<path d="M 61.09,41.11 C 61.09,49.54 54.25,56.39 45.82,56.39 C 37.39,56.39 30.55,49.54 30.55,41.11 C 30.55,32.68 37.39,25.84 45.82,25.84 C 54.25,25.84 61.09,32.68 61.09,41.11 z " style="fill:#007f91;fill-opacity:1" id="path4339" />
		<path d="M 104.09,18.95 C 104.09,26.44 98,32.53 90.51,32.53 C 83.02,32.53 76.93,26.44 76.93,18.95 C 76.93,11.46 83.02,5.37 90.51,5.37 C 98,5.37 104.09,11.46 104.09,18.95 z " style="fill:#0099d7;fill-opacity:1" id="path4341" />
		<path d="M 149.48,11.82 C 149.48,18.14 144.35,23.28 138.03,23.28 C 131.7,23.28 126.57,18.14 126.57,11.82 C 126.57,5.5 131.7,0.37 138.03,0.37 C 144.35,0.37 149.48,5.5 149.48,11.82 z " style="fill:#7a82ba;fill-opacity:1" id="path4343" />
	</g>
	<path 	d="M 236.85,124.1 C 245.93,124.1 248.81,115.13 248.81,107.53 C 248.81,99.93 245.93,90.85 236.85,90.85 C 227.76,90.85 224.99,99.93 224.99,107.53 C 224.99,115.13 227.76,124.1 236.85,124.1 M 236.85,75.88 C 255.37,75.88 268.38,89.58 268.38,107.53 C 268.38,125.48 255.37,139.06 236.85,139.06 C 218.32,139.06 205.42,125.48 205.42,107.53 C 205.42,89.58 218.32,75.88 236.85,75.88 z M 284.2,117.66 C 284.2,120.65 285.46,122.84 287.41,124.33 C 289.26,125.72 291.9,126.4 294.67,126.4 C 298.46,126.4 303.87,124.79 303.87,120.07 C 303.87,115.47 297.77,114.55 294.32,113.74 C 282.01,110.64 266.58,110.29 266.58,94.18 C 266.58,79.79 282.11,75.88 293.86,75.88 C 306.98,75.88 320.67,79.68 321.36,95.22 L 303.3,95.22 C 303.3,92.68 302.38,91.08 300.77,90.04 C 299.15,89 296.97,88.54 294.55,88.54 C 291.32,88.54 286.15,88.88 286.15,93.03 C 286.15,98.67 299.27,99.7 308.24,101.66 C 320.33,104.08 323.44,112.82 323.44,117.77 C 323.44,133.77 308.24,139.06 294.78,139.06 C 280.63,139.06 266.13,134.35 265.55,117.66 L 284.2,117.66 L 284.2,117.66 z M 341.39,117.66 C 341.39,120.65 342.66,122.84 344.62,124.33 C 346.46,125.72 349.11,126.4 351.87,126.4 C 355.66,126.4 361.07,124.79 361.07,120.07 C 361.07,115.47 354.97,114.55 351.52,113.74 C 339.21,110.64 323.79,110.29 323.79,94.18 C 323.79,79.79 339.33,75.88 351.06,75.88 C 364.18,75.88 377.88,79.68 378.57,95.22 L 360.5,95.22 C 360.5,92.68 359.58,91.08 357.97,90.04 C 356.35,89 354.17,88.54 351.75,88.54 C 348.53,88.54 343.36,88.88 343.36,93.03 C 343.36,98.67 356.47,99.7 365.45,101.66 C 377.53,104.08 380.64,112.82 380.64,117.77 C 380.64,133.77 365.45,139.06 351.99,139.06 C 337.83,139.06 323.33,134.35 322.75,117.66 L 341.39,117.66 L 341.39,117.66 z M 216.86,179.4 C 216.57,179.49 216.26,179.57 215.93,179.63 C 215.6,179.7 215.25,179.75 214.88,179.79 C 214.52,179.84 214.15,179.89 213.79,179.95 C 213.45,180.02 213.11,180.1 212.77,180.21 C 212.44,180.31 212.15,180.46 211.91,180.64 C 211.66,180.82 211.46,181.05 211.31,181.32 C 211.16,181.6 211.09,181.95 211.09,182.37 C 211.09,182.77 211.16,183.11 211.31,183.39 C 211.46,183.67 211.66,183.88 211.92,184.04 C 212.18,184.2 212.48,184.31 212.82,184.38 C 213.17,184.44 213.52,184.47 213.88,184.47 C 214.79,184.47 215.48,184.32 215.98,184.02 C 216.47,183.73 216.83,183.37 217.07,182.96 C 217.31,182.55 217.45,182.13 217.51,181.7 C 217.56,181.28 217.59,180.94 217.59,180.69 L 217.59,179 C 217.39,179.17 217.15,179.3 216.86,179.4 M 207.88,173.02 C 208.35,172.32 208.95,171.76 209.67,171.33 C 210.39,170.91 211.21,170.61 212.11,170.43 C 213.02,170.25 213.93,170.16 214.84,170.16 C 215.67,170.16 216.51,170.22 217.36,170.33 C 218.21,170.45 218.99,170.68 219.69,171.02 C 220.39,171.36 220.97,171.83 221.41,172.44 C 221.86,173.04 222.09,173.84 222.09,174.84 L 222.09,183.4 C 222.09,184.14 222.13,184.85 222.21,185.53 C 222.3,186.21 222.45,186.72 222.66,187.06 L 218.09,187.03 C 218.01,186.78 217.93,186.52 217.88,186.26 C 217.83,186 217.79,185.73 217.77,185.46 C 217.05,186.2 216.2,186.73 215.22,187.02 C 214.24,187.32 213.24,187.47 212.21,187.47 C 211.42,187.47 210.69,187.38 210.01,187.19 C 209.32,186.99 208.73,186.7 208.22,186.29 C 207.7,185.89 207.31,185.38 207.02,184.76 C 206.73,184.15 206.59,183.41 206.59,182.56 C 206.59,181.63 206.75,180.86 207.08,180.25 C 207.41,179.65 207.84,179.16 208.36,178.8 C 208.88,178.44 209.48,178.17 210.15,177.99 C 210.82,177.81 211.5,177.67 212.18,177.56 C 212.86,177.45 213.54,177.36 214.2,177.3 C 214.86,177.24 215.44,177.14 215.95,177.02 C 216.47,176.89 216.87,176.7 217.17,176.46 C 217.47,176.21 217.61,175.86 217.59,175.39 C 217.59,174.9 217.51,174.51 217.35,174.23 C 217.18,173.94 216.97,173.72 216.7,173.56 C 216.43,173.4 216.12,173.29 215.76,173.24 C 215.41,173.19 215.02,173.16 214.62,173.16 C 213.72,173.16 213.01,173.35 212.49,173.74 C 211.97,174.12 211.67,174.76 211.59,175.66 L 207.09,175.66 C 207.15,174.6 207.41,173.72 207.88,173.02 z M 244.6,176.8 C 244.47,176.18 244.25,175.62 243.94,175.15 C 243.63,174.67 243.24,174.28 242.75,173.98 C 242.26,173.68 241.65,173.53 240.9,173.53 C 240.16,173.53 239.53,173.68 239.02,173.98 C 238.51,174.28 238.1,174.67 237.79,175.16 C 237.48,175.65 237.26,176.21 237.12,176.84 C 236.98,177.46 236.91,178.12 236.91,178.8 C 236.91,179.44 236.99,180.08 237.14,180.71 C 237.29,181.35 237.52,181.92 237.86,182.42 C 238.18,182.92 238.6,183.33 239.1,183.63 C 239.6,183.94 240.2,184.1 240.9,184.1 C 241.65,184.1 242.27,183.95 242.77,183.65 C 243.26,183.35 243.66,182.95 243.96,182.45 C 244.26,181.95 244.47,181.38 244.6,180.74 C 244.72,180.11 244.79,179.45 244.79,178.77 C 244.79,178.09 244.72,177.43 244.6,176.8 M 244.79,184.96 C 244.26,185.85 243.56,186.49 242.7,186.88 C 241.85,187.27 240.88,187.47 239.79,187.47 C 238.56,187.47 237.48,187.23 236.55,186.76 C 235.62,186.28 234.85,185.63 234.24,184.81 C 233.64,184 233.18,183.06 232.88,182 C 232.57,180.94 232.41,179.83 232.41,178.69 C 232.41,177.58 232.57,176.52 232.88,175.49 C 233.18,174.46 233.64,173.55 234.24,172.77 C 234.84,171.98 235.6,171.35 236.51,170.87 C 237.42,170.4 238.48,170.16 239.68,170.16 C 240.66,170.16 241.58,170.36 242.46,170.77 C 243.34,171.19 244.03,171.79 244.54,172.59 L 244.6,172.59 L 244.6,164.35 L 249.16,164.35 L 249.16,187.06 L 244.85,187.06 L 244.85,184.96 L 244.79,184.96 z M 256.11,170.59 L 256.11,187.03 L 251.61,187.03 L 251.61,170.59 L 256.11,170.59 M 251.61,168.03 L 251.61,164.28 L 256.11,164.28 L 256.11,168.03 L 251.61,168.03 z M 263.1,187.03 L 257.47,170.6 L 262.21,170.6 L 265.67,181.82 L 265.74,181.82 L 269.2,170.6 L 273.69,170.6 L 268.13,187.03 L 263.1,187.03 L 263.1,187.03 z M 279.59,170.59 L 279.59,187.03 L 275.09,187.03 L 275.09,170.59 L 279.59,170.59 M 275.09,168.03 L 275.09,164.28 L 279.59,164.28 L 279.59,168.03 L 275.09,168.03 z M 286.33,182.97 C 286.54,183.32 286.8,183.6 287.11,183.82 C 287.43,184.04 287.8,184.21 288.22,184.31 C 288.63,184.42 289.06,184.47 289.51,184.47 C 289.82,184.47 290.16,184.44 290.51,184.36 C 290.86,184.29 291.18,184.17 291.47,184.01 C 291.75,183.85 291.99,183.64 292.18,183.37 C 292.38,183.11 292.47,182.77 292.47,182.37 C 292.47,181.69 292.02,181.19 291.11,180.85 C 290.21,180.51 288.95,180.17 287.33,179.83 C 286.67,179.68 286.02,179.51 285.4,179.3 C 284.77,179.1 284.21,178.84 283.72,178.51 C 283.23,178.18 282.84,177.77 282.54,177.27 C 282.24,176.77 282.1,176.16 282.1,175.44 C 282.1,174.38 282.3,173.51 282.72,172.83 C 283.13,172.15 283.68,171.62 284.36,171.22 C 285.04,170.83 285.8,170.56 286.65,170.4 C 287.5,170.24 288.37,170.16 289.27,170.16 C 290.16,170.16 291.02,170.24 291.86,170.41 C 292.7,170.58 293.45,170.87 294.11,171.27 C 294.77,171.67 295.31,172.21 295.75,172.88 C 296.18,173.55 296.45,174.39 296.53,175.41 L 292.22,175.41 C 292.15,174.53 291.82,173.94 291.23,173.63 C 290.63,173.31 289.93,173.16 289.12,173.16 C 288.86,173.16 288.59,173.17 288.29,173.2 C 287.99,173.24 287.72,173.31 287.47,173.41 C 287.23,173.52 287.02,173.67 286.85,173.88 C 286.68,174.08 286.6,174.35 286.6,174.69 C 286.6,175.09 286.74,175.42 287.04,175.68 C 287.34,175.93 287.73,176.14 288.2,176.3 C 288.68,176.46 289.23,176.6 289.85,176.73 C 290.47,176.86 291.1,176.99 291.74,177.14 C 292.39,177.29 293.04,177.47 293.66,177.69 C 294.29,177.9 294.85,178.18 295.34,178.53 C 295.83,178.88 296.22,179.32 296.52,179.84 C 296.82,180.36 296.97,181 296.97,181.76 C 296.97,182.85 296.75,183.76 296.32,184.49 C 295.88,185.22 295.31,185.81 294.61,186.26 C 293.91,186.7 293.11,187.02 292.21,187.2 C 291.31,187.38 290.39,187.47 289.45,187.47 C 288.5,187.47 287.57,187.38 286.65,187.19 C 285.74,186.99 284.93,186.68 284.22,186.23 C 283.51,185.79 282.92,185.2 282.47,184.47 C 282.01,183.74 281.76,182.82 281.72,181.72 L 286.03,181.72 C 286.03,182.2 286.13,182.62 286.33,182.97 L 286.33,182.97 z M 303.6,170.59 L 303.6,187.03 L 299.1,187.03 L 299.1,170.59 L 303.6,170.59 M 299.1,168.03 L 299.1,164.28 L 303.6,164.28 L 303.6,168.03 L 299.1,168.03 z M 310.61,180.76 C 310.74,181.39 310.96,181.95 311.27,182.45 C 311.58,182.95 312,183.35 312.51,183.65 C 313.02,183.95 313.66,184.1 314.44,184.1 C 315.21,184.1 315.86,183.95 316.38,183.65 C 316.9,183.35 317.32,182.95 317.63,182.45 C 317.94,181.95 318.16,181.39 318.29,180.76 C 318.42,180.13 318.49,179.49 318.49,178.83 C 318.49,178.17 318.42,177.52 318.29,176.88 C 318.16,176.25 317.94,175.68 317.63,175.19 C 317.32,174.7 316.9,174.31 316.38,174 C 315.86,173.69 315.21,173.53 314.44,173.53 C 313.66,173.53 313.02,173.69 312.51,174 C 312,174.31 311.58,174.7 311.27,175.19 C 310.96,175.68 310.74,176.25 310.61,176.88 C 310.49,177.52 310.42,178.17 310.42,178.83 C 310.42,179.49 310.49,180.13 310.61,180.76 M 306.53,175.27 C 306.93,174.2 307.51,173.28 308.25,172.53 C 308.99,171.77 309.89,171.19 310.93,170.78 C 311.97,170.36 313.14,170.16 314.44,170.16 C 315.74,170.16 316.91,170.36 317.96,170.78 C 319.01,171.19 319.91,171.77 320.66,172.53 C 321.4,173.28 321.97,174.2 322.38,175.27 C 322.78,176.34 322.99,177.53 322.99,178.85 C 322.99,180.16 322.78,181.35 322.38,182.41 C 321.97,183.47 321.4,184.38 320.66,185.13 C 319.91,185.88 319.01,186.46 317.96,186.86 C 316.91,187.27 315.74,187.47 314.44,187.47 C 313.14,187.47 311.97,187.27 310.93,186.86 C 309.89,186.46 308.99,185.88 308.25,185.13 C 307.51,184.38 306.93,183.47 306.53,182.41 C 306.12,181.35 305.92,180.16 305.92,178.85 C 305.92,177.53 306.12,176.34 306.53,175.27 z M 329.6,170.6 L 329.6,172.89 L 329.69,172.89 C 330.26,171.94 331.01,171.24 331.92,170.81 C 332.83,170.38 333.76,170.16 334.72,170.16 C 335.92,170.16 336.91,170.32 337.69,170.65 C 338.46,170.98 339.07,171.44 339.51,172.02 C 339.96,172.6 340.27,173.31 340.45,174.15 C 340.63,174.98 340.72,175.91 340.72,176.93 L 340.72,187.03 L 336.22,187.03 L 336.22,177.76 C 336.22,176.4 336.01,175.39 335.59,174.72 C 335.16,174.06 334.41,173.72 333.34,173.72 C 332.11,173.72 331.22,174.09 330.67,174.82 C 330.12,175.55 329.85,176.75 329.85,178.42 L 329.85,187.03 L 325.29,187.03 L 325.29,170.6 L 329.6,170.6 L 329.6,170.6 z M 355.91,180.76 C 356.04,181.39 356.26,181.95 356.57,182.45 C 356.88,182.95 357.29,183.35 357.81,183.65 C 358.32,183.95 358.96,184.1 359.74,184.1 C 360.51,184.1 361.15,183.95 361.68,183.65 C 362.2,183.35 362.62,182.95 362.93,182.45 C 363.24,181.95 363.46,181.39 363.59,180.76 C 363.72,180.13 363.78,179.49 363.78,178.83 C 363.78,178.17 363.72,177.52 363.59,176.88 C 363.46,176.25 363.24,175.68 362.93,175.19 C 362.62,174.7 362.2,174.31 361.68,174 C 361.15,173.69 360.51,173.53 359.74,173.53 C 358.96,173.53 358.32,173.69 357.81,174 C 357.29,174.31 356.88,174.7 356.57,175.19 C 356.26,175.68 356.04,176.25 355.91,176.88 C 355.78,177.52 355.72,178.17 355.72,178.83 C 355.72,179.49 355.78,180.13 355.91,180.76 M 351.82,175.27 C 352.23,174.2 352.8,173.28 353.55,172.53 C 354.29,171.77 355.18,171.19 356.22,170.78 C 357.27,170.36 358.44,170.16 359.74,170.16 C 361.03,170.16 362.2,170.36 363.26,170.78 C 364.31,171.19 365.21,171.77 365.95,172.53 C 366.7,173.28 367.27,174.2 367.67,175.27 C 368.08,176.34 368.28,177.53 368.28,178.85 C 368.28,180.16 368.08,181.35 367.67,182.41 C 367.27,183.47 366.7,184.38 365.95,185.13 C 365.21,185.88 364.31,186.46 363.26,186.86 C 362.2,187.27 361.03,187.47 359.74,187.47 C 358.44,187.47 357.27,187.27 356.22,186.86 C 355.18,186.46 354.29,185.88 353.55,185.13 C 352.8,184.38 352.23,183.47 351.82,182.41 C 351.42,181.35 351.22,180.16 351.22,178.85 C 351.22,177.53 351.42,176.34 351.82,175.27 z M 368.81,173.6 L 368.81,170.6 L 371.52,170.6 L 371.52,169.33 C 371.52,167.87 371.97,166.67 372.88,165.74 C 373.79,164.81 375.16,164.35 377.01,164.35 C 377.41,164.35 377.81,164.36 378.21,164.39 C 378.61,164.42 379.01,164.45 379.39,164.47 L 379.39,167.85 C 378.86,167.76 378.31,167.72 377.74,167.72 C 377.12,167.72 376.68,167.86 376.41,168.15 C 376.15,168.44 376.02,168.92 376.02,169.61 L 376.02,170.6 L 379.13,170.6 L 379.13,173.6 L 376.02,173.6 L 376.02,187.03 L 371.52,187.03 L 371.52,173.6 L 368.81,173.6 L 368.81,173.6 z " style="fill:#9ea3a6;fill-rule:nonzero;stroke:none" id="path2337" />
	<path d="M 134.82,111.33 C 134.82,129.75 125.38,139.06 106.05,139.06 C 84.3,139.06 77.27,126.52 77.27,108.22 L 77.27,104.65 L 97.42,104.65 L 97.42,112.25 C 97.42,117.66 100.41,120.65 105.7,120.65 C 110.65,120.65 113.41,117.89 113.41,109.95 L 113.41,55.17 L 134.82,55.17 L 134.82,111.33 L 134.82,111.33 z M 156.02,120.19 L 173.16,120.19 C 179.95,120.19 184.67,117.77 184.67,110.98 C 184.67,103.74 179.61,101.31 173.16,101.31 L 156.02,101.31 L 156.02,120.19 M 156.02,87.51 L 172.59,87.51 C 176.27,87.51 181.34,85.55 181.34,79.68 C 181.34,73.7 177.07,71.74 172.59,71.74 L 156.02,71.74 L 156.02,87.51 M 134.61,55.17 L 173.05,55.17 C 187.2,54.93 202.74,58.62 202.74,75.77 C 202.74,83.13 198.36,89.12 191.92,92.34 C 200.66,94.87 206.07,102.46 206.07,111.79 C 206.07,131.35 191.69,137.34 174.08,137.34 L 134.61,137.34 L 134.61,55.17 z M 399.67,174.6 C 400.82,174.6 401.68,174.34 402.26,173.83 C 402.83,173.33 403.12,172.5 403.12,171.36 C 403.12,170.26 402.83,169.46 402.26,168.97 C 401.68,168.47 400.82,168.22 399.67,168.22 L 394.18,168.22 L 394.18,174.6 L 399.67,174.6 M 401.45,164.35 C 402.47,164.35 403.4,164.51 404.21,164.84 C 405.03,165.17 405.73,165.61 406.32,166.19 C 406.9,166.76 407.35,167.42 407.65,168.17 C 407.96,168.92 408.12,169.73 408.12,170.6 C 408.12,171.93 407.84,173.09 407.27,174.06 C 406.71,175.03 405.79,175.77 404.52,176.28 L 404.52,176.35 C 405.13,176.51 405.64,176.77 406.04,177.13 C 406.45,177.47 406.78,177.89 407.03,178.36 C 407.29,178.84 407.47,179.37 407.59,179.94 C 407.7,180.51 407.79,181.08 407.83,181.66 C 407.85,182.02 407.87,182.44 407.89,182.93 C 407.91,183.42 407.95,183.92 408,184.42 C 408.06,184.94 408.14,185.42 408.26,185.87 C 408.38,186.33 408.55,186.72 408.78,187.03 L 403.79,187.03 C 403.51,186.31 403.34,185.45 403.28,184.46 C 403.22,183.46 403.12,182.51 402.99,181.6 C 402.82,180.41 402.46,179.54 401.91,178.99 C 401.35,178.44 400.45,178.16 399.19,178.16 L 394.18,178.16 L 394.18,187.03 L 389.18,187.03 L 389.18,164.35 L 401.45,164.35 z M 420.44,174.42 C 419.9,173.83 419.07,173.53 417.97,173.53 C 417.25,173.53 416.65,173.65 416.18,173.9 C 415.7,174.14 415.32,174.45 415.03,174.81 C 414.74,175.17 414.54,175.55 414.43,175.95 C 414.31,176.35 414.24,176.72 414.22,177.03 L 421.57,177.03 C 421.36,175.89 420.98,175.02 420.44,174.42 M 415.33,183.11 C 416.01,183.77 416.99,184.1 418.26,184.1 C 419.17,184.1 419.95,183.87 420.61,183.42 C 421.27,182.96 421.67,182.48 421.82,181.97 L 425.8,181.97 C 425.16,183.94 424.19,185.35 422.87,186.2 C 421.56,187.05 419.97,187.47 418.1,187.47 C 416.81,187.47 415.64,187.26 414.6,186.85 C 413.56,186.44 412.69,185.85 411.97,185.08 C 411.25,184.32 410.7,183.41 410.31,182.35 C 409.91,181.29 409.72,180.12 409.72,178.85 C 409.72,177.61 409.92,176.47 410.32,175.41 C 410.72,174.35 411.29,173.43 412.03,172.66 C 412.77,171.88 413.66,171.27 414.68,170.83 C 415.71,170.38 416.85,170.16 418.1,170.16 C 419.5,170.16 420.72,170.43 421.76,170.97 C 422.8,171.51 423.65,172.23 424.32,173.14 C 424.99,174.05 425.47,175.09 425.77,176.26 C 426.06,177.42 426.17,178.64 426.09,179.91 L 414.22,179.91 C 414.28,181.38 414.65,182.45 415.33,183.11 z M 440.57,176.8 C 440.45,176.18 440.23,175.62 439.92,175.15 C 439.61,174.67 439.21,174.28 438.72,173.98 C 438.24,173.68 437.62,173.53 436.88,173.53 C 436.13,173.53 435.51,173.68 434.99,173.98 C 434.49,174.28 434.07,174.67 433.77,175.16 C 433.46,175.65 433.24,176.21 433.1,176.84 C 432.96,177.46 432.89,178.12 432.89,178.8 C 432.89,179.44 432.97,180.08 433.11,180.71 C 433.26,181.35 433.5,181.92 433.83,182.42 C 434.16,182.92 434.57,183.33 435.07,183.63 C 435.57,183.94 436.17,184.1 436.88,184.1 C 437.62,184.1 438.24,183.95 438.74,183.65 C 439.24,183.35 439.64,182.95 439.93,182.45 C 440.23,181.95 440.45,181.38 440.57,180.74 C 440.7,180.11 440.77,179.45 440.77,178.77 C 440.77,178.09 440.7,177.43 440.57,176.8 M 440.77,184.96 C 440.24,185.85 439.54,186.49 438.68,186.88 C 437.82,187.27 436.85,187.47 435.77,187.47 C 434.54,187.47 433.46,187.23 432.52,186.76 C 431.59,186.28 430.82,185.63 430.22,184.81 C 429.61,184 429.16,183.06 428.85,182 C 428.54,180.94 428.39,179.83 428.39,178.69 C 428.39,177.58 428.54,176.52 428.85,175.49 C 429.16,174.46 429.61,173.55 430.22,172.77 C 430.82,171.98 431.57,171.35 432.49,170.87 C 433.4,170.4 434.45,170.16 435.66,170.16 C 436.63,170.16 437.56,170.36 438.43,170.77 C 439.31,171.19 440.01,171.79 440.52,172.59 L 440.58,172.59 L 440.58,164.35 L 445.14,164.35 L 445.14,187.06 L 440.83,187.06 L 440.83,184.96 L 440.77,184.96 z M 461.58,164.35 L 461.58,173.03 L 470.77,173.03 L 470.77,164.35 L 475.77,164.35 L 475.77,187.03 L 470.77,187.03 L 470.77,177.22 L 461.58,177.22 L 461.58,187.03 L 456.58,187.03 L 456.58,164.35 L 461.58,164.35 L 461.58,164.35 z M 488.61,179.4 C 488.32,179.49 488.01,179.57 487.67,179.63 C 487.34,179.7 486.99,179.75 486.63,179.79 C 486.26,179.84 485.9,179.89 485.53,179.95 C 485.19,180.02 484.85,180.1 484.52,180.21 C 484.19,180.31 483.9,180.46 483.65,180.64 C 483.4,180.82 483.2,181.05 483.06,181.32 C 482.9,181.6 482.83,181.95 482.83,182.37 C 482.83,182.77 482.9,183.11 483.06,183.39 C 483.2,183.67 483.41,183.88 483.67,184.04 C 483.92,184.2 484.22,184.31 484.57,184.38 C 484.91,184.44 485.27,184.47 485.63,184.47 C 486.53,184.47 487.23,184.32 487.72,184.02 C 488.22,183.73 488.58,183.37 488.81,182.96 C 489.05,182.55 489.2,182.13 489.25,181.7 C 489.3,181.28 489.33,180.94 489.33,180.69 L 489.33,179 C 489.14,179.17 488.9,179.3 488.61,179.4 M 479.63,173.02 C 480.1,172.32 480.69,171.76 481.41,171.33 C 482.14,170.91 482.95,170.61 483.86,170.43 C 484.76,170.25 485.67,170.16 486.59,170.16 C 487.41,170.16 488.26,170.22 489.11,170.33 C 489.96,170.45 490.74,170.68 491.43,171.02 C 492.14,171.36 492.71,171.83 493.16,172.44 C 493.61,173.04 493.83,173.84 493.83,174.84 L 493.83,183.4 C 493.83,184.14 493.87,184.85 493.96,185.53 C 494.04,186.21 494.19,186.72 494.4,187.06 L 489.84,187.03 C 489.75,186.78 489.68,186.52 489.63,186.26 C 489.57,186 489.54,185.73 489.52,185.46 C 488.79,186.2 487.94,186.73 486.96,187.02 C 485.98,187.32 484.98,187.47 483.96,187.47 C 483.17,187.47 482.43,187.38 481.75,187.19 C 481.07,186.99 480.47,186.7 479.96,186.29 C 479.45,185.89 479.05,185.38 478.76,184.76 C 478.47,184.15 478.33,183.41 478.33,182.56 C 478.33,181.63 478.5,180.86 478.82,180.25 C 479.16,179.65 479.58,179.16 480.11,178.8 C 480.63,178.44 481.22,178.17 481.9,177.99 C 482.57,177.81 483.24,177.67 483.93,177.56 C 484.61,177.45 485.28,177.36 485.94,177.3 C 486.6,177.24 487.19,177.14 487.7,177.02 C 488.21,176.89 488.61,176.7 488.91,176.46 C 489.21,176.21 489.35,175.86 489.33,175.39 C 489.33,174.9 489.25,174.51 489.09,174.23 C 488.93,173.94 488.71,173.72 488.44,173.56 C 488.17,173.4 487.86,173.29 487.51,173.24 C 487.15,173.19 486.77,173.16 486.36,173.16 C 485.46,173.16 484.75,173.35 484.24,173.74 C 483.72,174.12 483.42,174.76 483.33,175.66 L 478.83,175.66 C 478.9,174.6 479.16,173.72 479.63,173.02 z M 506.05,170.6 L 506.05,173.6 L 502.74,173.6 L 502.74,181.75 C 502.74,182.51 502.87,183.02 503.12,183.27 C 503.38,183.53 503.88,183.66 504.65,183.66 C 504.9,183.66 505.15,183.65 505.38,183.63 C 505.61,183.61 505.84,183.58 506.05,183.53 L 506.05,187.03 C 505.67,187.11 505.24,187.16 504.77,187.19 C 504.31,187.21 503.85,187.22 503.41,187.22 C 502.71,187.22 502.05,187.17 501.43,187.08 C 500.8,186.98 500.25,186.79 499.78,186.52 C 499.3,186.24 498.93,185.85 498.65,185.34 C 498.38,184.83 498.24,184.16 498.24,183.33 L 498.24,173.6 L 495.51,173.6 L 495.51,170.6 L 498.24,170.6 L 498.24,165.66 L 502.74,165.66 L 502.74,170.6 L 506.05,170.6 L 506.05,170.6 z " style="fill:#cc0000;fill-rule:nonzero;stroke:none" id="logotype" />
	<path d="M 388.07,59.04 L 388.07,62 L 389.39,62 C 390.18,62 390.72,61.89 391.03,61.67 C 391.34,61.44 391.5,61.06 391.5,60.53 C 391.5,59.99 391.34,59.6 391.03,59.39 C 390.71,59.15 390.73,59.04 389.95,59.04 M 389.46,57.94 C 390.72,57.94 391.67,58.15 392.28,58.58 C 392.9,59 393.22,59.64 393.22,60.5 C 393.22,61.12 393.03,61.63 392.65,62.03 C 392.27,62.43 391.75,62.69 391.06,62.81 C 391.23,62.87 391.43,63.04 391.67,63.32 C 391.92,63.59 392.2,63.99 392.53,64.51 L 394,66.9 L 392.16,66.9 L 390.77,64.66 C 390.35,63.97 390.01,63.54 389.74,63.36 C 389.48,63.18 389.16,63.08 388.78,63.08 L 388.07,63.08 L 388.07,66.9 L 386.41,66.9 L 386.41,57.94 M 389.91,55.02 C 385.8,55.02 382.46,58.37 382.46,62.47 C 382.46,66.58 385.8,69.92 389.91,69.92 C 394.01,69.92 397.36,66.58 397.36,62.47 C 397.36,58.37 394.01,55.02 389.91,55.02 z M 389.91,56.4 C 393.27,56.4 396,59.11 396,62.47 C 396,65.83 393.27,68.57 389.91,68.57 C 386.55,68.57 383.83,65.83 383.83,62.47 C 383.83,59.11 386.55,56.4 389.91,56.4 z " style="font-size:31.38881302px;fill:#9ea3a6;fill-opacity:1;font-family:DejaVu Sans" id="registration" />
	</g>
</svg>
