<?xml version="1.0" encoding="UTF-8" standalone="no"?>
<!-- Created with Inkscape (http://www.inkscape.org/) -->
<svg
   xmlns:svg="http://www.w3.org/2000/svg"
   xmlns="http://www.w3.org/2000/svg"
   version="1.0"
   width="48"
   height="48"
   id="svg2">
  <defs
     id="defs5" />
  <path
     d="M 26.553837,7.3026447 C 25.283816,5.0882437 23.199663,5.0882437 21.945919,7.3026447 L 3.9376032,38.711367 C 2.6675727,40.925778 3.7259346,42.749404 6.2822626,42.749404 L 42.217493,42.749404 C 44.77383,42.749404 45.832183,40.925778 44.545876,38.711367 L 26.553837,7.3026447 z "
     style="fill:#2e3436;fill-opacity:1;stroke:#2e3436;stroke-width:4.7150631;stroke-miterlimit:4;stroke-dasharray:none"
     id="use2812" />
  <path
     d="M 26.553837,7.3026447 C 25.283816,5.0882437 23.199663,5.0882437 21.945919,7.3026447 L 3.9376032,38.711367 C 2.6675727,40.925778 3.7259346,42.749404 6.2822626,42.749404 L 42.217493,42.749404 C 44.77383,42.749404 45.832183,40.925778 44.545876,38.711367 L 26.553837,7.3026447 z "
     style="fill:#fde8a6;fill-opacity:1;stroke-width:4;stroke-miterlimit:4;stroke-dasharray:none"
     id="path4309" />
  <path
     d="M 26.220057,12.491166 C 25.133792,10.597163 23.351196,10.597163 22.278859,12.491166 L 6.8761436,39.355379 C 5.789878,41.249382 6.6951041,42.809153 8.8815542,42.809153 L 39.617353,42.809153 C 41.803812,42.809153 42.709038,41.249382 41.608844,39.355379 L 26.220057,12.491166 z "
     style="fill:#fac521;fill-opacity:1"
     id="path2991" />
  <path
     d="M 28.470282,37.445157 C 28.470282,38.878008 27.2491,39.952646 25.392902,39.952646 L 25.36034,39.952646 C 23.520438,39.952646 22.282969,38.878008 22.282969,37.445157 C 22.282969,35.947181 23.553,34.921391 25.392902,34.921391 C 27.216538,34.921391 28.437711,35.947181 28.470282,37.445157 z M 28.144632,33.146613 L 29.21927,19.990446 L 21.517696,19.990446 L 22.592334,33.146613 L 28.144632,33.146613 z "
     style="fill:#fef2cb;fill-opacity:1;stroke:#fef2cb;stroke-width:0.9430126;stroke-linecap:round;stroke-linejoin:round;stroke-opacity:1"
     id="path4468" />
  <path
     d="M 27.089325,36.371084 C 27.089325,37.803935 25.868143,38.878574 24.011955,38.878574 L 23.979392,38.878574 C 22.139481,38.878574 20.902022,37.803935 20.902022,36.371084 C 20.902022,34.873109 22.172043,33.847319 24.011955,33.847319 C 25.835581,33.847319 27.056763,34.873109 27.089325,36.371084 z M 26.763675,32.072531 L 27.838313,18.916364 L 20.136748,18.916364 L 21.211386,32.072531 L 26.763675,32.072531 z "
     style="fill:#2e3436"
     id="path4470" />
</svg>
