<?xml version="1.0" encoding="utf-8"?>
<!-- Generator: Adobe Illustrator 12.0.1, SVG Export Plug-In  -->
<!DOCTYPE svg PUBLIC "-//W3C//DTD SVG 1.1//EN" "http://www.w3.org/Graphics/SVG/1.1/DTD/svg11.dtd" [
	<!ENTITY ns_flows "http://ns.adobe.com/Flows/1.0/">
	<!ENTITY ns_svg "http://www.w3.org/2000/svg">
	<!ENTITY ns_xlink "http://www.w3.org/1999/xlink">
]>
<svg  version="1.1" xmlns="&ns_svg;" xmlns:xlink="&ns_xlink;" xmlns:a="http://ns.adobe.com/AdobeSVGViewerExtensions/3.0/"
	 width="17" height="16" viewBox="-0.75 -0.058 17 16" enable-background="new -0.75 -0.058 17 16" xml:space="preserve">
<defs>
</defs>
<g>
	<defs>
		<circle id="XMLID_6_" cx="7.859" cy="7.858" r="7.484"/>
	</defs>
	<clipPath id="XMLID_9_">
		<use xlink:href="#XMLID_6_" />
	</clipPath>
	<polygon clip-path="url(#XMLID_9_)" fill="#CBD2D8" points="0.375,10.841 4.645,15.341 0.375,15.341 	"/>
	<polygon clip-path="url(#XMLID_9_)" fill="#CBD2D8" points="4.797,15.341 0.375,10.681 0.375,10.841 4.645,15.341 	"/>
	<polygon clip-path="url(#XMLID_9_)" fill="#C9D0D5" points="4.953,15.341 0.375,10.521 0.375,10.681 4.797,15.341 	"/>
	<polygon clip-path="url(#XMLID_9_)" fill="#C6CDD3" points="0.375,10.356 5.105,15.341 4.953,15.341 0.375,10.521 	"/>
	<polygon clip-path="url(#XMLID_9_)" fill="#C5CCD2" points="0.375,10.196 5.258,15.341 5.105,15.341 0.375,10.356 	"/>
	<polygon clip-path="url(#XMLID_9_)" fill="#C3C9D0" points="0.375,10.036 5.414,15.341 5.258,15.341 0.375,10.196 	"/>
	<polygon clip-path="url(#XMLID_9_)" fill="#C1C8CE" points="0.375,9.872 5.562,15.341 5.414,15.341 0.375,10.036 	"/>
	<polygon clip-path="url(#XMLID_9_)" fill="#BFC5CC" points="0.375,9.708 5.719,15.341 5.562,15.341 0.375,9.872 	"/>
	<polygon clip-path="url(#XMLID_9_)" fill="#BEC4CB" points="5.871,15.341 0.375,9.548 0.375,9.708 5.719,15.341 	"/>
	<polygon clip-path="url(#XMLID_9_)" fill="#BBC2C9" points="0.375,9.388 6.023,15.341 5.871,15.341 0.375,9.548 	"/>
	<polygon clip-path="url(#XMLID_9_)" fill="#BAC0C8" points="0.375,9.224 6.18,15.341 6.023,15.341 0.375,9.388 	"/>
	<polygon clip-path="url(#XMLID_9_)" fill="#B7BEC6" points="6.332,15.341 0.375,9.063 0.375,9.224 6.18,15.341 	"/>
	<polygon clip-path="url(#XMLID_9_)" fill="#B6BDC5" points="0.375,8.903 6.484,15.341 6.332,15.341 0.375,9.063 	"/>
	<polygon clip-path="url(#XMLID_9_)" fill="#B5BBC3" points="0.375,8.739 6.641,15.341 6.484,15.341 0.375,8.903 	"/>
	<polygon clip-path="url(#XMLID_9_)" fill="#B3BAC2" points="0.375,8.579 6.793,15.341 6.641,15.341 0.375,8.739 	"/>
	<polygon clip-path="url(#XMLID_9_)" fill="#B1B7C0" points="0.375,8.419 6.945,15.341 6.793,15.341 0.375,8.579 	"/>
	<polygon clip-path="url(#XMLID_9_)" fill="#B0B6BF" points="0.375,8.255 7.102,15.341 6.945,15.341 0.375,8.419 	"/>
	<polygon clip-path="url(#XMLID_9_)" fill="#AEB5BE" points="0.375,8.095 7.254,15.341 7.102,15.341 0.375,8.255 	"/>
	<polygon clip-path="url(#XMLID_9_)" fill="#ADB3BC" points="7.406,15.341 0.375,7.931 0.375,8.095 7.254,15.341 	"/>
	<polygon clip-path="url(#XMLID_9_)" fill="#ABB2BC" points="0.375,7.771 7.559,15.341 7.406,15.341 0.375,7.931 	"/>
	<polygon clip-path="url(#XMLID_9_)" fill="#AAB0BA" points="0.375,7.606 7.711,15.341 7.559,15.341 0.375,7.771 	"/>
	<polygon clip-path="url(#XMLID_9_)" fill="#A8AEB8" points="0.375,7.446 7.867,15.341 7.711,15.341 0.375,7.606 	"/>
	<polygon clip-path="url(#XMLID_9_)" fill="#A6ADB7" points="8.02,15.341 0.375,7.286 0.375,7.446 7.867,15.341 	"/>
	<polygon clip-path="url(#XMLID_9_)" fill="#A6ACB6" points="0.375,7.122 8.172,15.341 8.02,15.341 0.375,7.286 	"/>
	<polygon clip-path="url(#XMLID_9_)" fill="#A3AAB4" points="0.375,6.962 8.328,15.341 8.172,15.341 0.375,7.122 	"/>
	<polygon clip-path="url(#XMLID_9_)" fill="#A2A8B3" points="8.48,15.341 0.375,6.802 0.375,6.962 8.328,15.341 	"/>
	<polygon clip-path="url(#XMLID_9_)" fill="#A0A7B1" points="0.375,6.638 8.633,15.341 8.48,15.341 0.375,6.802 	"/>
	<polygon clip-path="url(#XMLID_9_)" fill="#9FA6B0" points="0.375,6.478 8.789,15.341 8.633,15.341 0.375,6.638 	"/>
	<polygon clip-path="url(#XMLID_9_)" fill="#9EA4AF" points="0.375,6.317 8.938,15.341 8.789,15.341 0.375,6.478 	"/>
	<polygon clip-path="url(#XMLID_9_)" fill="#9CA3AE" points="0.375,6.153 9.094,15.341 8.938,15.341 0.375,6.317 	"/>
	<polygon clip-path="url(#XMLID_9_)" fill="#9BA1AD" points="0.375,5.989 9.246,15.341 9.094,15.341 0.375,6.153 	"/>
	<polygon clip-path="url(#XMLID_9_)" fill="#9AA0AB" points="0.375,5.829 9.398,15.341 9.246,15.341 0.375,5.989 	"/>
	<polygon clip-path="url(#XMLID_9_)" fill="#989FAA" points="0.375,5.669 9.555,15.341 9.398,15.341 0.375,5.829 	"/>
	<polygon clip-path="url(#XMLID_9_)" fill="#979EAA" points="0.375,5.505 9.707,15.341 9.555,15.341 0.375,5.669 	"/>
	<polygon clip-path="url(#XMLID_9_)" fill="#969CA8" points="0.375,5.345 9.859,15.341 9.707,15.341 0.375,5.505 	"/>
	<polygon clip-path="url(#XMLID_9_)" fill="#949BA7" points="0.375,5.185 10.016,15.341 9.859,15.341 0.375,5.345 	"/>
	<polygon clip-path="url(#XMLID_9_)" fill="#9399A5" points="10.168,15.341 0.375,5.021 0.375,5.185 10.016,15.341 	"/>
	<polygon clip-path="url(#XMLID_9_)" fill="#9298A4" points="0.375,4.86 10.32,15.341 10.168,15.341 0.375,5.021 	"/>
	<polygon clip-path="url(#XMLID_9_)" fill="#9097A3" points="10.473,15.341 0.375,4.696 0.375,4.86 10.32,15.341 	"/>
	<polygon clip-path="url(#XMLID_9_)" fill="#8F95A2" points="0.375,4.536 10.629,15.341 10.473,15.341 0.375,4.696 	"/>
	<polygon clip-path="url(#XMLID_9_)" fill="#8E95A1" points="0.375,4.372 10.781,15.341 10.629,15.341 0.375,4.536 	"/>
	<polygon clip-path="url(#XMLID_9_)" fill="#8D93A0" points="0.375,4.212 10.934,15.341 10.781,15.341 0.375,4.372 	"/>
	<polygon clip-path="url(#XMLID_9_)" fill="#8B929F" points="11.086,15.341 0.375,4.052 0.375,4.212 10.934,15.341 	"/>
	<polygon clip-path="url(#XMLID_9_)" fill="#8A919E" points="0.375,3.888 11.242,15.341 11.086,15.341 0.375,4.052 	"/>
	<polygon clip-path="url(#XMLID_9_)" fill="#898F9D" points="0.375,3.728 11.395,15.341 11.242,15.341 0.375,3.888 	"/>
	<polygon clip-path="url(#XMLID_9_)" fill="#878E9B" points="0.375,3.567 11.547,15.341 11.395,15.341 0.375,3.728 	"/>
	<polygon clip-path="url(#XMLID_9_)" fill="#878D9B" points="0.375,3.403 11.703,15.341 11.547,15.341 0.375,3.567 	"/>
	<polygon clip-path="url(#XMLID_9_)" fill="#858C9A" points="0.375,3.243 11.855,15.341 11.703,15.341 0.375,3.403 	"/>
	<polygon clip-path="url(#XMLID_9_)" fill="#848B98" points="0.375,3.079 12.008,15.341 11.855,15.341 0.375,3.243 	"/>
	<polygon clip-path="url(#XMLID_9_)" fill="#838A97" points="0.375,2.919 12.164,15.341 12.008,15.341 0.375,3.079 	"/>
	<polygon clip-path="url(#XMLID_9_)" fill="#828997" points="0.375,2.755 12.316,15.341 12.164,15.341 0.375,2.919 	"/>
	<polygon clip-path="url(#XMLID_9_)" fill="#818895" points="0.375,2.595 12.469,15.341 12.316,15.341 0.375,2.755 	"/>
	<polygon clip-path="url(#XMLID_9_)" fill="#808794" points="0.375,2.435 12.625,15.341 12.469,15.341 0.375,2.595 	"/>
	<polygon clip-path="url(#XMLID_9_)" fill="#7E8594" points="0.375,2.271 12.773,15.341 12.625,15.341 0.375,2.435 	"/>
	<polygon clip-path="url(#XMLID_9_)" fill="#7D8593" points="0.375,2.11 12.93,15.341 12.773,15.341 0.375,2.271 	"/>
	<polygon clip-path="url(#XMLID_9_)" fill="#7C8392" points="0.375,1.95 13.082,15.341 12.93,15.341 0.375,2.11 	"/>
	<polygon clip-path="url(#XMLID_9_)" fill="#7B8290" points="0.375,1.786 13.234,15.341 13.082,15.341 0.375,1.95 	"/>
	<polygon clip-path="url(#XMLID_9_)" fill="#7A8190" points="0.375,1.626 13.391,15.341 13.234,15.341 0.375,1.786 	"/>
	<polygon clip-path="url(#XMLID_9_)" fill="#79808F" points="0.375,1.462 13.543,15.341 13.391,15.341 0.375,1.626 	"/>
	<polygon clip-path="url(#XMLID_9_)" fill="#787F8D" points="0.375,1.302 13.695,15.341 13.543,15.341 0.375,1.462 	"/>
	<polygon clip-path="url(#XMLID_9_)" fill="#777E8D" points="0.375,1.138 13.852,15.341 13.695,15.341 0.375,1.302 	"/>
	<polygon clip-path="url(#XMLID_9_)" fill="#767D8C" points="0.375,0.978 14.004,15.341 13.852,15.341 0.375,1.138 	"/>
	<polygon clip-path="url(#XMLID_9_)" fill="#767C8B" points="0.375,0.817 14.156,15.341 14.004,15.341 0.375,0.978 	"/>
	<polygon clip-path="url(#XMLID_9_)" fill="#747B8A" points="0.375,0.798 0.445,0.731 14.309,15.341 14.156,15.341 0.375,0.817 	"/>
	<polygon clip-path="url(#XMLID_9_)" fill="#737A89" points="0.445,0.731 0.527,0.653 14.461,15.341 14.309,15.341 	"/>
	<polygon clip-path="url(#XMLID_9_)" fill="#727989" points="0.527,0.653 0.609,0.575 14.617,15.341 14.461,15.341 	"/>
	<polygon clip-path="url(#XMLID_9_)" fill="#717888" points="0.609,0.575 0.688,0.501 14.77,15.341 14.617,15.341 	"/>
	<polygon clip-path="url(#XMLID_9_)" fill="#707786" points="0.688,0.501 0.77,0.423 14.914,15.333 14.898,15.341 14.77,15.341 	"/>
	<polygon clip-path="url(#XMLID_9_)" fill="#6F7686" points="0.77,0.423 0.82,0.376 0.875,0.376 14.992,15.255 14.914,15.333 	"/>
	<polygon clip-path="url(#XMLID_9_)" fill="#6D7585" points="1.031,0.376 15.074,15.177 14.992,15.255 0.875,0.376 	"/>
	<polygon clip-path="url(#XMLID_9_)" fill="#6D7584" points="1.184,0.376 15.156,15.103 15.074,15.177 1.031,0.376 	"/>
	<polygon clip-path="url(#XMLID_9_)" fill="#6C7383" points="1.336,0.376 15.234,15.024 15.156,15.103 1.184,0.376 	"/>
	<polygon clip-path="url(#XMLID_9_)" fill="#6B7383" points="1.492,0.376 15.316,14.95 15.234,15.024 1.336,0.376 	"/>
	<polygon clip-path="url(#XMLID_9_)" fill="#6A7281" points="1.645,0.376 15.344,14.817 15.344,14.919 15.316,14.95 1.492,0.376 	
		"/>
	<polygon clip-path="url(#XMLID_9_)" fill="#697181" points="1.797,0.376 15.344,14.653 15.344,14.817 1.645,0.376 	"/>
	<polygon clip-path="url(#XMLID_9_)" fill="#697080" points="1.949,0.376 15.344,14.493 15.344,14.653 1.797,0.376 	"/>
	<polygon clip-path="url(#XMLID_9_)" fill="#686F7F" points="15.344,14.333 2.105,0.376 1.949,0.376 15.344,14.493 	"/>
	<polygon clip-path="url(#XMLID_9_)" fill="#676E7E" points="2.258,0.376 15.344,14.169 15.344,14.333 2.105,0.376 	"/>
	<polygon clip-path="url(#XMLID_9_)" fill="#656D7D" points="2.41,0.376 15.344,14.009 15.344,14.169 2.258,0.376 	"/>
	<polygon clip-path="url(#XMLID_9_)" fill="#646C7D" points="2.562,0.376 15.344,13.845 15.344,14.009 2.41,0.376 	"/>
	<polygon clip-path="url(#XMLID_9_)" fill="#646C7C" points="2.719,0.376 15.344,13.685 15.344,13.845 2.562,0.376 	"/>
	<polygon clip-path="url(#XMLID_9_)" fill="#636B7C" points="2.871,0.376 15.344,13.521 15.344,13.685 2.719,0.376 	"/>
	<polygon clip-path="url(#XMLID_9_)" fill="#626B7B" points="3.023,0.376 15.344,13.36 15.344,13.521 2.871,0.376 	"/>
	<polygon clip-path="url(#XMLID_9_)" fill="#616A7A" points="15.344,13.2 3.18,0.376 3.023,0.376 15.344,13.36 	"/>
	<polygon clip-path="url(#XMLID_9_)" fill="#606979" points="3.332,0.376 15.344,13.036 15.344,13.2 3.18,0.376 	"/>
	<polygon clip-path="url(#XMLID_9_)" fill="#5F6878" points="15.344,12.876 3.484,0.376 3.332,0.376 15.344,13.036 	"/>
	<polygon clip-path="url(#XMLID_9_)" fill="#5F6878" points="3.641,0.376 15.344,12.712 15.344,12.876 3.484,0.376 	"/>
	<polygon clip-path="url(#XMLID_9_)" fill="#5E6777" points="3.789,0.376 15.344,12.552 15.344,12.712 3.641,0.376 	"/>
	<polygon clip-path="url(#XMLID_9_)" fill="#5D6676" points="3.945,0.376 15.344,12.392 15.344,12.552 3.789,0.376 	"/>
	<polygon clip-path="url(#XMLID_9_)" fill="#5C6576" points="4.098,0.376 15.344,12.228 15.344,12.392 3.945,0.376 	"/>
	<polygon clip-path="url(#XMLID_9_)" fill="#5B6475" points="4.25,0.376 15.344,12.067 15.344,12.228 4.098,0.376 	"/>
	<polygon clip-path="url(#XMLID_9_)" fill="#5B6475" points="4.406,0.376 15.344,11.903 15.344,12.067 4.25,0.376 	"/>
	<polygon clip-path="url(#XMLID_9_)" fill="#5A6373" points="4.559,0.376 15.344,11.743 15.344,11.903 4.406,0.376 	"/>
	<polygon clip-path="url(#XMLID_9_)" fill="#596273" points="4.711,0.376 15.344,11.583 15.344,11.743 4.559,0.376 	"/>
	<polygon clip-path="url(#XMLID_9_)" fill="#586172" points="15.344,11.419 4.867,0.376 4.711,0.376 15.344,11.583 	"/>
	<polygon clip-path="url(#XMLID_9_)" fill="#576172" points="5.02,0.376 15.344,11.259 15.344,11.419 4.867,0.376 	"/>
	<polygon clip-path="url(#XMLID_9_)" fill="#566071" points="15.344,11.095 5.172,0.376 5.02,0.376 15.344,11.259 	"/>
	<polygon clip-path="url(#XMLID_9_)" fill="#566070" points="5.328,0.376 15.344,10.935 15.344,11.095 5.172,0.376 	"/>
	<polygon clip-path="url(#XMLID_9_)" fill="#555F70" points="5.48,0.376 15.344,10.771 15.344,10.935 5.328,0.376 	"/>
	<polygon clip-path="url(#XMLID_9_)" fill="#545E6F" points="5.633,0.376 15.344,10.61 15.344,10.771 5.48,0.376 	"/>
	<polygon clip-path="url(#XMLID_9_)" fill="#535E6F" points="5.785,0.376 15.344,10.45 15.344,10.61 5.633,0.376 	"/>
	<polygon clip-path="url(#XMLID_9_)" fill="#535D6E" points="15.344,10.286 5.941,0.376 5.785,0.376 15.344,10.45 	"/>
	<polygon clip-path="url(#XMLID_9_)" fill="#525C6D" points="6.094,0.376 15.344,10.126 15.344,10.286 5.941,0.376 	"/>
	<polygon clip-path="url(#XMLID_9_)" fill="#515C6D" points="15.344,9.966 6.246,0.376 6.094,0.376 15.344,10.126 	"/>
	<polygon clip-path="url(#XMLID_9_)" fill="#505B6C" points="6.398,0.376 15.344,9.802 15.344,9.966 6.246,0.376 	"/>
	<polygon clip-path="url(#XMLID_9_)" fill="#505B6C" points="6.555,0.376 15.344,9.642 15.344,9.802 6.398,0.376 	"/>
	<polygon clip-path="url(#XMLID_9_)" fill="#505A6B" points="6.707,0.376 15.344,9.481 15.344,9.642 6.555,0.376 	"/>
	<polygon clip-path="url(#XMLID_9_)" fill="#4F596A" points="6.859,0.376 15.344,9.317 15.344,9.481 6.707,0.376 	"/>
	<polygon clip-path="url(#XMLID_9_)" fill="#4E596A" points="15.344,9.153 7.016,0.376 6.859,0.376 15.344,9.317 	"/>
	<polygon clip-path="url(#XMLID_9_)" fill="#4D5869" points="7.168,0.376 15.344,8.993 15.344,9.153 7.016,0.376 	"/>
	<polygon clip-path="url(#XMLID_9_)" fill="#4C5869" points="15.344,8.833 7.32,0.376 7.168,0.376 15.344,8.993 	"/>
	<polygon clip-path="url(#XMLID_9_)" fill="#4C5768" points="7.473,0.376 15.344,8.669 15.344,8.833 7.32,0.376 	"/>
	<polygon clip-path="url(#XMLID_9_)" fill="#4B5768" points="7.625,0.376 15.344,8.509 15.344,8.669 7.473,0.376 	"/>
	<polygon clip-path="url(#XMLID_9_)" fill="#4B5667" points="7.781,0.376 15.344,8.349 15.344,8.509 7.625,0.376 	"/>
	<polygon clip-path="url(#XMLID_9_)" fill="#4A5567" points="7.934,0.376 15.344,8.185 15.344,8.349 7.781,0.376 	"/>
	<polygon clip-path="url(#XMLID_9_)" fill="#495566" points="15.344,8.024 8.086,0.376 7.934,0.376 15.344,8.185 	"/>
	<polygon clip-path="url(#XMLID_9_)" fill="#485566" points="8.242,0.376 15.344,7.864 15.344,8.024 8.086,0.376 	"/>
	<polygon clip-path="url(#XMLID_9_)" fill="#485466" points="8.395,0.376 15.344,7.7 15.344,7.864 8.242,0.376 	"/>
	<polygon clip-path="url(#XMLID_9_)" fill="#475365" points="8.547,0.376 15.344,7.536 15.344,7.7 8.395,0.376 	"/>
	<polygon clip-path="url(#XMLID_9_)" fill="#475365" points="15.344,7.376 8.699,0.376 8.547,0.376 15.344,7.536 	"/>
	<polygon clip-path="url(#XMLID_9_)" fill="#465264" points="8.855,0.376 15.344,7.216 15.344,7.376 8.699,0.376 	"/>
	<polygon clip-path="url(#XMLID_9_)" fill="#455264" points="9.008,0.376 15.344,7.052 15.344,7.216 8.855,0.376 	"/>
	<polygon clip-path="url(#XMLID_9_)" fill="#445263" points="9.16,0.376 15.344,6.892 15.344,7.052 9.008,0.376 	"/>
	<polygon clip-path="url(#XMLID_9_)" fill="#445163" points="9.312,0.376 15.344,6.731 15.344,6.892 9.16,0.376 	"/>
	<polygon clip-path="url(#XMLID_9_)" fill="#445062" points="9.469,0.376 15.344,6.567 15.344,6.731 9.312,0.376 	"/>
	<polygon clip-path="url(#XMLID_9_)" fill="#425062" points="9.621,0.376 15.344,6.407 15.344,6.567 9.469,0.376 	"/>
	<polygon clip-path="url(#XMLID_9_)" fill="#425062" points="9.773,0.376 15.344,6.247 15.344,6.407 9.621,0.376 	"/>
	<polygon clip-path="url(#XMLID_9_)" fill="#424F61" points="9.93,0.376 15.344,6.083 15.344,6.247 9.773,0.376 	"/>
	<polygon clip-path="url(#XMLID_9_)" fill="#414F61" points="10.082,0.376 15.344,5.923 15.344,6.083 9.93,0.376 	"/>
	<polygon clip-path="url(#XMLID_9_)" fill="#404E60" points="10.234,0.376 15.344,5.759 15.344,5.923 10.082,0.376 	"/>
	<polygon clip-path="url(#XMLID_9_)" fill="#3F4E60" points="15.344,5.599 10.391,0.376 10.234,0.376 15.344,5.759 	"/>
	<polygon clip-path="url(#XMLID_9_)" fill="#3F4D60" points="10.543,0.376 15.344,5.435 15.344,5.599 10.391,0.376 	"/>
	<polygon clip-path="url(#XMLID_9_)" fill="#3F4D5F" points="10.695,0.376 15.344,5.274 15.344,5.435 10.543,0.376 	"/>
	<polygon clip-path="url(#XMLID_9_)" fill="#3E4D5F" points="10.852,0.376 15.344,5.114 15.344,5.274 10.695,0.376 	"/>
	<polygon clip-path="url(#XMLID_9_)" fill="#3E4C5E" points="11.004,0.376 15.344,4.95 15.344,5.114 10.852,0.376 	"/>
	<polygon clip-path="url(#XMLID_9_)" fill="#3D4C5E" points="15.344,4.79 11.156,0.376 11.004,0.376 15.344,4.95 	"/>
	<polygon clip-path="url(#XMLID_9_)" fill="#3D4C5E" points="11.309,0.376 15.344,4.626 15.344,4.79 11.156,0.376 	"/>
	<polygon clip-path="url(#XMLID_9_)" fill="#3C4B5D" points="11.461,0.376 15.344,4.466 15.344,4.626 11.309,0.376 	"/>
	<polygon clip-path="url(#XMLID_9_)" fill="#3C4B5D" points="11.617,0.376 15.344,4.306 15.344,4.466 11.461,0.376 	"/>
	<polygon clip-path="url(#XMLID_9_)" fill="#3C4B5D" points="15.344,4.142 11.77,0.376 11.617,0.376 15.344,4.306 	"/>
	<polygon clip-path="url(#XMLID_9_)" fill="#3B4A5C" points="11.922,0.376 15.344,3.981 15.344,4.142 11.77,0.376 	"/>
	<polygon clip-path="url(#XMLID_9_)" fill="#3B4A5C" points="12.078,0.376 15.344,3.817 15.344,3.981 11.922,0.376 	"/>
	<polygon clip-path="url(#XMLID_9_)" fill="#3A495C" points="12.23,0.376 15.344,3.657 15.344,3.817 12.078,0.376 	"/>
	<polygon clip-path="url(#XMLID_9_)" fill="#3A495B" points="12.383,0.376 15.344,3.497 15.344,3.657 12.23,0.376 	"/>
	<polygon clip-path="url(#XMLID_9_)" fill="#39495B" points="12.539,0.376 15.344,3.333 15.344,3.497 12.383,0.376 	"/>
	<polygon clip-path="url(#XMLID_9_)" fill="#38495B" points="12.691,0.376 15.344,3.173 15.344,3.333 12.539,0.376 	"/>
	<polygon clip-path="url(#XMLID_9_)" fill="#38485B" points="12.844,0.376 15.344,3.013 15.344,3.173 12.691,0.376 	"/>
	<polygon clip-path="url(#XMLID_9_)" fill="#38485A" points="15.344,2.849 12.996,0.376 12.844,0.376 15.344,3.013 	"/>
	<polygon clip-path="url(#XMLID_9_)" fill="#37485A" points="13.148,0.376 15.344,2.688 15.344,2.849 12.996,0.376 	"/>
	<polygon clip-path="url(#XMLID_9_)" fill="#38475A" points="13.305,0.376 15.344,2.524 15.344,2.688 13.148,0.376 	"/>
	<polygon clip-path="url(#XMLID_9_)" fill="#37475A" points="13.457,0.376 15.344,2.364 15.344,2.524 13.305,0.376 	"/>
	<polygon clip-path="url(#XMLID_9_)" fill="#374659" points="13.609,0.376 15.344,2.2 15.344,2.364 13.457,0.376 	"/>
	<polygon clip-path="url(#XMLID_9_)" fill="#364659" points="15.344,2.04 13.766,0.376 13.609,0.376 15.344,2.2 	"/>
	<polygon clip-path="url(#XMLID_9_)" fill="#364659" points="13.918,0.376 15.344,1.88 15.344,2.04 13.766,0.376 	"/>
	<polygon clip-path="url(#XMLID_9_)" fill="#364659" points="14.07,0.376 15.344,1.716 15.344,1.88 13.918,0.376 	"/>
	<polygon clip-path="url(#XMLID_9_)" fill="#354659" points="15.344,1.556 14.223,0.376 14.07,0.376 15.344,1.716 	"/>
	<polygon clip-path="url(#XMLID_9_)" fill="#354659" points="14.379,0.376 15.344,1.396 15.344,1.556 14.223,0.376 	"/>
	<polygon clip-path="url(#XMLID_9_)" fill="#354658" points="14.531,0.376 15.344,1.231 15.344,1.396 14.379,0.376 	"/>
	<polygon clip-path="url(#XMLID_9_)" fill="#344558" points="14.684,0.376 15.344,1.071 15.344,1.231 14.531,0.376 	"/>
	<polygon clip-path="url(#XMLID_9_)" fill="#344558" points="14.836,0.376 15.344,0.907 15.344,1.071 14.684,0.376 	"/>
	<polygon clip-path="url(#XMLID_9_)" fill="#344558" points="14.992,0.376 15.344,0.747 15.344,0.907 14.836,0.376 	"/>
	<polygon clip-path="url(#XMLID_9_)" fill="#344558" points="15.145,0.376 15.344,0.583 15.344,0.747 14.992,0.376 	"/>
	<polygon clip-path="url(#XMLID_9_)" fill="#344558" points="15.344,0.583 15.145,0.376 15.344,0.376 	"/>
</g>
<path fill="#AEADAE" d="M14.969,7.858c0,3.92-3.189,7.109-7.109,7.109S0.75,11.778,0.75,7.858S3.939,0.75,7.859,0.75
	S14.969,3.938,14.969,7.858z M7.859,0C3.525,0,0,3.525,0,7.858c0,4.334,3.525,7.859,7.859,7.859s7.859-3.525,7.859-7.859
	C15.719,3.525,12.193,0,7.859,0z"/>
<path fill="#FFFFFF" d="M5.208,4.142v7.601H4.163V6.341H2.414V5.582c0.484-0.011,1.716-0.044,1.991-1.44H5.208z"/>
<path fill="#FFFFFF" d="M11.962,9.103h1.144v0.891h-1.144v1.749h-1.022V9.993H7.617V8.938l3.531-4.808h0.813V9.103z M10.939,9.103
	l0.065-3.433L8.607,9.103H10.939z"/>
</svg>
