<?xml version="1.0" encoding="utf-8"?>
<!-- Generator: Adobe Illustrator 12.0.1, SVG Export Plug-In  -->
<!DOCTYPE svg PUBLIC "-//W3C//DTD SVG 1.1//EN" "http://www.w3.org/Graphics/SVG/1.1/DTD/svg11.dtd" [
	<!ENTITY ns_flows "http://ns.adobe.com/Flows/1.0/">
	<!ENTITY ns_svg "http://www.w3.org/2000/svg">
	<!ENTITY ns_xlink "http://www.w3.org/1999/xlink">
]>
<svg  version="1.1" xmlns="&ns_svg;" xmlns:xlink="&ns_xlink;" xmlns:a="http://ns.adobe.com/AdobeSVGViewerExtensions/3.0/"
	 width="17" height="17" viewBox="-0.75 -0.758 17 17" enable-background="new -0.75 -0.758 17 17" xml:space="preserve">
<defs>
</defs>
<g>
	<defs>
		<circle id="XMLID_6_" cx="7.86" cy="7.858" r="7.485"/>
	</defs>
	<clipPath id="XMLID_9_">
		<use xlink:href="#XMLID_6_" />
	</clipPath>
	<polygon clip-path="url(#XMLID_9_)" fill="#CBD2D8" points="0.375,12.297 3.578,15.344 0.375,15.344 	"/>
	<polygon clip-path="url(#XMLID_9_)" fill="#CBD2D8" points="0.375,12.133 3.75,15.344 3.578,15.344 0.375,12.297 	"/>
	<polygon clip-path="url(#XMLID_9_)" fill="#C9D0D5" points="0.375,11.973 3.918,15.344 3.75,15.344 0.375,12.133 	"/>
	<polygon clip-path="url(#XMLID_9_)" fill="#C6CDD3" points="0.375,11.809 4.09,15.344 3.918,15.344 0.375,11.973 	"/>
	<polygon clip-path="url(#XMLID_9_)" fill="#C5CCD2" points="0.375,11.648 4.258,15.344 4.09,15.344 0.375,11.809 	"/>
	<polygon clip-path="url(#XMLID_9_)" fill="#C3C9D0" points="0.375,11.488 4.43,15.344 4.258,15.344 0.375,11.648 	"/>
	<polygon clip-path="url(#XMLID_9_)" fill="#C1C8CE" points="0.375,11.324 4.598,15.344 4.43,15.344 0.375,11.488 	"/>
	<polygon clip-path="url(#XMLID_9_)" fill="#BFC5CC" points="0.375,11.164 4.77,15.344 4.598,15.344 0.375,11.324 	"/>
	<polygon clip-path="url(#XMLID_9_)" fill="#BEC4CB" points="0.375,11.004 4.938,15.344 4.77,15.344 0.375,11.164 	"/>
	<polygon clip-path="url(#XMLID_9_)" fill="#BBC2C9" points="0.375,10.84 5.109,15.344 4.938,15.344 0.375,11.004 	"/>
	<polygon clip-path="url(#XMLID_9_)" fill="#BAC0C8" points="0.375,10.68 5.281,15.344 5.109,15.344 0.375,10.84 	"/>
	<polygon clip-path="url(#XMLID_9_)" fill="#B7BEC6" points="5.449,15.344 0.375,10.516 0.375,10.68 5.281,15.344 	"/>
	<polygon clip-path="url(#XMLID_9_)" fill="#B6BDC5" points="0.375,10.355 5.617,15.344 5.449,15.344 0.375,10.516 	"/>
	<polygon clip-path="url(#XMLID_9_)" fill="#B5BBC3" points="0.375,10.195 5.789,15.344 5.617,15.344 0.375,10.355 	"/>
	<polygon clip-path="url(#XMLID_9_)" fill="#B3BAC2" points="0.375,10.031 5.957,15.344 5.789,15.344 0.375,10.195 	"/>
	<polygon clip-path="url(#XMLID_9_)" fill="#B1B7C0" points="0.375,9.871 6.129,15.344 5.957,15.344 0.375,10.031 	"/>
	<polygon clip-path="url(#XMLID_9_)" fill="#B0B6BF" points="6.297,15.344 0.375,9.707 0.375,9.871 6.129,15.344 	"/>
	<polygon clip-path="url(#XMLID_9_)" fill="#AEB5BE" points="6.469,15.344 0.375,9.547 0.375,9.707 6.297,15.344 	"/>
	<polygon clip-path="url(#XMLID_9_)" fill="#ADB3BC" points="0.375,9.387 6.641,15.344 6.469,15.344 0.375,9.547 	"/>
	<polygon clip-path="url(#XMLID_9_)" fill="#ABB2BC" points="0.375,9.223 6.809,15.344 6.641,15.344 0.375,9.387 	"/>
	<polygon clip-path="url(#XMLID_9_)" fill="#AAB0BA" points="0.375,9.062 6.977,15.344 6.809,15.344 0.375,9.223 	"/>
	<polygon clip-path="url(#XMLID_9_)" fill="#A8AEB8" points="0.375,8.898 7.148,15.344 6.977,15.344 0.375,9.062 	"/>
	<polygon clip-path="url(#XMLID_9_)" fill="#A6ADB7" points="0.375,8.738 7.32,15.344 7.148,15.344 0.375,8.898 	"/>
	<polygon clip-path="url(#XMLID_9_)" fill="#A6ACB6" points="0.375,8.578 7.488,15.344 7.32,15.344 0.375,8.738 	"/>
	<polygon clip-path="url(#XMLID_9_)" fill="#A3AAB4" points="0.375,8.414 7.656,15.344 7.488,15.344 0.375,8.578 	"/>
	<polygon clip-path="url(#XMLID_9_)" fill="#A2A8B3" points="0.375,8.254 7.828,15.344 7.656,15.344 0.375,8.414 	"/>
	<polygon clip-path="url(#XMLID_9_)" fill="#A0A7B1" points="0.375,8.09 8,15.344 7.828,15.344 0.375,8.254 	"/>
	<polygon clip-path="url(#XMLID_9_)" fill="#9FA6B0" points="0.375,7.93 8.168,15.344 8,15.344 0.375,8.09 	"/>
	<polygon clip-path="url(#XMLID_9_)" fill="#9EA4AF" points="0.375,7.77 8.336,15.344 8.168,15.344 0.375,7.93 	"/>
	<polygon clip-path="url(#XMLID_9_)" fill="#9CA3AE" points="8.508,15.344 0.375,7.605 0.375,7.77 8.336,15.344 	"/>
	<polygon clip-path="url(#XMLID_9_)" fill="#9BA1AD" points="0.375,7.445 8.68,15.344 8.508,15.344 0.375,7.605 	"/>
	<polygon clip-path="url(#XMLID_9_)" fill="#9AA0AB" points="0.375,7.281 8.848,15.344 8.68,15.344 0.375,7.445 	"/>
	<polygon clip-path="url(#XMLID_9_)" fill="#989FAA" points="0.375,7.121 9.02,15.344 8.848,15.344 0.375,7.281 	"/>
	<polygon clip-path="url(#XMLID_9_)" fill="#979EAA" points="9.188,15.344 0.375,6.961 0.375,7.121 9.02,15.344 	"/>
	<polygon clip-path="url(#XMLID_9_)" fill="#969CA8" points="0.375,6.797 9.359,15.344 9.188,15.344 0.375,6.961 	"/>
	<polygon clip-path="url(#XMLID_9_)" fill="#949BA7" points="0.375,6.637 9.527,15.344 9.359,15.344 0.375,6.797 	"/>
	<polygon clip-path="url(#XMLID_9_)" fill="#9399A5" points="0.375,6.473 9.699,15.344 9.527,15.344 0.375,6.637 	"/>
	<polygon clip-path="url(#XMLID_9_)" fill="#9298A4" points="0.375,6.312 9.867,15.344 9.699,15.344 0.375,6.473 	"/>
	<polygon clip-path="url(#XMLID_9_)" fill="#9097A3" points="0.375,6.152 10.039,15.344 9.867,15.344 0.375,6.312 	"/>
	<polygon clip-path="url(#XMLID_9_)" fill="#8F95A2" points="0.375,5.988 10.207,15.344 10.039,15.344 0.375,6.152 	"/>
	<polygon clip-path="url(#XMLID_9_)" fill="#8E95A1" points="0.375,5.828 10.379,15.344 10.207,15.344 0.375,5.988 	"/>
	<polygon clip-path="url(#XMLID_9_)" fill="#8D93A0" points="0.375,5.664 10.547,15.344 10.379,15.344 0.375,5.828 	"/>
	<polygon clip-path="url(#XMLID_9_)" fill="#8B929F" points="0.375,5.504 10.719,15.344 10.547,15.344 0.375,5.664 	"/>
	<polygon clip-path="url(#XMLID_9_)" fill="#8A919E" points="0.375,5.344 10.887,15.344 10.719,15.344 0.375,5.504 	"/>
	<polygon clip-path="url(#XMLID_9_)" fill="#898F9D" points="11.059,15.344 0.375,5.18 0.375,5.344 10.887,15.344 	"/>
	<polygon clip-path="url(#XMLID_9_)" fill="#878E9B" points="0.375,5.02 11.227,15.344 11.059,15.344 0.375,5.18 	"/>
	<polygon clip-path="url(#XMLID_9_)" fill="#878D9B" points="0.375,4.859 11.398,15.344 11.227,15.344 0.375,5.02 	"/>
	<polygon clip-path="url(#XMLID_9_)" fill="#858C9A" points="0.375,4.695 11.57,15.344 11.398,15.344 0.375,4.859 	"/>
	<polygon clip-path="url(#XMLID_9_)" fill="#848B98" points="0.375,4.535 11.738,15.344 11.57,15.344 0.375,4.695 	"/>
	<polygon clip-path="url(#XMLID_9_)" fill="#838A97" points="0.375,4.375 11.906,15.344 11.738,15.344 0.375,4.535 	"/>
	<polygon clip-path="url(#XMLID_9_)" fill="#828997" points="12.078,15.344 0.375,4.211 0.375,4.375 11.906,15.344 	"/>
	<polygon clip-path="url(#XMLID_9_)" fill="#818895" points="0.375,4.051 12.25,15.344 12.078,15.344 0.375,4.211 	"/>
	<polygon clip-path="url(#XMLID_9_)" fill="#808794" points="0.375,3.887 12.418,15.344 12.25,15.344 0.375,4.051 	"/>
	<polygon clip-path="url(#XMLID_9_)" fill="#7E8594" points="12.586,15.344 0.375,3.727 0.375,3.887 12.418,15.344 	"/>
	<polygon clip-path="url(#XMLID_9_)" fill="#7D8593" points="0.375,3.562 12.758,15.344 12.586,15.344 0.375,3.727 	"/>
	<polygon clip-path="url(#XMLID_9_)" fill="#7C8392" points="12.93,15.344 0.375,3.402 0.375,3.562 12.758,15.344 	"/>
	<polygon clip-path="url(#XMLID_9_)" fill="#7B8290" points="0.375,3.242 13.098,15.344 12.93,15.344 0.375,3.402 	"/>
	<polygon clip-path="url(#XMLID_9_)" fill="#7A8190" points="0.375,3.078 13.27,15.344 13.098,15.344 0.375,3.242 	"/>
	<polygon clip-path="url(#XMLID_9_)" fill="#79808F" points="0.375,2.918 13.438,15.344 13.27,15.344 0.375,3.078 	"/>
	<polygon clip-path="url(#XMLID_9_)" fill="#787F8D" points="13.609,15.344 0.375,2.758 0.375,2.918 13.438,15.344 	"/>
	<polygon clip-path="url(#XMLID_9_)" fill="#777E8D" points="0.375,2.594 13.777,15.344 13.609,15.344 0.375,2.758 	"/>
	<polygon clip-path="url(#XMLID_9_)" fill="#767D8C" points="13.945,15.344 0.375,2.434 0.375,2.594 13.777,15.344 	"/>
	<polygon clip-path="url(#XMLID_9_)" fill="#767C8B" points="0.375,2.27 14.117,15.344 13.945,15.344 0.375,2.434 	"/>
	<polygon clip-path="url(#XMLID_9_)" fill="#747B8A" points="0.375,2.109 14.289,15.344 14.117,15.344 0.375,2.27 	"/>
	<polygon clip-path="url(#XMLID_9_)" fill="#737A89" points="0.375,1.945 14.457,15.344 14.289,15.344 0.375,2.109 	"/>
	<polygon clip-path="url(#XMLID_9_)" fill="#727989" points="0.375,1.785 14.629,15.344 14.457,15.344 0.375,1.945 	"/>
	<polygon clip-path="url(#XMLID_9_)" fill="#717888" points="0.375,1.625 14.797,15.344 14.629,15.344 0.375,1.785 	"/>
	<polygon clip-path="url(#XMLID_9_)" fill="#707786" points="0.375,1.461 14.941,15.316 14.914,15.344 14.797,15.344 0.375,1.625 	
		"/>
	<polygon clip-path="url(#XMLID_9_)" fill="#6F7686" points="0.375,1.301 15.023,15.234 14.941,15.316 0.375,1.461 	"/>
	<polygon clip-path="url(#XMLID_9_)" fill="#6D7585" points="0.375,1.141 15.102,15.148 15.023,15.234 0.375,1.301 	"/>
	<polygon clip-path="url(#XMLID_9_)" fill="#6D7584" points="0.375,0.977 15.184,15.062 15.102,15.148 0.375,1.141 	"/>
	<polygon clip-path="url(#XMLID_9_)" fill="#6C7383" points="0.375,0.824 0.379,0.82 15.266,14.977 15.184,15.062 0.375,0.977 	"/>
	
		<rect x="7.802" y="-2.415" transform="matrix(-0.6905 0.7234 -0.7234 -0.6905 18.9717 7.5929)" clip-path="url(#XMLID_9_)" fill="#6B7383" width="0.119" height="20.54"/>
	<polygon clip-path="url(#XMLID_9_)" fill="#6A7281" points="0.461,0.734 0.539,0.648 15.344,14.73 15.344,14.891 	"/>
	<polygon clip-path="url(#XMLID_9_)" fill="#697181" points="0.539,0.648 0.621,0.562 15.344,14.57 15.344,14.73 	"/>
	<polygon clip-path="url(#XMLID_9_)" fill="#697080" points="0.621,0.562 0.703,0.48 15.344,14.406 15.344,14.57 	"/>
	<polygon clip-path="url(#XMLID_9_)" fill="#686F7F" points="0.703,0.48 0.781,0.395 15.344,14.246 15.344,14.406 	"/>
	<polygon clip-path="url(#XMLID_9_)" fill="#676E7E" points="0.781,0.395 0.801,0.375 0.934,0.375 15.344,14.086 15.344,14.246 	"/>
	<polygon clip-path="url(#XMLID_9_)" fill="#656D7D" points="15.344,13.922 1.102,0.375 0.934,0.375 15.344,14.086 	"/>
	<polygon clip-path="url(#XMLID_9_)" fill="#646C7D" points="1.273,0.375 15.344,13.762 15.344,13.922 1.102,0.375 	"/>
	<polygon clip-path="url(#XMLID_9_)" fill="#646C7C" points="1.441,0.375 15.344,13.602 15.344,13.762 1.273,0.375 	"/>
	<polygon clip-path="url(#XMLID_9_)" fill="#636B7C" points="15.344,13.438 1.609,0.375 1.441,0.375 15.344,13.602 	"/>
	<polygon clip-path="url(#XMLID_9_)" fill="#626B7B" points="1.781,0.375 15.344,13.277 15.344,13.438 1.609,0.375 	"/>
	<polygon clip-path="url(#XMLID_9_)" fill="#616A7A" points="1.953,0.375 15.344,13.113 15.344,13.277 1.781,0.375 	"/>
	<polygon clip-path="url(#XMLID_9_)" fill="#606979" points="2.121,0.375 15.344,12.953 15.344,13.113 1.953,0.375 	"/>
	<polygon clip-path="url(#XMLID_9_)" fill="#5F6878" points="2.293,0.375 15.344,12.789 15.344,12.953 2.121,0.375 	"/>
	<polygon clip-path="url(#XMLID_9_)" fill="#5F6878" points="2.461,0.375 15.344,12.629 15.344,12.789 2.293,0.375 	"/>
	<polygon clip-path="url(#XMLID_9_)" fill="#5E6777" points="2.633,0.375 15.344,12.469 15.344,12.629 2.461,0.375 	"/>
	<polygon clip-path="url(#XMLID_9_)" fill="#5D6676" points="15.344,12.305 2.801,0.375 2.633,0.375 15.344,12.469 	"/>
	<polygon clip-path="url(#XMLID_9_)" fill="#5C6576" points="2.973,0.375 15.344,12.145 15.344,12.305 2.801,0.375 	"/>
	<polygon clip-path="url(#XMLID_9_)" fill="#5B6475" points="3.141,0.375 15.344,11.984 15.344,12.145 2.973,0.375 	"/>
	<polygon clip-path="url(#XMLID_9_)" fill="#5B6475" points="3.312,0.375 15.344,11.82 15.344,11.984 3.141,0.375 	"/>
	<polygon clip-path="url(#XMLID_9_)" fill="#5A6373" points="3.48,0.375 15.344,11.66 15.344,11.82 3.312,0.375 	"/>
	<polygon clip-path="url(#XMLID_9_)" fill="#596273" points="3.652,0.375 15.344,11.496 15.344,11.66 3.48,0.375 	"/>
	<polygon clip-path="url(#XMLID_9_)" fill="#586172" points="3.82,0.375 15.344,11.336 15.344,11.496 3.652,0.375 	"/>
	<polygon clip-path="url(#XMLID_9_)" fill="#576172" points="3.992,0.375 15.344,11.172 15.344,11.336 3.82,0.375 	"/>
	<polygon clip-path="url(#XMLID_9_)" fill="#566071" points="4.164,0.375 15.344,11.012 15.344,11.172 3.992,0.375 	"/>
	<polygon clip-path="url(#XMLID_9_)" fill="#566070" points="4.332,0.375 15.344,10.852 15.344,11.012 4.164,0.375 	"/>
	<polygon clip-path="url(#XMLID_9_)" fill="#555F70" points="4.5,0.375 15.344,10.688 15.344,10.852 4.332,0.375 	"/>
	<polygon clip-path="url(#XMLID_9_)" fill="#545E6F" points="4.672,0.375 15.344,10.527 15.344,10.688 4.5,0.375 	"/>
	<polygon clip-path="url(#XMLID_9_)" fill="#535E6F" points="4.844,0.375 15.344,10.367 15.344,10.527 4.672,0.375 	"/>
	<polygon clip-path="url(#XMLID_9_)" fill="#535D6E" points="5.012,0.375 15.344,10.203 15.344,10.367 4.844,0.375 	"/>
	<polygon clip-path="url(#XMLID_9_)" fill="#525C6D" points="5.18,0.375 15.344,10.043 15.344,10.203 5.012,0.375 	"/>
	<polygon clip-path="url(#XMLID_9_)" fill="#515C6D" points="5.352,0.375 15.344,9.879 15.344,10.043 5.18,0.375 	"/>
	<polygon clip-path="url(#XMLID_9_)" fill="#505B6C" points="5.523,0.375 15.344,9.719 15.344,9.879 5.352,0.375 	"/>
	<polygon clip-path="url(#XMLID_9_)" fill="#505B6C" points="15.344,9.559 5.691,0.375 5.523,0.375 15.344,9.719 	"/>
	<polygon clip-path="url(#XMLID_9_)" fill="#505A6B" points="5.859,0.375 15.344,9.395 15.344,9.559 5.691,0.375 	"/>
	<polygon clip-path="url(#XMLID_9_)" fill="#4F596A" points="6.031,0.375 15.344,9.234 15.344,9.395 5.859,0.375 	"/>
	<polygon clip-path="url(#XMLID_9_)" fill="#4E596A" points="15.344,9.07 6.203,0.375 6.031,0.375 15.344,9.234 	"/>
	<polygon clip-path="url(#XMLID_9_)" fill="#4D5869" points="6.371,0.375 15.344,8.91 15.344,9.07 6.203,0.375 	"/>
	<polygon clip-path="url(#XMLID_9_)" fill="#4C5869" points="6.543,0.375 15.344,8.75 15.344,8.91 6.371,0.375 	"/>
	<polygon clip-path="url(#XMLID_9_)" fill="#4C5768" points="6.711,0.375 15.344,8.586 15.344,8.75 6.543,0.375 	"/>
	<polygon clip-path="url(#XMLID_9_)" fill="#4B5768" points="6.883,0.375 15.344,8.426 15.344,8.586 6.711,0.375 	"/>
	<polygon clip-path="url(#XMLID_9_)" fill="#4B5667" points="7.051,0.375 15.344,8.262 15.344,8.426 6.883,0.375 	"/>
	<polygon clip-path="url(#XMLID_9_)" fill="#4A5567" points="7.223,0.375 15.344,8.102 15.344,8.262 7.051,0.375 	"/>
	<polygon clip-path="url(#XMLID_9_)" fill="#495566" points="7.391,0.375 15.344,7.941 15.344,8.102 7.223,0.375 	"/>
	<polygon clip-path="url(#XMLID_9_)" fill="#485566" points="7.562,0.375 15.344,7.777 15.344,7.941 7.391,0.375 	"/>
	<polygon clip-path="url(#XMLID_9_)" fill="#485466" points="7.73,0.375 15.344,7.617 15.344,7.777 7.562,0.375 	"/>
	<polygon clip-path="url(#XMLID_9_)" fill="#475365" points="15.344,7.453 7.902,0.375 7.73,0.375 15.344,7.617 	"/>
	<polygon clip-path="url(#XMLID_9_)" fill="#475365" points="8.07,0.375 15.344,7.293 15.344,7.453 7.902,0.375 	"/>
	<polygon clip-path="url(#XMLID_9_)" fill="#465264" points="8.242,0.375 15.344,7.133 15.344,7.293 8.07,0.375 	"/>
	<polygon clip-path="url(#XMLID_9_)" fill="#455264" points="8.41,0.375 15.344,6.969 15.344,7.133 8.242,0.375 	"/>
	<polygon clip-path="url(#XMLID_9_)" fill="#445263" points="8.582,0.375 15.344,6.809 15.344,6.969 8.41,0.375 	"/>
	<polygon clip-path="url(#XMLID_9_)" fill="#445163" points="8.75,0.375 15.344,6.648 15.344,6.809 8.582,0.375 	"/>
	<polygon clip-path="url(#XMLID_9_)" fill="#445062" points="15.344,6.484 8.922,0.375 8.75,0.375 15.344,6.648 	"/>
	<polygon clip-path="url(#XMLID_9_)" fill="#425062" points="9.09,0.375 15.344,6.324 15.344,6.484 8.922,0.375 	"/>
	<polygon clip-path="url(#XMLID_9_)" fill="#425062" points="15.344,6.16 9.262,0.375 9.09,0.375 15.344,6.324 	"/>
	<polygon clip-path="url(#XMLID_9_)" fill="#424F61" points="9.43,0.375 15.344,6 15.344,6.16 9.262,0.375 	"/>
	<polygon clip-path="url(#XMLID_9_)" fill="#414F61" points="9.602,0.375 15.344,5.84 15.344,6 9.43,0.375 	"/>
	<polygon clip-path="url(#XMLID_9_)" fill="#404E60" points="9.773,0.375 15.344,5.676 15.344,5.84 9.602,0.375 	"/>
	<polygon clip-path="url(#XMLID_9_)" fill="#3F4E60" points="15.344,5.516 9.941,0.375 9.773,0.375 15.344,5.676 	"/>
	<polygon clip-path="url(#XMLID_9_)" fill="#3F4D60" points="10.109,0.375 15.344,5.352 15.344,5.516 9.941,0.375 	"/>
	<polygon clip-path="url(#XMLID_9_)" fill="#3F4D5F" points="15.344,5.191 10.281,0.375 10.109,0.375 15.344,5.352 	"/>
	<polygon clip-path="url(#XMLID_9_)" fill="#3E4D5F" points="10.453,0.375 15.344,5.031 15.344,5.191 10.281,0.375 	"/>
	<polygon clip-path="url(#XMLID_9_)" fill="#3E4C5E" points="10.621,0.375 15.344,4.867 15.344,5.031 10.453,0.375 	"/>
	<polygon clip-path="url(#XMLID_9_)" fill="#3D4C5E" points="10.789,0.375 15.344,4.707 15.344,4.867 10.621,0.375 	"/>
	<polygon clip-path="url(#XMLID_9_)" fill="#3D4C5E" points="15.344,4.543 10.961,0.375 10.789,0.375 15.344,4.707 	"/>
	<polygon clip-path="url(#XMLID_9_)" fill="#3C4B5D" points="11.133,0.375 15.344,4.383 15.344,4.543 10.961,0.375 	"/>
	<polygon clip-path="url(#XMLID_9_)" fill="#3C4B5D" points="15.344,4.223 11.301,0.375 11.133,0.375 15.344,4.383 	"/>
	<polygon clip-path="url(#XMLID_9_)" fill="#3C4B5D" points="11.473,0.375 15.344,4.059 15.344,4.223 11.301,0.375 	"/>
	<polygon clip-path="url(#XMLID_9_)" fill="#3B4A5C" points="11.641,0.375 15.344,3.898 15.344,4.059 11.473,0.375 	"/>
	<polygon clip-path="url(#XMLID_9_)" fill="#3B4A5C" points="11.812,0.375 15.344,3.734 15.344,3.898 11.641,0.375 	"/>
	<polygon clip-path="url(#XMLID_9_)" fill="#3A495C" points="11.98,0.375 15.344,3.574 15.344,3.734 11.812,0.375 	"/>
	<polygon clip-path="url(#XMLID_9_)" fill="#3A495B" points="12.152,0.375 15.344,3.414 15.344,3.574 11.98,0.375 	"/>
	<polygon clip-path="url(#XMLID_9_)" fill="#39495B" points="15.344,3.25 12.32,0.375 12.152,0.375 15.344,3.414 	"/>
	<polygon clip-path="url(#XMLID_9_)" fill="#38495B" points="12.492,0.375 15.344,3.09 15.344,3.25 12.32,0.375 	"/>
	<polygon clip-path="url(#XMLID_9_)" fill="#38485B" points="12.66,0.375 15.344,2.93 15.344,3.09 12.492,0.375 	"/>
	<polygon clip-path="url(#XMLID_9_)" fill="#38485A" points="12.832,0.375 15.344,2.766 15.344,2.93 12.66,0.375 	"/>
	<polygon clip-path="url(#XMLID_9_)" fill="#37485A" points="13,0.375 15.344,2.605 15.344,2.766 12.832,0.375 	"/>
	<polygon clip-path="url(#XMLID_9_)" fill="#38475A" points="13.172,0.375 15.344,2.441 15.344,2.605 13,0.375 	"/>
	<polygon clip-path="url(#XMLID_9_)" fill="#37475A" points="13.34,0.375 15.344,2.281 15.344,2.441 13.172,0.375 	"/>
	<polygon clip-path="url(#XMLID_9_)" fill="#374659" points="13.512,0.375 15.344,2.117 15.344,2.281 13.34,0.375 	"/>
	<polygon clip-path="url(#XMLID_9_)" fill="#364659" points="13.68,0.375 15.344,1.957 15.344,2.117 13.512,0.375 	"/>
	<polygon clip-path="url(#XMLID_9_)" fill="#364659" points="15.344,1.797 13.852,0.375 13.68,0.375 15.344,1.957 	"/>
	<polygon clip-path="url(#XMLID_9_)" fill="#364659" points="14.02,0.375 15.344,1.633 15.344,1.797 13.852,0.375 	"/>
	<polygon clip-path="url(#XMLID_9_)" fill="#354659" points="14.191,0.375 15.344,1.473 15.344,1.633 14.02,0.375 	"/>
	<polygon clip-path="url(#XMLID_9_)" fill="#354659" points="14.359,0.375 15.344,1.312 15.344,1.473 14.191,0.375 	"/>
	<polygon clip-path="url(#XMLID_9_)" fill="#354658" points="15.344,1.148 14.531,0.375 14.359,0.375 15.344,1.312 	"/>
	<polygon clip-path="url(#XMLID_9_)" fill="#344558" points="14.703,0.375 15.344,0.988 15.344,1.148 14.531,0.375 	"/>
	<polygon clip-path="url(#XMLID_9_)" fill="#344558" points="15.344,0.824 14.871,0.375 14.703,0.375 15.344,0.988 	"/>
	<polygon clip-path="url(#XMLID_9_)" fill="#344558" points="15.039,0.375 15.344,0.664 15.344,0.824 14.871,0.375 	"/>
	<polygon clip-path="url(#XMLID_9_)" fill="#344558" points="15.344,0.5 15.211,0.375 15.039,0.375 15.344,0.664 	"/>
	<polygon clip-path="url(#XMLID_9_)" fill="#344558" points="15.344,0.5 15.211,0.375 15.344,0.375 	"/>
</g>
<path fill="#AEADAE" d="M14.97,7.858c0,3.92-3.189,7.109-7.11,7.109c-3.92,0-7.109-3.189-7.109-7.109
	c0-3.919,3.189-7.108,7.109-7.108C11.78,0.75,14.97,3.939,14.97,7.858z M7.859,0C3.525,0,0,3.525,0,7.858s3.525,7.859,7.859,7.859
	s7.86-3.526,7.86-7.859S12.193,0,7.859,0z"/>
<path fill="#FFFFFF" d="M10.306,3.952v0.946H6.873L6.555,6.922C7.027,6.581,7.49,6.438,8.084,6.438c1.605,0,2.529,1.21,2.529,2.574
	c0,1.606-1.166,2.662-2.75,2.662c-0.627,0-1.298-0.188-1.738-0.55C5.41,10.552,5.322,9.693,5.289,9.331l1.045-0.065
	C6.346,9.43,6.367,9.693,6.488,9.947c0.231,0.517,0.748,0.814,1.408,0.814c1.178,0,1.661-0.925,1.661-1.738
	c0-0.914-0.594-1.694-1.683-1.694c-0.891,0-1.31,0.473-1.551,0.759L5.455,8.044l0.582-4.092H10.306z"/>
</svg>
