<?xml version="1.0" encoding="utf-8"?>
<!-- Generator: Adobe Illustrator 12.0.1, SVG Export Plug-In  -->
<!DOCTYPE svg PUBLIC "-//W3C//DTD SVG 1.1//EN" "http://www.w3.org/Graphics/SVG/1.1/DTD/svg11.dtd" [
	<!ENTITY ns_flows "http://ns.adobe.com/Flows/1.0/">
	<!ENTITY ns_svg "http://www.w3.org/2000/svg">
	<!ENTITY ns_xlink "http://www.w3.org/1999/xlink">
]>
<svg  version="1.1" xmlns="&ns_svg;" xmlns:xlink="&ns_xlink;" xmlns:a="http://ns.adobe.com/AdobeSVGViewerExtensions/3.0/"
	 width="17" height="17" viewBox="-0.75 -0.857 17 17" enable-background="new -0.75 -0.857 17 17" xml:space="preserve">
<defs>
</defs>
<g>
	<defs>
		<circle id="XMLID_6_" cx="7.86" cy="7.859" r="7.485"/>
	</defs>
	<clipPath id="XMLID_9_">
		<use xlink:href="#XMLID_6_" />
	</clipPath>
	<polygon clip-path="url(#XMLID_9_)" fill="#CBD2D8" points="0.375,11.393 4.133,15.342 0.375,15.342 	"/>
	<polygon clip-path="url(#XMLID_9_)" fill="#CBD2D8" points="0.375,11.225 4.293,15.342 4.133,15.342 0.375,11.393 	"/>
	<polygon clip-path="url(#XMLID_9_)" fill="#C9D0D5" points="0.375,11.053 4.453,15.342 4.293,15.342 0.375,11.225 	"/>
	<polygon clip-path="url(#XMLID_9_)" fill="#C6CDD3" points="0.375,10.885 4.617,15.342 4.453,15.342 0.375,11.053 	"/>
	<polygon clip-path="url(#XMLID_9_)" fill="#C5CCD2" points="0.375,10.713 4.777,15.342 4.617,15.342 0.375,10.885 	"/>
	<polygon clip-path="url(#XMLID_9_)" fill="#C3C9D0" points="0.375,10.545 4.941,15.342 4.777,15.342 0.375,10.713 	"/>
	<polygon clip-path="url(#XMLID_9_)" fill="#C1C8CE" points="0.375,10.373 5.102,15.342 4.941,15.342 0.375,10.545 	"/>
	<polygon clip-path="url(#XMLID_9_)" fill="#BFC5CC" points="5.266,15.342 0.375,10.205 0.375,10.373 5.102,15.342 	"/>
	<polygon clip-path="url(#XMLID_9_)" fill="#BEC4CB" points="0.375,10.033 5.426,15.342 5.266,15.342 0.375,10.205 	"/>
	<polygon clip-path="url(#XMLID_9_)" fill="#BBC2C9" points="0.375,9.865 5.586,15.342 5.426,15.342 0.375,10.033 	"/>
	<polygon clip-path="url(#XMLID_9_)" fill="#BAC0C8" points="0.375,9.693 5.75,15.342 5.586,15.342 0.375,9.865 	"/>
	<polygon clip-path="url(#XMLID_9_)" fill="#B7BEC6" points="5.91,15.342 0.375,9.525 0.375,9.693 5.75,15.342 	"/>
	<polygon clip-path="url(#XMLID_9_)" fill="#B6BDC5" points="0.375,9.354 6.07,15.342 5.91,15.342 0.375,9.525 	"/>
	<polygon clip-path="url(#XMLID_9_)" fill="#B5BBC3" points="0.375,9.182 6.234,15.342 6.07,15.342 0.375,9.354 	"/>
	<polygon clip-path="url(#XMLID_9_)" fill="#B3BAC2" points="0.375,9.014 6.395,15.342 6.234,15.342 0.375,9.182 	"/>
	<polygon clip-path="url(#XMLID_9_)" fill="#B1B7C0" points="0.375,8.846 6.555,15.342 6.395,15.342 0.375,9.014 	"/>
	<polygon clip-path="url(#XMLID_9_)" fill="#B0B6BF" points="0.375,8.674 6.719,15.342 6.555,15.342 0.375,8.846 	"/>
	<polygon clip-path="url(#XMLID_9_)" fill="#AEB5BE" points="0.375,8.502 6.879,15.342 6.719,15.342 0.375,8.674 	"/>
	<polygon clip-path="url(#XMLID_9_)" fill="#ADB3BC" points="7.043,15.342 0.375,8.334 0.375,8.502 6.879,15.342 	"/>
	<polygon clip-path="url(#XMLID_9_)" fill="#ABB2BC" points="0.375,8.166 7.203,15.342 7.043,15.342 0.375,8.334 	"/>
	<polygon clip-path="url(#XMLID_9_)" fill="#AAB0BA" points="0.375,7.994 7.367,15.342 7.203,15.342 0.375,8.166 	"/>
	<polygon clip-path="url(#XMLID_9_)" fill="#A8AEB8" points="0.375,7.822 7.527,15.342 7.367,15.342 0.375,7.994 	"/>
	<polygon clip-path="url(#XMLID_9_)" fill="#A6ADB7" points="0.375,7.654 7.688,15.342 7.527,15.342 0.375,7.822 	"/>
	<polygon clip-path="url(#XMLID_9_)" fill="#A6ACB6" points="0.375,7.486 7.852,15.342 7.688,15.342 0.375,7.654 	"/>
	<polygon clip-path="url(#XMLID_9_)" fill="#A3AAB4" points="0.375,7.314 8.012,15.342 7.852,15.342 0.375,7.486 	"/>
	<polygon clip-path="url(#XMLID_9_)" fill="#A2A8B3" points="8.172,15.342 0.375,7.143 0.375,7.314 8.012,15.342 	"/>
	<polygon clip-path="url(#XMLID_9_)" fill="#A0A7B1" points="0.375,6.975 8.336,15.342 8.172,15.342 0.375,7.143 	"/>
	<polygon clip-path="url(#XMLID_9_)" fill="#9FA6B0" points="0.375,6.803 8.496,15.342 8.336,15.342 0.375,6.975 	"/>
	<polygon clip-path="url(#XMLID_9_)" fill="#9EA4AF" points="0.375,6.635 8.66,15.342 8.496,15.342 0.375,6.803 	"/>
	<polygon clip-path="url(#XMLID_9_)" fill="#9CA3AE" points="0.375,6.463 8.82,15.342 8.66,15.342 0.375,6.635 	"/>
	<polygon clip-path="url(#XMLID_9_)" fill="#9BA1AD" points="0.375,6.295 8.984,15.342 8.82,15.342 0.375,6.463 	"/>
	<polygon clip-path="url(#XMLID_9_)" fill="#9AA0AB" points="0.375,6.127 9.145,15.342 8.984,15.342 0.375,6.295 	"/>
	<polygon clip-path="url(#XMLID_9_)" fill="#989FAA" points="9.305,15.342 0.375,5.955 0.375,6.127 9.145,15.342 	"/>
	<polygon clip-path="url(#XMLID_9_)" fill="#979EAA" points="0.375,5.783 9.469,15.342 9.305,15.342 0.375,5.955 	"/>
	<polygon clip-path="url(#XMLID_9_)" fill="#969CA8" points="0.375,5.615 9.629,15.342 9.469,15.342 0.375,5.783 	"/>
	<polygon clip-path="url(#XMLID_9_)" fill="#949BA7" points="9.789,15.342 0.375,5.443 0.375,5.615 9.629,15.342 	"/>
	<polygon clip-path="url(#XMLID_9_)" fill="#9399A5" points="9.953,15.342 0.375,5.275 0.375,5.443 9.789,15.342 	"/>
	<polygon clip-path="url(#XMLID_9_)" fill="#9298A4" points="10.113,15.342 0.375,5.104 0.375,5.275 9.953,15.342 	"/>
	<polygon clip-path="url(#XMLID_9_)" fill="#9097A3" points="0.375,4.936 10.273,15.342 10.113,15.342 0.375,5.104 	"/>
	<polygon clip-path="url(#XMLID_9_)" fill="#8F95A2" points="0.375,4.764 10.438,15.342 10.273,15.342 0.375,4.936 	"/>
	<polygon clip-path="url(#XMLID_9_)" fill="#8E95A1" points="0.375,4.596 10.598,15.342 10.438,15.342 0.375,4.764 	"/>
	<polygon clip-path="url(#XMLID_9_)" fill="#8D93A0" points="0.375,4.424 10.762,15.342 10.598,15.342 0.375,4.596 	"/>
	<polygon clip-path="url(#XMLID_9_)" fill="#8B929F" points="0.375,4.256 10.922,15.342 10.762,15.342 0.375,4.424 	"/>
	<polygon clip-path="url(#XMLID_9_)" fill="#8A919E" points="11.086,15.342 0.375,4.084 0.375,4.256 10.922,15.342 	"/>
	<polygon clip-path="url(#XMLID_9_)" fill="#898F9D" points="0.375,3.916 11.246,15.342 11.086,15.342 0.375,4.084 	"/>
	<polygon clip-path="url(#XMLID_9_)" fill="#878E9B" points="0.375,3.744 11.406,15.342 11.246,15.342 0.375,3.916 	"/>
	<polygon clip-path="url(#XMLID_9_)" fill="#878D9B" points="0.375,3.576 11.57,15.342 11.406,15.342 0.375,3.744 	"/>
	<polygon clip-path="url(#XMLID_9_)" fill="#858C9A" points="0.375,3.404 11.73,15.342 11.57,15.342 0.375,3.576 	"/>
	<polygon clip-path="url(#XMLID_9_)" fill="#848B98" points="11.891,15.342 0.375,3.236 0.375,3.404 11.73,15.342 	"/>
	<polygon clip-path="url(#XMLID_9_)" fill="#838A97" points="0.375,3.064 12.055,15.342 11.891,15.342 0.375,3.236 	"/>
	<polygon clip-path="url(#XMLID_9_)" fill="#828997" points="0.375,2.896 12.215,15.342 12.055,15.342 0.375,3.064 	"/>
	<polygon clip-path="url(#XMLID_9_)" fill="#818895" points="0.375,2.725 12.375,15.342 12.215,15.342 0.375,2.896 	"/>
	<polygon clip-path="url(#XMLID_9_)" fill="#808794" points="0.375,2.557 12.539,15.342 12.375,15.342 0.375,2.725 	"/>
	<polygon clip-path="url(#XMLID_9_)" fill="#7E8594" points="0.375,2.385 12.703,15.342 12.539,15.342 0.375,2.557 	"/>
	<polygon clip-path="url(#XMLID_9_)" fill="#7D8593" points="0.375,2.213 12.863,15.342 12.703,15.342 0.375,2.385 	"/>
	<polygon clip-path="url(#XMLID_9_)" fill="#7C8392" points="0.375,2.045 13.023,15.342 12.863,15.342 0.375,2.213 	"/>
	<polygon clip-path="url(#XMLID_9_)" fill="#7B8290" points="13.188,15.342 0.375,1.877 0.375,2.045 13.023,15.342 	"/>
	<polygon clip-path="url(#XMLID_9_)" fill="#7A8190" points="0.375,1.705 13.348,15.342 13.188,15.342 0.375,1.877 	"/>
	<polygon clip-path="url(#XMLID_9_)" fill="#79808F" points="0.375,1.533 13.508,15.342 13.348,15.342 0.375,1.705 	"/>
	<polygon clip-path="url(#XMLID_9_)" fill="#787F8D" points="0.375,1.365 13.672,15.342 13.508,15.342 0.375,1.533 	"/>
	<polygon clip-path="url(#XMLID_9_)" fill="#777E8D" points="0.375,1.197 13.832,15.342 13.672,15.342 0.375,1.365 	"/>
	<polygon clip-path="url(#XMLID_9_)" fill="#767D8C" points="0.375,1.025 13.992,15.342 13.832,15.342 0.375,1.197 	"/>
	<polygon clip-path="url(#XMLID_9_)" fill="#767C8B" points="0.375,0.854 14.156,15.342 13.992,15.342 0.375,1.025 	"/>
	<polygon clip-path="url(#XMLID_9_)" fill="#747B8A" points="0.375,0.803 0.434,0.748 14.316,15.342 14.156,15.342 0.375,0.854 	"/>
	<polygon clip-path="url(#XMLID_9_)" fill="#737A89" points="14.477,15.342 0.52,0.666 0.434,0.748 14.316,15.342 	"/>
	<polygon clip-path="url(#XMLID_9_)" fill="#727989" points="0.52,0.666 0.602,0.584 14.641,15.342 14.477,15.342 	"/>
	<polygon clip-path="url(#XMLID_9_)" fill="#717888" points="0.602,0.584 0.688,0.506 14.805,15.342 14.641,15.342 	"/>
	<polygon clip-path="url(#XMLID_9_)" fill="#707786" points="0.688,0.506 0.773,0.424 14.93,15.307 14.895,15.342 14.805,15.342 	
		"/>
	<polygon clip-path="url(#XMLID_9_)" fill="#6F7686" points="0.773,0.424 0.824,0.377 0.891,0.377 15.016,15.229 14.93,15.307 	"/>
	<polygon clip-path="url(#XMLID_9_)" fill="#6D7585" points="1.051,0.377 15.102,15.146 15.016,15.229 0.891,0.377 	"/>
	<polygon clip-path="url(#XMLID_9_)" fill="#6D7584" points="1.211,0.377 15.188,15.064 15.102,15.146 1.051,0.377 	"/>
	<polygon clip-path="url(#XMLID_9_)" fill="#6C7383" points="15.188,15.064 15.273,14.986 1.375,0.377 1.211,0.377 	"/>
	<polygon clip-path="url(#XMLID_9_)" fill="#6B7383" points="1.535,0.377 15.344,14.893 15.344,14.916 15.273,14.986 1.375,0.377 	
		"/>
	<polygon clip-path="url(#XMLID_9_)" fill="#6A7281" points="15.344,14.725 1.695,0.377 1.535,0.377 15.344,14.893 	"/>
	<polygon clip-path="url(#XMLID_9_)" fill="#697181" points="1.859,0.377 15.344,14.553 15.344,14.725 1.695,0.377 	"/>
	<polygon clip-path="url(#XMLID_9_)" fill="#697080" points="2.02,0.377 15.344,14.385 15.344,14.553 1.859,0.377 	"/>
	<polygon clip-path="url(#XMLID_9_)" fill="#686F7F" points="2.18,0.377 15.344,14.213 15.344,14.385 2.02,0.377 	"/>
	<polygon clip-path="url(#XMLID_9_)" fill="#676E7E" points="2.344,0.377 15.344,14.041 15.344,14.213 2.18,0.377 	"/>
	<polygon clip-path="url(#XMLID_9_)" fill="#656D7D" points="2.508,0.377 15.344,13.873 15.344,14.041 2.344,0.377 	"/>
	<polygon clip-path="url(#XMLID_9_)" fill="#646C7D" points="2.668,0.377 15.344,13.705 15.344,13.873 2.508,0.377 	"/>
	<polygon clip-path="url(#XMLID_9_)" fill="#646C7C" points="2.828,0.377 15.344,13.533 15.344,13.705 2.668,0.377 	"/>
	<polygon clip-path="url(#XMLID_9_)" fill="#636B7C" points="2.992,0.377 15.344,13.361 15.344,13.533 2.828,0.377 	"/>
	<polygon clip-path="url(#XMLID_9_)" fill="#626B7B" points="15.344,13.193 3.152,0.377 2.992,0.377 15.344,13.361 	"/>
	<polygon clip-path="url(#XMLID_9_)" fill="#616A7A" points="3.312,0.377 15.344,13.021 15.344,13.193 3.152,0.377 	"/>
	<polygon clip-path="url(#XMLID_9_)" fill="#606979" points="3.477,0.377 15.344,12.854 15.344,13.021 3.312,0.377 	"/>
	<polygon clip-path="url(#XMLID_9_)" fill="#5F6878" points="15.344,12.682 3.637,0.377 3.477,0.377 15.344,12.854 	"/>
	<polygon clip-path="url(#XMLID_9_)" fill="#5F6878" points="3.797,0.377 15.344,12.514 15.344,12.682 3.637,0.377 	"/>
	<polygon clip-path="url(#XMLID_9_)" fill="#5E6777" points="3.961,0.377 15.344,12.346 15.344,12.514 3.797,0.377 	"/>
	<polygon clip-path="url(#XMLID_9_)" fill="#5D6676" points="15.344,12.174 4.121,0.377 3.961,0.377 15.344,12.346 	"/>
	<polygon clip-path="url(#XMLID_9_)" fill="#5C6576" points="4.285,0.377 15.344,12.002 15.344,12.174 4.121,0.377 	"/>
	<polygon clip-path="url(#XMLID_9_)" fill="#5B6475" points="4.445,0.377 15.344,11.834 15.344,12.002 4.285,0.377 	"/>
	<polygon clip-path="url(#XMLID_9_)" fill="#5B6475" points="4.609,0.377 15.344,11.662 15.344,11.834 4.445,0.377 	"/>
	<polygon clip-path="url(#XMLID_9_)" fill="#5A6373" points="4.77,0.377 15.344,11.494 15.344,11.662 4.609,0.377 	"/>
	<polygon clip-path="url(#XMLID_9_)" fill="#596273" points="4.93,0.377 15.344,11.322 15.344,11.494 4.77,0.377 	"/>
	<polygon clip-path="url(#XMLID_9_)" fill="#586172" points="5.094,0.377 15.344,11.15 15.344,11.322 4.93,0.377 	"/>
	<polygon clip-path="url(#XMLID_9_)" fill="#576172" points="5.254,0.377 15.344,10.982 15.344,11.15 5.094,0.377 	"/>
	<polygon clip-path="url(#XMLID_9_)" fill="#566071" points="5.414,0.377 15.344,10.814 15.344,10.982 5.254,0.377 	"/>
	<polygon clip-path="url(#XMLID_9_)" fill="#566070" points="5.578,0.377 15.344,10.643 15.344,10.814 5.414,0.377 	"/>
	<polygon clip-path="url(#XMLID_9_)" fill="#555F70" points="5.738,0.377 15.344,10.475 15.344,10.643 5.578,0.377 	"/>
	<polygon clip-path="url(#XMLID_9_)" fill="#545E6F" points="5.898,0.377 15.344,10.303 15.344,10.475 5.738,0.377 	"/>
	<polygon clip-path="url(#XMLID_9_)" fill="#535E6F" points="6.062,0.377 15.344,10.135 15.344,10.303 5.898,0.377 	"/>
	<polygon clip-path="url(#XMLID_9_)" fill="#535D6E" points="6.223,0.377 15.344,9.963 15.344,10.135 6.062,0.377 	"/>
	<polygon clip-path="url(#XMLID_9_)" fill="#525C6D" points="6.387,0.377 15.344,9.795 15.344,9.963 6.223,0.377 	"/>
	<polygon clip-path="url(#XMLID_9_)" fill="#515C6D" points="15.344,9.623 6.547,0.377 6.387,0.377 15.344,9.795 	"/>
	<polygon clip-path="url(#XMLID_9_)" fill="#505B6C" points="6.711,0.377 15.344,9.455 15.344,9.623 6.547,0.377 	"/>
	<polygon clip-path="url(#XMLID_9_)" fill="#505B6C" points="6.871,0.377 15.344,9.283 15.344,9.455 6.711,0.377 	"/>
	<polygon clip-path="url(#XMLID_9_)" fill="#505A6B" points="7.031,0.377 15.344,9.111 15.344,9.283 6.871,0.377 	"/>
	<polygon clip-path="url(#XMLID_9_)" fill="#4F596A" points="15.344,8.943 7.195,0.377 7.031,0.377 15.344,9.111 	"/>
	<polygon clip-path="url(#XMLID_9_)" fill="#4E596A" points="7.355,0.377 15.344,8.775 15.344,8.943 7.195,0.377 	"/>
	<polygon clip-path="url(#XMLID_9_)" fill="#4D5869" points="7.516,0.377 15.344,8.604 15.344,8.775 7.355,0.377 	"/>
	<polygon clip-path="url(#XMLID_9_)" fill="#4C5869" points="7.68,0.377 15.344,8.432 15.344,8.604 7.516,0.377 	"/>
	<polygon clip-path="url(#XMLID_9_)" fill="#4C5768" points="7.84,0.377 15.344,8.264 15.344,8.432 7.68,0.377 	"/>
	<polygon clip-path="url(#XMLID_9_)" fill="#4B5768" points="15.344,8.096 8,0.377 7.84,0.377 15.344,8.264 	"/>
	<polygon clip-path="url(#XMLID_9_)" fill="#4B5667" points="8.164,0.377 15.344,7.924 15.344,8.096 8,0.377 	"/>
	<polygon clip-path="url(#XMLID_9_)" fill="#4A5567" points="8.328,0.377 15.344,7.752 15.344,7.924 8.164,0.377 	"/>
	<polygon clip-path="url(#XMLID_9_)" fill="#495566" points="8.488,0.377 15.344,7.584 15.344,7.752 8.328,0.377 	"/>
	<polygon clip-path="url(#XMLID_9_)" fill="#485566" points="15.344,7.412 8.648,0.377 8.488,0.377 15.344,7.584 	"/>
	<polygon clip-path="url(#XMLID_9_)" fill="#485466" points="15.344,7.244 8.812,0.377 8.648,0.377 15.344,7.412 	"/>
	<polygon clip-path="url(#XMLID_9_)" fill="#475365" points="8.973,0.377 15.344,7.072 15.344,7.244 8.812,0.377 	"/>
	<polygon clip-path="url(#XMLID_9_)" fill="#475365" points="9.133,0.377 15.344,6.904 15.344,7.072 8.973,0.377 	"/>
	<polygon clip-path="url(#XMLID_9_)" fill="#465264" points="9.297,0.377 15.344,6.732 15.344,6.904 9.133,0.377 	"/>
	<polygon clip-path="url(#XMLID_9_)" fill="#455264" points="9.457,0.377 15.344,6.564 15.344,6.732 9.297,0.377 	"/>
	<polygon clip-path="url(#XMLID_9_)" fill="#445263" points="9.617,0.377 15.344,6.393 15.344,6.564 9.457,0.377 	"/>
	<polygon clip-path="url(#XMLID_9_)" fill="#445163" points="9.781,0.377 15.344,6.225 15.344,6.393 9.617,0.377 	"/>
	<polygon clip-path="url(#XMLID_9_)" fill="#445062" points="9.941,0.377 15.344,6.053 15.344,6.225 9.781,0.377 	"/>
	<polygon clip-path="url(#XMLID_9_)" fill="#425062" points="10.105,0.377 15.344,5.885 15.344,6.053 9.941,0.377 	"/>
	<polygon clip-path="url(#XMLID_9_)" fill="#425062" points="10.266,0.377 15.344,5.713 15.344,5.885 10.105,0.377 	"/>
	<polygon clip-path="url(#XMLID_9_)" fill="#424F61" points="10.43,0.377 15.344,5.545 15.344,5.713 10.266,0.377 	"/>
	<polygon clip-path="url(#XMLID_9_)" fill="#414F61" points="10.59,0.377 15.344,5.373 15.344,5.545 10.43,0.377 	"/>
	<polygon clip-path="url(#XMLID_9_)" fill="#404E60" points="10.75,0.377 15.344,5.205 15.344,5.373 10.59,0.377 	"/>
	<polygon clip-path="url(#XMLID_9_)" fill="#3F4E60" points="10.914,0.377 15.344,5.033 15.344,5.205 10.75,0.377 	"/>
	<polygon clip-path="url(#XMLID_9_)" fill="#3F4D60" points="11.074,0.377 15.344,4.865 15.344,5.033 10.914,0.377 	"/>
	<polygon clip-path="url(#XMLID_9_)" fill="#3F4D5F" points="11.234,0.377 15.344,4.693 15.344,4.865 11.074,0.377 	"/>
	<polygon clip-path="url(#XMLID_9_)" fill="#3E4D5F" points="15.344,4.525 11.398,0.377 11.234,0.377 15.344,4.693 	"/>
	<polygon clip-path="url(#XMLID_9_)" fill="#3E4C5E" points="11.559,0.377 15.344,4.354 15.344,4.525 11.398,0.377 	"/>
	<polygon clip-path="url(#XMLID_9_)" fill="#3D4C5E" points="11.723,0.377 15.344,4.186 15.344,4.354 11.559,0.377 	"/>
	<polygon clip-path="url(#XMLID_9_)" fill="#3D4C5E" points="15.344,4.014 11.883,0.377 11.723,0.377 15.344,4.186 	"/>
	<polygon clip-path="url(#XMLID_9_)" fill="#3C4B5D" points="12.047,0.377 15.344,3.846 15.344,4.014 11.883,0.377 	"/>
	<polygon clip-path="url(#XMLID_9_)" fill="#3C4B5D" points="12.207,0.377 15.344,3.674 15.344,3.846 12.047,0.377 	"/>
	<polygon clip-path="url(#XMLID_9_)" fill="#3C4B5D" points="12.367,0.377 15.344,3.506 15.344,3.674 12.207,0.377 	"/>
	<polygon clip-path="url(#XMLID_9_)" fill="#3B4A5C" points="12.531,0.377 15.344,3.334 15.344,3.506 12.367,0.377 	"/>
	<polygon clip-path="url(#XMLID_9_)" fill="#3B4A5C" points="15.344,3.166 12.691,0.377 12.531,0.377 15.344,3.334 	"/>
	<polygon clip-path="url(#XMLID_9_)" fill="#3A495C" points="12.852,0.377 15.344,2.994 15.344,3.166 12.691,0.377 	"/>
	<polygon clip-path="url(#XMLID_9_)" fill="#3A495B" points="13.016,0.377 15.344,2.822 15.344,2.994 12.852,0.377 	"/>
	<polygon clip-path="url(#XMLID_9_)" fill="#39495B" points="13.176,0.377 15.344,2.654 15.344,2.822 13.016,0.377 	"/>
	<polygon clip-path="url(#XMLID_9_)" fill="#38495B" points="13.336,0.377 15.344,2.486 15.344,2.654 13.176,0.377 	"/>
	<polygon clip-path="url(#XMLID_9_)" fill="#38485B" points="13.5,0.377 15.344,2.314 15.344,2.486 13.336,0.377 	"/>
	<polygon clip-path="url(#XMLID_9_)" fill="#38485A" points="13.664,0.377 15.344,2.143 15.344,2.314 13.5,0.377 	"/>
	<polygon clip-path="url(#XMLID_9_)" fill="#37485A" points="13.824,0.377 15.344,1.975 15.344,2.143 13.664,0.377 	"/>
	<polygon clip-path="url(#XMLID_9_)" fill="#38475A" points="15.344,1.807 13.984,0.377 13.824,0.377 15.344,1.975 	"/>
	<polygon clip-path="url(#XMLID_9_)" fill="#37475A" points="15.344,1.635 14.148,0.377 13.984,0.377 15.344,1.807 	"/>
	<polygon clip-path="url(#XMLID_9_)" fill="#374659" points="14.309,0.377 15.344,1.463 15.344,1.635 14.148,0.377 	"/>
	<polygon clip-path="url(#XMLID_9_)" fill="#364659" points="14.469,0.377 15.344,1.295 15.344,1.463 14.309,0.377 	"/>
	<polygon clip-path="url(#XMLID_9_)" fill="#364659" points="14.633,0.377 15.344,1.123 15.344,1.295 14.469,0.377 	"/>
	<polygon clip-path="url(#XMLID_9_)" fill="#364659" points="14.793,0.377 15.344,0.955 15.344,1.123 14.633,0.377 	"/>
	<polygon clip-path="url(#XMLID_9_)" fill="#354659" points="14.953,0.377 15.344,0.783 15.344,0.955 14.793,0.377 	"/>
	<polygon clip-path="url(#XMLID_9_)" fill="#354659" points="15.117,0.377 15.344,0.615 15.344,0.783 14.953,0.377 	"/>
	<polygon clip-path="url(#XMLID_9_)" fill="#354658" points="15.277,0.377 15.344,0.443 15.344,0.615 15.117,0.377 	"/>
	<polygon clip-path="url(#XMLID_9_)" fill="#344558" points="15.344,0.443 15.277,0.377 15.344,0.377 	"/>
</g>
<path fill="#AEADAE" d="M14.97,7.859c0,3.92-3.189,7.108-7.109,7.108c-3.921,0-7.11-3.188-7.11-7.108S3.939,0.75,7.86,0.75
	C11.78,0.75,14.97,3.939,14.97,7.859z M7.86,0C3.526,0,0,3.525,0,7.859c0,4.333,3.526,7.858,7.86,7.858s7.859-3.525,7.859-7.858
	C15.72,3.525,12.194,0,7.86,0z"/>
<path fill="#FFFFFF" d="M10.668,9.309c0,1.387-1,2.332-2.738,2.332c-1.551,0-2.85-0.748-2.85-2.354c0-0.439,0.1-1.023,0.639-1.529
	c0.33-0.297,0.594-0.385,0.77-0.451C6.346,7.252,6.125,7.154,5.906,6.922c-0.297-0.318-0.463-0.791-0.463-1.23
	c0-0.596,0.286-1.156,0.781-1.508c0.583-0.418,1.32-0.439,1.661-0.439c2.409,0,2.497,1.781,2.497,1.99
	c0,0.406-0.154,1.166-1.045,1.572C9.701,7.484,10.668,7.957,10.668,9.309z M9.635,9.266c0-0.814-0.671-1.451-1.782-1.451
	c-0.979,0-1.728,0.537-1.728,1.463c0,0.812,0.605,1.451,1.75,1.451C9.359,10.729,9.635,9.727,9.635,9.266z M7.908,4.623
	c-0.275,0-0.506,0.023-0.715,0.1c-0.584,0.221-0.748,0.67-0.748,1.057c0,0.582,0.406,1.154,1.44,1.154
	c1.353,0,1.452-0.902,1.452-1.166C9.338,5.283,9.062,4.623,7.908,4.623z"/>
</svg>
