<?xml version="1.0" encoding="UTF-8" standalone="no"?>
<!-- Created with Inkscape (http://www.inkscape.org/) -->

<svg
   xmlns:dc="http://purl.org/dc/elements/1.1/"
   xmlns:cc="http://creativecommons.org/ns#"
   xmlns:rdf="http://www.w3.org/1999/02/22-rdf-syntax-ns#"
   xmlns:svg="http://www.w3.org/2000/svg"
   xmlns="http://www.w3.org/2000/svg"
   xmlns:sodipodi="http://sodipodi.sourceforge.net/DTD/sodipodi-0.dtd"
   xmlns:inkscape="http://www.inkscape.org/namespaces/inkscape"
   width="300"
   height="49.756882"
   id="svg2"
   version="1.1"
   inkscape:version="0.46+devel"
   sodipodi:docname="title_logo.svg">
  <defs
     id="defs4">
    <inkscape:perspective
       sodipodi:type="inkscape:persp3d"
       inkscape:vp_x="0 : 526.18109 : 1"
       inkscape:vp_y="0 : 1000 : 0"
       inkscape:vp_z="744.09448 : 526.18109 : 1"
       inkscape:persp3d-origin="372.04724 : 350.78739 : 1"
       id="perspective10" />
    <inkscape:perspective
       id="perspective2920"
       inkscape:persp3d-origin="0.5 : 0.33333333 : 1"
       inkscape:vp_z="1 : 0.5 : 1"
       inkscape:vp_y="0 : 1000 : 0"
       inkscape:vp_x="0 : 0.5 : 1"
       sodipodi:type="inkscape:persp3d" />
  </defs>
  <sodipodi:namedview
     id="base"
     pagecolor="#ffffff"
     bordercolor="#666666"
     borderopacity="1.0"
     inkscape:pageopacity="0.0"
     inkscape:pageshadow="2"
     inkscape:zoom="2.298539"
     inkscape:cx="259.64632"
     inkscape:cy="114.614"
     inkscape:document-units="px"
     inkscape:current-layer="g2931"
     showgrid="false"
     showguides="true"
     inkscape:guide-bbox="true"
     inkscape:window-width="1680"
     inkscape:window-height="990"
     inkscape:window-x="-4"
     inkscape:window-y="-3"
     inkscape:window-maximized="1"
     inkscape:showpageshadow="false" />
  <metadata
     id="metadata7">
    <rdf:RDF>
      <cc:Work
         rdf:about="">
        <dc:format>image/svg+xml</dc:format>
        <dc:type
           rdf:resource="http://purl.org/dc/dcmitype/StillImage" />
        <dc:title />
      </cc:Work>
    </rdf:RDF>
  </metadata>
  <g
     inkscape:label="Layer 1"
     inkscape:groupmode="layer"
     id="layer1"
     transform="translate(-4.3001258e-6,-1002.6053)">
    <g
       id="g2931"
       transform="translate(-62.857143,-28.57143)">
      <path
         style="fill:#fdfdfd"
         d="m -770.78571,495.21927 0,-321 1156.5,0 1156.50001,0 0,321 0,321 -1156.50001,0 -1156.5,0 0,-321 z"
         id="path2947" />
      <g
         id="g2965"
         transform="matrix(0.50038199,0,0,0.50038199,394.38553,675.97912)">
        <g
           id="g2949">
          <g
             id="g2952">
            <g
               id="g2955">
              <g
                 id="g2962">
                <path
                   id="path2939"
                   d="m -624.44745,808.93338 c -0.64825,-0.72334 -18.48229,-31.80908 -18.36785,-32.01621 0.0652,-0.11791 8.47383,-0.21439 18.68596,-0.21439 l 18.56751,0 0.94288,-1.50076 c 0.51858,-0.82542 4.85282,-8.28634 9.63165,-16.57982 4.77883,-8.29348 8.82306,-15.07539 8.98718,-15.07091 0.2378,0.006 17.92557,30.31258 18.83548,32.27257 0.1874,0.40367 -1.90666,4.2444 -9.26567,16.99419 l -9.50779,16.47265 -19.09456,0 c -14.91429,0 -19.16467,-0.0782 -19.41479,-0.35732 z m -20.08284,-33.98419 c -0.71376,-1.13071 -17.52929,-30.34094 -18.0203,-31.30303 l 3.05123,-7.00355 c 12.04771,-20.96275 14.90489,-25.88397 15.28829,-26.33257 0.40273,-0.4712 1.61191,-0.49771 19.5573,-0.42879 l 19.12803,0.0735 9.24352,16.0081 9.24351,16.00811 -18.68428,0.14293 c -11.90465,0.0911 -18.77929,0.24665 -18.9461,0.42878 -0.144,0.15723 -4.40908,7.48951 -9.47795,16.29396 -5.06887,8.80446 -9.38269,16.18376 -9.58626,16.39845 -0.3103,0.32726 -0.43913,0.28105 -0.79699,-0.28585 l 0,-4e-5 z m 367.98502,-32.12624 0,-32.45017 6.75001,0.0766 6.75002,0.0766 6.84918,11.29143 c 14.50214,23.90788 16.37026,27.06729 19.31826,32.67145 1.67128,3.17712 3.17295,5.8677 3.33703,5.97907 0.16409,0.11137 0.40907,0.0918 0.54442,-0.0436 0.1375,-0.13751 0.10637,-6.21696 -0.0706,-13.78079 -0.17418,-7.4441 -0.31599,-18.64803 -0.31514,-24.89762 l 0.001,-11.3629 4.71668,0 4.71667,0 0,32.44499 0,32.44499 -6.52776,0 -6.52776,0 -12.34136,-20.53407 c -6.78775,-11.29374 -13.44255,-22.67807 -14.78843,-25.29852 -2.24568,-4.37234 -2.99923,-5.37125 -3.32471,-4.40712 -0.0663,0.19653 -0.028,3.05869 0.0854,6.36036 0.11331,3.30168 0.21814,14.52521 0.23297,24.9412 l 0.027,18.93815 -4.71668,0 -4.71667,0 0,-32.45016 4.7e-4,1.1e-4 z m 64.88998,32.35938 c 0,-0.0992 22.03252,-61.61006 22.77521,-63.5843 l 0.45703,-1.2149 5.6234,0 5.62338,0 11.74661,32.37353 11.74663,32.37352 -5.30103,0.0779 c -2.91556,0.0429 -5.35374,0.0252 -5.41817,-0.0392 -0.0644,-0.0644 -1.2127,-3.24911 -2.55169,-7.07705 -1.33899,-3.82795 -2.58628,-7.0564 -2.77172,-7.17434 -0.44757,-0.28464 -26.53643,-0.27782 -26.98477,0.007 -0.19173,0.12182 -1.30752,2.98201 -2.47954,6.35599 -1.17202,3.37397 -2.28193,6.55257 -2.46651,7.06354 l -0.33557,0.92904 -4.83161,0 c -2.65741,-10e-6 -4.83165,-0.0409 -4.83165,-0.0908 l 0,7e-5 z m 38.71051,-22.09387 c 0.2487,-0.0954 0.45217,-0.39629 0.45217,-0.66857 0,-0.27228 -1.8124,-5.49794 -4.02758,-11.61258 -3.59399,-9.92074 -5.97748,-17.20302 -5.97748,-18.26303 0,-0.52453 -0.6718,-1.01827 -1.05948,-0.77867 -0.17912,0.1107 -0.51987,1.03595 -0.75721,2.05613 -0.69804,3.00044 -1.73474,6.085 -5.94219,17.68008 -3.11454,8.58323 -3.90737,11.05194 -3.64933,11.36289 0.27005,0.32538 2.15538,0.39726 10.41933,0.39726 5.54927,0 10.29307,-0.0781 10.54177,-0.17351 z m 36.4704,-5.77489 c 0,-21.92021 -0.0772,-28.06356 -0.35733,-28.44113 -0.31924,-0.43029 -1.2861,-0.4894 -9.07602,-0.55489 l -8.7187,-0.0733 -0.0795,-3.93056 -0.0795,-3.93056 23.02777,0 23.02777,0 -0.0795,3.93056 -0.0795,3.93056 -8.7187,0.0733 c -7.78991,0.0655 -8.75677,0.1246 -9.07602,0.55489 -0.28014,0.37757 -0.35733,6.52092 -0.35733,28.44113 l 0,27.95954 -4.71667,0 -4.71667,0 0,-27.95954 -1e-4,0 z m 39.734389,-4.48545 0,-32.44499 16.865679,0 16.865678,0 0,3.8591 0,3.85909 -11.52266,0 c -8.767409,0 -11.639262,0.0854 -12.010393,0.35733 -0.445425,0.32631 -0.481157,1.17594 -0.411951,9.79067 l 0.07578,9.43334 11.362894,0.0747 11.362893,0.0747 0,3.85582 0,3.85581 -10.881421,0 c -6.954205,0 -11.081008,0.1068 -11.434358,0.29592 -0.530926,0.28413 -0.552937,0.70484 -0.552937,10.56672 0,9.86189 0.02201,10.28259 0.552937,10.56673 0.354751,0.18986 4.657786,0.29591 12.006076,0.29591 l 11.453139,0 0,4.00203 0,4.00202 -16.865678,0 -16.865679,0 0,-32.44499 10e-7,9e-5 z"
                   style="fill:#baac78"
                   sodipodi:nodetypes="cscccssscccccccscccccssscccccccsssscccccccccsssccccccccccccccsssssccccccssssssssccscccccccccscccccccccccccscccccccssscccccccc" />
              </g>
            </g>
          </g>
        </g>
        <path
           id="path2933"
           d="m -595.10341,792.77127 c -5.72197,-9.91296 -9.18326,-16.19091 -9.10075,-16.50648 0.13679,-0.5231 18.07544,-31.7298 18.47133,-32.13339 0.1211,-0.12344 4.41888,7.05099 9.55063,15.94319 8.28188,14.35072 9.2943,16.23779 9.00884,16.79179 -1.1107,2.15552 -18.38189,31.90214 -18.52271,31.90214 -0.0953,0 -4.32869,-7.19875 -9.40734,-15.99725 z m 151.43407,-17.34894 -1.7865,-0.10145 0.0727,-32.47831 0.0726,-32.47831 9.71189,-0.2217 c 14.13909,-0.32273 18.8827,0.17716 23.8034,2.50849 2.37167,1.12365 5.28221,3.79628 6.29398,5.77949 2.02652,3.97228 2.01534,9.88893 -0.0262,13.91969 -1.42954,2.82244 -4.21153,5.50789 -7.36246,7.10701 -1.02117,0.51826 -1.85668,1.11958 -1.85668,1.33625 0,0.23544 0.86693,0.68807 2.15448,1.12485 4.00925,1.36007 6.92134,3.83805 8.52398,7.25331 1.25031,2.66451 1.55937,4.41805 1.38627,7.86558 -0.25176,5.01461 -1.81539,8.5429 -5.33127,12.02987 -2.37688,2.35734 -4.731,3.75727 -8.37547,4.98068 -3.91913,1.31559 -6.88417,1.58812 -16.63919,1.52935 -4.87022,-0.0294 -9.65887,-0.099 -10.64143,-0.1548 z m 21.92436,-8.2212 c 3.84911,-1.16798 6.52025,-3.30892 7.94842,-6.37072 0.65803,-1.41074 0.75663,-1.99171 0.75992,-4.47751 0.003,-2.54965 -0.0815,-3.0301 -0.79024,-4.47335 -1.40612,-2.86334 -4.43309,-4.89961 -8.65721,-5.82377 -2.54434,-0.55665 -11.3938,-0.87794 -12.47191,-0.45279 l -0.78551,0.30977 0,10.55903 c 0,7.78964 0.0882,10.61352 0.33618,10.76682 1.26433,0.78139 11.05013,0.75454 13.66035,-0.0375 z m -1.57901,-29.55587 c 5.3012,-1.3558 8.20011,-4.09029 8.99144,-8.48144 0.3213,-1.783 0.10678,-4.24981 -0.50463,-5.80277 -1.12357,-2.85377 -4.20542,-4.82062 -8.51108,-5.43181 -2.81132,-0.39907 -11.677,-0.25466 -12.12922,0.19757 -0.16424,0.16424 -0.24192,4.1614 -0.19644,10.10826 l 0.0752,9.83664 1.2854,0.19022 c 2.21528,0.32787 8.72435,-0.0375 10.98931,-0.61667 z m -124.96116,5.13265 0,-32.57028 4.78453,0.0783 4.78453,0.0783 0.14283,13.56807 0.14281,13.56808 15.85324,0 15.85322,0 0.14283,-13.56808 0.14282,-13.56807 4.71311,0 4.71313,0 0.0727,32.49197 0.0726,32.49199 -4.85457,0 -4.85457,0 -0.074,-14.63925 -0.074,-14.63926 -15.85322,0 -15.85323,0 -0.0741,14.63926 -0.074,14.63925 -4.85335,0 -4.85335,0 0,-32.57031 z m 72.33807,0.0783 0.0727,-32.49197 4.71312,0 4.71312,0 0.0727,32.49197 0.0726,32.49199 -4.85837,0 -4.85838,0 0.0727,-32.49199 z m 89.97775,0 0.0727,-32.49197 16.92439,-0.0738 16.92439,-0.0737 0,4.14097 0,4.14096 -11.92562,0.0745 -11.92563,0.0745 0,9.56906 0,9.56906 11.36236,0.0747 11.36239,0.0747 -0.0795,3.92432 -0.0794,3.92432 -11.28294,0.14281 -11.28293,0.14282 0,10.42601 0,10.426 11.92564,0.0745 11.92562,0.0745 0,4.1387 0,4.13872 -16.99703,0 -16.997,0 0.0727,-32.49199 z m 51.3457,0.0883 c 0,-21.42152 0.0973,-32.46388 0.28732,-32.58128 0.59962,-0.37059 18.6571,-0.50974 21.78108,-0.16785 10.0296,1.09768 15.58326,5.02925 17.38699,12.30876 0.5706,2.30281 0.49048,7.72997 -0.14553,9.85471 -1.31298,4.38641 -4.51447,8.22918 -8.60317,10.32644 -2.61073,1.33916 -3.70949,1.72578 -6.70874,2.36064 -1.5454,0.32713 -2.16412,0.58609 -2.23107,0.9338 -0.0527,0.27298 1.06619,1.94144 2.58567,3.85613 1.47306,1.85624 6.32175,8.19521 10.77485,14.08661 4.45313,5.89141 8.2202,10.87232 8.3713,11.0687 0.21784,0.28309 -0.99698,0.35707 -5.86432,0.35707 l -6.13902,0 -10.11728,-14.06797 c -7.4628,-10.37694 -10.283,-14.09189 -10.74892,-14.15922 l -0.63164,-0.0913 0,14.15924 0,14.15924 -4.99876,0 -4.99876,0 0,-32.40373 z m 19.80503,-3.43969 c 3.67071,-0.77773 6.69352,-2.70323 8.34692,-5.31689 2.58218,-4.08184 1.80572,-10.64178 -1.5987,-13.5064 -2.51934,-2.1199 -5.39009,-2.82487 -11.46399,-2.81518 -2.46253,0.004 -4.61557,0.0925 -4.78454,0.19698 -0.2102,0.12991 -0.3072,3.51755 -0.3072,10.72764 0,9.73462 0.038,10.55995 0.49987,10.8289 0.75068,0.43724 7.06972,0.35912 9.30764,-0.11505 z m -329.23918,34.94806 c -1.70912,-2.7234 -18.00879,-31.24664 -18.00879,-31.51408 0,-0.38646 18.44344,-32.43187 18.66205,-32.42524 0.0785,0.002 4.30138,7.21658 9.38405,16.03153 8.6683,15.03357 9.22014,16.07362 8.90132,16.77616 -0.55371,1.2202 -17.75359,30.99188 -18.15058,31.41728 -0.30441,0.32619 -0.43343,0.27944 -0.78805,-0.28565 z"
           style="fill:#58656b" />
      </g>
    </g>
  </g>
</svg>
