<?xml version="1.0" encoding="UTF-8" standalone="no"?>
<!-- Created with Inkscape (http://www.inkscape.org/) -->

<svg
   xmlns:svg="http://www.w3.org/2000/svg"
   xmlns="http://www.w3.org/2000/svg"
   xmlns:xlink="http://www.w3.org/1999/xlink"
   version="1.1"
   width="17"
   height="16"
   viewBox="-0.75 -0.058 17 16"
   id="svg2"
   xml:space="preserve">
<defs
   id="defs4">
</defs>
<g
   id="g6">
	<defs
   id="defs8">
		<circle
   cx="7.8590002"
   cy="7.8579998"
   r="7.4840002"
   id="XMLID_6_" />
	</defs>
	<clipPath
   id="XMLID_9_">
		<use
   id="use12"
   x="0"
   y="0"
   width="17"
   height="16"
   xlink:href="#XMLID_6_" />
	</clipPath>
	<polygon
   points="0.375,15.341 0.375,10.841 4.645,15.341 "
   clip-path="url(#XMLID_9_)"
   id="polygon14"
   style="fill:#cbd2d8" />
	<polygon
   points="0.375,10.841 4.645,15.341 4.797,15.341 0.375,10.681 "
   clip-path="url(#XMLID_9_)"
   id="polygon16"
   style="fill:#cbd2d8" />
	<polygon
   points="0.375,10.681 4.797,15.341 4.953,15.341 0.375,10.521 "
   clip-path="url(#XMLID_9_)"
   id="polygon18"
   style="fill:#c9d0d5" />
	<polygon
   points="4.953,15.341 0.375,10.521 0.375,10.356 5.105,15.341 "
   clip-path="url(#XMLID_9_)"
   id="polygon20"
   style="fill:#c6cdd3" />
	<polygon
   points="5.105,15.341 0.375,10.356 0.375,10.196 5.258,15.341 "
   clip-path="url(#XMLID_9_)"
   id="polygon22"
   style="fill:#c5ccd2" />
	<polygon
   points="5.258,15.341 0.375,10.196 0.375,10.036 5.414,15.341 "
   clip-path="url(#XMLID_9_)"
   id="polygon24"
   style="fill:#c3c9d0" />
	<polygon
   points="5.414,15.341 0.375,10.036 0.375,9.872 5.562,15.341 "
   clip-path="url(#XMLID_9_)"
   id="polygon26"
   style="fill:#c1c8ce" />
	<polygon
   points="5.562,15.341 0.375,9.872 0.375,9.708 5.719,15.341 "
   clip-path="url(#XMLID_9_)"
   id="polygon28"
   style="fill:#bfc5cc" />
	<polygon
   points="0.375,9.708 5.719,15.341 5.871,15.341 0.375,9.548 "
   clip-path="url(#XMLID_9_)"
   id="polygon30"
   style="fill:#bec4cb" />
	<polygon
   points="5.871,15.341 0.375,9.548 0.375,9.388 6.023,15.341 "
   clip-path="url(#XMLID_9_)"
   id="polygon32"
   style="fill:#bbc2c9" />
	<polygon
   points="6.023,15.341 0.375,9.388 0.375,9.224 6.18,15.341 "
   clip-path="url(#XMLID_9_)"
   id="polygon34"
   style="fill:#bac0c8" />
	<polygon
   points="0.375,9.224 6.18,15.341 6.332,15.341 0.375,9.063 "
   clip-path="url(#XMLID_9_)"
   id="polygon36"
   style="fill:#b7bec6" />
	<polygon
   points="6.332,15.341 0.375,9.063 0.375,8.903 6.484,15.341 "
   clip-path="url(#XMLID_9_)"
   id="polygon38"
   style="fill:#b6bdc5" />
	<polygon
   points="6.484,15.341 0.375,8.903 0.375,8.739 6.641,15.341 "
   clip-path="url(#XMLID_9_)"
   id="polygon40"
   style="fill:#b5bbc3" />
	<polygon
   points="6.641,15.341 0.375,8.739 0.375,8.579 6.793,15.341 "
   clip-path="url(#XMLID_9_)"
   id="polygon42"
   style="fill:#b3bac2" />
	<polygon
   points="6.793,15.341 0.375,8.579 0.375,8.419 6.945,15.341 "
   clip-path="url(#XMLID_9_)"
   id="polygon44"
   style="fill:#b1b7c0" />
	<polygon
   points="6.945,15.341 0.375,8.419 0.375,8.255 7.102,15.341 "
   clip-path="url(#XMLID_9_)"
   id="polygon46"
   style="fill:#b0b6bf" />
	<polygon
   points="7.102,15.341 0.375,8.255 0.375,8.095 7.254,15.341 "
   clip-path="url(#XMLID_9_)"
   id="polygon48"
   style="fill:#aeb5be" />
	<polygon
   points="0.375,8.095 7.254,15.341 7.406,15.341 0.375,7.931 "
   clip-path="url(#XMLID_9_)"
   id="polygon50"
   style="fill:#adb3bc" />
	<polygon
   points="7.406,15.341 0.375,7.931 0.375,7.771 7.559,15.341 "
   clip-path="url(#XMLID_9_)"
   id="polygon52"
   style="fill:#abb2bc" />
	<polygon
   points="7.559,15.341 0.375,7.771 0.375,7.606 7.711,15.341 "
   clip-path="url(#XMLID_9_)"
   id="polygon54"
   style="fill:#aab0ba" />
	<polygon
   points="7.711,15.341 0.375,7.606 0.375,7.446 7.867,15.341 "
   clip-path="url(#XMLID_9_)"
   id="polygon56"
   style="fill:#a8aeb8" />
	<polygon
   points="0.375,7.446 7.867,15.341 8.02,15.341 0.375,7.286 "
   clip-path="url(#XMLID_9_)"
   id="polygon58"
   style="fill:#a6adb7" />
	<polygon
   points="8.02,15.341 0.375,7.286 0.375,7.122 8.172,15.341 "
   clip-path="url(#XMLID_9_)"
   id="polygon60"
   style="fill:#a6acb6" />
	<polygon
   points="8.172,15.341 0.375,7.122 0.375,6.962 8.328,15.341 "
   clip-path="url(#XMLID_9_)"
   id="polygon62"
   style="fill:#a3aab4" />
	<polygon
   points="0.375,6.962 8.328,15.341 8.48,15.341 0.375,6.802 "
   clip-path="url(#XMLID_9_)"
   id="polygon64"
   style="fill:#a2a8b3" />
	<polygon
   points="8.48,15.341 0.375,6.802 0.375,6.638 8.633,15.341 "
   clip-path="url(#XMLID_9_)"
   id="polygon66"
   style="fill:#a0a7b1" />
	<polygon
   points="8.633,15.341 0.375,6.638 0.375,6.478 8.789,15.341 "
   clip-path="url(#XMLID_9_)"
   id="polygon68"
   style="fill:#9fa6b0" />
	<polygon
   points="8.789,15.341 0.375,6.478 0.375,6.317 8.938,15.341 "
   clip-path="url(#XMLID_9_)"
   id="polygon70"
   style="fill:#9ea4af" />
	<polygon
   points="8.938,15.341 0.375,6.317 0.375,6.153 9.094,15.341 "
   clip-path="url(#XMLID_9_)"
   id="polygon72"
   style="fill:#9ca3ae" />
	<polygon
   points="9.094,15.341 0.375,6.153 0.375,5.989 9.246,15.341 "
   clip-path="url(#XMLID_9_)"
   id="polygon74"
   style="fill:#9ba1ad" />
	<polygon
   points="9.246,15.341 0.375,5.989 0.375,5.829 9.398,15.341 "
   clip-path="url(#XMLID_9_)"
   id="polygon76"
   style="fill:#9aa0ab" />
	<polygon
   points="9.398,15.341 0.375,5.829 0.375,5.669 9.555,15.341 "
   clip-path="url(#XMLID_9_)"
   id="polygon78"
   style="fill:#989faa" />
	<polygon
   points="9.555,15.341 0.375,5.669 0.375,5.505 9.707,15.341 "
   clip-path="url(#XMLID_9_)"
   id="polygon80"
   style="fill:#979eaa" />
	<polygon
   points="9.707,15.341 0.375,5.505 0.375,5.345 9.859,15.341 "
   clip-path="url(#XMLID_9_)"
   id="polygon82"
   style="fill:#969ca8" />
	<polygon
   points="9.859,15.341 0.375,5.345 0.375,5.185 10.016,15.341 "
   clip-path="url(#XMLID_9_)"
   id="polygon84"
   style="fill:#949ba7" />
	<polygon
   points="0.375,5.185 10.016,15.341 10.168,15.341 0.375,5.021 "
   clip-path="url(#XMLID_9_)"
   id="polygon86"
   style="fill:#9399a5" />
	<polygon
   points="10.168,15.341 0.375,5.021 0.375,4.86 10.32,15.341 "
   clip-path="url(#XMLID_9_)"
   id="polygon88"
   style="fill:#9298a4" />
	<polygon
   points="0.375,4.86 10.32,15.341 10.473,15.341 0.375,4.696 "
   clip-path="url(#XMLID_9_)"
   id="polygon90"
   style="fill:#9097a3" />
	<polygon
   points="10.473,15.341 0.375,4.696 0.375,4.536 10.629,15.341 "
   clip-path="url(#XMLID_9_)"
   id="polygon92"
   style="fill:#8f95a2" />
	<polygon
   points="10.629,15.341 0.375,4.536 0.375,4.372 10.781,15.341 "
   clip-path="url(#XMLID_9_)"
   id="polygon94"
   style="fill:#8e95a1" />
	<polygon
   points="10.781,15.341 0.375,4.372 0.375,4.212 10.934,15.341 "
   clip-path="url(#XMLID_9_)"
   id="polygon96"
   style="fill:#8d93a0" />
	<polygon
   points="0.375,4.212 10.934,15.341 11.086,15.341 0.375,4.052 "
   clip-path="url(#XMLID_9_)"
   id="polygon98"
   style="fill:#8b929f" />
	<polygon
   points="11.086,15.341 0.375,4.052 0.375,3.888 11.242,15.341 "
   clip-path="url(#XMLID_9_)"
   id="polygon100"
   style="fill:#8a919e" />
	<polygon
   points="11.242,15.341 0.375,3.888 0.375,3.728 11.395,15.341 "
   clip-path="url(#XMLID_9_)"
   id="polygon102"
   style="fill:#898f9d" />
	<polygon
   points="11.395,15.341 0.375,3.728 0.375,3.567 11.547,15.341 "
   clip-path="url(#XMLID_9_)"
   id="polygon104"
   style="fill:#878e9b" />
	<polygon
   points="11.547,15.341 0.375,3.567 0.375,3.403 11.703,15.341 "
   clip-path="url(#XMLID_9_)"
   id="polygon106"
   style="fill:#878d9b" />
	<polygon
   points="11.703,15.341 0.375,3.403 0.375,3.243 11.855,15.341 "
   clip-path="url(#XMLID_9_)"
   id="polygon108"
   style="fill:#858c9a" />
	<polygon
   points="11.855,15.341 0.375,3.243 0.375,3.079 12.008,15.341 "
   clip-path="url(#XMLID_9_)"
   id="polygon110"
   style="fill:#848b98" />
	<polygon
   points="12.008,15.341 0.375,3.079 0.375,2.919 12.164,15.341 "
   clip-path="url(#XMLID_9_)"
   id="polygon112"
   style="fill:#838a97" />
	<polygon
   points="12.164,15.341 0.375,2.919 0.375,2.755 12.316,15.341 "
   clip-path="url(#XMLID_9_)"
   id="polygon114"
   style="fill:#828997" />
	<polygon
   points="12.316,15.341 0.375,2.755 0.375,2.595 12.469,15.341 "
   clip-path="url(#XMLID_9_)"
   id="polygon116"
   style="fill:#818895" />
	<polygon
   points="12.469,15.341 0.375,2.595 0.375,2.435 12.625,15.341 "
   clip-path="url(#XMLID_9_)"
   id="polygon118"
   style="fill:#808794" />
	<polygon
   points="12.625,15.341 0.375,2.435 0.375,2.271 12.773,15.341 "
   clip-path="url(#XMLID_9_)"
   id="polygon120"
   style="fill:#7e8594" />
	<polygon
   points="12.773,15.341 0.375,2.271 0.375,2.11 12.93,15.341 "
   clip-path="url(#XMLID_9_)"
   id="polygon122"
   style="fill:#7d8593" />
	<polygon
   points="12.93,15.341 0.375,2.11 0.375,1.95 13.082,15.341 "
   clip-path="url(#XMLID_9_)"
   id="polygon124"
   style="fill:#7c8392" />
	<polygon
   points="13.082,15.341 0.375,1.95 0.375,1.786 13.234,15.341 "
   clip-path="url(#XMLID_9_)"
   id="polygon126"
   style="fill:#7b8290" />
	<polygon
   points="13.234,15.341 0.375,1.786 0.375,1.626 13.391,15.341 "
   clip-path="url(#XMLID_9_)"
   id="polygon128"
   style="fill:#7a8190" />
	<polygon
   points="13.391,15.341 0.375,1.626 0.375,1.462 13.543,15.341 "
   clip-path="url(#XMLID_9_)"
   id="polygon130"
   style="fill:#79808f" />
	<polygon
   points="13.543,15.341 0.375,1.462 0.375,1.302 13.695,15.341 "
   clip-path="url(#XMLID_9_)"
   id="polygon132"
   style="fill:#787f8d" />
	<polygon
   points="13.695,15.341 0.375,1.302 0.375,1.138 13.852,15.341 "
   clip-path="url(#XMLID_9_)"
   id="polygon134"
   style="fill:#777e8d" />
	<polygon
   points="13.852,15.341 0.375,1.138 0.375,0.978 14.004,15.341 "
   clip-path="url(#XMLID_9_)"
   id="polygon136"
   style="fill:#767d8c" />
	<polygon
   points="14.004,15.341 0.375,0.978 0.375,0.817 14.156,15.341 "
   clip-path="url(#XMLID_9_)"
   id="polygon138"
   style="fill:#767c8b" />
	<polygon
   points="14.309,15.341 14.156,15.341 0.375,0.817 0.375,0.798 0.445,0.731 "
   clip-path="url(#XMLID_9_)"
   id="polygon140"
   style="fill:#747b8a" />
	<polygon
   points="14.461,15.341 14.309,15.341 0.445,0.731 0.527,0.653 "
   clip-path="url(#XMLID_9_)"
   id="polygon142"
   style="fill:#737a89" />
	<polygon
   points="14.617,15.341 14.461,15.341 0.527,0.653 0.609,0.575 "
   clip-path="url(#XMLID_9_)"
   id="polygon144"
   style="fill:#727989" />
	<polygon
   points="14.77,15.341 14.617,15.341 0.609,0.575 0.688,0.501 "
   clip-path="url(#XMLID_9_)"
   id="polygon146"
   style="fill:#717888" />
	<polygon
   points="14.914,15.333 14.898,15.341 14.77,15.341 0.688,0.501 0.77,0.423 "
   clip-path="url(#XMLID_9_)"
   id="polygon148"
   style="fill:#707786" />
	<polygon
   points="0.875,0.376 14.992,15.255 14.914,15.333 0.77,0.423 0.82,0.376 "
   clip-path="url(#XMLID_9_)"
   id="polygon150"
   style="fill:#6f7686" />
	<polygon
   points="14.992,15.255 0.875,0.376 1.031,0.376 15.074,15.177 "
   clip-path="url(#XMLID_9_)"
   id="polygon152"
   style="fill:#6d7585" />
	<polygon
   points="15.074,15.177 1.031,0.376 1.184,0.376 15.156,15.103 "
   clip-path="url(#XMLID_9_)"
   id="polygon154"
   style="fill:#6d7584" />
	<polygon
   points="15.156,15.103 1.184,0.376 1.336,0.376 15.234,15.024 "
   clip-path="url(#XMLID_9_)"
   id="polygon156"
   style="fill:#6c7383" />
	<polygon
   points="15.234,15.024 1.336,0.376 1.492,0.376 15.316,14.95 "
   clip-path="url(#XMLID_9_)"
   id="polygon158"
   style="fill:#6b7383" />
	<polygon
   points="15.344,14.919 15.316,14.95 1.492,0.376 1.645,0.376 15.344,14.817 "
   clip-path="url(#XMLID_9_)"
   id="polygon160"
   style="fill:#6a7281" />
	<polygon
   points="15.344,14.817 1.645,0.376 1.797,0.376 15.344,14.653 "
   clip-path="url(#XMLID_9_)"
   id="polygon162"
   style="fill:#697181" />
	<polygon
   points="15.344,14.653 1.797,0.376 1.949,0.376 15.344,14.493 "
   clip-path="url(#XMLID_9_)"
   id="polygon164"
   style="fill:#697080" />
	<polygon
   points="1.949,0.376 15.344,14.493 15.344,14.333 2.105,0.376 "
   clip-path="url(#XMLID_9_)"
   id="polygon166"
   style="fill:#686f7f" />
	<polygon
   points="15.344,14.333 2.105,0.376 2.258,0.376 15.344,14.169 "
   clip-path="url(#XMLID_9_)"
   id="polygon168"
   style="fill:#676e7e" />
	<polygon
   points="15.344,14.169 2.258,0.376 2.41,0.376 15.344,14.009 "
   clip-path="url(#XMLID_9_)"
   id="polygon170"
   style="fill:#656d7d" />
	<polygon
   points="15.344,14.009 2.41,0.376 2.562,0.376 15.344,13.845 "
   clip-path="url(#XMLID_9_)"
   id="polygon172"
   style="fill:#646c7d" />
	<polygon
   points="15.344,13.845 2.562,0.376 2.719,0.376 15.344,13.685 "
   clip-path="url(#XMLID_9_)"
   id="polygon174"
   style="fill:#646c7c" />
	<polygon
   points="15.344,13.685 2.719,0.376 2.871,0.376 15.344,13.521 "
   clip-path="url(#XMLID_9_)"
   id="polygon176"
   style="fill:#636b7c" />
	<polygon
   points="15.344,13.521 2.871,0.376 3.023,0.376 15.344,13.36 "
   clip-path="url(#XMLID_9_)"
   id="polygon178"
   style="fill:#626b7b" />
	<polygon
   points="3.023,0.376 15.344,13.36 15.344,13.2 3.18,0.376 "
   clip-path="url(#XMLID_9_)"
   id="polygon180"
   style="fill:#616a7a" />
	<polygon
   points="15.344,13.2 3.18,0.376 3.332,0.376 15.344,13.036 "
   clip-path="url(#XMLID_9_)"
   id="polygon182"
   style="fill:#606979" />
	<polygon
   points="3.332,0.376 15.344,13.036 15.344,12.876 3.484,0.376 "
   clip-path="url(#XMLID_9_)"
   id="polygon184"
   style="fill:#5f6878" />
	<polygon
   points="15.344,12.876 3.484,0.376 3.641,0.376 15.344,12.712 "
   clip-path="url(#XMLID_9_)"
   id="polygon186"
   style="fill:#5f6878" />
	<polygon
   points="15.344,12.712 3.641,0.376 3.789,0.376 15.344,12.552 "
   clip-path="url(#XMLID_9_)"
   id="polygon188"
   style="fill:#5e6777" />
	<polygon
   points="15.344,12.552 3.789,0.376 3.945,0.376 15.344,12.392 "
   clip-path="url(#XMLID_9_)"
   id="polygon190"
   style="fill:#5d6676" />
	<polygon
   points="15.344,12.392 3.945,0.376 4.098,0.376 15.344,12.228 "
   clip-path="url(#XMLID_9_)"
   id="polygon192"
   style="fill:#5c6576" />
	<polygon
   points="15.344,12.228 4.098,0.376 4.25,0.376 15.344,12.067 "
   clip-path="url(#XMLID_9_)"
   id="polygon194"
   style="fill:#5b6475" />
	<polygon
   points="15.344,12.067 4.25,0.376 4.406,0.376 15.344,11.903 "
   clip-path="url(#XMLID_9_)"
   id="polygon196"
   style="fill:#5b6475" />
	<polygon
   points="15.344,11.903 4.406,0.376 4.559,0.376 15.344,11.743 "
   clip-path="url(#XMLID_9_)"
   id="polygon198"
   style="fill:#5a6373" />
	<polygon
   points="15.344,11.743 4.559,0.376 4.711,0.376 15.344,11.583 "
   clip-path="url(#XMLID_9_)"
   id="polygon200"
   style="fill:#596273" />
	<polygon
   points="4.711,0.376 15.344,11.583 15.344,11.419 4.867,0.376 "
   clip-path="url(#XMLID_9_)"
   id="polygon202"
   style="fill:#586172" />
	<polygon
   points="15.344,11.419 4.867,0.376 5.02,0.376 15.344,11.259 "
   clip-path="url(#XMLID_9_)"
   id="polygon204"
   style="fill:#576172" />
	<polygon
   points="5.02,0.376 15.344,11.259 15.344,11.095 5.172,0.376 "
   clip-path="url(#XMLID_9_)"
   id="polygon206"
   style="fill:#566071" />
	<polygon
   points="15.344,11.095 5.172,0.376 5.328,0.376 15.344,10.935 "
   clip-path="url(#XMLID_9_)"
   id="polygon208"
   style="fill:#566070" />
	<polygon
   points="15.344,10.935 5.328,0.376 5.48,0.376 15.344,10.771 "
   clip-path="url(#XMLID_9_)"
   id="polygon210"
   style="fill:#555f70" />
	<polygon
   points="15.344,10.771 5.48,0.376 5.633,0.376 15.344,10.61 "
   clip-path="url(#XMLID_9_)"
   id="polygon212"
   style="fill:#545e6f" />
	<polygon
   points="15.344,10.61 5.633,0.376 5.785,0.376 15.344,10.45 "
   clip-path="url(#XMLID_9_)"
   id="polygon214"
   style="fill:#535e6f" />
	<polygon
   points="5.785,0.376 15.344,10.45 15.344,10.286 5.941,0.376 "
   clip-path="url(#XMLID_9_)"
   id="polygon216"
   style="fill:#535d6e" />
	<polygon
   points="15.344,10.286 5.941,0.376 6.094,0.376 15.344,10.126 "
   clip-path="url(#XMLID_9_)"
   id="polygon218"
   style="fill:#525c6d" />
	<polygon
   points="6.094,0.376 15.344,10.126 15.344,9.966 6.246,0.376 "
   clip-path="url(#XMLID_9_)"
   id="polygon220"
   style="fill:#515c6d" />
	<polygon
   points="15.344,9.966 6.246,0.376 6.398,0.376 15.344,9.802 "
   clip-path="url(#XMLID_9_)"
   id="polygon222"
   style="fill:#505b6c" />
	<polygon
   points="15.344,9.802 6.398,0.376 6.555,0.376 15.344,9.642 "
   clip-path="url(#XMLID_9_)"
   id="polygon224"
   style="fill:#505b6c" />
	<polygon
   points="15.344,9.642 6.555,0.376 6.707,0.376 15.344,9.481 "
   clip-path="url(#XMLID_9_)"
   id="polygon226"
   style="fill:#505a6b" />
	<polygon
   points="15.344,9.481 6.707,0.376 6.859,0.376 15.344,9.317 "
   clip-path="url(#XMLID_9_)"
   id="polygon228"
   style="fill:#4f596a" />
	<polygon
   points="6.859,0.376 15.344,9.317 15.344,9.153 7.016,0.376 "
   clip-path="url(#XMLID_9_)"
   id="polygon230"
   style="fill:#4e596a" />
	<polygon
   points="15.344,9.153 7.016,0.376 7.168,0.376 15.344,8.993 "
   clip-path="url(#XMLID_9_)"
   id="polygon232"
   style="fill:#4d5869" />
	<polygon
   points="7.168,0.376 15.344,8.993 15.344,8.833 7.32,0.376 "
   clip-path="url(#XMLID_9_)"
   id="polygon234"
   style="fill:#4c5869" />
	<polygon
   points="15.344,8.833 7.32,0.376 7.473,0.376 15.344,8.669 "
   clip-path="url(#XMLID_9_)"
   id="polygon236"
   style="fill:#4c5768" />
	<polygon
   points="15.344,8.669 7.473,0.376 7.625,0.376 15.344,8.509 "
   clip-path="url(#XMLID_9_)"
   id="polygon238"
   style="fill:#4b5768" />
	<polygon
   points="15.344,8.509 7.625,0.376 7.781,0.376 15.344,8.349 "
   clip-path="url(#XMLID_9_)"
   id="polygon240"
   style="fill:#4b5667" />
	<polygon
   points="15.344,8.349 7.781,0.376 7.934,0.376 15.344,8.185 "
   clip-path="url(#XMLID_9_)"
   id="polygon242"
   style="fill:#4a5567" />
	<polygon
   points="7.934,0.376 15.344,8.185 15.344,8.024 8.086,0.376 "
   clip-path="url(#XMLID_9_)"
   id="polygon244"
   style="fill:#495566" />
	<polygon
   points="15.344,8.024 8.086,0.376 8.242,0.376 15.344,7.864 "
   clip-path="url(#XMLID_9_)"
   id="polygon246"
   style="fill:#485566" />
	<polygon
   points="15.344,7.864 8.242,0.376 8.395,0.376 15.344,7.7 "
   clip-path="url(#XMLID_9_)"
   id="polygon248"
   style="fill:#485466" />
	<polygon
   points="15.344,7.7 8.395,0.376 8.547,0.376 15.344,7.536 "
   clip-path="url(#XMLID_9_)"
   id="polygon250"
   style="fill:#475365" />
	<polygon
   points="8.547,0.376 15.344,7.536 15.344,7.376 8.699,0.376 "
   clip-path="url(#XMLID_9_)"
   id="polygon252"
   style="fill:#475365" />
	<polygon
   points="15.344,7.376 8.699,0.376 8.855,0.376 15.344,7.216 "
   clip-path="url(#XMLID_9_)"
   id="polygon254"
   style="fill:#465264" />
	<polygon
   points="15.344,7.216 8.855,0.376 9.008,0.376 15.344,7.052 "
   clip-path="url(#XMLID_9_)"
   id="polygon256"
   style="fill:#455264" />
	<polygon
   points="15.344,7.052 9.008,0.376 9.16,0.376 15.344,6.892 "
   clip-path="url(#XMLID_9_)"
   id="polygon258"
   style="fill:#445263" />
	<polygon
   points="15.344,6.892 9.16,0.376 9.312,0.376 15.344,6.731 "
   clip-path="url(#XMLID_9_)"
   id="polygon260"
   style="fill:#445163" />
	<polygon
   points="15.344,6.731 9.312,0.376 9.469,0.376 15.344,6.567 "
   clip-path="url(#XMLID_9_)"
   id="polygon262"
   style="fill:#445062" />
	<polygon
   points="15.344,6.567 9.469,0.376 9.621,0.376 15.344,6.407 "
   clip-path="url(#XMLID_9_)"
   id="polygon264"
   style="fill:#425062" />
	<polygon
   points="15.344,6.407 9.621,0.376 9.773,0.376 15.344,6.247 "
   clip-path="url(#XMLID_9_)"
   id="polygon266"
   style="fill:#425062" />
	<polygon
   points="15.344,6.247 9.773,0.376 9.93,0.376 15.344,6.083 "
   clip-path="url(#XMLID_9_)"
   id="polygon268"
   style="fill:#424f61" />
	<polygon
   points="15.344,6.083 9.93,0.376 10.082,0.376 15.344,5.923 "
   clip-path="url(#XMLID_9_)"
   id="polygon270"
   style="fill:#414f61" />
	<polygon
   points="15.344,5.923 10.082,0.376 10.234,0.376 15.344,5.759 "
   clip-path="url(#XMLID_9_)"
   id="polygon272"
   style="fill:#404e60" />
	<polygon
   points="10.234,0.376 15.344,5.759 15.344,5.599 10.391,0.376 "
   clip-path="url(#XMLID_9_)"
   id="polygon274"
   style="fill:#3f4e60" />
	<polygon
   points="15.344,5.599 10.391,0.376 10.543,0.376 15.344,5.435 "
   clip-path="url(#XMLID_9_)"
   id="polygon276"
   style="fill:#3f4d60" />
	<polygon
   points="15.344,5.435 10.543,0.376 10.695,0.376 15.344,5.274 "
   clip-path="url(#XMLID_9_)"
   id="polygon278"
   style="fill:#3f4d5f" />
	<polygon
   points="15.344,5.274 10.695,0.376 10.852,0.376 15.344,5.114 "
   clip-path="url(#XMLID_9_)"
   id="polygon280"
   style="fill:#3e4d5f" />
	<polygon
   points="15.344,5.114 10.852,0.376 11.004,0.376 15.344,4.95 "
   clip-path="url(#XMLID_9_)"
   id="polygon282"
   style="fill:#3e4c5e" />
	<polygon
   points="11.004,0.376 15.344,4.95 15.344,4.79 11.156,0.376 "
   clip-path="url(#XMLID_9_)"
   id="polygon284"
   style="fill:#3d4c5e" />
	<polygon
   points="15.344,4.79 11.156,0.376 11.309,0.376 15.344,4.626 "
   clip-path="url(#XMLID_9_)"
   id="polygon286"
   style="fill:#3d4c5e" />
	<polygon
   points="15.344,4.626 11.309,0.376 11.461,0.376 15.344,4.466 "
   clip-path="url(#XMLID_9_)"
   id="polygon288"
   style="fill:#3c4b5d" />
	<polygon
   points="15.344,4.466 11.461,0.376 11.617,0.376 15.344,4.306 "
   clip-path="url(#XMLID_9_)"
   id="polygon290"
   style="fill:#3c4b5d" />
	<polygon
   points="11.617,0.376 15.344,4.306 15.344,4.142 11.77,0.376 "
   clip-path="url(#XMLID_9_)"
   id="polygon292"
   style="fill:#3c4b5d" />
	<polygon
   points="15.344,4.142 11.77,0.376 11.922,0.376 15.344,3.981 "
   clip-path="url(#XMLID_9_)"
   id="polygon294"
   style="fill:#3b4a5c" />
	<polygon
   points="15.344,3.981 11.922,0.376 12.078,0.376 15.344,3.817 "
   clip-path="url(#XMLID_9_)"
   id="polygon296"
   style="fill:#3b4a5c" />
	<polygon
   points="15.344,3.817 12.078,0.376 12.23,0.376 15.344,3.657 "
   clip-path="url(#XMLID_9_)"
   id="polygon298"
   style="fill:#3a495c" />
	<polygon
   points="15.344,3.657 12.23,0.376 12.383,0.376 15.344,3.497 "
   clip-path="url(#XMLID_9_)"
   id="polygon300"
   style="fill:#3a495b" />
	<polygon
   points="15.344,3.497 12.383,0.376 12.539,0.376 15.344,3.333 "
   clip-path="url(#XMLID_9_)"
   id="polygon302"
   style="fill:#39495b" />
	<polygon
   points="15.344,3.333 12.539,0.376 12.691,0.376 15.344,3.173 "
   clip-path="url(#XMLID_9_)"
   id="polygon304"
   style="fill:#38495b" />
	<polygon
   points="15.344,3.173 12.691,0.376 12.844,0.376 15.344,3.013 "
   clip-path="url(#XMLID_9_)"
   id="polygon306"
   style="fill:#38485b" />
	<polygon
   points="12.844,0.376 15.344,3.013 15.344,2.849 12.996,0.376 "
   clip-path="url(#XMLID_9_)"
   id="polygon308"
   style="fill:#38485a" />
	<polygon
   points="15.344,2.849 12.996,0.376 13.148,0.376 15.344,2.688 "
   clip-path="url(#XMLID_9_)"
   id="polygon310"
   style="fill:#37485a" />
	<polygon
   points="15.344,2.688 13.148,0.376 13.305,0.376 15.344,2.524 "
   clip-path="url(#XMLID_9_)"
   id="polygon312"
   style="fill:#38475a" />
	<polygon
   points="15.344,2.524 13.305,0.376 13.457,0.376 15.344,2.364 "
   clip-path="url(#XMLID_9_)"
   id="polygon314"
   style="fill:#37475a" />
	<polygon
   points="15.344,2.364 13.457,0.376 13.609,0.376 15.344,2.2 "
   clip-path="url(#XMLID_9_)"
   id="polygon316"
   style="fill:#374659" />
	<polygon
   points="13.609,0.376 15.344,2.2 15.344,2.04 13.766,0.376 "
   clip-path="url(#XMLID_9_)"
   id="polygon318"
   style="fill:#364659" />
	<polygon
   points="15.344,2.04 13.766,0.376 13.918,0.376 15.344,1.88 "
   clip-path="url(#XMLID_9_)"
   id="polygon320"
   style="fill:#364659" />
	<polygon
   points="15.344,1.88 13.918,0.376 14.07,0.376 15.344,1.716 "
   clip-path="url(#XMLID_9_)"
   id="polygon322"
   style="fill:#364659" />
	<polygon
   points="14.07,0.376 15.344,1.716 15.344,1.556 14.223,0.376 "
   clip-path="url(#XMLID_9_)"
   id="polygon324"
   style="fill:#354659" />
	<polygon
   points="15.344,1.556 14.223,0.376 14.379,0.376 15.344,1.396 "
   clip-path="url(#XMLID_9_)"
   id="polygon326"
   style="fill:#354659" />
	<polygon
   points="15.344,1.396 14.379,0.376 14.531,0.376 15.344,1.231 "
   clip-path="url(#XMLID_9_)"
   id="polygon328"
   style="fill:#354658" />
	<polygon
   points="15.344,1.231 14.531,0.376 14.684,0.376 15.344,1.071 "
   clip-path="url(#XMLID_9_)"
   id="polygon330"
   style="fill:#344558" />
	<polygon
   points="15.344,1.071 14.684,0.376 14.836,0.376 15.344,0.907 "
   clip-path="url(#XMLID_9_)"
   id="polygon332"
   style="fill:#344558" />
	<polygon
   points="15.344,0.907 14.836,0.376 14.992,0.376 15.344,0.747 "
   clip-path="url(#XMLID_9_)"
   id="polygon334"
   style="fill:#344558" />
	<polygon
   points="15.344,0.747 14.992,0.376 15.145,0.376 15.344,0.583 "
   clip-path="url(#XMLID_9_)"
   id="polygon336"
   style="fill:#344558" />
	<polygon
   points="15.344,0.376 15.344,0.583 15.145,0.376 "
   clip-path="url(#XMLID_9_)"
   id="polygon338"
   style="fill:#344558" />
</g>
<path
   d="m 14.969,7.858 c 0,3.92 -3.189,7.109 -7.109,7.109 -3.92,0 -7.11,-3.189 -7.11,-7.109 0,-3.92 3.189,-7.108 7.109,-7.108 3.92,0 7.11,3.188 7.11,7.108 z M 7.859,0 C 3.525,0 0,3.525 0,7.858 c 0,4.334 3.525,7.859 7.859,7.859 4.334,0 7.859,-3.525 7.859,-7.859 C 15.719,3.525 12.193,0 7.859,0 z"
   id="path340"
   style="fill:#aeadae" />
<path
   d="m 5.208,4.142 v 7.601 H 4.163 V 6.341 H 2.414 V 5.582 C 2.898,5.571 4.13,5.538 4.405,4.142 h 0.803 z"
   id="path342"
   style="fill:#ffffff" />

<path
   d="m 7.5491878,5.2803669 v -1.001 h 5.0050002 v 0.88 c -0.352,0.374 -0.858,0.924 -1.518,2.134 -0.595,1.078 -1.134,2.299 -1.431,4.5980001 H 8.4621878 c 0.065,-0.583 0.197,-1.089 0.242,-1.31 0.197,-0.7800001 0.429,-1.4840001 0.7910002,-2.2760001 0.836,-1.892 1.596,-2.706 1.893,-3.025 H 7.5491878 z"
   id="path342-0"
   style="fill:#ffffff" /></svg>