<?xml version="1.0" encoding="utf-8"?>
<!-- Generator: Adobe Illustrator 13.0.1, SVG Export Plug-In  -->
<!DOCTYPE svg PUBLIC "-//W3C//DTD SVG 1.1//EN" "http://www.w3.org/Graphics/SVG/1.1/DTD/svg11.dtd" [
	<!ENTITY ns_flows "http://ns.adobe.com/Flows/1.0/">
]>
<svg version="1.1"
	 xmlns="http://www.w3.org/2000/svg" xmlns:xlink="http://www.w3.org/1999/xlink" xmlns:a="http://ns.adobe.com/AdobeSVGViewerExtensions/3.0/"
	 x="0px" y="0px" width="17px" height="17px" viewBox="-0.466 -0.308 17 17" enable-background="new -0.466 -0.308 17 17"
	 xml:space="preserve">
<defs>
</defs>
<linearGradient id="SVGID_1_" gradientUnits="userSpaceOnUse" x1="1.5347" y1="7.9834" x2="19.5342" y2="7.9834">
	<stop  offset="0" style="stop-color:#243446"/>
	<stop  offset="1" style="stop-color:#506167"/>
</linearGradient>
<circle fill="url(#SVGID_1_)" stroke="#919B9E" cx="7.984" cy="7.984" r="7.484"/>
<path fill="#EDF1F2" d="M4.849,4.355v7.95H3.756V6.656h-1.83V5.862c0.506-0.011,1.795-0.046,2.083-1.507H4.849z"/>
<path fill="#EDF1F2" d="M13.164,11.305v1.001H7.7v-1.104l0.184-0.161c0.265-0.241,0.529-0.483,0.794-0.713
	c0.276-0.254,0.575-0.495,0.851-0.736c1.508-1.277,2.29-1.979,2.29-3.015c0-0.288-0.104-1.369-1.461-1.369
	c-1.174,0-1.427,0.84-1.507,1.185C8.77,6.749,8.781,7.002,8.792,7.267L7.677,7.209c0-0.288,0-0.736,0.16-1.242
	c0.369-1.128,1.301-1.715,2.566-1.715c1.795,0,2.531,1.128,2.531,2.278c0,1.196-0.668,2.105-2.256,3.405
	c-0.275,0.219-0.54,0.438-0.816,0.656c-0.115,0.104-0.701,0.598-0.84,0.713H13.164z"/>
</svg>
