<?xml version="1.0" encoding="utf-8"?>
<!-- Generator: Adobe Illustrator 13.0.1, SVG Export Plug-In  -->
<!DOCTYPE svg PUBLIC "-//W3C//DTD SVG 1.1//EN" "http://www.w3.org/Graphics/SVG/1.1/DTD/svg11.dtd" [
	<!ENTITY ns_flows "http://ns.adobe.com/Flows/1.0/">
]>
<svg version="1.1"
	 xmlns="http://www.w3.org/2000/svg" xmlns:xlink="http://www.w3.org/1999/xlink" xmlns:a="http://ns.adobe.com/AdobeSVGViewerExtensions/3.0/"
	 x="0px" y="0px" width="17px" height="16px" viewBox="-0.466 -0.008 17 16" enable-background="new -0.466 -0.008 17 16"
	 xml:space="preserve">
<defs>
</defs>
<linearGradient id="SVGID_1_" gradientUnits="userSpaceOnUse" x1="1.5347" y1="7.9839" x2="19.5342" y2="7.9839">
	<stop  offset="0" style="stop-color:#243446"/>
	<stop  offset="1" style="stop-color:#506167"/>
</linearGradient>
<circle fill="url(#SVGID_1_)" stroke="#919B9E" cx="7.984" cy="7.984" r="7.484"/>
<path fill="#EDF1F2" d="M4.849,4.354v7.95H3.756V6.655h-1.83V5.861c0.506-0.011,1.795-0.046,2.083-1.507H4.849z"/>
<path fill="#EDF1F2" d="M9.679,7.622c0.438,0.012,1.081,0.034,1.473-0.161c0.241-0.127,0.621-0.426,0.621-1.047
	c0-0.828-0.645-1.22-1.404-1.22c-0.562,0-0.932,0.195-1.139,0.38C8.792,5.966,8.735,6.575,8.712,6.852L7.653,6.782
	C7.723,5.977,7.976,5.286,8.597,4.78c0.334-0.265,0.909-0.552,1.795-0.552c1.737,0,2.485,1.093,2.485,2.128
	c0,0.483-0.173,0.943-0.46,1.254c-0.254,0.265-0.529,0.392-0.69,0.46c1.035,0.265,1.438,1.174,1.438,1.91s-0.356,1.438-0.908,1.853
	c-0.322,0.265-0.955,0.587-2.002,0.587c-0.438,0-1.243-0.046-1.921-0.563c-0.91-0.68-0.979-1.681-1.001-2.152l1.082-0.092
	c0,0.173,0.012,0.483,0.16,0.852c0.415,0.989,1.301,1.013,1.646,1.013c1.794,0,1.829-1.347,1.829-1.53
	c0-0.23-0.046-0.46-0.161-0.667c-0.38-0.668-1.186-0.702-1.691-0.702c-0.069,0-0.219,0-0.518,0.012V7.622z"/>
</svg>
