<?xml version="1.0" encoding="utf-8"?>
<!-- Generator: Adobe Illustrator 13.0.1, SVG Export Plug-In  -->
<!DOCTYPE svg PUBLIC "-//W3C//DTD SVG 1.1//EN" "http://www.w3.org/Graphics/SVG/1.1/DTD/svg11.dtd" [
	<!ENTITY ns_flows "http://ns.adobe.com/Flows/1.0/">
]>
<svg version="1.1"
	 xmlns="http://www.w3.org/2000/svg" xmlns:xlink="http://www.w3.org/1999/xlink" xmlns:a="http://ns.adobe.com/AdobeSVGViewerExtensions/3.0/"
	 x="0px" y="0px" width="17px" height="17px" viewBox="-0.232 -0.308 17 17" enable-background="new -0.232 -0.308 17 17"
	 xml:space="preserve">
<defs>
</defs>
<linearGradient id="SVGID_1_" gradientUnits="userSpaceOnUse" x1="0.7681" y1="7.9834" x2="18.7676" y2="7.9834">
	<stop  offset="0" style="stop-color:#243446"/>
	<stop  offset="1" style="stop-color:#506167"/>
</linearGradient>
<circle fill="url(#SVGID_1_)" stroke="#919B9E" cx="7.985" cy="7.984" r="7.485"/>
<path fill="#EDF1F2" d="M10.866,11.304v1H5.402V11.2l0.184-0.162c0.265-0.241,0.529-0.482,0.794-0.713
	c0.276-0.253,0.575-0.494,0.851-0.736c1.507-1.277,2.29-1.979,2.29-3.014c0-0.288-0.104-1.369-1.461-1.369
	c-1.174,0-1.427,0.84-1.507,1.185C6.472,6.747,6.483,7,6.495,7.265L5.379,7.208c0-0.288,0-0.736,0.161-1.243
	C5.908,4.837,6.84,4.25,8.105,4.25c1.795,0,2.531,1.127,2.531,2.278c0,1.197-0.668,2.105-2.256,3.406
	c-0.275,0.219-0.54,0.437-0.816,0.655c-0.115,0.104-0.702,0.599-0.84,0.714H10.866z"/>
</svg>
