<?xml version="1.0" encoding="utf-8"?>
<!-- Generator: Adobe Illustrator 13.0.1, SVG Export Plug-In  -->
<!DOCTYPE svg PUBLIC "-//W3C//DTD SVG 1.1//EN" "http://www.w3.org/Graphics/SVG/1.1/DTD/svg11.dtd" [
	<!ENTITY ns_flows "http://ns.adobe.com/Flows/1.0/">
]>
<svg version="1.1"
	 xmlns="http://www.w3.org/2000/svg" xmlns:xlink="http://www.w3.org/1999/xlink" xmlns:a="http://ns.adobe.com/AdobeSVGViewerExtensions/3.0/"
	 x="0px" y="0px" width="17px" height="17px" viewBox="-0.232 -0.408 17 17" enable-background="new -0.232 -0.408 17 17"
	 xml:space="preserve">
<defs>
</defs>
<linearGradient id="SVGID_1_" gradientUnits="userSpaceOnUse" x1="0.7681" y1="7.9844" x2="18.7676" y2="7.9844">
	<stop  offset="0" style="stop-color:#243446"/>
	<stop  offset="1" style="stop-color:#506167"/>
</linearGradient>
<circle fill="url(#SVGID_1_)" stroke="#919B9E" cx="7.985" cy="7.983" r="7.485"/>
<path fill="#EDF1F2" d="M10.59,4.365v0.989H7.001L6.667,7.471c0.495-0.357,0.978-0.506,1.599-0.506c1.68,0,2.646,1.266,2.646,2.692
	c0,1.68-1.22,2.784-2.877,2.784c-0.656,0-1.357-0.195-1.817-0.575c-0.748-0.599-0.84-1.496-0.875-1.876l1.093-0.068
	c0.012,0.172,0.035,0.448,0.161,0.713c0.242,0.541,0.782,0.852,1.472,0.852c1.231,0,1.738-0.967,1.738-1.818
	c0-0.954-0.621-1.771-1.761-1.771c-0.932,0-1.369,0.495-1.622,0.794L5.517,8.645l0.61-4.28H10.59z"/>
</svg>
