<?xml version="1.0" encoding="utf-8"?>
<!-- Generator: Adobe Illustrator 13.0.1, SVG Export Plug-In  -->
<!DOCTYPE svg PUBLIC "-//W3C//DTD SVG 1.1//EN" "http://www.w3.org/Graphics/SVG/1.1/DTD/svg11.dtd" [
	<!ENTITY ns_flows "http://ns.adobe.com/Flows/1.0/">
]>
<svg version="1.1"
	 xmlns="http://www.w3.org/2000/svg" xmlns:xlink="http://www.w3.org/1999/xlink" xmlns:a="http://ns.adobe.com/AdobeSVGViewerExtensions/3.0/"
	 x="0px" y="0px" width="17px" height="17px" viewBox="-0.232 -0.508 17 17" enable-background="new -0.232 -0.508 17 17"
	 xml:space="preserve">
<defs>
</defs>
<linearGradient id="SVGID_1_" gradientUnits="userSpaceOnUse" x1="0.7681" y1="7.9844" x2="18.7676" y2="7.9844">
	<stop  offset="0" style="stop-color:#243446"/>
	<stop  offset="1" style="stop-color:#506167"/>
</linearGradient>
<circle fill="url(#SVGID_1_)" stroke="#919B9E" cx="7.985" cy="7.984" r="7.485"/>
<path fill="#EDF1F2" d="M10.97,9.968c0,1.45-1.046,2.439-2.864,2.439c-1.622,0-2.98-0.782-2.98-2.462c0-0.46,0.104-1.07,0.667-1.6
	c0.345-0.311,0.621-0.402,0.805-0.472c-0.149-0.058-0.379-0.161-0.61-0.402C5.678,7.138,5.505,6.644,5.505,6.183
	c0-0.621,0.299-1.208,0.817-1.576c0.609-0.437,1.38-0.46,1.737-0.46c2.52,0,2.611,1.864,2.611,2.082c0,0.426-0.161,1.22-1.093,1.646
	C9.957,8.059,10.97,8.553,10.97,9.968z M9.889,9.922c0-0.852-0.701-1.519-1.863-1.519c-1.024,0-1.807,0.563-1.807,1.53
	c0,0.852,0.633,1.519,1.829,1.519C9.602,11.452,9.889,10.405,9.889,9.922z M8.082,5.067c-0.287,0-0.529,0.022-0.748,0.104
	C6.725,5.4,6.552,5.872,6.552,6.275c0,0.609,0.426,1.208,1.507,1.208c1.415,0,1.519-0.943,1.519-1.22
	C9.578,5.757,9.291,5.067,8.082,5.067z"/>
</svg>
